%TF.GenerationSoftware,KiCad,Pcbnew,6.0.11-2627ca5db0~126~ubuntu22.04.1*%
%TF.CreationDate,2024-07-04T08:26:33+02:00*%
%TF.ProjectId,MCM-81339,4d434d2d-3831-4333-9339-2e6b69636164,rev?*%
%TF.SameCoordinates,Original*%
%TF.FileFunction,Soldermask,Top*%
%TF.FilePolarity,Negative*%
%FSLAX46Y46*%
G04 Gerber Fmt 4.6, Leading zero omitted, Abs format (unit mm)*
G04 Created by KiCad (PCBNEW 6.0.11-2627ca5db0~126~ubuntu22.04.1) date 2024-07-04 08:26:33*
%MOMM*%
%LPD*%
G01*
G04 APERTURE LIST*
G04 Aperture macros list*
%AMRoundRect*
0 Rectangle with rounded corners*
0 $1 Rounding radius*
0 $2 $3 $4 $5 $6 $7 $8 $9 X,Y pos of 4 corners*
0 Add a 4 corners polygon primitive as box body*
4,1,4,$2,$3,$4,$5,$6,$7,$8,$9,$2,$3,0*
0 Add four circle primitives for the rounded corners*
1,1,$1+$1,$2,$3*
1,1,$1+$1,$4,$5*
1,1,$1+$1,$6,$7*
1,1,$1+$1,$8,$9*
0 Add four rect primitives between the rounded corners*
20,1,$1+$1,$2,$3,$4,$5,0*
20,1,$1+$1,$4,$5,$6,$7,0*
20,1,$1+$1,$6,$7,$8,$9,0*
20,1,$1+$1,$8,$9,$2,$3,0*%
%AMFreePoly0*
4,1,9,3.862500,-0.866500,0.737500,-0.866500,0.737500,-0.450000,-0.737500,-0.450000,-0.737500,0.450000,0.737500,0.450000,0.737500,0.866500,3.862500,0.866500,3.862500,-0.866500,3.862500,-0.866500,$1*%
G04 Aperture macros list end*
%ADD10C,0.150000*%
%ADD11RoundRect,0.140000X0.170000X-0.140000X0.170000X0.140000X-0.170000X0.140000X-0.170000X-0.140000X0*%
%ADD12RoundRect,0.150000X0.150000X-0.825000X0.150000X0.825000X-0.150000X0.825000X-0.150000X-0.825000X0*%
%ADD13R,3.300000X2.410000*%
%ADD14R,0.450000X0.600000*%
%ADD15RoundRect,0.135000X-0.185000X0.135000X-0.185000X-0.135000X0.185000X-0.135000X0.185000X0.135000X0*%
%ADD16RoundRect,0.250000X0.325000X0.650000X-0.325000X0.650000X-0.325000X-0.650000X0.325000X-0.650000X0*%
%ADD17RoundRect,0.200000X-0.275000X0.200000X-0.275000X-0.200000X0.275000X-0.200000X0.275000X0.200000X0*%
%ADD18R,0.600000X0.450000*%
%ADD19RoundRect,0.250000X0.250000X0.475000X-0.250000X0.475000X-0.250000X-0.475000X0.250000X-0.475000X0*%
%ADD20RoundRect,0.218750X-0.256250X0.218750X-0.256250X-0.218750X0.256250X-0.218750X0.256250X0.218750X0*%
%ADD21RoundRect,0.218750X0.218750X0.256250X-0.218750X0.256250X-0.218750X-0.256250X0.218750X-0.256250X0*%
%ADD22RoundRect,0.135000X0.135000X0.185000X-0.135000X0.185000X-0.135000X-0.185000X0.135000X-0.185000X0*%
%ADD23RoundRect,0.425000X-1.125000X-0.425000X1.125000X-0.425000X1.125000X0.425000X-1.125000X0.425000X0*%
%ADD24R,0.500000X0.500000*%
%ADD25RoundRect,0.135000X-0.135000X-0.185000X0.135000X-0.185000X0.135000X0.185000X-0.135000X0.185000X0*%
%ADD26R,1.700000X1.700000*%
%ADD27O,1.700000X1.700000*%
%ADD28R,1.350000X1.350000*%
%ADD29O,1.350000X1.350000*%
%ADD30RoundRect,0.140000X-0.140000X-0.170000X0.140000X-0.170000X0.140000X0.170000X-0.140000X0.170000X0*%
%ADD31RoundRect,0.250000X-0.250000X-0.475000X0.250000X-0.475000X0.250000X0.475000X-0.250000X0.475000X0*%
%ADD32C,1.000000*%
%ADD33RoundRect,0.140000X0.140000X0.170000X-0.140000X0.170000X-0.140000X-0.170000X0.140000X-0.170000X0*%
%ADD34R,0.900000X1.300000*%
%ADD35FreePoly0,90.000000*%
%ADD36RoundRect,0.135000X0.185000X-0.135000X0.185000X0.135000X-0.185000X0.135000X-0.185000X-0.135000X0*%
%ADD37RoundRect,0.200000X0.200000X0.275000X-0.200000X0.275000X-0.200000X-0.275000X0.200000X-0.275000X0*%
%ADD38C,1.200000*%
%ADD39R,1.500000X0.900000*%
%ADD40R,0.900000X1.500000*%
%ADD41R,4.000000X4.000000*%
%ADD42RoundRect,0.062500X0.062500X-0.350000X0.062500X0.350000X-0.062500X0.350000X-0.062500X-0.350000X0*%
%ADD43RoundRect,0.062500X0.350000X-0.062500X0.350000X0.062500X-0.350000X0.062500X-0.350000X-0.062500X0*%
%ADD44R,2.600000X2.600000*%
%ADD45RoundRect,0.425000X-0.425000X1.125000X-0.425000X-1.125000X0.425000X-1.125000X0.425000X1.125000X0*%
%ADD46R,0.250000X0.360000*%
%ADD47RoundRect,0.150000X-0.150000X0.725000X-0.150000X-0.725000X0.150000X-0.725000X0.150000X0.725000X0*%
%ADD48RoundRect,0.225000X-0.225000X-0.250000X0.225000X-0.250000X0.225000X0.250000X-0.225000X0.250000X0*%
%ADD49C,0.900000*%
%ADD50R,2.500000X0.500000*%
%ADD51R,2.500000X2.000000*%
%ADD52R,0.360000X0.250000*%
%ADD53RoundRect,0.250000X0.650000X-0.325000X0.650000X0.325000X-0.650000X0.325000X-0.650000X-0.325000X0*%
%ADD54RoundRect,0.140000X-0.170000X0.140000X-0.170000X-0.140000X0.170000X-0.140000X0.170000X0.140000X0*%
%ADD55R,0.650000X0.400000*%
%ADD56RoundRect,0.225000X-0.250000X0.225000X-0.250000X-0.225000X0.250000X-0.225000X0.250000X0.225000X0*%
%ADD57RoundRect,0.350000X-1.750000X-0.350000X1.750000X-0.350000X1.750000X0.350000X-1.750000X0.350000X0*%
%ADD58RoundRect,0.150000X0.512500X0.150000X-0.512500X0.150000X-0.512500X-0.150000X0.512500X-0.150000X0*%
%ADD59R,1.600000X0.300000*%
%ADD60R,1.800000X4.400000*%
%ADD61O,1.800000X4.000000*%
%ADD62O,4.000000X1.800000*%
%ADD63RoundRect,0.250000X1.100000X-0.325000X1.100000X0.325000X-1.100000X0.325000X-1.100000X-0.325000X0*%
G04 APERTURE END LIST*
D10*
X61000000Y-103050000D02*
X62250000Y-103050000D01*
X62250000Y-103050000D02*
X62250000Y-104300000D01*
X62250000Y-104300000D02*
X61000000Y-104300000D01*
X61000000Y-104300000D02*
X61000000Y-103050000D01*
G36*
X61000000Y-103050000D02*
G01*
X62250000Y-103050000D01*
X62250000Y-104300000D01*
X61000000Y-104300000D01*
X61000000Y-103050000D01*
G37*
X94750000Y-103050000D02*
X96000000Y-103050000D01*
X96000000Y-103050000D02*
X96000000Y-104300000D01*
X96000000Y-104300000D02*
X94750000Y-104300000D01*
X94750000Y-104300000D02*
X94750000Y-103050000D01*
G36*
X94750000Y-103050000D02*
G01*
X96000000Y-103050000D01*
X96000000Y-104300000D01*
X94750000Y-104300000D01*
X94750000Y-103050000D01*
G37*
X61000000Y-79800000D02*
X72900000Y-79800000D01*
X72900000Y-79800000D02*
X72900000Y-84900000D01*
X72900000Y-84900000D02*
X61000000Y-84900000D01*
X61000000Y-84900000D02*
X61000000Y-79800000D01*
G36*
X61000000Y-79800000D02*
G01*
X72900000Y-79800000D01*
X72900000Y-84900000D01*
X61000000Y-84900000D01*
X61000000Y-79800000D01*
G37*
D11*
%TO.C,C8*%
X90478200Y-80693000D03*
X90478200Y-79733000D03*
%TD*%
D12*
%TO.C,U8*%
X67845000Y-97475000D03*
X69115000Y-97475000D03*
X70385000Y-97475000D03*
X71655000Y-97475000D03*
X71655000Y-92525000D03*
X70385000Y-92525000D03*
X69115000Y-92525000D03*
X67845000Y-92525000D03*
D13*
X69750000Y-95000000D03*
%TD*%
D14*
%TO.C,D4*%
X71729600Y-52696400D03*
X71729600Y-54796400D03*
%TD*%
D15*
%TO.C,R4*%
X94996000Y-67490000D03*
X94996000Y-68510000D03*
%TD*%
D16*
%TO.C,C21*%
X83475000Y-90500000D03*
X80525000Y-90500000D03*
%TD*%
D17*
%TO.C,R18*%
X83667600Y-82639400D03*
X83667600Y-84289400D03*
%TD*%
D18*
%TO.C,D17*%
X63542200Y-95021400D03*
X65642200Y-95021400D03*
%TD*%
D19*
%TO.C,C23*%
X83627000Y-97002600D03*
X81727000Y-97002600D03*
%TD*%
D20*
%TO.C,D10*%
X93573600Y-45312500D03*
X93573600Y-46887500D03*
%TD*%
D21*
%TO.C,D1*%
X67360900Y-45593000D03*
X65785900Y-45593000D03*
%TD*%
D15*
%TO.C,R3*%
X93167200Y-56538400D03*
X93167200Y-57558400D03*
%TD*%
D22*
%TO.C,R24*%
X72610000Y-67600000D03*
X71590000Y-67600000D03*
%TD*%
D23*
%TO.C,J1*%
X94200000Y-98300000D03*
X94200000Y-95760000D03*
X94200000Y-93220000D03*
X94200000Y-90680000D03*
%TD*%
D24*
%TO.C,D15*%
X65500000Y-88400000D03*
X65500000Y-86200000D03*
%TD*%
D25*
%TO.C,R30*%
X89240000Y-84300000D03*
X90260000Y-84300000D03*
%TD*%
D15*
%TO.C,R27*%
X72364600Y-60119800D03*
X72364600Y-61139800D03*
%TD*%
D17*
%TO.C,R29*%
X87000000Y-86475000D03*
X87000000Y-88125000D03*
%TD*%
D25*
%TO.C,R20*%
X82808000Y-80340000D03*
X83828000Y-80340000D03*
%TD*%
D26*
%TO.C,J6*%
X75960000Y-84460000D03*
D27*
X78500000Y-84460000D03*
X81040000Y-84460000D03*
%TD*%
D23*
%TO.C,J4*%
X94200000Y-78300000D03*
X94200000Y-80840000D03*
X94200000Y-83380000D03*
X94200000Y-85920000D03*
%TD*%
D24*
%TO.C,D9*%
X84800000Y-68850000D03*
X82600000Y-68850000D03*
%TD*%
D28*
%TO.C,J3*%
X95000000Y-52100000D03*
D29*
X95000000Y-54100000D03*
X95000000Y-56100000D03*
X95000000Y-58100000D03*
X95000000Y-60100000D03*
X95000000Y-62100000D03*
%TD*%
D30*
%TO.C,C4*%
X70995600Y-55880000D03*
X71955600Y-55880000D03*
%TD*%
D31*
%TO.C,C18*%
X79350000Y-81100000D03*
X81250000Y-81100000D03*
%TD*%
D22*
%TO.C,R16*%
X90260000Y-83250000D03*
X89240000Y-83250000D03*
%TD*%
D15*
%TO.C,R13*%
X93167200Y-62482000D03*
X93167200Y-63502000D03*
%TD*%
D11*
%TO.C,C17*%
X70104000Y-49502000D03*
X70104000Y-48542000D03*
%TD*%
D25*
%TO.C,R25*%
X71590000Y-66450000D03*
X72610000Y-66450000D03*
%TD*%
D32*
%TO.C,FID1*%
X61518800Y-44754800D03*
%TD*%
D33*
%TO.C,C13*%
X72108000Y-47490000D03*
X71148000Y-47490000D03*
%TD*%
D34*
%TO.C,U1*%
X62609600Y-50875200D03*
D35*
X64109600Y-50787700D03*
D34*
X65609600Y-50875200D03*
%TD*%
D36*
%TO.C,R22*%
X74701400Y-77853000D03*
X74701400Y-76833000D03*
%TD*%
D24*
%TO.C,D14*%
X85000000Y-88400000D03*
X85000000Y-86200000D03*
%TD*%
D37*
%TO.C,R1*%
X64375800Y-45600000D03*
X62725800Y-45600000D03*
%TD*%
D38*
%TO.C,FID2*%
X95400000Y-103700000D03*
%TD*%
D39*
%TO.C,U5*%
X74150000Y-45958000D03*
X74150000Y-47228000D03*
X74150000Y-48498000D03*
X74150000Y-49768000D03*
X74150000Y-51038000D03*
X74150000Y-52308000D03*
X74150000Y-53578000D03*
X74150000Y-54848000D03*
X74150000Y-56118000D03*
X74150000Y-57388000D03*
X74150000Y-58658000D03*
X74150000Y-59928000D03*
X74150000Y-61198000D03*
X74150000Y-62468000D03*
D40*
X75915000Y-63718000D03*
X77185000Y-63718000D03*
X78455000Y-63718000D03*
X79725000Y-63718000D03*
X80995000Y-63718000D03*
X82265000Y-63718000D03*
X83535000Y-63718000D03*
X84805000Y-63718000D03*
X86075000Y-63718000D03*
X87345000Y-63718000D03*
X88615000Y-63718000D03*
X89885000Y-63718000D03*
D39*
X91650000Y-62468000D03*
X91650000Y-61198000D03*
X91650000Y-59928000D03*
X91650000Y-58658000D03*
X91650000Y-57388000D03*
X91650000Y-56118000D03*
X91650000Y-54848000D03*
X91650000Y-53578000D03*
X91650000Y-52308000D03*
X91650000Y-51038000D03*
X91650000Y-49768000D03*
X91650000Y-48498000D03*
X91650000Y-47228000D03*
X91650000Y-45958000D03*
D41*
X81540000Y-51308000D03*
%TD*%
D15*
%TO.C,R11*%
X72136000Y-48512000D03*
X72136000Y-49532000D03*
%TD*%
D24*
%TO.C,D5*%
X75800000Y-66050000D03*
X75800000Y-68250000D03*
%TD*%
D42*
%TO.C,U7*%
X86000000Y-96937500D03*
X86500000Y-96937500D03*
X87000000Y-96937500D03*
X87500000Y-96937500D03*
X88000000Y-96937500D03*
X88500000Y-96937500D03*
D43*
X89187500Y-96250000D03*
X89187500Y-95750000D03*
X89187500Y-95250000D03*
X89187500Y-94750000D03*
X89187500Y-94250000D03*
X89187500Y-93750000D03*
D42*
X88500000Y-93062500D03*
X88000000Y-93062500D03*
X87500000Y-93062500D03*
X87000000Y-93062500D03*
X86500000Y-93062500D03*
X86000000Y-93062500D03*
D43*
X85312500Y-93750000D03*
X85312500Y-94250000D03*
X85312500Y-94750000D03*
X85312500Y-95250000D03*
X85312500Y-95750000D03*
X85312500Y-96250000D03*
D44*
X87250000Y-95000000D03*
%TD*%
D45*
%TO.C,J8*%
X91060000Y-102500000D03*
X88520000Y-102500000D03*
X85980000Y-102500000D03*
X83440000Y-102500000D03*
%TD*%
D26*
%TO.C,J7*%
X75960000Y-87000000D03*
D27*
X78500000Y-87000000D03*
X81040000Y-87000000D03*
%TD*%
D33*
%TO.C,C5*%
X83798000Y-81356000D03*
X82838000Y-81356000D03*
%TD*%
D46*
%TO.C,D19*%
X88250000Y-83280000D03*
X88250000Y-84120000D03*
%TD*%
D16*
%TO.C,C15*%
X71985400Y-45720000D03*
X69035400Y-45720000D03*
%TD*%
D17*
%TO.C,R17*%
X95100000Y-48260000D03*
X95100000Y-49910000D03*
%TD*%
D15*
%TO.C,R10*%
X75031600Y-72085200D03*
X75031600Y-73105200D03*
%TD*%
D26*
%TO.C,J2*%
X77230000Y-78227102D03*
D27*
X79770000Y-78227102D03*
%TD*%
D15*
%TO.C,R33*%
X83800000Y-65340000D03*
X83800000Y-66360000D03*
%TD*%
D18*
%TO.C,D16*%
X81662600Y-99110800D03*
X83762600Y-99110800D03*
%TD*%
D15*
%TO.C,R21*%
X82600000Y-76890000D03*
X82600000Y-77910000D03*
%TD*%
D24*
%TO.C,D3*%
X82372200Y-75572800D03*
X82372200Y-73372800D03*
%TD*%
D15*
%TO.C,R32*%
X82700000Y-65340000D03*
X82700000Y-66360000D03*
%TD*%
D25*
%TO.C,R28*%
X86240000Y-84300000D03*
X87260000Y-84300000D03*
%TD*%
D15*
%TO.C,R8*%
X79044800Y-67331400D03*
X79044800Y-68351400D03*
%TD*%
D22*
%TO.C,R15*%
X87260000Y-83250000D03*
X86240000Y-83250000D03*
%TD*%
D24*
%TO.C,D2*%
X91610000Y-73001200D03*
X93810000Y-73001200D03*
%TD*%
D11*
%TO.C,C2*%
X69850000Y-51584800D03*
X69850000Y-50624800D03*
%TD*%
D30*
%TO.C,C11*%
X70995600Y-56896000D03*
X71955600Y-56896000D03*
%TD*%
D36*
%TO.C,R23*%
X75031600Y-75770200D03*
X75031600Y-74750200D03*
%TD*%
D15*
%TO.C,R5*%
X94996000Y-65390000D03*
X94996000Y-66410000D03*
%TD*%
D19*
%TO.C,C7*%
X93650000Y-70900000D03*
X91750000Y-70900000D03*
%TD*%
D47*
%TO.C,U4*%
X80289400Y-70094400D03*
X79019400Y-70094400D03*
X77749400Y-70094400D03*
X76479400Y-70094400D03*
X76479400Y-75244400D03*
X77749400Y-75244400D03*
X79019400Y-75244400D03*
X80289400Y-75244400D03*
%TD*%
D48*
%TO.C,C27*%
X70370400Y-90398600D03*
X71920400Y-90398600D03*
%TD*%
D38*
%TO.C,FID3*%
X61600000Y-103700000D03*
%TD*%
D20*
%TO.C,D7*%
X95100000Y-45312500D03*
X95100000Y-46887500D03*
%TD*%
D49*
%TO.C,J5*%
X66000000Y-58900000D03*
X66000000Y-63300000D03*
D50*
X68600000Y-59500000D03*
X68600000Y-60300000D03*
X68600000Y-61100000D03*
X68600000Y-61900000D03*
X68600000Y-62700000D03*
D51*
X68600000Y-65500000D03*
X63100000Y-65500000D03*
X68600000Y-56700000D03*
X63100000Y-56700000D03*
%TD*%
D15*
%TO.C,R7*%
X80294800Y-67331400D03*
X80294800Y-68351400D03*
%TD*%
%TO.C,R9*%
X75031600Y-69898298D03*
X75031600Y-70918298D03*
%TD*%
D16*
%TO.C,C9*%
X65381400Y-53340000D03*
X62431400Y-53340000D03*
%TD*%
D52*
%TO.C,D13*%
X70852400Y-58978800D03*
X71692400Y-58978800D03*
%TD*%
D53*
%TO.C,C3*%
X68122800Y-51106600D03*
X68122800Y-48156600D03*
%TD*%
D45*
%TO.C,J9*%
X73560000Y-102500000D03*
X71020000Y-102500000D03*
X68480000Y-102500000D03*
X65940000Y-102500000D03*
%TD*%
D54*
%TO.C,C6*%
X66852800Y-53063200D03*
X66852800Y-54023200D03*
%TD*%
D55*
%TO.C,U6*%
X85501400Y-76551000D03*
X85501400Y-77201000D03*
X85501400Y-77851000D03*
X87401400Y-77851000D03*
X87401400Y-77201000D03*
X87401400Y-76551000D03*
%TD*%
D15*
%TO.C,R12*%
X77744800Y-67344298D03*
X77744800Y-68364298D03*
%TD*%
D22*
%TO.C,R6*%
X72239600Y-51562000D03*
X71219600Y-51562000D03*
%TD*%
D15*
%TO.C,R34*%
X84900000Y-65340000D03*
X84900000Y-66360000D03*
%TD*%
D56*
%TO.C,C22*%
X90880000Y-94265000D03*
X90880000Y-95815000D03*
%TD*%
D46*
%TO.C,D11*%
X70993000Y-62318000D03*
X70993000Y-63158000D03*
%TD*%
D17*
%TO.C,R19*%
X93573600Y-48260000D03*
X93573600Y-49910000D03*
%TD*%
D57*
%TO.C,L1*%
X88417400Y-70900000D03*
X88417400Y-73900000D03*
%TD*%
D33*
%TO.C,C12*%
X72209600Y-50546000D03*
X71249600Y-50546000D03*
%TD*%
D46*
%TO.C,D12*%
X70993000Y-61278400D03*
X70993000Y-60438400D03*
%TD*%
D21*
%TO.C,D6*%
X94467500Y-75630000D03*
X92892500Y-75630000D03*
%TD*%
D11*
%TO.C,C25*%
X84074000Y-94307600D03*
X84074000Y-93347600D03*
%TD*%
D15*
%TO.C,R2*%
X89408000Y-66903200D03*
X89408000Y-67923200D03*
%TD*%
D58*
%TO.C,U2*%
X93212500Y-68871200D03*
X93212500Y-67921200D03*
X93212500Y-66971200D03*
X90937500Y-66971200D03*
X90937500Y-67921200D03*
X90937500Y-68871200D03*
%TD*%
D46*
%TO.C,D18*%
X91250000Y-83280000D03*
X91250000Y-84120000D03*
%TD*%
D53*
%TO.C,C10*%
X84709000Y-73865000D03*
X84709000Y-70915000D03*
%TD*%
D19*
%TO.C,C28*%
X65516800Y-92900000D03*
X63616800Y-92900000D03*
%TD*%
D17*
%TO.C,R31*%
X67500000Y-86475000D03*
X67500000Y-88125000D03*
%TD*%
D59*
%TO.C,U3*%
X88927000Y-81950000D03*
X88927000Y-81300000D03*
X88927000Y-80650000D03*
X88927000Y-80000000D03*
X85527000Y-80000000D03*
X85527000Y-80650000D03*
X85527000Y-81300000D03*
X85527000Y-81950000D03*
%TD*%
D25*
%TO.C,R26*%
X70965600Y-57912000D03*
X71985600Y-57912000D03*
%TD*%
D54*
%TO.C,C16*%
X71120000Y-48542000D03*
X71120000Y-49502000D03*
%TD*%
%TO.C,C14*%
X84301400Y-76921000D03*
X84301400Y-77881000D03*
%TD*%
D60*
%TO.C,J10*%
X72500000Y-73300000D03*
D61*
X66700000Y-73300000D03*
D62*
X69500000Y-78100000D03*
%TD*%
D24*
%TO.C,D8*%
X67937200Y-53543200D03*
X70137200Y-53543200D03*
%TD*%
D17*
%TO.C,R14*%
X90960000Y-76355000D03*
X90960000Y-78005000D03*
%TD*%
D63*
%TO.C,C1*%
X87200000Y-68875000D03*
X87200000Y-65925000D03*
%TD*%
D19*
%TO.C,C24*%
X82727800Y-94818200D03*
X80827800Y-94818200D03*
%TD*%
D16*
%TO.C,C26*%
X65475000Y-90500000D03*
X62525000Y-90500000D03*
%TD*%
M02*
