%TF.GenerationSoftware,KiCad,Pcbnew,6.0.11-2627ca5db0~126~ubuntu22.04.1*%
%TF.CreationDate,2024-07-03T14:43:40+02:00*%
%TF.ProjectId,MCM-81339,4d434d2d-3831-4333-9339-2e6b69636164,rev?*%
%TF.SameCoordinates,Original*%
%TF.FileFunction,Legend,Bot*%
%TF.FilePolarity,Positive*%
%FSLAX46Y46*%
G04 Gerber Fmt 4.6, Leading zero omitted, Abs format (unit mm)*
G04 Created by KiCad (PCBNEW 6.0.11-2627ca5db0~126~ubuntu22.04.1) date 2024-07-03 14:43:40*
%MOMM*%
%LPD*%
G01*
G04 APERTURE LIST*
%ADD10C,0.250000*%
%ADD11C,0.120000*%
G04 APERTURE END LIST*
D10*
X69137142Y-100416071D02*
X67937142Y-100130357D01*
X68794285Y-99901785D01*
X67937142Y-99673214D01*
X69137142Y-99387500D01*
X91423214Y-97700000D02*
X91537500Y-97642857D01*
X91708928Y-97642857D01*
X91880357Y-97700000D01*
X91994642Y-97814285D01*
X92051785Y-97928571D01*
X92108928Y-98157142D01*
X92108928Y-98328571D01*
X92051785Y-98557142D01*
X91994642Y-98671428D01*
X91880357Y-98785714D01*
X91708928Y-98842857D01*
X91594642Y-98842857D01*
X91423214Y-98785714D01*
X91366071Y-98728571D01*
X91366071Y-98328571D01*
X91594642Y-98328571D01*
X90851785Y-98842857D02*
X90851785Y-97642857D01*
X90166071Y-98842857D01*
X90166071Y-97642857D01*
X89594642Y-98842857D02*
X89594642Y-97642857D01*
X89308928Y-97642857D01*
X89137500Y-97700000D01*
X89023214Y-97814285D01*
X88966071Y-97928571D01*
X88908928Y-98157142D01*
X88908928Y-98328571D01*
X88966071Y-98557142D01*
X89023214Y-98671428D01*
X89137500Y-98785714D01*
X89308928Y-98842857D01*
X89594642Y-98842857D01*
X74217142Y-100301785D02*
X73245714Y-100301785D01*
X73131428Y-100244642D01*
X73074285Y-100187500D01*
X73017142Y-100073214D01*
X73017142Y-99844642D01*
X73074285Y-99730357D01*
X73131428Y-99673214D01*
X73245714Y-99616071D01*
X74217142Y-99616071D01*
X71677142Y-100473214D02*
X70477142Y-100073214D01*
X71677142Y-99673214D01*
X91717142Y-100301785D02*
X90745714Y-100301785D01*
X90631428Y-100244642D01*
X90574285Y-100187500D01*
X90517142Y-100073214D01*
X90517142Y-99844642D01*
X90574285Y-99730357D01*
X90631428Y-99673214D01*
X90745714Y-99616071D01*
X91717142Y-99616071D01*
X92051785Y-93762857D02*
X92051785Y-92562857D01*
X91251785Y-92562857D02*
X91023214Y-92562857D01*
X90908928Y-92620000D01*
X90794642Y-92734285D01*
X90737500Y-92962857D01*
X90737500Y-93362857D01*
X90794642Y-93591428D01*
X90908928Y-93705714D01*
X91023214Y-93762857D01*
X91251785Y-93762857D01*
X91366071Y-93705714D01*
X91480357Y-93591428D01*
X91537500Y-93362857D01*
X91537500Y-92962857D01*
X91480357Y-92734285D01*
X91366071Y-92620000D01*
X91251785Y-92562857D01*
X89708928Y-92562857D02*
X89937500Y-92562857D01*
X90051785Y-92620000D01*
X90108928Y-92677142D01*
X90223214Y-92848571D01*
X90280357Y-93077142D01*
X90280357Y-93534285D01*
X90223214Y-93648571D01*
X90166071Y-93705714D01*
X90051785Y-93762857D01*
X89823214Y-93762857D01*
X89708928Y-93705714D01*
X89651785Y-93648571D01*
X89594642Y-93534285D01*
X89594642Y-93248571D01*
X89651785Y-93134285D01*
X89708928Y-93077142D01*
X89823214Y-93020000D01*
X90051785Y-93020000D01*
X90166071Y-93077142D01*
X90223214Y-93134285D01*
X90280357Y-93248571D01*
X92223214Y-90022857D02*
X91823214Y-91222857D01*
X91423214Y-90022857D01*
X91023214Y-91222857D02*
X91023214Y-90022857D01*
X90737500Y-90022857D01*
X90566071Y-90080000D01*
X90451785Y-90194285D01*
X90394642Y-90308571D01*
X90337500Y-90537142D01*
X90337500Y-90708571D01*
X90394642Y-90937142D01*
X90451785Y-91051428D01*
X90566071Y-91165714D01*
X90737500Y-91222857D01*
X91023214Y-91222857D01*
X89823214Y-91222857D02*
X89823214Y-90022857D01*
X89537500Y-90022857D01*
X89366071Y-90080000D01*
X89251785Y-90194285D01*
X89194642Y-90308571D01*
X89137500Y-90537142D01*
X89137500Y-90708571D01*
X89194642Y-90937142D01*
X89251785Y-91051428D01*
X89366071Y-91165714D01*
X89537500Y-91222857D01*
X89823214Y-91222857D01*
X88680357Y-90880000D02*
X88108928Y-90880000D01*
X88794642Y-91222857D02*
X88394642Y-90022857D01*
X87994642Y-91222857D01*
X66597142Y-100473214D02*
X66597142Y-99787500D01*
X65397142Y-100130357D02*
X66597142Y-100130357D01*
X92223214Y-77642857D02*
X91823214Y-78842857D01*
X91423214Y-77642857D01*
X91080357Y-78785714D02*
X90908928Y-78842857D01*
X90623214Y-78842857D01*
X90508928Y-78785714D01*
X90451785Y-78728571D01*
X90394642Y-78614285D01*
X90394642Y-78500000D01*
X90451785Y-78385714D01*
X90508928Y-78328571D01*
X90623214Y-78271428D01*
X90851785Y-78214285D01*
X90966071Y-78157142D01*
X91023214Y-78100000D01*
X91080357Y-77985714D01*
X91080357Y-77871428D01*
X91023214Y-77757142D01*
X90966071Y-77700000D01*
X90851785Y-77642857D01*
X90566071Y-77642857D01*
X90394642Y-77700000D01*
X89880357Y-77642857D02*
X89880357Y-78614285D01*
X89823214Y-78728571D01*
X89766071Y-78785714D01*
X89651785Y-78842857D01*
X89423214Y-78842857D01*
X89308928Y-78785714D01*
X89251785Y-78728571D01*
X89194642Y-78614285D01*
X89194642Y-77642857D01*
X88623214Y-78842857D02*
X88623214Y-77642857D01*
X88166071Y-77642857D01*
X88051785Y-77700000D01*
X87994642Y-77757142D01*
X87937500Y-77871428D01*
X87937500Y-78042857D01*
X87994642Y-78157142D01*
X88051785Y-78214285D01*
X88166071Y-78271428D01*
X88623214Y-78271428D01*
X92051785Y-96302857D02*
X92051785Y-95102857D01*
X91251785Y-95102857D02*
X91023214Y-95102857D01*
X90908928Y-95160000D01*
X90794642Y-95274285D01*
X90737500Y-95502857D01*
X90737500Y-95902857D01*
X90794642Y-96131428D01*
X90908928Y-96245714D01*
X91023214Y-96302857D01*
X91251785Y-96302857D01*
X91366071Y-96245714D01*
X91480357Y-96131428D01*
X91537500Y-95902857D01*
X91537500Y-95502857D01*
X91480357Y-95274285D01*
X91366071Y-95160000D01*
X91251785Y-95102857D01*
X90337500Y-95102857D02*
X89537500Y-95102857D01*
X90051785Y-96302857D01*
X83785714Y-62042857D02*
X83785714Y-60842857D01*
X83385714Y-61700000D01*
X82985714Y-60842857D01*
X82985714Y-62042857D01*
X81728571Y-61928571D02*
X81785714Y-61985714D01*
X81957142Y-62042857D01*
X82071428Y-62042857D01*
X82242857Y-61985714D01*
X82357142Y-61871428D01*
X82414285Y-61757142D01*
X82471428Y-61528571D01*
X82471428Y-61357142D01*
X82414285Y-61128571D01*
X82357142Y-61014285D01*
X82242857Y-60900000D01*
X82071428Y-60842857D01*
X81957142Y-60842857D01*
X81785714Y-60900000D01*
X81728571Y-60957142D01*
X81214285Y-62042857D02*
X81214285Y-60842857D01*
X80814285Y-61700000D01*
X80414285Y-60842857D01*
X80414285Y-62042857D01*
X79842857Y-61585714D02*
X78928571Y-61585714D01*
X78185714Y-61357142D02*
X78300000Y-61300000D01*
X78357142Y-61242857D01*
X78414285Y-61128571D01*
X78414285Y-61071428D01*
X78357142Y-60957142D01*
X78300000Y-60900000D01*
X78185714Y-60842857D01*
X77957142Y-60842857D01*
X77842857Y-60900000D01*
X77785714Y-60957142D01*
X77728571Y-61071428D01*
X77728571Y-61128571D01*
X77785714Y-61242857D01*
X77842857Y-61300000D01*
X77957142Y-61357142D01*
X78185714Y-61357142D01*
X78300000Y-61414285D01*
X78357142Y-61471428D01*
X78414285Y-61585714D01*
X78414285Y-61814285D01*
X78357142Y-61928571D01*
X78300000Y-61985714D01*
X78185714Y-62042857D01*
X77957142Y-62042857D01*
X77842857Y-61985714D01*
X77785714Y-61928571D01*
X77728571Y-61814285D01*
X77728571Y-61585714D01*
X77785714Y-61471428D01*
X77842857Y-61414285D01*
X77957142Y-61357142D01*
X76585714Y-62042857D02*
X77271428Y-62042857D01*
X76928571Y-62042857D02*
X76928571Y-60842857D01*
X77042857Y-61014285D01*
X77157142Y-61128571D01*
X77271428Y-61185714D01*
X76185714Y-60842857D02*
X75442857Y-60842857D01*
X75842857Y-61300000D01*
X75671428Y-61300000D01*
X75557142Y-61357142D01*
X75500000Y-61414285D01*
X75442857Y-61528571D01*
X75442857Y-61814285D01*
X75500000Y-61928571D01*
X75557142Y-61985714D01*
X75671428Y-62042857D01*
X76014285Y-62042857D01*
X76128571Y-61985714D01*
X76185714Y-61928571D01*
X75042857Y-60842857D02*
X74300000Y-60842857D01*
X74700000Y-61300000D01*
X74528571Y-61300000D01*
X74414285Y-61357142D01*
X74357142Y-61414285D01*
X74300000Y-61528571D01*
X74300000Y-61814285D01*
X74357142Y-61928571D01*
X74414285Y-61985714D01*
X74528571Y-62042857D01*
X74871428Y-62042857D01*
X74985714Y-61985714D01*
X75042857Y-61928571D01*
X73728571Y-62042857D02*
X73500000Y-62042857D01*
X73385714Y-61985714D01*
X73328571Y-61928571D01*
X73214285Y-61757142D01*
X73157142Y-61528571D01*
X73157142Y-61071428D01*
X73214285Y-60957142D01*
X73271428Y-60900000D01*
X73385714Y-60842857D01*
X73614285Y-60842857D01*
X73728571Y-60900000D01*
X73785714Y-60957142D01*
X73842857Y-61071428D01*
X73842857Y-61357142D01*
X73785714Y-61471428D01*
X73728571Y-61528571D01*
X73614285Y-61585714D01*
X73385714Y-61585714D01*
X73271428Y-61528571D01*
X73214285Y-61471428D01*
X73157142Y-61357142D01*
X92223214Y-80182857D02*
X91537500Y-80182857D01*
X91880357Y-81382857D02*
X91880357Y-80182857D01*
X91251785Y-80182857D02*
X90451785Y-81382857D01*
X90451785Y-80182857D02*
X91251785Y-81382857D01*
X89994642Y-81382857D02*
X89994642Y-80182857D01*
X89708928Y-80182857D01*
X89537500Y-80240000D01*
X89423214Y-80354285D01*
X89366071Y-80468571D01*
X89308928Y-80697142D01*
X89308928Y-80868571D01*
X89366071Y-81097142D01*
X89423214Y-81211428D01*
X89537500Y-81325714D01*
X89708928Y-81382857D01*
X89994642Y-81382857D01*
X87937500Y-80125714D02*
X88966071Y-81668571D01*
X87594642Y-81325714D02*
X87423214Y-81382857D01*
X87137500Y-81382857D01*
X87023214Y-81325714D01*
X86966071Y-81268571D01*
X86908928Y-81154285D01*
X86908928Y-81040000D01*
X86966071Y-80925714D01*
X87023214Y-80868571D01*
X87137500Y-80811428D01*
X87366071Y-80754285D01*
X87480357Y-80697142D01*
X87537500Y-80640000D01*
X87594642Y-80525714D01*
X87594642Y-80411428D01*
X87537500Y-80297142D01*
X87480357Y-80240000D01*
X87366071Y-80182857D01*
X87080357Y-80182857D01*
X86908928Y-80240000D01*
X86394642Y-81382857D02*
X86394642Y-80182857D01*
X86108928Y-80182857D01*
X85937500Y-80240000D01*
X85823214Y-80354285D01*
X85766071Y-80468571D01*
X85708928Y-80697142D01*
X85708928Y-80868571D01*
X85766071Y-81097142D01*
X85823214Y-81211428D01*
X85937500Y-81325714D01*
X86108928Y-81382857D01*
X86394642Y-81382857D01*
X85251785Y-81040000D02*
X84680357Y-81040000D01*
X85366071Y-81382857D02*
X84966071Y-80182857D01*
X84566071Y-81382857D01*
X91366071Y-83922857D02*
X91766071Y-83351428D01*
X92051785Y-83922857D02*
X92051785Y-82722857D01*
X91594642Y-82722857D01*
X91480357Y-82780000D01*
X91423214Y-82837142D01*
X91366071Y-82951428D01*
X91366071Y-83122857D01*
X91423214Y-83237142D01*
X91480357Y-83294285D01*
X91594642Y-83351428D01*
X92051785Y-83351428D01*
X90966071Y-82722857D02*
X90166071Y-83922857D01*
X90166071Y-82722857D02*
X90966071Y-83922857D01*
X89708928Y-83922857D02*
X89708928Y-82722857D01*
X89423214Y-82722857D01*
X89251785Y-82780000D01*
X89137500Y-82894285D01*
X89080357Y-83008571D01*
X89023214Y-83237142D01*
X89023214Y-83408571D01*
X89080357Y-83637142D01*
X89137500Y-83751428D01*
X89251785Y-83865714D01*
X89423214Y-83922857D01*
X89708928Y-83922857D01*
X87651785Y-82665714D02*
X88680357Y-84208571D01*
X87308928Y-83865714D02*
X87137500Y-83922857D01*
X86851785Y-83922857D01*
X86737500Y-83865714D01*
X86680357Y-83808571D01*
X86623214Y-83694285D01*
X86623214Y-83580000D01*
X86680357Y-83465714D01*
X86737500Y-83408571D01*
X86851785Y-83351428D01*
X87080357Y-83294285D01*
X87194642Y-83237142D01*
X87251785Y-83180000D01*
X87308928Y-83065714D01*
X87308928Y-82951428D01*
X87251785Y-82837142D01*
X87194642Y-82780000D01*
X87080357Y-82722857D01*
X86794642Y-82722857D01*
X86623214Y-82780000D01*
X85423214Y-83808571D02*
X85480357Y-83865714D01*
X85651785Y-83922857D01*
X85766071Y-83922857D01*
X85937500Y-83865714D01*
X86051785Y-83751428D01*
X86108928Y-83637142D01*
X86166071Y-83408571D01*
X86166071Y-83237142D01*
X86108928Y-83008571D01*
X86051785Y-82894285D01*
X85937500Y-82780000D01*
X85766071Y-82722857D01*
X85651785Y-82722857D01*
X85480357Y-82780000D01*
X85423214Y-82837142D01*
X84337500Y-83922857D02*
X84908928Y-83922857D01*
X84908928Y-82722857D01*
X91423214Y-85320000D02*
X91537500Y-85262857D01*
X91708928Y-85262857D01*
X91880357Y-85320000D01*
X91994642Y-85434285D01*
X92051785Y-85548571D01*
X92108928Y-85777142D01*
X92108928Y-85948571D01*
X92051785Y-86177142D01*
X91994642Y-86291428D01*
X91880357Y-86405714D01*
X91708928Y-86462857D01*
X91594642Y-86462857D01*
X91423214Y-86405714D01*
X91366071Y-86348571D01*
X91366071Y-85948571D01*
X91594642Y-85948571D01*
X90851785Y-86462857D02*
X90851785Y-85262857D01*
X90166071Y-86462857D01*
X90166071Y-85262857D01*
X89594642Y-86462857D02*
X89594642Y-85262857D01*
X89308928Y-85262857D01*
X89137500Y-85320000D01*
X89023214Y-85434285D01*
X88966071Y-85548571D01*
X88908928Y-85777142D01*
X88908928Y-85948571D01*
X88966071Y-86177142D01*
X89023214Y-86291428D01*
X89137500Y-86405714D01*
X89308928Y-86462857D01*
X89594642Y-86462857D01*
X73766071Y-87542857D02*
X74166071Y-86971428D01*
X74451785Y-87542857D02*
X74451785Y-86342857D01*
X73994642Y-86342857D01*
X73880357Y-86400000D01*
X73823214Y-86457142D01*
X73766071Y-86571428D01*
X73766071Y-86742857D01*
X73823214Y-86857142D01*
X73880357Y-86914285D01*
X73994642Y-86971428D01*
X74451785Y-86971428D01*
X73366071Y-86342857D02*
X72566071Y-87542857D01*
X72566071Y-86342857D02*
X73366071Y-87542857D01*
X72108928Y-87542857D02*
X72108928Y-86342857D01*
X71823214Y-86342857D01*
X71651785Y-86400000D01*
X71537500Y-86514285D01*
X71480357Y-86628571D01*
X71423214Y-86857142D01*
X71423214Y-87028571D01*
X71480357Y-87257142D01*
X71537500Y-87371428D01*
X71651785Y-87485714D01*
X71823214Y-87542857D01*
X72108928Y-87542857D01*
X70051785Y-86285714D02*
X71080357Y-87828571D01*
X69708928Y-87485714D02*
X69537500Y-87542857D01*
X69251785Y-87542857D01*
X69137500Y-87485714D01*
X69080357Y-87428571D01*
X69023214Y-87314285D01*
X69023214Y-87200000D01*
X69080357Y-87085714D01*
X69137500Y-87028571D01*
X69251785Y-86971428D01*
X69480357Y-86914285D01*
X69594642Y-86857142D01*
X69651785Y-86800000D01*
X69708928Y-86685714D01*
X69708928Y-86571428D01*
X69651785Y-86457142D01*
X69594642Y-86400000D01*
X69480357Y-86342857D01*
X69194642Y-86342857D01*
X69023214Y-86400000D01*
X67823214Y-87428571D02*
X67880357Y-87485714D01*
X68051785Y-87542857D01*
X68166071Y-87542857D01*
X68337500Y-87485714D01*
X68451785Y-87371428D01*
X68508928Y-87257142D01*
X68566071Y-87028571D01*
X68566071Y-86857142D01*
X68508928Y-86628571D01*
X68451785Y-86514285D01*
X68337500Y-86400000D01*
X68166071Y-86342857D01*
X68051785Y-86342857D01*
X67880357Y-86400000D01*
X67823214Y-86457142D01*
X66737500Y-87542857D02*
X67308928Y-87542857D01*
X67308928Y-86342857D01*
X89177142Y-100473214D02*
X87977142Y-100073214D01*
X89177142Y-99673214D01*
X86637142Y-100416071D02*
X85437142Y-100130357D01*
X86294285Y-99901785D01*
X85437142Y-99673214D01*
X86637142Y-99387500D01*
X84097142Y-100473214D02*
X84097142Y-99787500D01*
X82897142Y-100130357D02*
X84097142Y-100130357D01*
X74623214Y-83802857D02*
X73937500Y-83802857D01*
X74280357Y-85002857D02*
X74280357Y-83802857D01*
X73651785Y-83802857D02*
X72851785Y-85002857D01*
X72851785Y-83802857D02*
X73651785Y-85002857D01*
X72394642Y-85002857D02*
X72394642Y-83802857D01*
X72108928Y-83802857D01*
X71937500Y-83860000D01*
X71823214Y-83974285D01*
X71766071Y-84088571D01*
X71708928Y-84317142D01*
X71708928Y-84488571D01*
X71766071Y-84717142D01*
X71823214Y-84831428D01*
X71937500Y-84945714D01*
X72108928Y-85002857D01*
X72394642Y-85002857D01*
X70337500Y-83745714D02*
X71366071Y-85288571D01*
X69994642Y-84945714D02*
X69823214Y-85002857D01*
X69537500Y-85002857D01*
X69423214Y-84945714D01*
X69366071Y-84888571D01*
X69308928Y-84774285D01*
X69308928Y-84660000D01*
X69366071Y-84545714D01*
X69423214Y-84488571D01*
X69537500Y-84431428D01*
X69766071Y-84374285D01*
X69880357Y-84317142D01*
X69937500Y-84260000D01*
X69994642Y-84145714D01*
X69994642Y-84031428D01*
X69937500Y-83917142D01*
X69880357Y-83860000D01*
X69766071Y-83802857D01*
X69480357Y-83802857D01*
X69308928Y-83860000D01*
X68794642Y-85002857D02*
X68794642Y-83802857D01*
X68508928Y-83802857D01*
X68337500Y-83860000D01*
X68223214Y-83974285D01*
X68166071Y-84088571D01*
X68108928Y-84317142D01*
X68108928Y-84488571D01*
X68166071Y-84717142D01*
X68223214Y-84831428D01*
X68337500Y-84945714D01*
X68508928Y-85002857D01*
X68794642Y-85002857D01*
X67651785Y-84660000D02*
X67080357Y-84660000D01*
X67766071Y-85002857D02*
X67366071Y-83802857D01*
X66966071Y-85002857D01*
%TO.C,LOG1*%
G36*
X80344954Y-59396708D02*
G01*
X80343727Y-59490088D01*
X80329450Y-59581890D01*
X80301943Y-59669215D01*
X80278583Y-59719195D01*
X80228853Y-59796754D01*
X80167281Y-59865644D01*
X80095626Y-59924509D01*
X80015646Y-59971992D01*
X79929102Y-60006734D01*
X79837752Y-60027379D01*
X79831878Y-60028119D01*
X79797892Y-60030540D01*
X79757179Y-60031330D01*
X79717300Y-60030306D01*
X79702558Y-60029395D01*
X79601025Y-60015926D01*
X79508789Y-59989990D01*
X79424428Y-59950948D01*
X79346518Y-59898161D01*
X79273638Y-59830990D01*
X79256227Y-59812293D01*
X79235639Y-59789026D01*
X79221566Y-59771646D01*
X79216353Y-59762940D01*
X79217028Y-59761721D01*
X79226632Y-59752414D01*
X79245516Y-59736322D01*
X79270988Y-59715547D01*
X79300356Y-59692196D01*
X79330928Y-59668371D01*
X79360013Y-59646178D01*
X79384919Y-59627721D01*
X79402956Y-59615103D01*
X79411430Y-59610429D01*
X79413556Y-59611766D01*
X79424991Y-59621668D01*
X79443706Y-59639113D01*
X79466971Y-59661587D01*
X79482746Y-59676420D01*
X79543913Y-59722410D01*
X79609758Y-59753895D01*
X79682450Y-59771986D01*
X79700314Y-59774294D01*
X79773768Y-59774855D01*
X79843934Y-59761618D01*
X79908956Y-59735721D01*
X79966975Y-59698299D01*
X80016134Y-59650493D01*
X80054573Y-59593439D01*
X80080436Y-59528274D01*
X80088712Y-59498217D01*
X79157977Y-59498217D01*
X79162550Y-59412055D01*
X79172772Y-59319038D01*
X79186148Y-59265778D01*
X79463917Y-59265778D01*
X79758647Y-59265778D01*
X79825277Y-59265642D01*
X79886526Y-59265266D01*
X79940618Y-59264680D01*
X79985779Y-59263915D01*
X80020235Y-59263000D01*
X80042209Y-59261965D01*
X80049929Y-59260841D01*
X80048081Y-59255249D01*
X80037831Y-59238887D01*
X80021334Y-59217164D01*
X80001723Y-59193902D01*
X79982130Y-59172925D01*
X79965689Y-59158055D01*
X79950591Y-59147673D01*
X79921690Y-59130552D01*
X79891513Y-59115035D01*
X79870664Y-59105923D01*
X79850233Y-59099388D01*
X79827616Y-59095631D01*
X79798200Y-59093912D01*
X79757376Y-59093490D01*
X79748455Y-59093495D01*
X79710919Y-59093985D01*
X79683752Y-59095866D01*
X79662217Y-59099971D01*
X79641582Y-59107135D01*
X79617111Y-59118192D01*
X79591986Y-59131860D01*
X79547315Y-59164026D01*
X79507687Y-59202004D01*
X79478396Y-59241105D01*
X79463917Y-59265778D01*
X79186148Y-59265778D01*
X79194878Y-59231014D01*
X79229546Y-59150739D01*
X79277701Y-59076096D01*
X79340267Y-59004965D01*
X79408046Y-58945027D01*
X79484333Y-58895213D01*
X79565128Y-58860280D01*
X79651661Y-58839703D01*
X79745163Y-58832960D01*
X79766135Y-58833187D01*
X79852921Y-58840004D01*
X79930875Y-58857069D01*
X80003626Y-58885404D01*
X80074799Y-58926035D01*
X80097656Y-58942329D01*
X80145721Y-58983242D01*
X80193286Y-59031355D01*
X80235758Y-59081838D01*
X80268546Y-59129860D01*
X80272134Y-59136101D01*
X80308978Y-59216815D01*
X80321174Y-59260841D01*
X80333311Y-59304651D01*
X80344954Y-59396708D01*
G37*
G36*
X73389342Y-58215794D02*
G01*
X73229039Y-58215794D01*
X73229039Y-58055491D01*
X73389342Y-58055491D01*
X73389342Y-58215794D01*
G37*
G36*
X73902311Y-58937157D02*
G01*
X73830175Y-58937157D01*
X73830175Y-58873036D01*
X73902311Y-58873036D01*
X73902311Y-58937157D01*
G37*
G36*
X81204611Y-58761524D02*
G01*
X81225793Y-58812284D01*
X81264348Y-58904647D01*
X81301011Y-58992442D01*
X81335305Y-59074534D01*
X81366756Y-59149785D01*
X81394888Y-59217060D01*
X81419226Y-59275222D01*
X81439295Y-59323134D01*
X81454620Y-59359660D01*
X81464725Y-59383664D01*
X81469134Y-59394009D01*
X81478097Y-59414035D01*
X81488382Y-59394009D01*
X81489912Y-59390705D01*
X81497408Y-59373513D01*
X81510379Y-59343236D01*
X81528341Y-59301014D01*
X81550814Y-59247989D01*
X81577315Y-59185300D01*
X81607362Y-59114089D01*
X81640473Y-59035496D01*
X81676166Y-58950662D01*
X81713960Y-58860729D01*
X81753371Y-58766835D01*
X81774245Y-58717116D01*
X81812602Y-58625959D01*
X81848983Y-58539760D01*
X81882922Y-58459610D01*
X81913951Y-58386604D01*
X81941602Y-58321833D01*
X81965410Y-58266391D01*
X81984907Y-58221369D01*
X81999626Y-58187861D01*
X82009100Y-58166960D01*
X82012862Y-58159757D01*
X82014120Y-58163022D01*
X82019232Y-58180237D01*
X82027972Y-58211386D01*
X82040085Y-58255516D01*
X82055317Y-58311673D01*
X82073412Y-58378904D01*
X82094114Y-58456256D01*
X82117170Y-58542774D01*
X82142325Y-58637506D01*
X82169322Y-58739497D01*
X82197908Y-58847795D01*
X82227827Y-58961445D01*
X82258824Y-59079495D01*
X82500000Y-59999164D01*
X82367625Y-60001368D01*
X82355519Y-60001548D01*
X82304061Y-60001698D01*
X82265282Y-60000688D01*
X82240290Y-59998568D01*
X82230190Y-59995385D01*
X82229661Y-59994019D01*
X82225536Y-59980087D01*
X82217861Y-59952401D01*
X82206986Y-59912279D01*
X82193263Y-59861039D01*
X82177041Y-59800000D01*
X82158672Y-59730481D01*
X82138506Y-59653798D01*
X82116895Y-59571272D01*
X82094188Y-59484220D01*
X82086291Y-59453910D01*
X82063939Y-59368384D01*
X82042806Y-59287907D01*
X82023242Y-59213789D01*
X82005597Y-59147338D01*
X81990220Y-59089862D01*
X81977461Y-59042671D01*
X81967669Y-59007072D01*
X81961194Y-58984376D01*
X81958386Y-58975889D01*
X81958189Y-58975932D01*
X81953488Y-58984471D01*
X81943184Y-59006516D01*
X81927763Y-59040945D01*
X81907708Y-59086639D01*
X81883502Y-59142476D01*
X81855629Y-59207338D01*
X81824574Y-59280102D01*
X81790819Y-59359650D01*
X81754849Y-59444860D01*
X81717147Y-59534613D01*
X81711178Y-59548853D01*
X81673719Y-59637960D01*
X81638072Y-59722343D01*
X81604718Y-59800883D01*
X81574143Y-59872460D01*
X81546829Y-59935954D01*
X81523258Y-59990247D01*
X81503915Y-60034218D01*
X81489283Y-60066749D01*
X81479845Y-60086719D01*
X81476085Y-60093009D01*
X81476068Y-60092987D01*
X81472154Y-60084565D01*
X81462538Y-60062549D01*
X81447714Y-60028099D01*
X81428175Y-59982379D01*
X81404414Y-59926548D01*
X81376926Y-59861770D01*
X81346204Y-59789205D01*
X81312742Y-59710016D01*
X81277032Y-59625364D01*
X81239570Y-59536411D01*
X81238427Y-59533693D01*
X81201044Y-59445012D01*
X81165426Y-59360794D01*
X81132063Y-59282187D01*
X81101448Y-59210338D01*
X81074073Y-59146393D01*
X81050431Y-59091498D01*
X81031014Y-59046802D01*
X81016314Y-59013451D01*
X81006823Y-58992591D01*
X81003034Y-58985369D01*
X81002495Y-58986320D01*
X80998394Y-58999020D01*
X80990766Y-59025497D01*
X80979956Y-59064460D01*
X80966313Y-59114621D01*
X80950183Y-59174687D01*
X80931913Y-59243368D01*
X80911852Y-59319374D01*
X80890345Y-59401414D01*
X80867741Y-59488199D01*
X80859931Y-59518249D01*
X80837611Y-59603832D01*
X80816487Y-59684390D01*
X80796909Y-59758609D01*
X80779229Y-59825180D01*
X80763798Y-59882788D01*
X80750967Y-59930122D01*
X80741086Y-59965871D01*
X80734506Y-59988721D01*
X80731579Y-59997360D01*
X80726472Y-59998771D01*
X80707443Y-60000366D01*
X80677126Y-60001385D01*
X80638315Y-60001746D01*
X80593800Y-60001368D01*
X80461594Y-59999164D01*
X80696127Y-59105475D01*
X80709315Y-59055228D01*
X80739638Y-58939740D01*
X80768830Y-58828620D01*
X80796625Y-58722880D01*
X80822754Y-58623534D01*
X80846953Y-58531593D01*
X80868953Y-58448071D01*
X80888489Y-58373980D01*
X80905292Y-58310332D01*
X80919098Y-58258140D01*
X80929638Y-58218417D01*
X80936646Y-58192175D01*
X80939855Y-58180426D01*
X80949049Y-58149066D01*
X81204611Y-58761524D01*
G37*
G36*
X75954189Y-58007400D02*
G01*
X75777855Y-58007400D01*
X75777855Y-57831067D01*
X75954189Y-57831067D01*
X75954189Y-58007400D01*
G37*
G36*
X77063530Y-58887063D02*
G01*
X77056590Y-58896133D01*
X77039740Y-58917949D01*
X77015354Y-58949404D01*
X76984755Y-58988794D01*
X76949266Y-59034416D01*
X76910213Y-59084564D01*
X76868919Y-59137536D01*
X76835229Y-59180734D01*
X76797153Y-59229565D01*
X76763024Y-59273343D01*
X76734025Y-59310551D01*
X76711338Y-59339670D01*
X76696146Y-59359185D01*
X76689632Y-59367578D01*
X76689525Y-59369708D01*
X76695324Y-59381889D01*
X76709728Y-59404517D01*
X76732982Y-59437930D01*
X76765328Y-59482466D01*
X76807010Y-59538463D01*
X76858273Y-59606259D01*
X76919359Y-59686192D01*
X76923799Y-59691979D01*
X76970655Y-59753135D01*
X77014312Y-59810270D01*
X77053831Y-59862144D01*
X77088272Y-59907516D01*
X77116695Y-59945145D01*
X77138161Y-59973792D01*
X77151729Y-59992216D01*
X77156461Y-59999176D01*
X77156047Y-59999461D01*
X77145100Y-60000640D01*
X77121053Y-60001659D01*
X77086290Y-60002459D01*
X77043195Y-60002982D01*
X76994154Y-60003168D01*
X76831847Y-60003165D01*
X76675798Y-59802707D01*
X76654962Y-59776021D01*
X76618193Y-59729338D01*
X76585140Y-59687894D01*
X76557019Y-59653180D01*
X76535042Y-59626688D01*
X76520423Y-59609909D01*
X76514376Y-59604336D01*
X76513737Y-59604851D01*
X76505459Y-59614377D01*
X76489019Y-59634630D01*
X76465687Y-59664003D01*
X76436732Y-59700889D01*
X76403426Y-59743680D01*
X76367038Y-59790770D01*
X76359455Y-59800612D01*
X76322961Y-59847839D01*
X76289372Y-59891087D01*
X76260059Y-59928607D01*
X76236391Y-59958651D01*
X76219737Y-59979470D01*
X76211468Y-59989316D01*
X76205733Y-59994010D01*
X76197097Y-59997584D01*
X76183511Y-60000016D01*
X76162760Y-60001456D01*
X76132628Y-60002055D01*
X76090901Y-60001966D01*
X76035364Y-60001339D01*
X75872865Y-59999164D01*
X76109839Y-59690581D01*
X76114080Y-59685058D01*
X76160945Y-59623937D01*
X76204612Y-59566831D01*
X76244142Y-59514981D01*
X76278592Y-59469627D01*
X76307024Y-59432010D01*
X76328495Y-59403371D01*
X76342067Y-59384951D01*
X76346797Y-59377990D01*
X76346212Y-59376925D01*
X76338309Y-59365840D01*
X76321987Y-59343926D01*
X76298286Y-59312550D01*
X76268246Y-59273079D01*
X76232906Y-59226880D01*
X76193306Y-59175321D01*
X76150485Y-59119770D01*
X76135363Y-59100174D01*
X76093535Y-59045826D01*
X76055290Y-58995928D01*
X76021666Y-58951848D01*
X75993705Y-58914957D01*
X75972444Y-58886625D01*
X75958926Y-58868222D01*
X75954189Y-58861119D01*
X75954846Y-58860732D01*
X75966652Y-58859599D01*
X75991449Y-58858811D01*
X76026878Y-58858402D01*
X76070584Y-58858403D01*
X76120208Y-58858847D01*
X76286228Y-58861013D01*
X76396983Y-59005286D01*
X76413895Y-59027249D01*
X76444492Y-59066619D01*
X76471206Y-59100524D01*
X76492582Y-59127143D01*
X76507164Y-59144650D01*
X76513497Y-59151223D01*
X76516291Y-59149219D01*
X76527866Y-59136729D01*
X76546881Y-59114317D01*
X76571900Y-59083723D01*
X76601488Y-59046686D01*
X76634209Y-59004946D01*
X76749161Y-58857006D01*
X77086227Y-58857006D01*
X77063530Y-58887063D01*
G37*
G36*
X76401446Y-58263041D02*
G01*
X76402072Y-58288032D01*
X76401452Y-58311991D01*
X76399558Y-58325511D01*
X76398310Y-58327742D01*
X76389038Y-58332772D01*
X76369557Y-58334848D01*
X76337028Y-58334371D01*
X76278802Y-58332014D01*
X76278802Y-58211786D01*
X76399029Y-58211786D01*
X76401446Y-58263041D01*
G37*
G36*
X74375205Y-58031446D02*
G01*
X74142765Y-58031446D01*
X74142765Y-57799006D01*
X74375205Y-57799006D01*
X74375205Y-58031446D01*
G37*
G36*
X78379562Y-59297519D02*
G01*
X78383362Y-59320439D01*
X78385412Y-59347542D01*
X78386223Y-59382775D01*
X78386309Y-59430089D01*
X78386280Y-59442078D01*
X78385877Y-59486612D01*
X78384622Y-59520206D01*
X78381963Y-59547015D01*
X78377352Y-59571191D01*
X78370239Y-59596886D01*
X78360074Y-59628255D01*
X78324545Y-59712438D01*
X78274749Y-59792517D01*
X78213487Y-59863159D01*
X78142198Y-59923161D01*
X78062322Y-59971321D01*
X77975297Y-60006435D01*
X77882564Y-60027300D01*
X77862864Y-60029476D01*
X77806413Y-60031380D01*
X77743501Y-60028701D01*
X77680329Y-60021823D01*
X77623100Y-60011135D01*
X77556835Y-59992049D01*
X77484966Y-59961685D01*
X77418685Y-59921414D01*
X77354938Y-59869327D01*
X77290673Y-59803520D01*
X77252561Y-59760893D01*
X77352593Y-59685661D01*
X77373037Y-59670336D01*
X77405015Y-59646592D01*
X77430982Y-59627597D01*
X77448683Y-59614995D01*
X77455863Y-59610429D01*
X77457963Y-59611768D01*
X77469348Y-59621672D01*
X77488027Y-59639116D01*
X77511275Y-59661587D01*
X77527585Y-59676796D01*
X77591200Y-59723390D01*
X77659893Y-59755686D01*
X77732003Y-59773403D01*
X77805870Y-59776260D01*
X77879835Y-59763976D01*
X77952239Y-59736270D01*
X77980400Y-59720212D01*
X78030780Y-59680537D01*
X78073130Y-59632468D01*
X78104805Y-59579284D01*
X78123161Y-59524267D01*
X78128297Y-59498217D01*
X77202281Y-59498217D01*
X77206838Y-59412055D01*
X77209033Y-59378628D01*
X77216193Y-59319101D01*
X77228318Y-59265970D01*
X77230247Y-59260507D01*
X77509127Y-59260507D01*
X77509131Y-59260535D01*
X77517185Y-59261734D01*
X77539454Y-59262836D01*
X77574162Y-59263810D01*
X77619535Y-59264623D01*
X77673797Y-59265244D01*
X77735173Y-59265639D01*
X77801886Y-59265778D01*
X78094644Y-59265778D01*
X78081764Y-59240870D01*
X78062022Y-59211540D01*
X78028320Y-59176485D01*
X77987361Y-59144308D01*
X77943554Y-59118896D01*
X77937063Y-59115840D01*
X77913382Y-59105497D01*
X77892780Y-59098943D01*
X77870479Y-59095322D01*
X77841705Y-59093777D01*
X77801680Y-59093453D01*
X77754233Y-59094554D01*
X77711679Y-59099204D01*
X77676189Y-59108715D01*
X77643110Y-59124384D01*
X77607790Y-59147508D01*
X77591430Y-59161088D01*
X77569889Y-59182175D01*
X77547855Y-59206134D01*
X77528362Y-59229491D01*
X77514441Y-59248774D01*
X77509127Y-59260507D01*
X77230247Y-59260507D01*
X77247054Y-59212903D01*
X77274048Y-59153566D01*
X77287366Y-59127320D01*
X77305374Y-59096206D01*
X77325228Y-59068531D01*
X77350362Y-59039661D01*
X77384209Y-59004965D01*
X77384291Y-59004883D01*
X77457180Y-58941175D01*
X77532945Y-58892792D01*
X77613131Y-58859084D01*
X77699283Y-58839403D01*
X77792943Y-58833099D01*
X77864448Y-58836078D01*
X77931794Y-58846363D01*
X77995735Y-58865296D01*
X78062172Y-58894218D01*
X78088272Y-58907535D01*
X78119416Y-58925641D01*
X78147068Y-58945560D01*
X78175868Y-58970747D01*
X78210452Y-59004656D01*
X78242164Y-59037835D01*
X78281694Y-59084735D01*
X78312734Y-59130843D01*
X78338333Y-59180898D01*
X78361537Y-59239639D01*
X78364650Y-59248427D01*
X78370462Y-59265778D01*
X78373495Y-59274831D01*
X78379562Y-59297519D01*
G37*
G36*
X73846205Y-57807021D02*
G01*
X73645826Y-57807021D01*
X73645826Y-57598628D01*
X73846205Y-57598628D01*
X73846205Y-57807021D01*
G37*
G36*
X74295053Y-58616551D02*
G01*
X74158796Y-58616551D01*
X74158796Y-58472279D01*
X74295053Y-58472279D01*
X74295053Y-58616551D01*
G37*
G36*
X78903763Y-60003172D02*
G01*
X78631248Y-60003172D01*
X78631248Y-58287930D01*
X78903763Y-58287930D01*
X78903763Y-60003172D01*
G37*
G36*
X75681674Y-58560445D02*
G01*
X75409159Y-58560445D01*
X75409159Y-58287930D01*
X75681674Y-58287930D01*
X75681674Y-58560445D01*
G37*
G36*
X74875495Y-58843679D02*
G01*
X74946844Y-58867738D01*
X75011791Y-58904756D01*
X75068172Y-58954206D01*
X75100241Y-58995500D01*
X75130875Y-59055874D01*
X75148404Y-59121043D01*
X75152070Y-59187901D01*
X75141117Y-59253341D01*
X75138319Y-59262555D01*
X75121224Y-59305747D01*
X75098040Y-59344260D01*
X75067173Y-59379450D01*
X75027030Y-59412675D01*
X74976016Y-59445293D01*
X74912538Y-59478662D01*
X74835003Y-59514139D01*
X74821484Y-59520067D01*
X74780328Y-59538729D01*
X74742996Y-59556512D01*
X74713140Y-59571642D01*
X74694415Y-59582349D01*
X74679162Y-59593937D01*
X74655111Y-59619000D01*
X74638158Y-59645573D01*
X74631719Y-59668937D01*
X74631759Y-59671014D01*
X74640228Y-59699674D01*
X74661751Y-59727908D01*
X74693851Y-59752387D01*
X74706432Y-59759424D01*
X74729324Y-59769009D01*
X74754181Y-59773488D01*
X74787985Y-59774502D01*
X74828832Y-59771496D01*
X74868379Y-59760740D01*
X74907577Y-59740366D01*
X74951035Y-59708507D01*
X74985843Y-59680274D01*
X75091300Y-59731113D01*
X75107720Y-59739036D01*
X75143215Y-59756225D01*
X75172155Y-59770322D01*
X75191909Y-59780045D01*
X75199847Y-59784107D01*
X75200318Y-59787935D01*
X75192724Y-59802067D01*
X75176057Y-59824312D01*
X75151799Y-59852754D01*
X75121432Y-59885477D01*
X75072722Y-59930885D01*
X75008306Y-59975382D01*
X74937816Y-60006977D01*
X74858010Y-60027415D01*
X74834659Y-60030119D01*
X74799341Y-60031486D01*
X74763939Y-60030576D01*
X74692022Y-60020549D01*
X74620772Y-59997209D01*
X74555806Y-59959990D01*
X74494872Y-59907868D01*
X74471120Y-59882132D01*
X74428133Y-59820806D01*
X74400503Y-59755892D01*
X74388409Y-59687902D01*
X74392033Y-59617344D01*
X74399469Y-59581521D01*
X74417553Y-59529982D01*
X74444508Y-59483187D01*
X74481510Y-59440047D01*
X74529736Y-59399471D01*
X74590363Y-59360367D01*
X74664565Y-59321646D01*
X74753521Y-59282217D01*
X74777987Y-59271501D01*
X74828865Y-59244693D01*
X74867726Y-59217127D01*
X74892615Y-59190098D01*
X74898499Y-59179750D01*
X74901458Y-59163585D01*
X74896244Y-59141709D01*
X74894523Y-59136893D01*
X74880915Y-59114507D01*
X74859081Y-59099861D01*
X74826632Y-59091868D01*
X74781182Y-59089445D01*
X74756302Y-59089887D01*
X74727875Y-59092972D01*
X74703088Y-59100473D01*
X74674583Y-59114094D01*
X74651865Y-59126647D01*
X74622862Y-59144178D01*
X74600998Y-59159070D01*
X74574315Y-59179395D01*
X74552907Y-59159989D01*
X74540819Y-59149092D01*
X74518595Y-59129146D01*
X74490676Y-59104146D01*
X74460415Y-59077096D01*
X74389331Y-59013610D01*
X74424193Y-58982672D01*
X74439819Y-58969518D01*
X74488430Y-58934421D01*
X74543562Y-58901032D01*
X74599402Y-58872694D01*
X74650137Y-58852748D01*
X74722257Y-58836539D01*
X74799911Y-58833104D01*
X74875495Y-58843679D01*
G37*
G36*
X74695811Y-57542522D02*
G01*
X74415280Y-57542522D01*
X74415280Y-57261992D01*
X74695811Y-57261992D01*
X74695811Y-57542522D01*
G37*
G36*
X73846205Y-58432203D02*
G01*
X73669872Y-58432203D01*
X73669872Y-58255870D01*
X73846205Y-58255870D01*
X73846205Y-58432203D01*
G37*
G36*
X74904204Y-58239839D02*
G01*
X74623674Y-58239839D01*
X74623674Y-57959309D01*
X74904204Y-57959309D01*
X74904204Y-58239839D01*
G37*
G36*
X73517584Y-58865021D02*
G01*
X73356701Y-58865021D01*
X73361289Y-58708725D01*
X73439436Y-58706431D01*
X73517584Y-58704137D01*
X73517584Y-58865021D01*
G37*
G36*
X75681674Y-60003172D02*
G01*
X75409159Y-60003172D01*
X75409159Y-58857006D01*
X75681674Y-58857006D01*
X75681674Y-60003172D01*
G37*
G36*
X75433204Y-57783355D02*
G01*
X75294943Y-57781162D01*
X75156682Y-57778968D01*
X75154488Y-57640707D01*
X75152295Y-57502446D01*
X75433204Y-57502446D01*
X75433204Y-57783355D01*
G37*
G36*
X72603857Y-58295945D02*
G01*
X72507676Y-58295945D01*
X72507676Y-58207779D01*
X72603857Y-58207779D01*
X72603857Y-58295945D01*
G37*
G36*
X73032668Y-58492317D02*
G01*
X73035084Y-58543571D01*
X73035726Y-58568564D01*
X73035154Y-58592368D01*
X73033332Y-58605688D01*
X73025986Y-58611649D01*
X73006375Y-58615383D01*
X72972806Y-58616551D01*
X72916448Y-58616551D01*
X72916448Y-58487607D01*
X73032668Y-58492317D01*
G37*
D11*
%TO.C,TP11*%
X73700000Y-49100000D02*
G75*
G03*
X73700000Y-49100000I-700000J0D01*
G01*
%TO.C,TP9*%
X76700000Y-49100000D02*
G75*
G03*
X76700000Y-49100000I-700000J0D01*
G01*
%TO.C,TP14*%
X67950000Y-93000000D02*
G75*
G03*
X67950000Y-93000000I-950000J0D01*
G01*
%TO.C,TP6*%
X88700000Y-58100000D02*
G75*
G03*
X88700000Y-58100000I-700000J0D01*
G01*
%TO.C,TP8*%
X88950000Y-72100000D02*
G75*
G03*
X88950000Y-72100000I-950000J0D01*
G01*
%TO.C,TP2*%
X70950000Y-49100000D02*
G75*
G03*
X70950000Y-49100000I-950000J0D01*
G01*
%TO.C,TP10*%
X76950000Y-72100000D02*
G75*
G03*
X76950000Y-72100000I-950000J0D01*
G01*
%TO.C,TP7*%
X70950000Y-56100000D02*
G75*
G03*
X70950000Y-56100000I-950000J0D01*
G01*
%TO.C,TP4*%
X88700000Y-52100000D02*
G75*
G03*
X88700000Y-52100000I-700000J0D01*
G01*
%TO.C,TP1*%
X67950000Y-49100000D02*
G75*
G03*
X67950000Y-49100000I-950000J0D01*
G01*
%TO.C,TP13*%
X82950000Y-93000000D02*
G75*
G03*
X82950000Y-93000000I-950000J0D01*
G01*
%TO.C,TP3*%
X88700000Y-54100000D02*
G75*
G03*
X88700000Y-54100000I-700000J0D01*
G01*
%TO.C,TP12*%
X76700000Y-56100000D02*
G75*
G03*
X76700000Y-56100000I-700000J0D01*
G01*
%TO.C,TP5*%
X88700000Y-56100000D02*
G75*
G03*
X88700000Y-56100000I-700000J0D01*
G01*
%TD*%
M02*
