M48
; DRILL file {KiCad 6.0.11-2627ca5db0~126~ubuntu22.04.1} date do 04 jul 2024 08:26:30
; FORMAT={-:-/ absolute / inch / decimal}
; #@! TF.CreationDate,2024-07-04T08:26:30+02:00
; #@! TF.GenerationSoftware,Kicad,Pcbnew,6.0.11-2627ca5db0~126~ubuntu22.04.1
; #@! TF.FileFunction,Plated,1,2,PTH
FMAT,2
INCH
; #@! TA.AperFunction,Plated,PTH,ComponentDrill
T1C0.0079
; #@! TA.AperFunction,Plated,PTH,ViaDrill
T2C0.0118
; #@! TA.AperFunction,Plated,PTH,ViaDrill
T3C0.0157
; #@! TA.AperFunction,Plated,PTH,ComponentDrill
T4C0.0315
; #@! TA.AperFunction,Plated,PTH,ComponentDrill
T5C0.0394
%
G90
G05
T1
X2.6988Y-3.7126
X2.6988Y-3.7677
X2.7461Y-3.7126
X2.7461Y-3.7677
X2.7933Y-3.7126
X2.7933Y-3.7677
X3.1512Y-1.9905
X3.1512Y-2.0495
X3.1807Y-1.9609
X3.1807Y-2.02
X3.1807Y-2.0791
X3.2102Y-1.9905
X3.2102Y-2.0495
X3.2398Y-1.9609
X3.2398Y-2.02
X3.2398Y-2.0791
X3.2693Y-1.9905
X3.2693Y-2.0495
X3.3937Y-3.6988
X3.3937Y-3.7402
X3.3937Y-3.7815
X3.435Y-3.6988
X3.435Y-3.7402
X3.435Y-3.7815
X3.4764Y-3.6988
X3.4764Y-3.7402
X3.4764Y-3.7815
T2
X2.629Y-3.633
X2.795Y-2.349
X2.798Y-2.066
X2.819Y-2.585
X2.8604Y-2.2588
X2.8645Y-1.9789
X2.8663Y-2.2277
X2.8919Y-2.534
X2.916Y-2.513
X2.983Y-3.073
X2.9838Y-2.1124
X2.992Y-1.898
X3.0026Y-2.1376
X3.0039Y-2.0881
X3.022Y-2.2228
X3.136Y-2.634
X3.1785Y-2.4585
X3.2285Y-2.4585
X3.257Y-3.639
X3.3179Y-3.743
X3.3233Y-3.1708
X3.3417Y-3.3366
X3.365Y-3.2861
X3.366Y-2.987
X3.367Y-3.124
X3.445Y-3.6273
X3.452Y-3.5496
X3.477Y-3.065
X3.501Y-3.124
X3.5079Y-2.8661
X3.5276Y-3.6393
X3.54Y-2.2354
X3.5449Y-1.996
X3.5498Y-2.1102
X3.55Y-2.0591
X3.55Y-2.1594
X3.5534Y-3.6701
X3.56Y-2.26
X3.6575Y-1.8144
X3.7128Y-1.8138
T3
X2.4409Y-2.6575
X2.4409Y-2.8543
X2.4409Y-3.0512
X2.4409Y-3.4449
X2.4409Y-3.6417
X2.4409Y-3.8386
X2.4409Y-4.0354
X2.51Y-2.16
X2.51Y-2.4
X2.614Y-2.054
X2.664Y-1.842
X2.682Y-2.062
X2.79Y-1.79
X2.9035Y-3.5433
X2.9035Y-3.7303
X2.9035Y-3.8878
X2.9921Y-4.0551
X3.0Y-1.82
X3.002Y-3.2185
X3.0119Y-2.9046
X3.0494Y-2.8982
X3.0512Y-2.5984
X3.0906Y-3.5433
X3.1594Y-3.7894
X3.1594Y-3.8976
X3.189Y-4.0551
X3.2087Y-2.7657
X3.243Y-2.947
X3.2579Y-3.3563
X3.2677Y-2.8445
X3.28Y-1.82
X3.2972Y-2.6575
X3.31Y-3.382
X3.3563Y-3.8583
X3.376Y-3.5827
X3.4154Y-3.3583
X3.435Y-2.6575
X3.4843Y-2.9823
X3.49Y-2.36
X3.51Y-1.82
X3.5531Y-2.5787
X3.563Y-3.4744
X3.5728Y-3.8189
X3.6614Y-2.5787
X3.666Y-2.188
X3.674Y-2.411
X3.714Y-1.996
X3.7402Y-2.5197
X3.7402Y-3.0217
X3.7402Y-3.4744
X3.7402Y-3.937
X3.7402Y-4.0354
T4
X3.7402Y-2.0512
X3.7402Y-2.1299
X3.7402Y-2.2087
X3.7402Y-2.2874
X3.7402Y-2.3661
X3.7402Y-2.4449
T5
X2.5961Y-4.0157
X2.6961Y-4.0157
X2.7961Y-4.0157
X2.8961Y-4.0157
X2.9906Y-3.3252
X2.9906Y-3.4252
X3.0406Y-3.0798
X3.0906Y-3.3252
X3.0906Y-3.4252
X3.1406Y-3.0798
X3.1906Y-3.3252
X3.1906Y-3.4252
X3.285Y-4.0157
X3.385Y-4.0157
X3.485Y-4.0157
X3.585Y-4.0157
X3.689Y-3.0827
X3.689Y-3.1827
X3.689Y-3.2827
X3.689Y-3.3827
X3.689Y-3.5701
X3.689Y-3.6701
X3.689Y-3.7701
X3.689Y-3.8701
T4
G00X2.626Y-2.8425
M15
G01X2.626Y-2.9291
M16
G05
G00X2.6929Y-3.0748
M15
G01X2.7795Y-3.0748
M16
G05
G00X2.8543Y-2.8346
M15
G01X2.8543Y-2.937
M16
G05
T0
M30
