%TF.GenerationSoftware,KiCad,Pcbnew,9.0.7-9.0.7~ubuntu24.04.1*%
%TF.CreationDate,2026-01-28T20:04:05+01:00*%
%TF.ProjectId,MCM-81339,4d434d2d-3831-4333-9339-2e6b69636164,rev?*%
%TF.SameCoordinates,Original*%
%TF.FileFunction,Legend,Bot*%
%TF.FilePolarity,Positive*%
%FSLAX46Y46*%
G04 Gerber Fmt 4.6, Leading zero omitted, Abs format (unit mm)*
G04 Created by KiCad (PCBNEW 9.0.7-9.0.7~ubuntu24.04.1) date 2026-01-28 20:04:05*
%MOMM*%
%LPD*%
G01*
G04 APERTURE LIST*
%ADD10C,0.500000*%
%ADD11C,0.250000*%
%ADD12C,0.120000*%
%ADD13C,0.010000*%
%ADD14C,0.000000*%
G04 APERTURE END LIST*
D10*
X78500000Y-91500000D02*
X78500000Y-104250000D01*
D11*
X69137857Y-100414098D02*
X67937857Y-100128384D01*
X67937857Y-100128384D02*
X68795000Y-99899812D01*
X68795000Y-99899812D02*
X67937857Y-99671241D01*
X67937857Y-99671241D02*
X69137857Y-99385527D01*
X91421241Y-97699285D02*
X91535527Y-97642142D01*
X91535527Y-97642142D02*
X91706955Y-97642142D01*
X91706955Y-97642142D02*
X91878384Y-97699285D01*
X91878384Y-97699285D02*
X91992669Y-97813571D01*
X91992669Y-97813571D02*
X92049812Y-97927857D01*
X92049812Y-97927857D02*
X92106955Y-98156428D01*
X92106955Y-98156428D02*
X92106955Y-98327857D01*
X92106955Y-98327857D02*
X92049812Y-98556428D01*
X92049812Y-98556428D02*
X91992669Y-98670714D01*
X91992669Y-98670714D02*
X91878384Y-98785000D01*
X91878384Y-98785000D02*
X91706955Y-98842142D01*
X91706955Y-98842142D02*
X91592669Y-98842142D01*
X91592669Y-98842142D02*
X91421241Y-98785000D01*
X91421241Y-98785000D02*
X91364098Y-98727857D01*
X91364098Y-98727857D02*
X91364098Y-98327857D01*
X91364098Y-98327857D02*
X91592669Y-98327857D01*
X90849812Y-98842142D02*
X90849812Y-97642142D01*
X90849812Y-97642142D02*
X90164098Y-98842142D01*
X90164098Y-98842142D02*
X90164098Y-97642142D01*
X89592669Y-98842142D02*
X89592669Y-97642142D01*
X89592669Y-97642142D02*
X89306955Y-97642142D01*
X89306955Y-97642142D02*
X89135526Y-97699285D01*
X89135526Y-97699285D02*
X89021241Y-97813571D01*
X89021241Y-97813571D02*
X88964098Y-97927857D01*
X88964098Y-97927857D02*
X88906955Y-98156428D01*
X88906955Y-98156428D02*
X88906955Y-98327857D01*
X88906955Y-98327857D02*
X88964098Y-98556428D01*
X88964098Y-98556428D02*
X89021241Y-98670714D01*
X89021241Y-98670714D02*
X89135526Y-98785000D01*
X89135526Y-98785000D02*
X89306955Y-98842142D01*
X89306955Y-98842142D02*
X89592669Y-98842142D01*
X74217857Y-100299812D02*
X73246428Y-100299812D01*
X73246428Y-100299812D02*
X73132142Y-100242669D01*
X73132142Y-100242669D02*
X73075000Y-100185527D01*
X73075000Y-100185527D02*
X73017857Y-100071241D01*
X73017857Y-100071241D02*
X73017857Y-99842669D01*
X73017857Y-99842669D02*
X73075000Y-99728384D01*
X73075000Y-99728384D02*
X73132142Y-99671241D01*
X73132142Y-99671241D02*
X73246428Y-99614098D01*
X73246428Y-99614098D02*
X74217857Y-99614098D01*
X71677857Y-100471241D02*
X70477857Y-100071241D01*
X70477857Y-100071241D02*
X71677857Y-99671241D01*
X91717857Y-100299812D02*
X90746428Y-100299812D01*
X90746428Y-100299812D02*
X90632142Y-100242669D01*
X90632142Y-100242669D02*
X90575000Y-100185527D01*
X90575000Y-100185527D02*
X90517857Y-100071241D01*
X90517857Y-100071241D02*
X90517857Y-99842669D01*
X90517857Y-99842669D02*
X90575000Y-99728384D01*
X90575000Y-99728384D02*
X90632142Y-99671241D01*
X90632142Y-99671241D02*
X90746428Y-99614098D01*
X90746428Y-99614098D02*
X91717857Y-99614098D01*
X92049812Y-93762142D02*
X92049812Y-92562142D01*
X91249812Y-92562142D02*
X91021240Y-92562142D01*
X91021240Y-92562142D02*
X90906955Y-92619285D01*
X90906955Y-92619285D02*
X90792669Y-92733571D01*
X90792669Y-92733571D02*
X90735526Y-92962142D01*
X90735526Y-92962142D02*
X90735526Y-93362142D01*
X90735526Y-93362142D02*
X90792669Y-93590714D01*
X90792669Y-93590714D02*
X90906955Y-93705000D01*
X90906955Y-93705000D02*
X91021240Y-93762142D01*
X91021240Y-93762142D02*
X91249812Y-93762142D01*
X91249812Y-93762142D02*
X91364098Y-93705000D01*
X91364098Y-93705000D02*
X91478383Y-93590714D01*
X91478383Y-93590714D02*
X91535526Y-93362142D01*
X91535526Y-93362142D02*
X91535526Y-92962142D01*
X91535526Y-92962142D02*
X91478383Y-92733571D01*
X91478383Y-92733571D02*
X91364098Y-92619285D01*
X91364098Y-92619285D02*
X91249812Y-92562142D01*
X89706955Y-92562142D02*
X89935526Y-92562142D01*
X89935526Y-92562142D02*
X90049812Y-92619285D01*
X90049812Y-92619285D02*
X90106955Y-92676428D01*
X90106955Y-92676428D02*
X90221240Y-92847857D01*
X90221240Y-92847857D02*
X90278383Y-93076428D01*
X90278383Y-93076428D02*
X90278383Y-93533571D01*
X90278383Y-93533571D02*
X90221240Y-93647857D01*
X90221240Y-93647857D02*
X90164097Y-93705000D01*
X90164097Y-93705000D02*
X90049812Y-93762142D01*
X90049812Y-93762142D02*
X89821240Y-93762142D01*
X89821240Y-93762142D02*
X89706955Y-93705000D01*
X89706955Y-93705000D02*
X89649812Y-93647857D01*
X89649812Y-93647857D02*
X89592669Y-93533571D01*
X89592669Y-93533571D02*
X89592669Y-93247857D01*
X89592669Y-93247857D02*
X89649812Y-93133571D01*
X89649812Y-93133571D02*
X89706955Y-93076428D01*
X89706955Y-93076428D02*
X89821240Y-93019285D01*
X89821240Y-93019285D02*
X90049812Y-93019285D01*
X90049812Y-93019285D02*
X90164097Y-93076428D01*
X90164097Y-93076428D02*
X90221240Y-93133571D01*
X90221240Y-93133571D02*
X90278383Y-93247857D01*
X79093571Y-102749812D02*
X79150714Y-102864098D01*
X79150714Y-102864098D02*
X79265000Y-102978384D01*
X79265000Y-102978384D02*
X79436428Y-103149812D01*
X79436428Y-103149812D02*
X79493571Y-103264098D01*
X79493571Y-103264098D02*
X79493571Y-103378384D01*
X79207857Y-103321241D02*
X79265000Y-103435527D01*
X79265000Y-103435527D02*
X79379285Y-103549812D01*
X79379285Y-103549812D02*
X79607857Y-103606955D01*
X79607857Y-103606955D02*
X80007857Y-103606955D01*
X80007857Y-103606955D02*
X80236428Y-103549812D01*
X80236428Y-103549812D02*
X80350714Y-103435527D01*
X80350714Y-103435527D02*
X80407857Y-103321241D01*
X80407857Y-103321241D02*
X80407857Y-103092669D01*
X80407857Y-103092669D02*
X80350714Y-102978384D01*
X80350714Y-102978384D02*
X80236428Y-102864098D01*
X80236428Y-102864098D02*
X80007857Y-102806955D01*
X80007857Y-102806955D02*
X79607857Y-102806955D01*
X79607857Y-102806955D02*
X79379285Y-102864098D01*
X79379285Y-102864098D02*
X79265000Y-102978384D01*
X79265000Y-102978384D02*
X79207857Y-103092669D01*
X79207857Y-103092669D02*
X79207857Y-103321241D01*
X79836428Y-101892669D02*
X79836428Y-102292669D01*
X79207857Y-102292669D02*
X80407857Y-102292669D01*
X80407857Y-102292669D02*
X80407857Y-101721241D01*
X79207857Y-101264098D02*
X80407857Y-101264098D01*
X80407857Y-101264098D02*
X79207857Y-100578384D01*
X79207857Y-100578384D02*
X80407857Y-100578384D01*
X80293571Y-100064098D02*
X80350714Y-100006955D01*
X80350714Y-100006955D02*
X80407857Y-99892670D01*
X80407857Y-99892670D02*
X80407857Y-99606955D01*
X80407857Y-99606955D02*
X80350714Y-99492670D01*
X80350714Y-99492670D02*
X80293571Y-99435527D01*
X80293571Y-99435527D02*
X80179285Y-99378384D01*
X80179285Y-99378384D02*
X80065000Y-99378384D01*
X80065000Y-99378384D02*
X79893571Y-99435527D01*
X79893571Y-99435527D02*
X79207857Y-100121241D01*
X79207857Y-100121241D02*
X79207857Y-99378384D01*
X80007857Y-98349813D02*
X79207857Y-98349813D01*
X80465000Y-98635527D02*
X79607857Y-98921241D01*
X79607857Y-98921241D02*
X79607857Y-98178384D01*
X92221241Y-90022142D02*
X91821241Y-91222142D01*
X91821241Y-91222142D02*
X91421241Y-90022142D01*
X91021241Y-91222142D02*
X91021241Y-90022142D01*
X91021241Y-90022142D02*
X90735527Y-90022142D01*
X90735527Y-90022142D02*
X90564098Y-90079285D01*
X90564098Y-90079285D02*
X90449813Y-90193571D01*
X90449813Y-90193571D02*
X90392670Y-90307857D01*
X90392670Y-90307857D02*
X90335527Y-90536428D01*
X90335527Y-90536428D02*
X90335527Y-90707857D01*
X90335527Y-90707857D02*
X90392670Y-90936428D01*
X90392670Y-90936428D02*
X90449813Y-91050714D01*
X90449813Y-91050714D02*
X90564098Y-91165000D01*
X90564098Y-91165000D02*
X90735527Y-91222142D01*
X90735527Y-91222142D02*
X91021241Y-91222142D01*
X89821241Y-91222142D02*
X89821241Y-90022142D01*
X89821241Y-90022142D02*
X89535527Y-90022142D01*
X89535527Y-90022142D02*
X89364098Y-90079285D01*
X89364098Y-90079285D02*
X89249813Y-90193571D01*
X89249813Y-90193571D02*
X89192670Y-90307857D01*
X89192670Y-90307857D02*
X89135527Y-90536428D01*
X89135527Y-90536428D02*
X89135527Y-90707857D01*
X89135527Y-90707857D02*
X89192670Y-90936428D01*
X89192670Y-90936428D02*
X89249813Y-91050714D01*
X89249813Y-91050714D02*
X89364098Y-91165000D01*
X89364098Y-91165000D02*
X89535527Y-91222142D01*
X89535527Y-91222142D02*
X89821241Y-91222142D01*
X88678384Y-90879285D02*
X88106956Y-90879285D01*
X88792670Y-91222142D02*
X88392670Y-90022142D01*
X88392670Y-90022142D02*
X87992670Y-91222142D01*
X62535380Y-75633332D02*
X62535380Y-76109522D01*
X62535380Y-76109522D02*
X62059190Y-76157141D01*
X62059190Y-76157141D02*
X62106809Y-76109522D01*
X62106809Y-76109522D02*
X62154428Y-76014284D01*
X62154428Y-76014284D02*
X62154428Y-75776189D01*
X62154428Y-75776189D02*
X62106809Y-75680951D01*
X62106809Y-75680951D02*
X62059190Y-75633332D01*
X62059190Y-75633332D02*
X61963952Y-75585713D01*
X61963952Y-75585713D02*
X61725857Y-75585713D01*
X61725857Y-75585713D02*
X61630619Y-75633332D01*
X61630619Y-75633332D02*
X61583000Y-75680951D01*
X61583000Y-75680951D02*
X61535380Y-75776189D01*
X61535380Y-75776189D02*
X61535380Y-76014284D01*
X61535380Y-76014284D02*
X61583000Y-76109522D01*
X61583000Y-76109522D02*
X61630619Y-76157141D01*
X61630619Y-75157141D02*
X61583000Y-75109522D01*
X61583000Y-75109522D02*
X61535380Y-75157141D01*
X61535380Y-75157141D02*
X61583000Y-75204760D01*
X61583000Y-75204760D02*
X61630619Y-75157141D01*
X61630619Y-75157141D02*
X61535380Y-75157141D01*
X62535380Y-74204761D02*
X62535380Y-74680951D01*
X62535380Y-74680951D02*
X62059190Y-74728570D01*
X62059190Y-74728570D02*
X62106809Y-74680951D01*
X62106809Y-74680951D02*
X62154428Y-74585713D01*
X62154428Y-74585713D02*
X62154428Y-74347618D01*
X62154428Y-74347618D02*
X62106809Y-74252380D01*
X62106809Y-74252380D02*
X62059190Y-74204761D01*
X62059190Y-74204761D02*
X61963952Y-74157142D01*
X61963952Y-74157142D02*
X61725857Y-74157142D01*
X61725857Y-74157142D02*
X61630619Y-74204761D01*
X61630619Y-74204761D02*
X61583000Y-74252380D01*
X61583000Y-74252380D02*
X61535380Y-74347618D01*
X61535380Y-74347618D02*
X61535380Y-74585713D01*
X61535380Y-74585713D02*
X61583000Y-74680951D01*
X61583000Y-74680951D02*
X61630619Y-74728570D01*
X61630619Y-73728570D02*
X61583000Y-73680951D01*
X61583000Y-73680951D02*
X61535380Y-73728570D01*
X61535380Y-73728570D02*
X61583000Y-73776189D01*
X61583000Y-73776189D02*
X61630619Y-73728570D01*
X61630619Y-73728570D02*
X61535380Y-73728570D01*
X61630619Y-73252380D02*
X61583000Y-73204761D01*
X61583000Y-73204761D02*
X61535380Y-73252380D01*
X61535380Y-73252380D02*
X61583000Y-73299999D01*
X61583000Y-73299999D02*
X61630619Y-73252380D01*
X61630619Y-73252380D02*
X61535380Y-73252380D01*
X62440142Y-72823809D02*
X62487761Y-72776190D01*
X62487761Y-72776190D02*
X62535380Y-72680952D01*
X62535380Y-72680952D02*
X62535380Y-72442857D01*
X62535380Y-72442857D02*
X62487761Y-72347619D01*
X62487761Y-72347619D02*
X62440142Y-72300000D01*
X62440142Y-72300000D02*
X62344904Y-72252381D01*
X62344904Y-72252381D02*
X62249666Y-72252381D01*
X62249666Y-72252381D02*
X62106809Y-72300000D01*
X62106809Y-72300000D02*
X61535380Y-72871428D01*
X61535380Y-72871428D02*
X61535380Y-72252381D01*
X62535380Y-71919047D02*
X62535380Y-71252381D01*
X62535380Y-71252381D02*
X61535380Y-71680952D01*
X62535380Y-71014285D02*
X61535380Y-70680952D01*
X61535380Y-70680952D02*
X62535380Y-70347619D01*
X66597857Y-100471241D02*
X66597857Y-99785527D01*
X65397857Y-100128384D02*
X66597857Y-100128384D01*
X92221241Y-77642142D02*
X91821241Y-78842142D01*
X91821241Y-78842142D02*
X91421241Y-77642142D01*
X91078384Y-78785000D02*
X90906956Y-78842142D01*
X90906956Y-78842142D02*
X90621241Y-78842142D01*
X90621241Y-78842142D02*
X90506956Y-78785000D01*
X90506956Y-78785000D02*
X90449813Y-78727857D01*
X90449813Y-78727857D02*
X90392670Y-78613571D01*
X90392670Y-78613571D02*
X90392670Y-78499285D01*
X90392670Y-78499285D02*
X90449813Y-78385000D01*
X90449813Y-78385000D02*
X90506956Y-78327857D01*
X90506956Y-78327857D02*
X90621241Y-78270714D01*
X90621241Y-78270714D02*
X90849813Y-78213571D01*
X90849813Y-78213571D02*
X90964098Y-78156428D01*
X90964098Y-78156428D02*
X91021241Y-78099285D01*
X91021241Y-78099285D02*
X91078384Y-77985000D01*
X91078384Y-77985000D02*
X91078384Y-77870714D01*
X91078384Y-77870714D02*
X91021241Y-77756428D01*
X91021241Y-77756428D02*
X90964098Y-77699285D01*
X90964098Y-77699285D02*
X90849813Y-77642142D01*
X90849813Y-77642142D02*
X90564098Y-77642142D01*
X90564098Y-77642142D02*
X90392670Y-77699285D01*
X89878384Y-77642142D02*
X89878384Y-78613571D01*
X89878384Y-78613571D02*
X89821241Y-78727857D01*
X89821241Y-78727857D02*
X89764099Y-78785000D01*
X89764099Y-78785000D02*
X89649813Y-78842142D01*
X89649813Y-78842142D02*
X89421241Y-78842142D01*
X89421241Y-78842142D02*
X89306956Y-78785000D01*
X89306956Y-78785000D02*
X89249813Y-78727857D01*
X89249813Y-78727857D02*
X89192670Y-78613571D01*
X89192670Y-78613571D02*
X89192670Y-77642142D01*
X88621241Y-78842142D02*
X88621241Y-77642142D01*
X88621241Y-77642142D02*
X88164098Y-77642142D01*
X88164098Y-77642142D02*
X88049813Y-77699285D01*
X88049813Y-77699285D02*
X87992670Y-77756428D01*
X87992670Y-77756428D02*
X87935527Y-77870714D01*
X87935527Y-77870714D02*
X87935527Y-78042142D01*
X87935527Y-78042142D02*
X87992670Y-78156428D01*
X87992670Y-78156428D02*
X88049813Y-78213571D01*
X88049813Y-78213571D02*
X88164098Y-78270714D01*
X88164098Y-78270714D02*
X88621241Y-78270714D01*
X92049812Y-96302142D02*
X92049812Y-95102142D01*
X91249812Y-95102142D02*
X91021240Y-95102142D01*
X91021240Y-95102142D02*
X90906955Y-95159285D01*
X90906955Y-95159285D02*
X90792669Y-95273571D01*
X90792669Y-95273571D02*
X90735526Y-95502142D01*
X90735526Y-95502142D02*
X90735526Y-95902142D01*
X90735526Y-95902142D02*
X90792669Y-96130714D01*
X90792669Y-96130714D02*
X90906955Y-96245000D01*
X90906955Y-96245000D02*
X91021240Y-96302142D01*
X91021240Y-96302142D02*
X91249812Y-96302142D01*
X91249812Y-96302142D02*
X91364098Y-96245000D01*
X91364098Y-96245000D02*
X91478383Y-96130714D01*
X91478383Y-96130714D02*
X91535526Y-95902142D01*
X91535526Y-95902142D02*
X91535526Y-95502142D01*
X91535526Y-95502142D02*
X91478383Y-95273571D01*
X91478383Y-95273571D02*
X91364098Y-95159285D01*
X91364098Y-95159285D02*
X91249812Y-95102142D01*
X90335526Y-95102142D02*
X89535526Y-95102142D01*
X89535526Y-95102142D02*
X90049812Y-96302142D01*
X76765000Y-103606955D02*
X76707857Y-103435527D01*
X76707857Y-103435527D02*
X76707857Y-103149812D01*
X76707857Y-103149812D02*
X76765000Y-103035527D01*
X76765000Y-103035527D02*
X76822142Y-102978384D01*
X76822142Y-102978384D02*
X76936428Y-102921241D01*
X76936428Y-102921241D02*
X77050714Y-102921241D01*
X77050714Y-102921241D02*
X77165000Y-102978384D01*
X77165000Y-102978384D02*
X77222142Y-103035527D01*
X77222142Y-103035527D02*
X77279285Y-103149812D01*
X77279285Y-103149812D02*
X77336428Y-103378384D01*
X77336428Y-103378384D02*
X77393571Y-103492669D01*
X77393571Y-103492669D02*
X77450714Y-103549812D01*
X77450714Y-103549812D02*
X77565000Y-103606955D01*
X77565000Y-103606955D02*
X77679285Y-103606955D01*
X77679285Y-103606955D02*
X77793571Y-103549812D01*
X77793571Y-103549812D02*
X77850714Y-103492669D01*
X77850714Y-103492669D02*
X77907857Y-103378384D01*
X77907857Y-103378384D02*
X77907857Y-103092669D01*
X77907857Y-103092669D02*
X77850714Y-102921241D01*
X77907857Y-102178384D02*
X77907857Y-101949812D01*
X77907857Y-101949812D02*
X77850714Y-101835527D01*
X77850714Y-101835527D02*
X77736428Y-101721241D01*
X77736428Y-101721241D02*
X77507857Y-101664098D01*
X77507857Y-101664098D02*
X77107857Y-101664098D01*
X77107857Y-101664098D02*
X76879285Y-101721241D01*
X76879285Y-101721241D02*
X76765000Y-101835527D01*
X76765000Y-101835527D02*
X76707857Y-101949812D01*
X76707857Y-101949812D02*
X76707857Y-102178384D01*
X76707857Y-102178384D02*
X76765000Y-102292670D01*
X76765000Y-102292670D02*
X76879285Y-102406955D01*
X76879285Y-102406955D02*
X77107857Y-102464098D01*
X77107857Y-102464098D02*
X77507857Y-102464098D01*
X77507857Y-102464098D02*
X77736428Y-102406955D01*
X77736428Y-102406955D02*
X77850714Y-102292670D01*
X77850714Y-102292670D02*
X77907857Y-102178384D01*
X77393571Y-100978384D02*
X77450714Y-101092669D01*
X77450714Y-101092669D02*
X77507857Y-101149812D01*
X77507857Y-101149812D02*
X77622142Y-101206955D01*
X77622142Y-101206955D02*
X77679285Y-101206955D01*
X77679285Y-101206955D02*
X77793571Y-101149812D01*
X77793571Y-101149812D02*
X77850714Y-101092669D01*
X77850714Y-101092669D02*
X77907857Y-100978384D01*
X77907857Y-100978384D02*
X77907857Y-100749812D01*
X77907857Y-100749812D02*
X77850714Y-100635527D01*
X77850714Y-100635527D02*
X77793571Y-100578384D01*
X77793571Y-100578384D02*
X77679285Y-100521241D01*
X77679285Y-100521241D02*
X77622142Y-100521241D01*
X77622142Y-100521241D02*
X77507857Y-100578384D01*
X77507857Y-100578384D02*
X77450714Y-100635527D01*
X77450714Y-100635527D02*
X77393571Y-100749812D01*
X77393571Y-100749812D02*
X77393571Y-100978384D01*
X77393571Y-100978384D02*
X77336428Y-101092669D01*
X77336428Y-101092669D02*
X77279285Y-101149812D01*
X77279285Y-101149812D02*
X77165000Y-101206955D01*
X77165000Y-101206955D02*
X76936428Y-101206955D01*
X76936428Y-101206955D02*
X76822142Y-101149812D01*
X76822142Y-101149812D02*
X76765000Y-101092669D01*
X76765000Y-101092669D02*
X76707857Y-100978384D01*
X76707857Y-100978384D02*
X76707857Y-100749812D01*
X76707857Y-100749812D02*
X76765000Y-100635527D01*
X76765000Y-100635527D02*
X76822142Y-100578384D01*
X76822142Y-100578384D02*
X76936428Y-100521241D01*
X76936428Y-100521241D02*
X77165000Y-100521241D01*
X77165000Y-100521241D02*
X77279285Y-100578384D01*
X77279285Y-100578384D02*
X77336428Y-100635527D01*
X77336428Y-100635527D02*
X77393571Y-100749812D01*
X83785713Y-62042142D02*
X83785713Y-60842142D01*
X83785713Y-60842142D02*
X83385713Y-61699285D01*
X83385713Y-61699285D02*
X82985713Y-60842142D01*
X82985713Y-60842142D02*
X82985713Y-62042142D01*
X81728570Y-61927857D02*
X81785713Y-61985000D01*
X81785713Y-61985000D02*
X81957141Y-62042142D01*
X81957141Y-62042142D02*
X82071427Y-62042142D01*
X82071427Y-62042142D02*
X82242856Y-61985000D01*
X82242856Y-61985000D02*
X82357141Y-61870714D01*
X82357141Y-61870714D02*
X82414284Y-61756428D01*
X82414284Y-61756428D02*
X82471427Y-61527857D01*
X82471427Y-61527857D02*
X82471427Y-61356428D01*
X82471427Y-61356428D02*
X82414284Y-61127857D01*
X82414284Y-61127857D02*
X82357141Y-61013571D01*
X82357141Y-61013571D02*
X82242856Y-60899285D01*
X82242856Y-60899285D02*
X82071427Y-60842142D01*
X82071427Y-60842142D02*
X81957141Y-60842142D01*
X81957141Y-60842142D02*
X81785713Y-60899285D01*
X81785713Y-60899285D02*
X81728570Y-60956428D01*
X81214284Y-62042142D02*
X81214284Y-60842142D01*
X81214284Y-60842142D02*
X80814284Y-61699285D01*
X80814284Y-61699285D02*
X80414284Y-60842142D01*
X80414284Y-60842142D02*
X80414284Y-62042142D01*
X79842855Y-61585000D02*
X78928570Y-61585000D01*
X78185713Y-61356428D02*
X78299998Y-61299285D01*
X78299998Y-61299285D02*
X78357141Y-61242142D01*
X78357141Y-61242142D02*
X78414284Y-61127857D01*
X78414284Y-61127857D02*
X78414284Y-61070714D01*
X78414284Y-61070714D02*
X78357141Y-60956428D01*
X78357141Y-60956428D02*
X78299998Y-60899285D01*
X78299998Y-60899285D02*
X78185713Y-60842142D01*
X78185713Y-60842142D02*
X77957141Y-60842142D01*
X77957141Y-60842142D02*
X77842856Y-60899285D01*
X77842856Y-60899285D02*
X77785713Y-60956428D01*
X77785713Y-60956428D02*
X77728570Y-61070714D01*
X77728570Y-61070714D02*
X77728570Y-61127857D01*
X77728570Y-61127857D02*
X77785713Y-61242142D01*
X77785713Y-61242142D02*
X77842856Y-61299285D01*
X77842856Y-61299285D02*
X77957141Y-61356428D01*
X77957141Y-61356428D02*
X78185713Y-61356428D01*
X78185713Y-61356428D02*
X78299998Y-61413571D01*
X78299998Y-61413571D02*
X78357141Y-61470714D01*
X78357141Y-61470714D02*
X78414284Y-61585000D01*
X78414284Y-61585000D02*
X78414284Y-61813571D01*
X78414284Y-61813571D02*
X78357141Y-61927857D01*
X78357141Y-61927857D02*
X78299998Y-61985000D01*
X78299998Y-61985000D02*
X78185713Y-62042142D01*
X78185713Y-62042142D02*
X77957141Y-62042142D01*
X77957141Y-62042142D02*
X77842856Y-61985000D01*
X77842856Y-61985000D02*
X77785713Y-61927857D01*
X77785713Y-61927857D02*
X77728570Y-61813571D01*
X77728570Y-61813571D02*
X77728570Y-61585000D01*
X77728570Y-61585000D02*
X77785713Y-61470714D01*
X77785713Y-61470714D02*
X77842856Y-61413571D01*
X77842856Y-61413571D02*
X77957141Y-61356428D01*
X76585713Y-62042142D02*
X77271427Y-62042142D01*
X76928570Y-62042142D02*
X76928570Y-60842142D01*
X76928570Y-60842142D02*
X77042856Y-61013571D01*
X77042856Y-61013571D02*
X77157141Y-61127857D01*
X77157141Y-61127857D02*
X77271427Y-61185000D01*
X76185713Y-60842142D02*
X75442856Y-60842142D01*
X75442856Y-60842142D02*
X75842856Y-61299285D01*
X75842856Y-61299285D02*
X75671427Y-61299285D01*
X75671427Y-61299285D02*
X75557142Y-61356428D01*
X75557142Y-61356428D02*
X75499999Y-61413571D01*
X75499999Y-61413571D02*
X75442856Y-61527857D01*
X75442856Y-61527857D02*
X75442856Y-61813571D01*
X75442856Y-61813571D02*
X75499999Y-61927857D01*
X75499999Y-61927857D02*
X75557142Y-61985000D01*
X75557142Y-61985000D02*
X75671427Y-62042142D01*
X75671427Y-62042142D02*
X76014284Y-62042142D01*
X76014284Y-62042142D02*
X76128570Y-61985000D01*
X76128570Y-61985000D02*
X76185713Y-61927857D01*
X75042856Y-60842142D02*
X74299999Y-60842142D01*
X74299999Y-60842142D02*
X74699999Y-61299285D01*
X74699999Y-61299285D02*
X74528570Y-61299285D01*
X74528570Y-61299285D02*
X74414285Y-61356428D01*
X74414285Y-61356428D02*
X74357142Y-61413571D01*
X74357142Y-61413571D02*
X74299999Y-61527857D01*
X74299999Y-61527857D02*
X74299999Y-61813571D01*
X74299999Y-61813571D02*
X74357142Y-61927857D01*
X74357142Y-61927857D02*
X74414285Y-61985000D01*
X74414285Y-61985000D02*
X74528570Y-62042142D01*
X74528570Y-62042142D02*
X74871427Y-62042142D01*
X74871427Y-62042142D02*
X74985713Y-61985000D01*
X74985713Y-61985000D02*
X75042856Y-61927857D01*
X73728570Y-62042142D02*
X73499999Y-62042142D01*
X73499999Y-62042142D02*
X73385713Y-61985000D01*
X73385713Y-61985000D02*
X73328570Y-61927857D01*
X73328570Y-61927857D02*
X73214285Y-61756428D01*
X73214285Y-61756428D02*
X73157142Y-61527857D01*
X73157142Y-61527857D02*
X73157142Y-61070714D01*
X73157142Y-61070714D02*
X73214285Y-60956428D01*
X73214285Y-60956428D02*
X73271428Y-60899285D01*
X73271428Y-60899285D02*
X73385713Y-60842142D01*
X73385713Y-60842142D02*
X73614285Y-60842142D01*
X73614285Y-60842142D02*
X73728570Y-60899285D01*
X73728570Y-60899285D02*
X73785713Y-60956428D01*
X73785713Y-60956428D02*
X73842856Y-61070714D01*
X73842856Y-61070714D02*
X73842856Y-61356428D01*
X73842856Y-61356428D02*
X73785713Y-61470714D01*
X73785713Y-61470714D02*
X73728570Y-61527857D01*
X73728570Y-61527857D02*
X73614285Y-61585000D01*
X73614285Y-61585000D02*
X73385713Y-61585000D01*
X73385713Y-61585000D02*
X73271428Y-61527857D01*
X73271428Y-61527857D02*
X73214285Y-61470714D01*
X73214285Y-61470714D02*
X73157142Y-61356428D01*
X92221241Y-80182142D02*
X91535527Y-80182142D01*
X91878384Y-81382142D02*
X91878384Y-80182142D01*
X91249812Y-80182142D02*
X90449812Y-81382142D01*
X90449812Y-80182142D02*
X91249812Y-81382142D01*
X89992669Y-81382142D02*
X89992669Y-80182142D01*
X89992669Y-80182142D02*
X89706955Y-80182142D01*
X89706955Y-80182142D02*
X89535526Y-80239285D01*
X89535526Y-80239285D02*
X89421241Y-80353571D01*
X89421241Y-80353571D02*
X89364098Y-80467857D01*
X89364098Y-80467857D02*
X89306955Y-80696428D01*
X89306955Y-80696428D02*
X89306955Y-80867857D01*
X89306955Y-80867857D02*
X89364098Y-81096428D01*
X89364098Y-81096428D02*
X89421241Y-81210714D01*
X89421241Y-81210714D02*
X89535526Y-81325000D01*
X89535526Y-81325000D02*
X89706955Y-81382142D01*
X89706955Y-81382142D02*
X89992669Y-81382142D01*
X87935526Y-80125000D02*
X88964098Y-81667857D01*
X87592669Y-81325000D02*
X87421241Y-81382142D01*
X87421241Y-81382142D02*
X87135526Y-81382142D01*
X87135526Y-81382142D02*
X87021241Y-81325000D01*
X87021241Y-81325000D02*
X86964098Y-81267857D01*
X86964098Y-81267857D02*
X86906955Y-81153571D01*
X86906955Y-81153571D02*
X86906955Y-81039285D01*
X86906955Y-81039285D02*
X86964098Y-80925000D01*
X86964098Y-80925000D02*
X87021241Y-80867857D01*
X87021241Y-80867857D02*
X87135526Y-80810714D01*
X87135526Y-80810714D02*
X87364098Y-80753571D01*
X87364098Y-80753571D02*
X87478383Y-80696428D01*
X87478383Y-80696428D02*
X87535526Y-80639285D01*
X87535526Y-80639285D02*
X87592669Y-80525000D01*
X87592669Y-80525000D02*
X87592669Y-80410714D01*
X87592669Y-80410714D02*
X87535526Y-80296428D01*
X87535526Y-80296428D02*
X87478383Y-80239285D01*
X87478383Y-80239285D02*
X87364098Y-80182142D01*
X87364098Y-80182142D02*
X87078383Y-80182142D01*
X87078383Y-80182142D02*
X86906955Y-80239285D01*
X86392669Y-81382142D02*
X86392669Y-80182142D01*
X86392669Y-80182142D02*
X86106955Y-80182142D01*
X86106955Y-80182142D02*
X85935526Y-80239285D01*
X85935526Y-80239285D02*
X85821241Y-80353571D01*
X85821241Y-80353571D02*
X85764098Y-80467857D01*
X85764098Y-80467857D02*
X85706955Y-80696428D01*
X85706955Y-80696428D02*
X85706955Y-80867857D01*
X85706955Y-80867857D02*
X85764098Y-81096428D01*
X85764098Y-81096428D02*
X85821241Y-81210714D01*
X85821241Y-81210714D02*
X85935526Y-81325000D01*
X85935526Y-81325000D02*
X86106955Y-81382142D01*
X86106955Y-81382142D02*
X86392669Y-81382142D01*
X85249812Y-81039285D02*
X84678384Y-81039285D01*
X85364098Y-81382142D02*
X84964098Y-80182142D01*
X84964098Y-80182142D02*
X84564098Y-81382142D01*
X91364098Y-83922142D02*
X91764098Y-83350714D01*
X92049812Y-83922142D02*
X92049812Y-82722142D01*
X92049812Y-82722142D02*
X91592669Y-82722142D01*
X91592669Y-82722142D02*
X91478384Y-82779285D01*
X91478384Y-82779285D02*
X91421241Y-82836428D01*
X91421241Y-82836428D02*
X91364098Y-82950714D01*
X91364098Y-82950714D02*
X91364098Y-83122142D01*
X91364098Y-83122142D02*
X91421241Y-83236428D01*
X91421241Y-83236428D02*
X91478384Y-83293571D01*
X91478384Y-83293571D02*
X91592669Y-83350714D01*
X91592669Y-83350714D02*
X92049812Y-83350714D01*
X90964098Y-82722142D02*
X90164098Y-83922142D01*
X90164098Y-82722142D02*
X90964098Y-83922142D01*
X89706955Y-83922142D02*
X89706955Y-82722142D01*
X89706955Y-82722142D02*
X89421241Y-82722142D01*
X89421241Y-82722142D02*
X89249812Y-82779285D01*
X89249812Y-82779285D02*
X89135527Y-82893571D01*
X89135527Y-82893571D02*
X89078384Y-83007857D01*
X89078384Y-83007857D02*
X89021241Y-83236428D01*
X89021241Y-83236428D02*
X89021241Y-83407857D01*
X89021241Y-83407857D02*
X89078384Y-83636428D01*
X89078384Y-83636428D02*
X89135527Y-83750714D01*
X89135527Y-83750714D02*
X89249812Y-83865000D01*
X89249812Y-83865000D02*
X89421241Y-83922142D01*
X89421241Y-83922142D02*
X89706955Y-83922142D01*
X87649812Y-82665000D02*
X88678384Y-84207857D01*
X87306955Y-83865000D02*
X87135527Y-83922142D01*
X87135527Y-83922142D02*
X86849812Y-83922142D01*
X86849812Y-83922142D02*
X86735527Y-83865000D01*
X86735527Y-83865000D02*
X86678384Y-83807857D01*
X86678384Y-83807857D02*
X86621241Y-83693571D01*
X86621241Y-83693571D02*
X86621241Y-83579285D01*
X86621241Y-83579285D02*
X86678384Y-83465000D01*
X86678384Y-83465000D02*
X86735527Y-83407857D01*
X86735527Y-83407857D02*
X86849812Y-83350714D01*
X86849812Y-83350714D02*
X87078384Y-83293571D01*
X87078384Y-83293571D02*
X87192669Y-83236428D01*
X87192669Y-83236428D02*
X87249812Y-83179285D01*
X87249812Y-83179285D02*
X87306955Y-83065000D01*
X87306955Y-83065000D02*
X87306955Y-82950714D01*
X87306955Y-82950714D02*
X87249812Y-82836428D01*
X87249812Y-82836428D02*
X87192669Y-82779285D01*
X87192669Y-82779285D02*
X87078384Y-82722142D01*
X87078384Y-82722142D02*
X86792669Y-82722142D01*
X86792669Y-82722142D02*
X86621241Y-82779285D01*
X85421241Y-83807857D02*
X85478384Y-83865000D01*
X85478384Y-83865000D02*
X85649812Y-83922142D01*
X85649812Y-83922142D02*
X85764098Y-83922142D01*
X85764098Y-83922142D02*
X85935527Y-83865000D01*
X85935527Y-83865000D02*
X86049812Y-83750714D01*
X86049812Y-83750714D02*
X86106955Y-83636428D01*
X86106955Y-83636428D02*
X86164098Y-83407857D01*
X86164098Y-83407857D02*
X86164098Y-83236428D01*
X86164098Y-83236428D02*
X86106955Y-83007857D01*
X86106955Y-83007857D02*
X86049812Y-82893571D01*
X86049812Y-82893571D02*
X85935527Y-82779285D01*
X85935527Y-82779285D02*
X85764098Y-82722142D01*
X85764098Y-82722142D02*
X85649812Y-82722142D01*
X85649812Y-82722142D02*
X85478384Y-82779285D01*
X85478384Y-82779285D02*
X85421241Y-82836428D01*
X84335527Y-83922142D02*
X84906955Y-83922142D01*
X84906955Y-83922142D02*
X84906955Y-82722142D01*
X91421241Y-85319285D02*
X91535527Y-85262142D01*
X91535527Y-85262142D02*
X91706955Y-85262142D01*
X91706955Y-85262142D02*
X91878384Y-85319285D01*
X91878384Y-85319285D02*
X91992669Y-85433571D01*
X91992669Y-85433571D02*
X92049812Y-85547857D01*
X92049812Y-85547857D02*
X92106955Y-85776428D01*
X92106955Y-85776428D02*
X92106955Y-85947857D01*
X92106955Y-85947857D02*
X92049812Y-86176428D01*
X92049812Y-86176428D02*
X91992669Y-86290714D01*
X91992669Y-86290714D02*
X91878384Y-86405000D01*
X91878384Y-86405000D02*
X91706955Y-86462142D01*
X91706955Y-86462142D02*
X91592669Y-86462142D01*
X91592669Y-86462142D02*
X91421241Y-86405000D01*
X91421241Y-86405000D02*
X91364098Y-86347857D01*
X91364098Y-86347857D02*
X91364098Y-85947857D01*
X91364098Y-85947857D02*
X91592669Y-85947857D01*
X90849812Y-86462142D02*
X90849812Y-85262142D01*
X90849812Y-85262142D02*
X90164098Y-86462142D01*
X90164098Y-86462142D02*
X90164098Y-85262142D01*
X89592669Y-86462142D02*
X89592669Y-85262142D01*
X89592669Y-85262142D02*
X89306955Y-85262142D01*
X89306955Y-85262142D02*
X89135526Y-85319285D01*
X89135526Y-85319285D02*
X89021241Y-85433571D01*
X89021241Y-85433571D02*
X88964098Y-85547857D01*
X88964098Y-85547857D02*
X88906955Y-85776428D01*
X88906955Y-85776428D02*
X88906955Y-85947857D01*
X88906955Y-85947857D02*
X88964098Y-86176428D01*
X88964098Y-86176428D02*
X89021241Y-86290714D01*
X89021241Y-86290714D02*
X89135526Y-86405000D01*
X89135526Y-86405000D02*
X89306955Y-86462142D01*
X89306955Y-86462142D02*
X89592669Y-86462142D01*
X73764098Y-87542142D02*
X74164098Y-86970714D01*
X74449812Y-87542142D02*
X74449812Y-86342142D01*
X74449812Y-86342142D02*
X73992669Y-86342142D01*
X73992669Y-86342142D02*
X73878384Y-86399285D01*
X73878384Y-86399285D02*
X73821241Y-86456428D01*
X73821241Y-86456428D02*
X73764098Y-86570714D01*
X73764098Y-86570714D02*
X73764098Y-86742142D01*
X73764098Y-86742142D02*
X73821241Y-86856428D01*
X73821241Y-86856428D02*
X73878384Y-86913571D01*
X73878384Y-86913571D02*
X73992669Y-86970714D01*
X73992669Y-86970714D02*
X74449812Y-86970714D01*
X73364098Y-86342142D02*
X72564098Y-87542142D01*
X72564098Y-86342142D02*
X73364098Y-87542142D01*
X72106955Y-87542142D02*
X72106955Y-86342142D01*
X72106955Y-86342142D02*
X71821241Y-86342142D01*
X71821241Y-86342142D02*
X71649812Y-86399285D01*
X71649812Y-86399285D02*
X71535527Y-86513571D01*
X71535527Y-86513571D02*
X71478384Y-86627857D01*
X71478384Y-86627857D02*
X71421241Y-86856428D01*
X71421241Y-86856428D02*
X71421241Y-87027857D01*
X71421241Y-87027857D02*
X71478384Y-87256428D01*
X71478384Y-87256428D02*
X71535527Y-87370714D01*
X71535527Y-87370714D02*
X71649812Y-87485000D01*
X71649812Y-87485000D02*
X71821241Y-87542142D01*
X71821241Y-87542142D02*
X72106955Y-87542142D01*
X70049812Y-86285000D02*
X71078384Y-87827857D01*
X69706955Y-87485000D02*
X69535527Y-87542142D01*
X69535527Y-87542142D02*
X69249812Y-87542142D01*
X69249812Y-87542142D02*
X69135527Y-87485000D01*
X69135527Y-87485000D02*
X69078384Y-87427857D01*
X69078384Y-87427857D02*
X69021241Y-87313571D01*
X69021241Y-87313571D02*
X69021241Y-87199285D01*
X69021241Y-87199285D02*
X69078384Y-87085000D01*
X69078384Y-87085000D02*
X69135527Y-87027857D01*
X69135527Y-87027857D02*
X69249812Y-86970714D01*
X69249812Y-86970714D02*
X69478384Y-86913571D01*
X69478384Y-86913571D02*
X69592669Y-86856428D01*
X69592669Y-86856428D02*
X69649812Y-86799285D01*
X69649812Y-86799285D02*
X69706955Y-86685000D01*
X69706955Y-86685000D02*
X69706955Y-86570714D01*
X69706955Y-86570714D02*
X69649812Y-86456428D01*
X69649812Y-86456428D02*
X69592669Y-86399285D01*
X69592669Y-86399285D02*
X69478384Y-86342142D01*
X69478384Y-86342142D02*
X69192669Y-86342142D01*
X69192669Y-86342142D02*
X69021241Y-86399285D01*
X67821241Y-87427857D02*
X67878384Y-87485000D01*
X67878384Y-87485000D02*
X68049812Y-87542142D01*
X68049812Y-87542142D02*
X68164098Y-87542142D01*
X68164098Y-87542142D02*
X68335527Y-87485000D01*
X68335527Y-87485000D02*
X68449812Y-87370714D01*
X68449812Y-87370714D02*
X68506955Y-87256428D01*
X68506955Y-87256428D02*
X68564098Y-87027857D01*
X68564098Y-87027857D02*
X68564098Y-86856428D01*
X68564098Y-86856428D02*
X68506955Y-86627857D01*
X68506955Y-86627857D02*
X68449812Y-86513571D01*
X68449812Y-86513571D02*
X68335527Y-86399285D01*
X68335527Y-86399285D02*
X68164098Y-86342142D01*
X68164098Y-86342142D02*
X68049812Y-86342142D01*
X68049812Y-86342142D02*
X67878384Y-86399285D01*
X67878384Y-86399285D02*
X67821241Y-86456428D01*
X66735527Y-87542142D02*
X67306955Y-87542142D01*
X67306955Y-87542142D02*
X67306955Y-86342142D01*
X89177857Y-100471241D02*
X87977857Y-100071241D01*
X87977857Y-100071241D02*
X89177857Y-99671241D01*
X86637857Y-100414098D02*
X85437857Y-100128384D01*
X85437857Y-100128384D02*
X86295000Y-99899812D01*
X86295000Y-99899812D02*
X85437857Y-99671241D01*
X85437857Y-99671241D02*
X86637857Y-99385527D01*
X84097857Y-100471241D02*
X84097857Y-99785527D01*
X82897857Y-100128384D02*
X84097857Y-100128384D01*
X74621241Y-83802142D02*
X73935527Y-83802142D01*
X74278384Y-85002142D02*
X74278384Y-83802142D01*
X73649812Y-83802142D02*
X72849812Y-85002142D01*
X72849812Y-83802142D02*
X73649812Y-85002142D01*
X72392669Y-85002142D02*
X72392669Y-83802142D01*
X72392669Y-83802142D02*
X72106955Y-83802142D01*
X72106955Y-83802142D02*
X71935526Y-83859285D01*
X71935526Y-83859285D02*
X71821241Y-83973571D01*
X71821241Y-83973571D02*
X71764098Y-84087857D01*
X71764098Y-84087857D02*
X71706955Y-84316428D01*
X71706955Y-84316428D02*
X71706955Y-84487857D01*
X71706955Y-84487857D02*
X71764098Y-84716428D01*
X71764098Y-84716428D02*
X71821241Y-84830714D01*
X71821241Y-84830714D02*
X71935526Y-84945000D01*
X71935526Y-84945000D02*
X72106955Y-85002142D01*
X72106955Y-85002142D02*
X72392669Y-85002142D01*
X70335526Y-83745000D02*
X71364098Y-85287857D01*
X69992669Y-84945000D02*
X69821241Y-85002142D01*
X69821241Y-85002142D02*
X69535526Y-85002142D01*
X69535526Y-85002142D02*
X69421241Y-84945000D01*
X69421241Y-84945000D02*
X69364098Y-84887857D01*
X69364098Y-84887857D02*
X69306955Y-84773571D01*
X69306955Y-84773571D02*
X69306955Y-84659285D01*
X69306955Y-84659285D02*
X69364098Y-84545000D01*
X69364098Y-84545000D02*
X69421241Y-84487857D01*
X69421241Y-84487857D02*
X69535526Y-84430714D01*
X69535526Y-84430714D02*
X69764098Y-84373571D01*
X69764098Y-84373571D02*
X69878383Y-84316428D01*
X69878383Y-84316428D02*
X69935526Y-84259285D01*
X69935526Y-84259285D02*
X69992669Y-84145000D01*
X69992669Y-84145000D02*
X69992669Y-84030714D01*
X69992669Y-84030714D02*
X69935526Y-83916428D01*
X69935526Y-83916428D02*
X69878383Y-83859285D01*
X69878383Y-83859285D02*
X69764098Y-83802142D01*
X69764098Y-83802142D02*
X69478383Y-83802142D01*
X69478383Y-83802142D02*
X69306955Y-83859285D01*
X68792669Y-85002142D02*
X68792669Y-83802142D01*
X68792669Y-83802142D02*
X68506955Y-83802142D01*
X68506955Y-83802142D02*
X68335526Y-83859285D01*
X68335526Y-83859285D02*
X68221241Y-83973571D01*
X68221241Y-83973571D02*
X68164098Y-84087857D01*
X68164098Y-84087857D02*
X68106955Y-84316428D01*
X68106955Y-84316428D02*
X68106955Y-84487857D01*
X68106955Y-84487857D02*
X68164098Y-84716428D01*
X68164098Y-84716428D02*
X68221241Y-84830714D01*
X68221241Y-84830714D02*
X68335526Y-84945000D01*
X68335526Y-84945000D02*
X68506955Y-85002142D01*
X68506955Y-85002142D02*
X68792669Y-85002142D01*
X67649812Y-84659285D02*
X67078384Y-84659285D01*
X67764098Y-85002142D02*
X67364098Y-83802142D01*
X67364098Y-83802142D02*
X66964098Y-85002142D01*
D12*
%TO.C,TP11*%
X73700000Y-49100000D02*
G75*
G02*
X72300000Y-49100000I-700000J0D01*
G01*
X72300000Y-49100000D02*
G75*
G02*
X73700000Y-49100000I700000J0D01*
G01*
%TO.C,TP9*%
X76700000Y-49100000D02*
G75*
G02*
X75300000Y-49100000I-700000J0D01*
G01*
X75300000Y-49100000D02*
G75*
G02*
X76700000Y-49100000I700000J0D01*
G01*
D13*
%TO.C,REF\u002A\u002A*%
X90082836Y-48242363D02*
X90097023Y-48256032D01*
X90138392Y-48297719D01*
X90193107Y-48354472D01*
X90258510Y-48423397D01*
X90331943Y-48501599D01*
X90410746Y-48586182D01*
X90492260Y-48674253D01*
X90573827Y-48762916D01*
X90652788Y-48849276D01*
X90726483Y-48930439D01*
X90792254Y-49003510D01*
X90847441Y-49065594D01*
X90889386Y-49113795D01*
X90915431Y-49145220D01*
X90922915Y-49156974D01*
X90920346Y-49158272D01*
X90895785Y-49171978D01*
X90847204Y-49199613D01*
X90776652Y-49239998D01*
X90686173Y-49291955D01*
X90577815Y-49354305D01*
X90453624Y-49425871D01*
X90315645Y-49505475D01*
X90165926Y-49591938D01*
X90006513Y-49684083D01*
X89839451Y-49780732D01*
X89777008Y-49816867D01*
X89612883Y-49911806D01*
X89457358Y-50001714D01*
X89312454Y-50085424D01*
X89180195Y-50161771D01*
X89062604Y-50229589D01*
X88961702Y-50287711D01*
X88879513Y-50334971D01*
X88818059Y-50370203D01*
X88779364Y-50392242D01*
X88765449Y-50399920D01*
X88766075Y-50395831D01*
X88777493Y-50372330D01*
X88798493Y-50334786D01*
X88811376Y-50312564D01*
X88838772Y-50265173D01*
X88879087Y-50195377D01*
X88931009Y-50105444D01*
X88993231Y-49997642D01*
X89064443Y-49874240D01*
X89143335Y-49737506D01*
X89228598Y-49589709D01*
X89318924Y-49433117D01*
X89413002Y-49270000D01*
X89505121Y-49110323D01*
X89594680Y-48955187D01*
X89678893Y-48809412D01*
X89756497Y-48675183D01*
X89826225Y-48554685D01*
X89886814Y-48450102D01*
X89936998Y-48363619D01*
X89975512Y-48297421D01*
X90001092Y-48253693D01*
X90012472Y-48234619D01*
X90035820Y-48198201D01*
X90082836Y-48242363D01*
G36*
X90082836Y-48242363D02*
G01*
X90097023Y-48256032D01*
X90138392Y-48297719D01*
X90193107Y-48354472D01*
X90258510Y-48423397D01*
X90331943Y-48501599D01*
X90410746Y-48586182D01*
X90492260Y-48674253D01*
X90573827Y-48762916D01*
X90652788Y-48849276D01*
X90726483Y-48930439D01*
X90792254Y-49003510D01*
X90847441Y-49065594D01*
X90889386Y-49113795D01*
X90915431Y-49145220D01*
X90922915Y-49156974D01*
X90920346Y-49158272D01*
X90895785Y-49171978D01*
X90847204Y-49199613D01*
X90776652Y-49239998D01*
X90686173Y-49291955D01*
X90577815Y-49354305D01*
X90453624Y-49425871D01*
X90315645Y-49505475D01*
X90165926Y-49591938D01*
X90006513Y-49684083D01*
X89839451Y-49780732D01*
X89777008Y-49816867D01*
X89612883Y-49911806D01*
X89457358Y-50001714D01*
X89312454Y-50085424D01*
X89180195Y-50161771D01*
X89062604Y-50229589D01*
X88961702Y-50287711D01*
X88879513Y-50334971D01*
X88818059Y-50370203D01*
X88779364Y-50392242D01*
X88765449Y-50399920D01*
X88766075Y-50395831D01*
X88777493Y-50372330D01*
X88798493Y-50334786D01*
X88811376Y-50312564D01*
X88838772Y-50265173D01*
X88879087Y-50195377D01*
X88931009Y-50105444D01*
X88993231Y-49997642D01*
X89064443Y-49874240D01*
X89143335Y-49737506D01*
X89228598Y-49589709D01*
X89318924Y-49433117D01*
X89413002Y-49270000D01*
X89505121Y-49110323D01*
X89594680Y-48955187D01*
X89678893Y-48809412D01*
X89756497Y-48675183D01*
X89826225Y-48554685D01*
X89886814Y-48450102D01*
X89936998Y-48363619D01*
X89975512Y-48297421D01*
X90001092Y-48253693D01*
X90012472Y-48234619D01*
X90035820Y-48198201D01*
X90082836Y-48242363D01*
G37*
X91845560Y-45073175D02*
X91857093Y-45090511D01*
X91882500Y-45132162D01*
X91920507Y-45195911D01*
X91969837Y-45279545D01*
X92029213Y-45380849D01*
X92097359Y-45497609D01*
X92173000Y-45627608D01*
X92254859Y-45768633D01*
X92341660Y-45918468D01*
X92432126Y-46074900D01*
X92524982Y-46235713D01*
X92618951Y-46398693D01*
X92712757Y-46561624D01*
X92805124Y-46722292D01*
X92894776Y-46878482D01*
X92980436Y-47027980D01*
X93060828Y-47168571D01*
X93134677Y-47298040D01*
X93200705Y-47414172D01*
X93257637Y-47514752D01*
X93304197Y-47597567D01*
X93339108Y-47660400D01*
X93361094Y-47701037D01*
X93368879Y-47717264D01*
X93368887Y-47717388D01*
X93356333Y-47734416D01*
X93320258Y-47763279D01*
X93264417Y-47801247D01*
X93192561Y-47845587D01*
X93144373Y-47873952D01*
X93075032Y-47913396D01*
X93026734Y-47938254D01*
X92996242Y-47949924D01*
X92980320Y-47949806D01*
X92975732Y-47939297D01*
X92975382Y-47937583D01*
X92962268Y-47916682D01*
X92934000Y-47881139D01*
X92895786Y-47837583D01*
X92878155Y-47818875D01*
X92823482Y-47768512D01*
X92763022Y-47725465D01*
X92693182Y-47688473D01*
X92610370Y-47656273D01*
X92510992Y-47627602D01*
X92391455Y-47601198D01*
X92248166Y-47575800D01*
X92077531Y-47550145D01*
X91881134Y-47521227D01*
X91691274Y-47490173D01*
X91525260Y-47459044D01*
X91379382Y-47426942D01*
X91249927Y-47392969D01*
X91133183Y-47356226D01*
X91025440Y-47315817D01*
X90922985Y-47270843D01*
X90847688Y-47233754D01*
X90775765Y-47194725D01*
X90718886Y-47159882D01*
X90681499Y-47131965D01*
X90668049Y-47113714D01*
X90668446Y-47112370D01*
X90679280Y-47090862D01*
X90703845Y-47045822D01*
X90740685Y-46979772D01*
X90788347Y-46895233D01*
X90845376Y-46794727D01*
X90910318Y-46680776D01*
X90981719Y-46555901D01*
X91058124Y-46422624D01*
X91138079Y-46283467D01*
X91220130Y-46140951D01*
X91302822Y-45997598D01*
X91384701Y-45855930D01*
X91464313Y-45718468D01*
X91540204Y-45587734D01*
X91610919Y-45466250D01*
X91675004Y-45356538D01*
X91731004Y-45261118D01*
X91777466Y-45182514D01*
X91812935Y-45123245D01*
X91835957Y-45085835D01*
X91845077Y-45072805D01*
X91845560Y-45073175D01*
G36*
X91845560Y-45073175D02*
G01*
X91857093Y-45090511D01*
X91882500Y-45132162D01*
X91920507Y-45195911D01*
X91969837Y-45279545D01*
X92029213Y-45380849D01*
X92097359Y-45497609D01*
X92173000Y-45627608D01*
X92254859Y-45768633D01*
X92341660Y-45918468D01*
X92432126Y-46074900D01*
X92524982Y-46235713D01*
X92618951Y-46398693D01*
X92712757Y-46561624D01*
X92805124Y-46722292D01*
X92894776Y-46878482D01*
X92980436Y-47027980D01*
X93060828Y-47168571D01*
X93134677Y-47298040D01*
X93200705Y-47414172D01*
X93257637Y-47514752D01*
X93304197Y-47597567D01*
X93339108Y-47660400D01*
X93361094Y-47701037D01*
X93368879Y-47717264D01*
X93368887Y-47717388D01*
X93356333Y-47734416D01*
X93320258Y-47763279D01*
X93264417Y-47801247D01*
X93192561Y-47845587D01*
X93144373Y-47873952D01*
X93075032Y-47913396D01*
X93026734Y-47938254D01*
X92996242Y-47949924D01*
X92980320Y-47949806D01*
X92975732Y-47939297D01*
X92975382Y-47937583D01*
X92962268Y-47916682D01*
X92934000Y-47881139D01*
X92895786Y-47837583D01*
X92878155Y-47818875D01*
X92823482Y-47768512D01*
X92763022Y-47725465D01*
X92693182Y-47688473D01*
X92610370Y-47656273D01*
X92510992Y-47627602D01*
X92391455Y-47601198D01*
X92248166Y-47575800D01*
X92077531Y-47550145D01*
X91881134Y-47521227D01*
X91691274Y-47490173D01*
X91525260Y-47459044D01*
X91379382Y-47426942D01*
X91249927Y-47392969D01*
X91133183Y-47356226D01*
X91025440Y-47315817D01*
X90922985Y-47270843D01*
X90847688Y-47233754D01*
X90775765Y-47194725D01*
X90718886Y-47159882D01*
X90681499Y-47131965D01*
X90668049Y-47113714D01*
X90668446Y-47112370D01*
X90679280Y-47090862D01*
X90703845Y-47045822D01*
X90740685Y-46979772D01*
X90788347Y-46895233D01*
X90845376Y-46794727D01*
X90910318Y-46680776D01*
X90981719Y-46555901D01*
X91058124Y-46422624D01*
X91138079Y-46283467D01*
X91220130Y-46140951D01*
X91302822Y-45997598D01*
X91384701Y-45855930D01*
X91464313Y-45718468D01*
X91540204Y-45587734D01*
X91610919Y-45466250D01*
X91675004Y-45356538D01*
X91731004Y-45261118D01*
X91777466Y-45182514D01*
X91812935Y-45123245D01*
X91835957Y-45085835D01*
X91845077Y-45072805D01*
X91845560Y-45073175D01*
G37*
X93710047Y-48296040D02*
X93715802Y-48304625D01*
X93736365Y-48338346D01*
X93770179Y-48395200D01*
X93815950Y-48472968D01*
X93872383Y-48569432D01*
X93938184Y-48682371D01*
X94012058Y-48809568D01*
X94092711Y-48948803D01*
X94178848Y-49097857D01*
X94269175Y-49254512D01*
X94293947Y-49297521D01*
X94391900Y-49467575D01*
X94490509Y-49638754D01*
X94587760Y-49807562D01*
X94681638Y-49970503D01*
X94770131Y-50124082D01*
X94851222Y-50264801D01*
X94922898Y-50389166D01*
X94983144Y-50493680D01*
X95029947Y-50574847D01*
X95251030Y-50958171D01*
X92151076Y-50958171D01*
X92022921Y-50958159D01*
X91717500Y-50958042D01*
X91421432Y-50957802D01*
X91136159Y-50957444D01*
X90863123Y-50956976D01*
X90603765Y-50956403D01*
X90359527Y-50955732D01*
X90131849Y-50954968D01*
X89922174Y-50954119D01*
X89731943Y-50953189D01*
X89562597Y-50952186D01*
X89415578Y-50951115D01*
X89292327Y-50949983D01*
X89194286Y-50948796D01*
X89122896Y-50947559D01*
X89079598Y-50946280D01*
X89065835Y-50944963D01*
X89076054Y-50938304D01*
X89111311Y-50917083D01*
X89169221Y-50882920D01*
X89247430Y-50837171D01*
X89343583Y-50781190D01*
X89455323Y-50716333D01*
X89580296Y-50643954D01*
X89716146Y-50565409D01*
X89860518Y-50482054D01*
X90011056Y-50395243D01*
X90165405Y-50306332D01*
X90321210Y-50216676D01*
X90476116Y-50127629D01*
X90627766Y-50040548D01*
X90773806Y-49956788D01*
X90911881Y-49877703D01*
X91039634Y-49804649D01*
X91154711Y-49738981D01*
X91254756Y-49682054D01*
X91337414Y-49635224D01*
X91400329Y-49599846D01*
X91441147Y-49577274D01*
X91457511Y-49568864D01*
X91468189Y-49570949D01*
X91500358Y-49589908D01*
X91546221Y-49625032D01*
X91600740Y-49672669D01*
X91649845Y-49720356D01*
X91712389Y-49785316D01*
X91782368Y-49861155D01*
X91856196Y-49943698D01*
X91930285Y-50028768D01*
X92001048Y-50112190D01*
X92064898Y-50189789D01*
X92118247Y-50257389D01*
X92157509Y-50310814D01*
X92179095Y-50345889D01*
X92193506Y-50371505D01*
X92232643Y-50424516D01*
X92282958Y-50480912D01*
X92337276Y-50533462D01*
X92388424Y-50574930D01*
X92429227Y-50598086D01*
X92474292Y-50603438D01*
X92534426Y-50588645D01*
X92591579Y-50554726D01*
X92635933Y-50506053D01*
X92643613Y-50493425D01*
X92653392Y-50472743D01*
X92659765Y-50447854D01*
X92663142Y-50413409D01*
X92663931Y-50364062D01*
X92662541Y-50294464D01*
X92659381Y-50199268D01*
X92657116Y-50144202D01*
X92652304Y-50057117D01*
X92646625Y-49980899D01*
X92640608Y-49922249D01*
X92634783Y-49887866D01*
X92620679Y-49848588D01*
X92578866Y-49771240D01*
X92513895Y-49679591D01*
X92424970Y-49572567D01*
X92311300Y-49449090D01*
X92261972Y-49397066D01*
X92204938Y-49335696D01*
X92157864Y-49283665D01*
X92124624Y-49245266D01*
X92109089Y-49224796D01*
X92107492Y-49221546D01*
X92105577Y-49207553D01*
X92115145Y-49192039D01*
X92140115Y-49171659D01*
X92184406Y-49143071D01*
X92251938Y-49102932D01*
X92309347Y-49069422D01*
X92414992Y-49008123D01*
X92498171Y-48960509D01*
X92561678Y-48925033D01*
X92608306Y-48900149D01*
X92640850Y-48884313D01*
X92662104Y-48875977D01*
X92684097Y-48866728D01*
X92696951Y-48854307D01*
X92698154Y-48851378D01*
X92716961Y-48835084D01*
X92751335Y-48814098D01*
X92805719Y-48784810D01*
X92845874Y-48822192D01*
X92860057Y-48837336D01*
X92893055Y-48878493D01*
X92933346Y-48933445D01*
X92975182Y-48994531D01*
X93064336Y-49129489D01*
X93060837Y-49479362D01*
X93057339Y-49829235D01*
X93006393Y-49878733D01*
X92989274Y-49896379D01*
X92934376Y-49975660D01*
X92902330Y-50069935D01*
X92891412Y-50183780D01*
X92894123Y-50244779D01*
X92913261Y-50352378D01*
X92948141Y-50450583D01*
X92995742Y-50529382D01*
X93028795Y-50558114D01*
X93087549Y-50579937D01*
X93154061Y-50582454D01*
X93219816Y-50566828D01*
X93276301Y-50534220D01*
X93315003Y-50485793D01*
X93316270Y-50483168D01*
X93339663Y-50435225D01*
X93364439Y-50385122D01*
X93385472Y-50338087D01*
X93415644Y-50258810D01*
X93448932Y-50161072D01*
X93484179Y-50049228D01*
X93520229Y-49927634D01*
X93555925Y-49800645D01*
X93590110Y-49672616D01*
X93621627Y-49547902D01*
X93649320Y-49430859D01*
X93672032Y-49325843D01*
X93688606Y-49237209D01*
X93697885Y-49169312D01*
X93698714Y-49126507D01*
X93696847Y-49116782D01*
X93678658Y-49067556D01*
X93644907Y-49001699D01*
X93598555Y-48925165D01*
X93580764Y-48897585D01*
X93509282Y-48785122D01*
X93448520Y-48686772D01*
X93399817Y-48604832D01*
X93364514Y-48541605D01*
X93343952Y-48499390D01*
X93339469Y-48480487D01*
X93339988Y-48479820D01*
X93358545Y-48466205D01*
X93398202Y-48441319D01*
X93453526Y-48408476D01*
X93519084Y-48370988D01*
X93524626Y-48367876D01*
X93595807Y-48328712D01*
X93645381Y-48303736D01*
X93677906Y-48291158D01*
X93697942Y-48289189D01*
X93710047Y-48296040D01*
G36*
X93710047Y-48296040D02*
G01*
X93715802Y-48304625D01*
X93736365Y-48338346D01*
X93770179Y-48395200D01*
X93815950Y-48472968D01*
X93872383Y-48569432D01*
X93938184Y-48682371D01*
X94012058Y-48809568D01*
X94092711Y-48948803D01*
X94178848Y-49097857D01*
X94269175Y-49254512D01*
X94293947Y-49297521D01*
X94391900Y-49467575D01*
X94490509Y-49638754D01*
X94587760Y-49807562D01*
X94681638Y-49970503D01*
X94770131Y-50124082D01*
X94851222Y-50264801D01*
X94922898Y-50389166D01*
X94983144Y-50493680D01*
X95029947Y-50574847D01*
X95251030Y-50958171D01*
X92151076Y-50958171D01*
X92022921Y-50958159D01*
X91717500Y-50958042D01*
X91421432Y-50957802D01*
X91136159Y-50957444D01*
X90863123Y-50956976D01*
X90603765Y-50956403D01*
X90359527Y-50955732D01*
X90131849Y-50954968D01*
X89922174Y-50954119D01*
X89731943Y-50953189D01*
X89562597Y-50952186D01*
X89415578Y-50951115D01*
X89292327Y-50949983D01*
X89194286Y-50948796D01*
X89122896Y-50947559D01*
X89079598Y-50946280D01*
X89065835Y-50944963D01*
X89076054Y-50938304D01*
X89111311Y-50917083D01*
X89169221Y-50882920D01*
X89247430Y-50837171D01*
X89343583Y-50781190D01*
X89455323Y-50716333D01*
X89580296Y-50643954D01*
X89716146Y-50565409D01*
X89860518Y-50482054D01*
X90011056Y-50395243D01*
X90165405Y-50306332D01*
X90321210Y-50216676D01*
X90476116Y-50127629D01*
X90627766Y-50040548D01*
X90773806Y-49956788D01*
X90911881Y-49877703D01*
X91039634Y-49804649D01*
X91154711Y-49738981D01*
X91254756Y-49682054D01*
X91337414Y-49635224D01*
X91400329Y-49599846D01*
X91441147Y-49577274D01*
X91457511Y-49568864D01*
X91468189Y-49570949D01*
X91500358Y-49589908D01*
X91546221Y-49625032D01*
X91600740Y-49672669D01*
X91649845Y-49720356D01*
X91712389Y-49785316D01*
X91782368Y-49861155D01*
X91856196Y-49943698D01*
X91930285Y-50028768D01*
X92001048Y-50112190D01*
X92064898Y-50189789D01*
X92118247Y-50257389D01*
X92157509Y-50310814D01*
X92179095Y-50345889D01*
X92193506Y-50371505D01*
X92232643Y-50424516D01*
X92282958Y-50480912D01*
X92337276Y-50533462D01*
X92388424Y-50574930D01*
X92429227Y-50598086D01*
X92474292Y-50603438D01*
X92534426Y-50588645D01*
X92591579Y-50554726D01*
X92635933Y-50506053D01*
X92643613Y-50493425D01*
X92653392Y-50472743D01*
X92659765Y-50447854D01*
X92663142Y-50413409D01*
X92663931Y-50364062D01*
X92662541Y-50294464D01*
X92659381Y-50199268D01*
X92657116Y-50144202D01*
X92652304Y-50057117D01*
X92646625Y-49980899D01*
X92640608Y-49922249D01*
X92634783Y-49887866D01*
X92620679Y-49848588D01*
X92578866Y-49771240D01*
X92513895Y-49679591D01*
X92424970Y-49572567D01*
X92311300Y-49449090D01*
X92261972Y-49397066D01*
X92204938Y-49335696D01*
X92157864Y-49283665D01*
X92124624Y-49245266D01*
X92109089Y-49224796D01*
X92107492Y-49221546D01*
X92105577Y-49207553D01*
X92115145Y-49192039D01*
X92140115Y-49171659D01*
X92184406Y-49143071D01*
X92251938Y-49102932D01*
X92309347Y-49069422D01*
X92414992Y-49008123D01*
X92498171Y-48960509D01*
X92561678Y-48925033D01*
X92608306Y-48900149D01*
X92640850Y-48884313D01*
X92662104Y-48875977D01*
X92684097Y-48866728D01*
X92696951Y-48854307D01*
X92698154Y-48851378D01*
X92716961Y-48835084D01*
X92751335Y-48814098D01*
X92805719Y-48784810D01*
X92845874Y-48822192D01*
X92860057Y-48837336D01*
X92893055Y-48878493D01*
X92933346Y-48933445D01*
X92975182Y-48994531D01*
X93064336Y-49129489D01*
X93060837Y-49479362D01*
X93057339Y-49829235D01*
X93006393Y-49878733D01*
X92989274Y-49896379D01*
X92934376Y-49975660D01*
X92902330Y-50069935D01*
X92891412Y-50183780D01*
X92894123Y-50244779D01*
X92913261Y-50352378D01*
X92948141Y-50450583D01*
X92995742Y-50529382D01*
X93028795Y-50558114D01*
X93087549Y-50579937D01*
X93154061Y-50582454D01*
X93219816Y-50566828D01*
X93276301Y-50534220D01*
X93315003Y-50485793D01*
X93316270Y-50483168D01*
X93339663Y-50435225D01*
X93364439Y-50385122D01*
X93385472Y-50338087D01*
X93415644Y-50258810D01*
X93448932Y-50161072D01*
X93484179Y-50049228D01*
X93520229Y-49927634D01*
X93555925Y-49800645D01*
X93590110Y-49672616D01*
X93621627Y-49547902D01*
X93649320Y-49430859D01*
X93672032Y-49325843D01*
X93688606Y-49237209D01*
X93697885Y-49169312D01*
X93698714Y-49126507D01*
X93696847Y-49116782D01*
X93678658Y-49067556D01*
X93644907Y-49001699D01*
X93598555Y-48925165D01*
X93580764Y-48897585D01*
X93509282Y-48785122D01*
X93448520Y-48686772D01*
X93399817Y-48604832D01*
X93364514Y-48541605D01*
X93343952Y-48499390D01*
X93339469Y-48480487D01*
X93339988Y-48479820D01*
X93358545Y-48466205D01*
X93398202Y-48441319D01*
X93453526Y-48408476D01*
X93519084Y-48370988D01*
X93524626Y-48367876D01*
X93595807Y-48328712D01*
X93645381Y-48303736D01*
X93677906Y-48291158D01*
X93697942Y-48289189D01*
X93710047Y-48296040D01*
G37*
D12*
%TO.C,TP14*%
X67950000Y-93000000D02*
G75*
G02*
X66050000Y-93000000I-950000J0D01*
G01*
X66050000Y-93000000D02*
G75*
G02*
X67950000Y-93000000I950000J0D01*
G01*
D14*
%TO.C,REF\u002A\u002A*%
G36*
X87766223Y-50992414D02*
G01*
X84270661Y-50992414D01*
X84270661Y-50141218D01*
X87766223Y-50141218D01*
X87766223Y-50992414D01*
G37*
G36*
X85302185Y-48410495D02*
G01*
X85308145Y-48410949D01*
X85314019Y-48411695D01*
X85319799Y-48412727D01*
X85325477Y-48414038D01*
X85331047Y-48415620D01*
X85336500Y-48417465D01*
X85341830Y-48419567D01*
X85347030Y-48421917D01*
X85352090Y-48424510D01*
X85357006Y-48427336D01*
X85361768Y-48430389D01*
X85366370Y-48433661D01*
X85370804Y-48437146D01*
X85375063Y-48440835D01*
X85379139Y-48444722D01*
X85383025Y-48448798D01*
X85386715Y-48453057D01*
X85390199Y-48457491D01*
X85393472Y-48462093D01*
X85396525Y-48466855D01*
X85399351Y-48471770D01*
X85401943Y-48476831D01*
X85404294Y-48482030D01*
X85406395Y-48487360D01*
X85408241Y-48492814D01*
X85409822Y-48498383D01*
X85411133Y-48504062D01*
X85412165Y-48509841D01*
X85412912Y-48515715D01*
X85413365Y-48521676D01*
X85413518Y-48527715D01*
X85413365Y-48533755D01*
X85412912Y-48539715D01*
X85412165Y-48545589D01*
X85411133Y-48551368D01*
X85409822Y-48557046D01*
X85408241Y-48562616D01*
X85406395Y-48568069D01*
X85404294Y-48573399D01*
X85401943Y-48578597D01*
X85399351Y-48583658D01*
X85396525Y-48588572D01*
X85393472Y-48593334D01*
X85390199Y-48597936D01*
X85386715Y-48602369D01*
X85383025Y-48606628D01*
X85379139Y-48610703D01*
X85375063Y-48614589D01*
X85370804Y-48618278D01*
X85366370Y-48621762D01*
X85361768Y-48625034D01*
X85357006Y-48628087D01*
X85352090Y-48630913D01*
X85347030Y-48633504D01*
X85341830Y-48635855D01*
X85336500Y-48637956D01*
X85331047Y-48639801D01*
X85325477Y-48641383D01*
X85319799Y-48642693D01*
X85314019Y-48643725D01*
X85308145Y-48644471D01*
X85302185Y-48644925D01*
X85296145Y-48645077D01*
X85290106Y-48644925D01*
X85284145Y-48644471D01*
X85278271Y-48643725D01*
X85272492Y-48642693D01*
X85266813Y-48641383D01*
X85261244Y-48639801D01*
X85255790Y-48637956D01*
X85250460Y-48635855D01*
X85245261Y-48633504D01*
X85240200Y-48630913D01*
X85235285Y-48628087D01*
X85230523Y-48625034D01*
X85225921Y-48621762D01*
X85221487Y-48618278D01*
X85217228Y-48614589D01*
X85213152Y-48610703D01*
X85209265Y-48606628D01*
X85205576Y-48602369D01*
X85202092Y-48597936D01*
X85198819Y-48593334D01*
X85195766Y-48588573D01*
X85192940Y-48583658D01*
X85190348Y-48578597D01*
X85187997Y-48573399D01*
X85185895Y-48568069D01*
X85184050Y-48562616D01*
X85182468Y-48557046D01*
X85181158Y-48551368D01*
X85180125Y-48545589D01*
X85179379Y-48539715D01*
X85178926Y-48533755D01*
X85178773Y-48527715D01*
X85178926Y-48521675D01*
X85179379Y-48515715D01*
X85180125Y-48509841D01*
X85181158Y-48504061D01*
X85182468Y-48498383D01*
X85184050Y-48492813D01*
X85185895Y-48487360D01*
X85187997Y-48482030D01*
X85190348Y-48476831D01*
X85192940Y-48471770D01*
X85195766Y-48466855D01*
X85198819Y-48462093D01*
X85202092Y-48457491D01*
X85205576Y-48453057D01*
X85209265Y-48448798D01*
X85213152Y-48444721D01*
X85217228Y-48440835D01*
X85221487Y-48437146D01*
X85225921Y-48433661D01*
X85230523Y-48430389D01*
X85235285Y-48427336D01*
X85240200Y-48424509D01*
X85245261Y-48421917D01*
X85250460Y-48419567D01*
X85255790Y-48417465D01*
X85261244Y-48415620D01*
X85266813Y-48414038D01*
X85272492Y-48412727D01*
X85278271Y-48411695D01*
X85284145Y-48410949D01*
X85290106Y-48410495D01*
X85296145Y-48410343D01*
X85302185Y-48410495D01*
G37*
G36*
X86848726Y-45582436D02*
G01*
X86865245Y-45595137D01*
X86881009Y-45608392D01*
X86895984Y-45622214D01*
X86910136Y-45636612D01*
X86923431Y-45651599D01*
X86935835Y-45667187D01*
X86947313Y-45683386D01*
X86957832Y-45700207D01*
X86967357Y-45717663D01*
X86975855Y-45735763D01*
X86977249Y-45739038D01*
X86978559Y-45742222D01*
X86979789Y-45745315D01*
X86980940Y-45748314D01*
X86982014Y-45751215D01*
X86983015Y-45754017D01*
X86983944Y-45756716D01*
X86984800Y-45759300D01*
X86984803Y-45759310D01*
X87112682Y-45759310D01*
X87112682Y-45879960D01*
X86967339Y-45879960D01*
X86966909Y-45884957D01*
X86936503Y-46238432D01*
X88106838Y-45005871D01*
X88106838Y-45143362D01*
X86923302Y-46391838D01*
X86911217Y-46532325D01*
X86789189Y-47950928D01*
X86804652Y-47966662D01*
X88033272Y-49216928D01*
X87962470Y-49286503D01*
X86778079Y-48080073D01*
X86730342Y-48634933D01*
X86730066Y-48637377D01*
X86729659Y-48639809D01*
X86729126Y-48642228D01*
X86728472Y-48644628D01*
X86727699Y-48647007D01*
X86726812Y-48649360D01*
X86725816Y-48651684D01*
X86724713Y-48653975D01*
X86723508Y-48656230D01*
X86722205Y-48658445D01*
X86719320Y-48662739D01*
X86716091Y-48666830D01*
X86712550Y-48670687D01*
X86708728Y-48674280D01*
X86704658Y-48677582D01*
X86700371Y-48680563D01*
X86695899Y-48683192D01*
X86693604Y-48684366D01*
X86691274Y-48685442D01*
X86688915Y-48686415D01*
X86686529Y-48687282D01*
X86684121Y-48688039D01*
X86681695Y-48688684D01*
X86679254Y-48689211D01*
X86676804Y-48689617D01*
X86676804Y-48871608D01*
X86453229Y-48871608D01*
X86453229Y-48690080D01*
X85603451Y-48690080D01*
X85591857Y-48710305D01*
X85578976Y-48729649D01*
X85564864Y-48748054D01*
X85549581Y-48765460D01*
X85533186Y-48781810D01*
X85515736Y-48797045D01*
X85497291Y-48811106D01*
X85477909Y-48823936D01*
X85457648Y-48835475D01*
X85436567Y-48845666D01*
X85414724Y-48854449D01*
X85392179Y-48861766D01*
X85368988Y-48867559D01*
X85345212Y-48871769D01*
X85320908Y-48874338D01*
X85296136Y-48875207D01*
X85278254Y-48874755D01*
X85260607Y-48873413D01*
X85243216Y-48871204D01*
X85226104Y-48868148D01*
X85209292Y-48864268D01*
X85192802Y-48859586D01*
X85176656Y-48854123D01*
X85160876Y-48847901D01*
X85145484Y-48840942D01*
X85130500Y-48833269D01*
X85115948Y-48824902D01*
X85101850Y-48815864D01*
X85088226Y-48806176D01*
X85075098Y-48795860D01*
X85062490Y-48784938D01*
X85050422Y-48773433D01*
X85038916Y-48761365D01*
X85027994Y-48748756D01*
X85017678Y-48735629D01*
X85007990Y-48722005D01*
X84998951Y-48707907D01*
X84990584Y-48693355D01*
X84982910Y-48678371D01*
X84975951Y-48662979D01*
X84969729Y-48647198D01*
X84964266Y-48631052D01*
X84959583Y-48614562D01*
X84955703Y-48597750D01*
X84952647Y-48580637D01*
X84950437Y-48563246D01*
X84949095Y-48545598D01*
X84948643Y-48527715D01*
X85115422Y-48527715D01*
X85115657Y-48537015D01*
X85116355Y-48546193D01*
X85117504Y-48555237D01*
X85119094Y-48564136D01*
X85121112Y-48572880D01*
X85123547Y-48581456D01*
X85126389Y-48589853D01*
X85129625Y-48598060D01*
X85133244Y-48606065D01*
X85137235Y-48613857D01*
X85141587Y-48621425D01*
X85146288Y-48628758D01*
X85151326Y-48635844D01*
X85156691Y-48642671D01*
X85162372Y-48649228D01*
X85168356Y-48655505D01*
X85174632Y-48661489D01*
X85181190Y-48667169D01*
X85188017Y-48672534D01*
X85195103Y-48677573D01*
X85202435Y-48682274D01*
X85210003Y-48686626D01*
X85217796Y-48690617D01*
X85225801Y-48694236D01*
X85234008Y-48697472D01*
X85242405Y-48700313D01*
X85250981Y-48702749D01*
X85259724Y-48704767D01*
X85268624Y-48706356D01*
X85277668Y-48707506D01*
X85286846Y-48708204D01*
X85296146Y-48708439D01*
X85305446Y-48708204D01*
X85314625Y-48707506D01*
X85323670Y-48706356D01*
X85332570Y-48704767D01*
X85341314Y-48702749D01*
X85349890Y-48700313D01*
X85358287Y-48697472D01*
X85366494Y-48694236D01*
X85374500Y-48690617D01*
X85382292Y-48686626D01*
X85389860Y-48682274D01*
X85397193Y-48677573D01*
X85404278Y-48672534D01*
X85411105Y-48667169D01*
X85417663Y-48661489D01*
X85423939Y-48655505D01*
X85429923Y-48649228D01*
X85435603Y-48642671D01*
X85440968Y-48635844D01*
X85446006Y-48628758D01*
X85450707Y-48621425D01*
X85455058Y-48613857D01*
X85459049Y-48606065D01*
X85462668Y-48598060D01*
X85465904Y-48589853D01*
X85468745Y-48581456D01*
X85471180Y-48572880D01*
X85473198Y-48564136D01*
X85474787Y-48555237D01*
X85475936Y-48546193D01*
X85476634Y-48537015D01*
X85476869Y-48527715D01*
X85476634Y-48518415D01*
X85475936Y-48509236D01*
X85474787Y-48500191D01*
X85473198Y-48491291D01*
X85471180Y-48482547D01*
X85468745Y-48473971D01*
X85465904Y-48465574D01*
X85462668Y-48457366D01*
X85459049Y-48449361D01*
X85455058Y-48441568D01*
X85450707Y-48434000D01*
X85446006Y-48426668D01*
X85440968Y-48419582D01*
X85435603Y-48412755D01*
X85429923Y-48406198D01*
X85423939Y-48399922D01*
X85417663Y-48393938D01*
X85411105Y-48388258D01*
X85404278Y-48382893D01*
X85397193Y-48377854D01*
X85389860Y-48373154D01*
X85382292Y-48368802D01*
X85374500Y-48364812D01*
X85366494Y-48361193D01*
X85358287Y-48357957D01*
X85349890Y-48355116D01*
X85341313Y-48352681D01*
X85332570Y-48350663D01*
X85323669Y-48349074D01*
X85314625Y-48347924D01*
X85305446Y-48347226D01*
X85296146Y-48346991D01*
X85286846Y-48347226D01*
X85277668Y-48347924D01*
X85268624Y-48349074D01*
X85259724Y-48350663D01*
X85250981Y-48352681D01*
X85242405Y-48355116D01*
X85234008Y-48357957D01*
X85225801Y-48361193D01*
X85217796Y-48364812D01*
X85210003Y-48368802D01*
X85202435Y-48373154D01*
X85195103Y-48377854D01*
X85188017Y-48382893D01*
X85181190Y-48388258D01*
X85174632Y-48393938D01*
X85168356Y-48399922D01*
X85162372Y-48406198D01*
X85156691Y-48412755D01*
X85151326Y-48419582D01*
X85146288Y-48426668D01*
X85141587Y-48434000D01*
X85137235Y-48441568D01*
X85133244Y-48449361D01*
X85129625Y-48457366D01*
X85126389Y-48465574D01*
X85123547Y-48473971D01*
X85121112Y-48482547D01*
X85119094Y-48491291D01*
X85117504Y-48500191D01*
X85116355Y-48509236D01*
X85115657Y-48518415D01*
X85115422Y-48527715D01*
X84948643Y-48527715D01*
X84948720Y-48520329D01*
X84948950Y-48512981D01*
X84949331Y-48505672D01*
X84949862Y-48498405D01*
X84950541Y-48491180D01*
X84951366Y-48483998D01*
X84952336Y-48476862D01*
X84953449Y-48469773D01*
X84191132Y-49273925D01*
X84119125Y-49205587D01*
X85191882Y-48075790D01*
X85326941Y-48075790D01*
X85336895Y-48182576D01*
X85352971Y-48184835D01*
X85368804Y-48187818D01*
X85384374Y-48191509D01*
X85399666Y-48195890D01*
X85414661Y-48200943D01*
X85429342Y-48206651D01*
X85443691Y-48212996D01*
X85457692Y-48219961D01*
X85471326Y-48227529D01*
X85484576Y-48235682D01*
X85497426Y-48244402D01*
X85509856Y-48253673D01*
X85521850Y-48263476D01*
X85533391Y-48273794D01*
X85544461Y-48284610D01*
X85555042Y-48295906D01*
X85565117Y-48307665D01*
X85574668Y-48319870D01*
X85583679Y-48332502D01*
X85592131Y-48345545D01*
X85600007Y-48358980D01*
X85607290Y-48372792D01*
X85613962Y-48386961D01*
X85620006Y-48401471D01*
X85625405Y-48416304D01*
X85630140Y-48431442D01*
X85634194Y-48446869D01*
X85637551Y-48462567D01*
X85640192Y-48478517D01*
X85642100Y-48494704D01*
X85643258Y-48511109D01*
X85643648Y-48527715D01*
X85643608Y-48533000D01*
X85643490Y-48538265D01*
X85643294Y-48543512D01*
X85643022Y-48548740D01*
X85642673Y-48553946D01*
X85642248Y-48559133D01*
X85641748Y-48564297D01*
X85641174Y-48569440D01*
X86614900Y-48569440D01*
X86666750Y-47966662D01*
X86037761Y-47325971D01*
X85326941Y-48075790D01*
X85191882Y-48075790D01*
X85204522Y-48062478D01*
X85057791Y-46488117D01*
X85178984Y-46488117D01*
X85314876Y-47946273D01*
X85969694Y-47256637D01*
X85967947Y-47254857D01*
X86105174Y-47254857D01*
X86106923Y-47256637D01*
X86677839Y-47837617D01*
X86790124Y-46532325D01*
X86105174Y-47254857D01*
X85967947Y-47254857D01*
X85192387Y-46464852D01*
X85192387Y-46488117D01*
X85178984Y-46488117D01*
X85057791Y-46488117D01*
X84783001Y-46488117D01*
X84783001Y-46175935D01*
X84888589Y-46175935D01*
X84888589Y-46379632D01*
X85047697Y-46379632D01*
X85041293Y-46310962D01*
X84908728Y-46175935D01*
X84888589Y-46175935D01*
X84783001Y-46175935D01*
X84783001Y-46067430D01*
X84802215Y-46067430D01*
X83879192Y-45127235D01*
X83879192Y-44989674D01*
X84938298Y-46067440D01*
X85018590Y-46067440D01*
X85001575Y-45884957D01*
X85122782Y-45884957D01*
X85139783Y-46067451D01*
X85192387Y-46067451D01*
X85192387Y-46325993D01*
X85245098Y-46379632D01*
X85483897Y-46622632D01*
X85483897Y-46483130D01*
X86222888Y-46483130D01*
X86222888Y-46724430D01*
X85583926Y-46724430D01*
X86037138Y-47185615D01*
X86803346Y-46378667D01*
X86845814Y-45884957D01*
X85122782Y-45884957D01*
X85001575Y-45884957D01*
X85001247Y-45881438D01*
X84997628Y-45882911D01*
X84993966Y-45884298D01*
X84990261Y-45885598D01*
X84986516Y-45886809D01*
X84982732Y-45887930D01*
X84978909Y-45888961D01*
X84975050Y-45889899D01*
X84971155Y-45890743D01*
X84967225Y-45891493D01*
X84963262Y-45892147D01*
X84959268Y-45892704D01*
X84955242Y-45893162D01*
X84951188Y-45893521D01*
X84947105Y-45893778D01*
X84942996Y-45893934D01*
X84938861Y-45893986D01*
X84930582Y-45893777D01*
X84922412Y-45893155D01*
X84914361Y-45892132D01*
X84906439Y-45890717D01*
X84898656Y-45888921D01*
X84891022Y-45886753D01*
X84883548Y-45884224D01*
X84876242Y-45881343D01*
X84869116Y-45878122D01*
X84862180Y-45874569D01*
X84855443Y-45870695D01*
X84848917Y-45866511D01*
X84842610Y-45862026D01*
X84836533Y-45857250D01*
X84830696Y-45852194D01*
X84825109Y-45846867D01*
X84819783Y-45841280D01*
X84814727Y-45835443D01*
X84809951Y-45829366D01*
X84805466Y-45823059D01*
X84801282Y-45816532D01*
X84797409Y-45809795D01*
X84793856Y-45802859D01*
X84790635Y-45795733D01*
X84787755Y-45788428D01*
X84785226Y-45780954D01*
X84783058Y-45773320D01*
X84781262Y-45765538D01*
X84780150Y-45759310D01*
X85127517Y-45759310D01*
X86529510Y-45759310D01*
X86529510Y-45649519D01*
X86735681Y-45649519D01*
X86735681Y-45759300D01*
X86855808Y-45759300D01*
X86851207Y-45751129D01*
X86846171Y-45743141D01*
X86840711Y-45735336D01*
X86834837Y-45727711D01*
X86828559Y-45720265D01*
X86821886Y-45712994D01*
X86814829Y-45705897D01*
X86807399Y-45698973D01*
X86799604Y-45692218D01*
X86791454Y-45685631D01*
X86782961Y-45679210D01*
X86774133Y-45672953D01*
X86764981Y-45666857D01*
X86755515Y-45660921D01*
X86745745Y-45655142D01*
X86735681Y-45649519D01*
X86529510Y-45649519D01*
X86529510Y-45575802D01*
X86489436Y-45566870D01*
X86448644Y-45558900D01*
X86407385Y-45551842D01*
X86365905Y-45545644D01*
X86324455Y-45540258D01*
X86283281Y-45535631D01*
X86242633Y-45531714D01*
X86202760Y-45528457D01*
X86202760Y-45533102D01*
X86202760Y-45653752D01*
X85609574Y-45653752D01*
X85609574Y-45541146D01*
X85569652Y-45546710D01*
X85529936Y-45553107D01*
X85490668Y-45560387D01*
X85452084Y-45568604D01*
X85414417Y-45577809D01*
X85377902Y-45588055D01*
X85342771Y-45599394D01*
X85309259Y-45611880D01*
X85277600Y-45625564D01*
X85248027Y-45640498D01*
X85234097Y-45648451D01*
X85220776Y-45656736D01*
X85208094Y-45665360D01*
X85196079Y-45674330D01*
X85184762Y-45683652D01*
X85174171Y-45693332D01*
X85164335Y-45703377D01*
X85155285Y-45713794D01*
X85147049Y-45724589D01*
X85139656Y-45735769D01*
X85133136Y-45747341D01*
X85127517Y-45759310D01*
X84780150Y-45759310D01*
X84779847Y-45757616D01*
X84778824Y-45749566D01*
X84778203Y-45741397D01*
X84777994Y-45733119D01*
X84778203Y-45724841D01*
X84778824Y-45716671D01*
X84779847Y-45708620D01*
X84781262Y-45700698D01*
X84783058Y-45692915D01*
X84785226Y-45685281D01*
X84787755Y-45677806D01*
X84790635Y-45670501D01*
X84793856Y-45663375D01*
X84797409Y-45656439D01*
X84801282Y-45649702D01*
X84805466Y-45643175D01*
X84809951Y-45636868D01*
X84814727Y-45630791D01*
X84819783Y-45624954D01*
X84825109Y-45619368D01*
X84830696Y-45614041D01*
X84836533Y-45608985D01*
X84842610Y-45604210D01*
X84848917Y-45599725D01*
X84855443Y-45595541D01*
X84862180Y-45591667D01*
X84869116Y-45588115D01*
X84876242Y-45584894D01*
X84883548Y-45582013D01*
X84891022Y-45579484D01*
X84898656Y-45577317D01*
X84906439Y-45575521D01*
X84914361Y-45574106D01*
X84922412Y-45573083D01*
X84930582Y-45572462D01*
X84938861Y-45572253D01*
X84948425Y-45572532D01*
X84957843Y-45573361D01*
X84967097Y-45574723D01*
X84976172Y-45576602D01*
X84985054Y-45578984D01*
X84993725Y-45581852D01*
X85002170Y-45585190D01*
X85010375Y-45588984D01*
X85018322Y-45593217D01*
X85025997Y-45597874D01*
X85033383Y-45602938D01*
X85040465Y-45608395D01*
X85047228Y-45614229D01*
X85053656Y-45620424D01*
X85059733Y-45626964D01*
X85065443Y-45633834D01*
X85087393Y-45610411D01*
X85111740Y-45588561D01*
X85138315Y-45568232D01*
X85166949Y-45549371D01*
X85197473Y-45531926D01*
X85229717Y-45515842D01*
X85263512Y-45501068D01*
X85298690Y-45487550D01*
X85327552Y-45477784D01*
X85730244Y-45477784D01*
X85730244Y-45533102D01*
X86082130Y-45533102D01*
X86082130Y-45477784D01*
X85730244Y-45477784D01*
X85327552Y-45477784D01*
X85335082Y-45475236D01*
X85372517Y-45464072D01*
X85410827Y-45454006D01*
X85449843Y-45444986D01*
X85489396Y-45436957D01*
X85529317Y-45429867D01*
X85609574Y-45418295D01*
X85609574Y-45357144D01*
X86202760Y-45357144D01*
X86202760Y-45404921D01*
X86242765Y-45407796D01*
X86283336Y-45411345D01*
X86324310Y-45415622D01*
X86365524Y-45420682D01*
X86406815Y-45426580D01*
X86448018Y-45433370D01*
X86488971Y-45441106D01*
X86529510Y-45449843D01*
X86529510Y-45437507D01*
X86735671Y-45437507D01*
X86735671Y-45517246D01*
X86756003Y-45526857D01*
X86775784Y-45536954D01*
X86794981Y-45547549D01*
X86813560Y-45558654D01*
X86831486Y-45570279D01*
X86839317Y-45575802D01*
X86848726Y-45582436D01*
G37*
D12*
%TO.C,TP6*%
X88700000Y-58100000D02*
G75*
G02*
X87300000Y-58100000I-700000J0D01*
G01*
X87300000Y-58100000D02*
G75*
G02*
X88700000Y-58100000I700000J0D01*
G01*
%TO.C,TP8*%
X88950000Y-72100000D02*
G75*
G02*
X87050000Y-72100000I-950000J0D01*
G01*
X87050000Y-72100000D02*
G75*
G02*
X88950000Y-72100000I950000J0D01*
G01*
%TO.C,TP2*%
X70950000Y-49100000D02*
G75*
G02*
X69050000Y-49100000I-950000J0D01*
G01*
X69050000Y-49100000D02*
G75*
G02*
X70950000Y-49100000I950000J0D01*
G01*
%TO.C,TP10*%
X76950000Y-72100000D02*
G75*
G02*
X75050000Y-72100000I-950000J0D01*
G01*
X75050000Y-72100000D02*
G75*
G02*
X76950000Y-72100000I950000J0D01*
G01*
%TO.C,TP7*%
X70950000Y-56100000D02*
G75*
G02*
X69050000Y-56100000I-950000J0D01*
G01*
X69050000Y-56100000D02*
G75*
G02*
X70950000Y-56100000I950000J0D01*
G01*
%TO.C,TP4*%
X88700000Y-52100000D02*
G75*
G02*
X87300000Y-52100000I-700000J0D01*
G01*
X87300000Y-52100000D02*
G75*
G02*
X88700000Y-52100000I700000J0D01*
G01*
%TO.C,TP1*%
X67950000Y-49100000D02*
G75*
G02*
X66050000Y-49100000I-950000J0D01*
G01*
X66050000Y-49100000D02*
G75*
G02*
X67950000Y-49100000I950000J0D01*
G01*
D14*
%TO.C,LOG1*%
G36*
X72603857Y-58295945D02*
G01*
X72507676Y-58295945D01*
X72507676Y-58207779D01*
X72603857Y-58207779D01*
X72603857Y-58295945D01*
G37*
G36*
X73389342Y-58215794D02*
G01*
X73229039Y-58215794D01*
X73229039Y-58055491D01*
X73389342Y-58055491D01*
X73389342Y-58215794D01*
G37*
G36*
X73846205Y-57807021D02*
G01*
X73645826Y-57807021D01*
X73645826Y-57598628D01*
X73846205Y-57598628D01*
X73846205Y-57807021D01*
G37*
G36*
X73846205Y-58432203D02*
G01*
X73669872Y-58432203D01*
X73669872Y-58255870D01*
X73846205Y-58255870D01*
X73846205Y-58432203D01*
G37*
G36*
X73902311Y-58937157D02*
G01*
X73830175Y-58937157D01*
X73830175Y-58873036D01*
X73902311Y-58873036D01*
X73902311Y-58937157D01*
G37*
G36*
X74375205Y-58031446D02*
G01*
X74142765Y-58031446D01*
X74142765Y-57799006D01*
X74375205Y-57799006D01*
X74375205Y-58031446D01*
G37*
G36*
X74295053Y-58616551D02*
G01*
X74158796Y-58616551D01*
X74158796Y-58472279D01*
X74295053Y-58472279D01*
X74295053Y-58616551D01*
G37*
G36*
X74695811Y-57542522D02*
G01*
X74415280Y-57542522D01*
X74415280Y-57261992D01*
X74695811Y-57261992D01*
X74695811Y-57542522D01*
G37*
G36*
X74904204Y-58239839D02*
G01*
X74623674Y-58239839D01*
X74623674Y-57959309D01*
X74904204Y-57959309D01*
X74904204Y-58239839D01*
G37*
G36*
X75681674Y-58560445D02*
G01*
X75409159Y-58560445D01*
X75409159Y-58287930D01*
X75681674Y-58287930D01*
X75681674Y-58560445D01*
G37*
G36*
X75681674Y-60003172D02*
G01*
X75409159Y-60003172D01*
X75409159Y-58857006D01*
X75681674Y-58857006D01*
X75681674Y-60003172D01*
G37*
G36*
X75954189Y-58007400D02*
G01*
X75777855Y-58007400D01*
X75777855Y-57831067D01*
X75954189Y-57831067D01*
X75954189Y-58007400D01*
G37*
G36*
X78903763Y-60003172D02*
G01*
X78631248Y-60003172D01*
X78631248Y-58287930D01*
X78903763Y-58287930D01*
X78903763Y-60003172D01*
G37*
G36*
X73517584Y-58865021D02*
G01*
X73356701Y-58865021D01*
X73361289Y-58708725D01*
X73439436Y-58706431D01*
X73517584Y-58704137D01*
X73517584Y-58865021D01*
G37*
G36*
X75433204Y-57783355D02*
G01*
X75294943Y-57781162D01*
X75156682Y-57778968D01*
X75154488Y-57640707D01*
X75152295Y-57502446D01*
X75433204Y-57502446D01*
X75433204Y-57783355D01*
G37*
G36*
X73032668Y-58492317D02*
G01*
X73035084Y-58543571D01*
X73035726Y-58568564D01*
X73035154Y-58592368D01*
X73033332Y-58605688D01*
X73025986Y-58611649D01*
X73006375Y-58615383D01*
X72972806Y-58616551D01*
X72916448Y-58616551D01*
X72916448Y-58487607D01*
X73032668Y-58492317D01*
G37*
G36*
X76401446Y-58263041D02*
G01*
X76402072Y-58288032D01*
X76401452Y-58311991D01*
X76399558Y-58325511D01*
X76398310Y-58327742D01*
X76389038Y-58332772D01*
X76369557Y-58334848D01*
X76337028Y-58334371D01*
X76278802Y-58332014D01*
X76278802Y-58211786D01*
X76399029Y-58211786D01*
X76401446Y-58263041D01*
G37*
G36*
X74875495Y-58843679D02*
G01*
X74946844Y-58867738D01*
X75011791Y-58904756D01*
X75068172Y-58954206D01*
X75100241Y-58995500D01*
X75130875Y-59055874D01*
X75148404Y-59121043D01*
X75152070Y-59187901D01*
X75141117Y-59253341D01*
X75138319Y-59262555D01*
X75121224Y-59305747D01*
X75098040Y-59344260D01*
X75067173Y-59379450D01*
X75027030Y-59412675D01*
X74976016Y-59445293D01*
X74912538Y-59478662D01*
X74835003Y-59514139D01*
X74821484Y-59520067D01*
X74780328Y-59538729D01*
X74742996Y-59556512D01*
X74713140Y-59571642D01*
X74694415Y-59582349D01*
X74679162Y-59593937D01*
X74655111Y-59619000D01*
X74638158Y-59645573D01*
X74631719Y-59668937D01*
X74631759Y-59671014D01*
X74640228Y-59699674D01*
X74661751Y-59727908D01*
X74693851Y-59752387D01*
X74706432Y-59759424D01*
X74729324Y-59769009D01*
X74754181Y-59773488D01*
X74787985Y-59774502D01*
X74828832Y-59771496D01*
X74868379Y-59760740D01*
X74907577Y-59740366D01*
X74951035Y-59708507D01*
X74985843Y-59680274D01*
X75091300Y-59731113D01*
X75107720Y-59739036D01*
X75143215Y-59756225D01*
X75172155Y-59770322D01*
X75191909Y-59780045D01*
X75199847Y-59784107D01*
X75200318Y-59787935D01*
X75192724Y-59802067D01*
X75176057Y-59824312D01*
X75151799Y-59852754D01*
X75121432Y-59885477D01*
X75072722Y-59930885D01*
X75008306Y-59975382D01*
X74937816Y-60006977D01*
X74858010Y-60027415D01*
X74834659Y-60030119D01*
X74799341Y-60031486D01*
X74763939Y-60030576D01*
X74692022Y-60020549D01*
X74620772Y-59997209D01*
X74555806Y-59959990D01*
X74494872Y-59907868D01*
X74471120Y-59882132D01*
X74428133Y-59820806D01*
X74400503Y-59755892D01*
X74388409Y-59687902D01*
X74392033Y-59617344D01*
X74399469Y-59581521D01*
X74417553Y-59529982D01*
X74444508Y-59483187D01*
X74481510Y-59440047D01*
X74529736Y-59399471D01*
X74590363Y-59360367D01*
X74664565Y-59321646D01*
X74753521Y-59282217D01*
X74777987Y-59271501D01*
X74828865Y-59244693D01*
X74867726Y-59217127D01*
X74892615Y-59190098D01*
X74898499Y-59179750D01*
X74901458Y-59163585D01*
X74896244Y-59141709D01*
X74894523Y-59136893D01*
X74880915Y-59114507D01*
X74859081Y-59099861D01*
X74826632Y-59091868D01*
X74781182Y-59089445D01*
X74756302Y-59089887D01*
X74727875Y-59092972D01*
X74703088Y-59100473D01*
X74674583Y-59114094D01*
X74651865Y-59126647D01*
X74622862Y-59144178D01*
X74600998Y-59159070D01*
X74574315Y-59179395D01*
X74552907Y-59159989D01*
X74540819Y-59149092D01*
X74518595Y-59129146D01*
X74490676Y-59104146D01*
X74460415Y-59077096D01*
X74389331Y-59013610D01*
X74424193Y-58982672D01*
X74439819Y-58969518D01*
X74488430Y-58934421D01*
X74543562Y-58901032D01*
X74599402Y-58872694D01*
X74650137Y-58852748D01*
X74722257Y-58836539D01*
X74799911Y-58833104D01*
X74875495Y-58843679D01*
G37*
G36*
X80333311Y-59304651D02*
G01*
X80344954Y-59396708D01*
X80343727Y-59490088D01*
X80329450Y-59581890D01*
X80301943Y-59669215D01*
X80278583Y-59719195D01*
X80228853Y-59796754D01*
X80167281Y-59865644D01*
X80095626Y-59924509D01*
X80015646Y-59971992D01*
X79929102Y-60006734D01*
X79837752Y-60027379D01*
X79831878Y-60028119D01*
X79797892Y-60030540D01*
X79757179Y-60031330D01*
X79717300Y-60030306D01*
X79702558Y-60029395D01*
X79601025Y-60015926D01*
X79508789Y-59989990D01*
X79424428Y-59950948D01*
X79346518Y-59898161D01*
X79273638Y-59830990D01*
X79256227Y-59812293D01*
X79235639Y-59789026D01*
X79221566Y-59771646D01*
X79216353Y-59762940D01*
X79217028Y-59761721D01*
X79226632Y-59752414D01*
X79245516Y-59736322D01*
X79270988Y-59715547D01*
X79300356Y-59692196D01*
X79330928Y-59668371D01*
X79360013Y-59646178D01*
X79384919Y-59627721D01*
X79402956Y-59615103D01*
X79411430Y-59610429D01*
X79413556Y-59611766D01*
X79424991Y-59621668D01*
X79443706Y-59639113D01*
X79466971Y-59661587D01*
X79482746Y-59676420D01*
X79543913Y-59722410D01*
X79609758Y-59753895D01*
X79682450Y-59771986D01*
X79700314Y-59774294D01*
X79773768Y-59774855D01*
X79843934Y-59761618D01*
X79908956Y-59735721D01*
X79966975Y-59698299D01*
X80016134Y-59650493D01*
X80054573Y-59593439D01*
X80080436Y-59528274D01*
X80088712Y-59498217D01*
X79157977Y-59498217D01*
X79162550Y-59412055D01*
X79172772Y-59319038D01*
X79186148Y-59265778D01*
X79463917Y-59265778D01*
X79758647Y-59265778D01*
X79825277Y-59265642D01*
X79886526Y-59265266D01*
X79940618Y-59264680D01*
X79985779Y-59263915D01*
X80020235Y-59263000D01*
X80042209Y-59261965D01*
X80049929Y-59260841D01*
X80048081Y-59255249D01*
X80037831Y-59238887D01*
X80021334Y-59217164D01*
X80001723Y-59193902D01*
X79982130Y-59172925D01*
X79965689Y-59158055D01*
X79950591Y-59147673D01*
X79921690Y-59130552D01*
X79891513Y-59115035D01*
X79870664Y-59105923D01*
X79850233Y-59099388D01*
X79827616Y-59095631D01*
X79798200Y-59093912D01*
X79757376Y-59093490D01*
X79748455Y-59093495D01*
X79710919Y-59093985D01*
X79683752Y-59095866D01*
X79662217Y-59099971D01*
X79641582Y-59107135D01*
X79617111Y-59118192D01*
X79591986Y-59131860D01*
X79547315Y-59164026D01*
X79507687Y-59202004D01*
X79478396Y-59241105D01*
X79463917Y-59265778D01*
X79186148Y-59265778D01*
X79194878Y-59231014D01*
X79229546Y-59150739D01*
X79277701Y-59076096D01*
X79340267Y-59004965D01*
X79408046Y-58945027D01*
X79484333Y-58895213D01*
X79565128Y-58860280D01*
X79651661Y-58839703D01*
X79745163Y-58832960D01*
X79766135Y-58833187D01*
X79852921Y-58840004D01*
X79930875Y-58857069D01*
X80003626Y-58885404D01*
X80074799Y-58926035D01*
X80097656Y-58942329D01*
X80145721Y-58983242D01*
X80193286Y-59031355D01*
X80235758Y-59081838D01*
X80268546Y-59129860D01*
X80272134Y-59136101D01*
X80308978Y-59216815D01*
X80321174Y-59260841D01*
X80333311Y-59304651D01*
G37*
G36*
X77063530Y-58887063D02*
G01*
X77056590Y-58896133D01*
X77039740Y-58917949D01*
X77015354Y-58949404D01*
X76984755Y-58988794D01*
X76949266Y-59034416D01*
X76910213Y-59084564D01*
X76868919Y-59137536D01*
X76835229Y-59180734D01*
X76797153Y-59229565D01*
X76763024Y-59273343D01*
X76734025Y-59310551D01*
X76711338Y-59339670D01*
X76696146Y-59359185D01*
X76689632Y-59367578D01*
X76689525Y-59369708D01*
X76695324Y-59381889D01*
X76709728Y-59404517D01*
X76732982Y-59437930D01*
X76765328Y-59482466D01*
X76807010Y-59538463D01*
X76858273Y-59606259D01*
X76919359Y-59686192D01*
X76923799Y-59691979D01*
X76970655Y-59753135D01*
X77014312Y-59810270D01*
X77053831Y-59862144D01*
X77088272Y-59907516D01*
X77116695Y-59945145D01*
X77138161Y-59973792D01*
X77151729Y-59992216D01*
X77156461Y-59999176D01*
X77156047Y-59999461D01*
X77145100Y-60000640D01*
X77121053Y-60001659D01*
X77086290Y-60002459D01*
X77043195Y-60002982D01*
X76994154Y-60003168D01*
X76831847Y-60003165D01*
X76675798Y-59802707D01*
X76654962Y-59776021D01*
X76618193Y-59729338D01*
X76585140Y-59687894D01*
X76557019Y-59653180D01*
X76535042Y-59626688D01*
X76520423Y-59609909D01*
X76514376Y-59604336D01*
X76513737Y-59604851D01*
X76505459Y-59614377D01*
X76489019Y-59634630D01*
X76465687Y-59664003D01*
X76436732Y-59700889D01*
X76403426Y-59743680D01*
X76367038Y-59790770D01*
X76359455Y-59800612D01*
X76322961Y-59847839D01*
X76289372Y-59891087D01*
X76260059Y-59928607D01*
X76236391Y-59958651D01*
X76219737Y-59979470D01*
X76211468Y-59989316D01*
X76205733Y-59994010D01*
X76197097Y-59997584D01*
X76183511Y-60000016D01*
X76162760Y-60001456D01*
X76132628Y-60002055D01*
X76090901Y-60001966D01*
X76035364Y-60001339D01*
X75872865Y-59999164D01*
X76109839Y-59690581D01*
X76114080Y-59685058D01*
X76160945Y-59623937D01*
X76204612Y-59566831D01*
X76244142Y-59514981D01*
X76278592Y-59469627D01*
X76307024Y-59432010D01*
X76328495Y-59403371D01*
X76342067Y-59384951D01*
X76346797Y-59377990D01*
X76346212Y-59376925D01*
X76338309Y-59365840D01*
X76321987Y-59343926D01*
X76298286Y-59312550D01*
X76268246Y-59273079D01*
X76232906Y-59226880D01*
X76193306Y-59175321D01*
X76150485Y-59119770D01*
X76135363Y-59100174D01*
X76093535Y-59045826D01*
X76055290Y-58995928D01*
X76021666Y-58951848D01*
X75993705Y-58914957D01*
X75972444Y-58886625D01*
X75958926Y-58868222D01*
X75954189Y-58861119D01*
X75954846Y-58860732D01*
X75966652Y-58859599D01*
X75991449Y-58858811D01*
X76026878Y-58858402D01*
X76070584Y-58858403D01*
X76120208Y-58858847D01*
X76286228Y-58861013D01*
X76396983Y-59005286D01*
X76413895Y-59027249D01*
X76444492Y-59066619D01*
X76471206Y-59100524D01*
X76492582Y-59127143D01*
X76507164Y-59144650D01*
X76513497Y-59151223D01*
X76516291Y-59149219D01*
X76527866Y-59136729D01*
X76546881Y-59114317D01*
X76571900Y-59083723D01*
X76601488Y-59046686D01*
X76634209Y-59004946D01*
X76749161Y-58857006D01*
X77086227Y-58857006D01*
X77063530Y-58887063D01*
G37*
G36*
X78373495Y-59274831D02*
G01*
X78379562Y-59297519D01*
X78383362Y-59320439D01*
X78385412Y-59347542D01*
X78386223Y-59382775D01*
X78386309Y-59430089D01*
X78386280Y-59442078D01*
X78385877Y-59486612D01*
X78384622Y-59520206D01*
X78381963Y-59547015D01*
X78377352Y-59571191D01*
X78370239Y-59596886D01*
X78360074Y-59628255D01*
X78324545Y-59712438D01*
X78274749Y-59792517D01*
X78213487Y-59863159D01*
X78142198Y-59923161D01*
X78062322Y-59971321D01*
X77975297Y-60006435D01*
X77882564Y-60027300D01*
X77862864Y-60029476D01*
X77806413Y-60031380D01*
X77743501Y-60028701D01*
X77680329Y-60021823D01*
X77623100Y-60011135D01*
X77556835Y-59992049D01*
X77484966Y-59961685D01*
X77418685Y-59921414D01*
X77354938Y-59869327D01*
X77290673Y-59803520D01*
X77252561Y-59760893D01*
X77352593Y-59685661D01*
X77373037Y-59670336D01*
X77405015Y-59646592D01*
X77430982Y-59627597D01*
X77448683Y-59614995D01*
X77455863Y-59610429D01*
X77457963Y-59611768D01*
X77469348Y-59621672D01*
X77488027Y-59639116D01*
X77511275Y-59661587D01*
X77527585Y-59676796D01*
X77591200Y-59723390D01*
X77659893Y-59755686D01*
X77732003Y-59773403D01*
X77805870Y-59776260D01*
X77879835Y-59763976D01*
X77952239Y-59736270D01*
X77980400Y-59720212D01*
X78030780Y-59680537D01*
X78073130Y-59632468D01*
X78104805Y-59579284D01*
X78123161Y-59524267D01*
X78128297Y-59498217D01*
X77202281Y-59498217D01*
X77206838Y-59412055D01*
X77209033Y-59378628D01*
X77216193Y-59319101D01*
X77228318Y-59265970D01*
X77230247Y-59260507D01*
X77509127Y-59260507D01*
X77509131Y-59260535D01*
X77517185Y-59261734D01*
X77539454Y-59262836D01*
X77574162Y-59263810D01*
X77619535Y-59264623D01*
X77673797Y-59265244D01*
X77735173Y-59265639D01*
X77801886Y-59265778D01*
X78094644Y-59265778D01*
X78081764Y-59240870D01*
X78062022Y-59211540D01*
X78028320Y-59176485D01*
X77987361Y-59144308D01*
X77943554Y-59118896D01*
X77937063Y-59115840D01*
X77913382Y-59105497D01*
X77892780Y-59098943D01*
X77870479Y-59095322D01*
X77841705Y-59093777D01*
X77801680Y-59093453D01*
X77754233Y-59094554D01*
X77711679Y-59099204D01*
X77676189Y-59108715D01*
X77643110Y-59124384D01*
X77607790Y-59147508D01*
X77591430Y-59161088D01*
X77569889Y-59182175D01*
X77547855Y-59206134D01*
X77528362Y-59229491D01*
X77514441Y-59248774D01*
X77509127Y-59260507D01*
X77230247Y-59260507D01*
X77247054Y-59212903D01*
X77274048Y-59153566D01*
X77287366Y-59127320D01*
X77305374Y-59096206D01*
X77325228Y-59068531D01*
X77350362Y-59039661D01*
X77384209Y-59004965D01*
X77384291Y-59004883D01*
X77457180Y-58941175D01*
X77532945Y-58892792D01*
X77613131Y-58859084D01*
X77699283Y-58839403D01*
X77792943Y-58833099D01*
X77864448Y-58836078D01*
X77931794Y-58846363D01*
X77995735Y-58865296D01*
X78062172Y-58894218D01*
X78088272Y-58907535D01*
X78119416Y-58925641D01*
X78147068Y-58945560D01*
X78175868Y-58970747D01*
X78210452Y-59004656D01*
X78242164Y-59037835D01*
X78281694Y-59084735D01*
X78312734Y-59130843D01*
X78338333Y-59180898D01*
X78361537Y-59239639D01*
X78364650Y-59248427D01*
X78370462Y-59265778D01*
X78373495Y-59274831D01*
G37*
G36*
X81204611Y-58761524D02*
G01*
X81225793Y-58812284D01*
X81264348Y-58904647D01*
X81301011Y-58992442D01*
X81335305Y-59074534D01*
X81366756Y-59149785D01*
X81394888Y-59217060D01*
X81419226Y-59275222D01*
X81439295Y-59323134D01*
X81454620Y-59359660D01*
X81464725Y-59383664D01*
X81469134Y-59394009D01*
X81478097Y-59414035D01*
X81488382Y-59394009D01*
X81489912Y-59390705D01*
X81497408Y-59373513D01*
X81510379Y-59343236D01*
X81528341Y-59301014D01*
X81550814Y-59247989D01*
X81577315Y-59185300D01*
X81607362Y-59114089D01*
X81640473Y-59035496D01*
X81676166Y-58950662D01*
X81713960Y-58860729D01*
X81753371Y-58766835D01*
X81774245Y-58717116D01*
X81812602Y-58625959D01*
X81848983Y-58539760D01*
X81882922Y-58459610D01*
X81913951Y-58386604D01*
X81941602Y-58321833D01*
X81965410Y-58266391D01*
X81984907Y-58221369D01*
X81999626Y-58187861D01*
X82009100Y-58166960D01*
X82012862Y-58159757D01*
X82014120Y-58163022D01*
X82019232Y-58180237D01*
X82027972Y-58211386D01*
X82040085Y-58255516D01*
X82055317Y-58311673D01*
X82073412Y-58378904D01*
X82094114Y-58456256D01*
X82117170Y-58542774D01*
X82142325Y-58637506D01*
X82169322Y-58739497D01*
X82197908Y-58847795D01*
X82227827Y-58961445D01*
X82258824Y-59079495D01*
X82500000Y-59999164D01*
X82367625Y-60001368D01*
X82355519Y-60001548D01*
X82304061Y-60001698D01*
X82265282Y-60000688D01*
X82240290Y-59998568D01*
X82230190Y-59995385D01*
X82229661Y-59994019D01*
X82225536Y-59980087D01*
X82217861Y-59952401D01*
X82206986Y-59912279D01*
X82193263Y-59861039D01*
X82177041Y-59800000D01*
X82158672Y-59730481D01*
X82138506Y-59653798D01*
X82116895Y-59571272D01*
X82094188Y-59484220D01*
X82086291Y-59453910D01*
X82063939Y-59368384D01*
X82042806Y-59287907D01*
X82023242Y-59213789D01*
X82005597Y-59147338D01*
X81990220Y-59089862D01*
X81977461Y-59042671D01*
X81967669Y-59007072D01*
X81961194Y-58984376D01*
X81958386Y-58975889D01*
X81958189Y-58975932D01*
X81953488Y-58984471D01*
X81943184Y-59006516D01*
X81927763Y-59040945D01*
X81907708Y-59086639D01*
X81883502Y-59142476D01*
X81855629Y-59207338D01*
X81824574Y-59280102D01*
X81790819Y-59359650D01*
X81754849Y-59444860D01*
X81717147Y-59534613D01*
X81711178Y-59548853D01*
X81673719Y-59637960D01*
X81638072Y-59722343D01*
X81604718Y-59800883D01*
X81574143Y-59872460D01*
X81546829Y-59935954D01*
X81523258Y-59990247D01*
X81503915Y-60034218D01*
X81489283Y-60066749D01*
X81479845Y-60086719D01*
X81476085Y-60093009D01*
X81476068Y-60092987D01*
X81472154Y-60084565D01*
X81462538Y-60062549D01*
X81447714Y-60028099D01*
X81428175Y-59982379D01*
X81404414Y-59926548D01*
X81376926Y-59861770D01*
X81346204Y-59789205D01*
X81312742Y-59710016D01*
X81277032Y-59625364D01*
X81239570Y-59536411D01*
X81238427Y-59533693D01*
X81201044Y-59445012D01*
X81165426Y-59360794D01*
X81132063Y-59282187D01*
X81101448Y-59210338D01*
X81074073Y-59146393D01*
X81050431Y-59091498D01*
X81031014Y-59046802D01*
X81016314Y-59013451D01*
X81006823Y-58992591D01*
X81003034Y-58985369D01*
X81002495Y-58986320D01*
X80998394Y-58999020D01*
X80990766Y-59025497D01*
X80979956Y-59064460D01*
X80966313Y-59114621D01*
X80950183Y-59174687D01*
X80931913Y-59243368D01*
X80911852Y-59319374D01*
X80890345Y-59401414D01*
X80867741Y-59488199D01*
X80859931Y-59518249D01*
X80837611Y-59603832D01*
X80816487Y-59684390D01*
X80796909Y-59758609D01*
X80779229Y-59825180D01*
X80763798Y-59882788D01*
X80750967Y-59930122D01*
X80741086Y-59965871D01*
X80734506Y-59988721D01*
X80731579Y-59997360D01*
X80726472Y-59998771D01*
X80707443Y-60000366D01*
X80677126Y-60001385D01*
X80638315Y-60001746D01*
X80593800Y-60001368D01*
X80461594Y-59999164D01*
X80696127Y-59105475D01*
X80709315Y-59055228D01*
X80739638Y-58939740D01*
X80768830Y-58828620D01*
X80796625Y-58722880D01*
X80822754Y-58623534D01*
X80846953Y-58531593D01*
X80868953Y-58448071D01*
X80888489Y-58373980D01*
X80905292Y-58310332D01*
X80919098Y-58258140D01*
X80929638Y-58218417D01*
X80936646Y-58192175D01*
X80939855Y-58180426D01*
X80949049Y-58149066D01*
X81204611Y-58761524D01*
G37*
D12*
%TO.C,TP13*%
X82950000Y-93000000D02*
G75*
G02*
X81050000Y-93000000I-950000J0D01*
G01*
X81050000Y-93000000D02*
G75*
G02*
X82950000Y-93000000I950000J0D01*
G01*
%TO.C,TP3*%
X88700000Y-54100000D02*
G75*
G02*
X87300000Y-54100000I-700000J0D01*
G01*
X87300000Y-54100000D02*
G75*
G02*
X88700000Y-54100000I700000J0D01*
G01*
%TO.C,TP12*%
X76700000Y-56100000D02*
G75*
G02*
X75300000Y-56100000I-700000J0D01*
G01*
X75300000Y-56100000D02*
G75*
G02*
X76700000Y-56100000I700000J0D01*
G01*
%TO.C,TP5*%
X88700000Y-56100000D02*
G75*
G02*
X87300000Y-56100000I-700000J0D01*
G01*
X87300000Y-56100000D02*
G75*
G02*
X88700000Y-56100000I700000J0D01*
G01*
D14*
%TO.C,G\u002A\u002A\u002A*%
G36*
X63900000Y-70300000D02*
G01*
X63900000Y-70800000D01*
X63800000Y-70800000D01*
X63700000Y-70800000D01*
X63700000Y-70300000D01*
X63700000Y-69800000D01*
X63800000Y-69800000D01*
X63900000Y-69800000D01*
X63900000Y-70300000D01*
G37*
G36*
X63900000Y-76000000D02*
G01*
X63900000Y-76200000D01*
X64098333Y-76200000D01*
X64108135Y-76200008D01*
X64168320Y-76200425D01*
X64221074Y-76201402D01*
X64263256Y-76202836D01*
X64291723Y-76204625D01*
X64303333Y-76206666D01*
X64304901Y-76210853D01*
X64307519Y-76231636D01*
X64309326Y-76265110D01*
X64310000Y-76306459D01*
X64310000Y-76399585D01*
X64107500Y-76402292D01*
X63905000Y-76405000D01*
X63902291Y-76607859D01*
X63899583Y-76810719D01*
X63802291Y-76807859D01*
X63705000Y-76805000D01*
X63702292Y-76602500D01*
X63699585Y-76400000D01*
X63499792Y-76400000D01*
X63300000Y-76400000D01*
X63300000Y-76300000D01*
X63300000Y-76200000D01*
X63500000Y-76200000D01*
X63700000Y-76200000D01*
X63700000Y-76000000D01*
X63700000Y-75800000D01*
X63800000Y-75800000D01*
X63900000Y-75800000D01*
X63900000Y-76000000D01*
G37*
G36*
X63916510Y-72848122D02*
G01*
X64008252Y-72880190D01*
X64043344Y-72899682D01*
X64096061Y-72938521D01*
X64146527Y-72985417D01*
X64189321Y-73035165D01*
X64219020Y-73082559D01*
X64230047Y-73107074D01*
X64259376Y-73200183D01*
X64270295Y-73294011D01*
X64263159Y-73386194D01*
X64238322Y-73474367D01*
X64196140Y-73556166D01*
X64136968Y-73629228D01*
X64084257Y-73676458D01*
X64022613Y-73716170D01*
X63952350Y-73745178D01*
X63899877Y-73762342D01*
X63902438Y-74533365D01*
X63905000Y-75304389D01*
X63977845Y-75316585D01*
X64059712Y-75333676D01*
X64191984Y-75376724D01*
X64314653Y-75436470D01*
X64426580Y-75511832D01*
X64526628Y-75601728D01*
X64613661Y-75705074D01*
X64686541Y-75820790D01*
X64744130Y-75947793D01*
X64785292Y-76085000D01*
X64786082Y-76088573D01*
X64791761Y-76126168D01*
X64795238Y-76176513D01*
X64796620Y-76241994D01*
X64796013Y-76325000D01*
X64795620Y-76347044D01*
X64794097Y-76409223D01*
X64791883Y-76457083D01*
X64788494Y-76494995D01*
X64783447Y-76527332D01*
X64776260Y-76558465D01*
X64766450Y-76592766D01*
X64753574Y-76632603D01*
X64698319Y-76763556D01*
X64627268Y-76882917D01*
X64541418Y-76989714D01*
X64441769Y-77082973D01*
X64329317Y-77161722D01*
X64205061Y-77224987D01*
X64070000Y-77271795D01*
X64061353Y-77274125D01*
X64028936Y-77282019D01*
X63997712Y-77287656D01*
X63963444Y-77291399D01*
X63921895Y-77293611D01*
X63868826Y-77294654D01*
X63800000Y-77294890D01*
X63781134Y-77294865D01*
X63716848Y-77294393D01*
X63667421Y-77293064D01*
X63628748Y-77290521D01*
X63596719Y-77286408D01*
X63567225Y-77280371D01*
X63536159Y-77272053D01*
X63470932Y-77251132D01*
X63339359Y-77194675D01*
X63220021Y-77123395D01*
X63113784Y-77038430D01*
X63021515Y-76940920D01*
X62944079Y-76832001D01*
X62882344Y-76712811D01*
X62837174Y-76584489D01*
X62809438Y-76448173D01*
X62800799Y-76317122D01*
X63021908Y-76317122D01*
X63033022Y-76432968D01*
X63060507Y-76546110D01*
X63103251Y-76653722D01*
X63160141Y-76752981D01*
X63230064Y-76841060D01*
X63311908Y-76915136D01*
X63368487Y-76953347D01*
X63445059Y-76995672D01*
X63525064Y-77031693D01*
X63600000Y-77057217D01*
X63622644Y-77062331D01*
X63680678Y-77070147D01*
X63749366Y-77074409D01*
X63822646Y-77075134D01*
X63894457Y-77072334D01*
X63958736Y-77066025D01*
X64009421Y-77056221D01*
X64125745Y-77014623D01*
X64233183Y-76956458D01*
X64328568Y-76883559D01*
X64410663Y-76797230D01*
X64478234Y-76698773D01*
X64530043Y-76589492D01*
X64564854Y-76470689D01*
X64565750Y-76466295D01*
X64574080Y-76405807D01*
X64578198Y-76334956D01*
X64578098Y-76261220D01*
X64573770Y-76192076D01*
X64565208Y-76135000D01*
X64532542Y-76023195D01*
X64481360Y-75911794D01*
X64415019Y-75812407D01*
X64334606Y-75726012D01*
X64241207Y-75653589D01*
X64135911Y-75596117D01*
X64019802Y-75554577D01*
X63893970Y-75529948D01*
X63798977Y-75524157D01*
X63677567Y-75533414D01*
X63560073Y-75560867D01*
X63448790Y-75605746D01*
X63346013Y-75667281D01*
X63254038Y-75744701D01*
X63235888Y-75763220D01*
X63157981Y-75858203D01*
X63097998Y-75961154D01*
X63055218Y-76073521D01*
X63028920Y-76196753D01*
X63028278Y-76201396D01*
X63021908Y-76317122D01*
X62800799Y-76317122D01*
X62800000Y-76304999D01*
X62804409Y-76206789D01*
X62826224Y-76068593D01*
X62865415Y-75937743D01*
X62920999Y-75815518D01*
X62991995Y-75703199D01*
X63077420Y-75602066D01*
X63176294Y-75513400D01*
X63287633Y-75438482D01*
X63410456Y-75378591D01*
X63543782Y-75335009D01*
X63570800Y-75328426D01*
X63613993Y-75318943D01*
X63649408Y-75312424D01*
X63671282Y-75310000D01*
X63700000Y-75310000D01*
X63700000Y-74536339D01*
X63699999Y-73762679D01*
X63642009Y-73741535D01*
X63618630Y-73732346D01*
X63534314Y-73686466D01*
X63462892Y-73626208D01*
X63405767Y-73553270D01*
X63364340Y-73469349D01*
X63340016Y-73376141D01*
X63334288Y-73304229D01*
X63342868Y-73212160D01*
X63368411Y-73124351D01*
X63409678Y-73043735D01*
X63465430Y-72973245D01*
X63534428Y-72915817D01*
X63547576Y-72907388D01*
X63634593Y-72864855D01*
X63726924Y-72840661D01*
X63798977Y-72836373D01*
X63821815Y-72835014D01*
X63916510Y-72848122D01*
G37*
G36*
X63805000Y-69305536D02*
G01*
X63862292Y-69306270D01*
X63948397Y-69311115D01*
X64023617Y-69321316D01*
X64093347Y-69337980D01*
X64162981Y-69362210D01*
X64237914Y-69395110D01*
X64302800Y-69428522D01*
X64421142Y-69505561D01*
X64525106Y-69596233D01*
X64614084Y-69699775D01*
X64687465Y-69815425D01*
X64744642Y-69942420D01*
X64785005Y-70080000D01*
X64790988Y-70116684D01*
X64795946Y-70176927D01*
X64798042Y-70247568D01*
X64797422Y-70323557D01*
X64794230Y-70399844D01*
X64788610Y-70471380D01*
X64780709Y-70533115D01*
X64770670Y-70580000D01*
X64767730Y-70589818D01*
X64729288Y-70693321D01*
X64678663Y-70795536D01*
X64618736Y-70891788D01*
X64552388Y-70977401D01*
X64482500Y-71047702D01*
X64450322Y-71074496D01*
X64336462Y-71154184D01*
X64214235Y-71216942D01*
X64081823Y-71263594D01*
X63937407Y-71294965D01*
X63899815Y-71300940D01*
X63902407Y-71801920D01*
X63905000Y-72302900D01*
X63998920Y-72321873D01*
X64080030Y-72341210D01*
X64200034Y-72382992D01*
X64310412Y-72439561D01*
X64414341Y-72512657D01*
X64515000Y-72604014D01*
X64577418Y-72671465D01*
X64641512Y-72754870D01*
X64694236Y-72843313D01*
X64738448Y-72941715D01*
X64777010Y-73055000D01*
X64782051Y-73073681D01*
X64787372Y-73101504D01*
X64791026Y-73134957D01*
X64793261Y-73177632D01*
X64794331Y-73233116D01*
X64794485Y-73305000D01*
X64794156Y-73369914D01*
X64793273Y-73422250D01*
X64791434Y-73462555D01*
X64788230Y-73494906D01*
X64783250Y-73523378D01*
X64776085Y-73552051D01*
X64766324Y-73585000D01*
X64730299Y-73682300D01*
X64674922Y-73792611D01*
X64607593Y-73896392D01*
X64531213Y-73989241D01*
X64448685Y-74066757D01*
X64433634Y-74078765D01*
X64405174Y-74100521D01*
X64384808Y-74114764D01*
X64376189Y-74118867D01*
X64375856Y-74118465D01*
X64362264Y-74100390D01*
X64342937Y-74072816D01*
X64320733Y-74040065D01*
X64298510Y-74006456D01*
X64279127Y-73976310D01*
X64265440Y-73953947D01*
X64260309Y-73943687D01*
X64264974Y-73936545D01*
X64281981Y-73920262D01*
X64307110Y-73900000D01*
X64330240Y-73881174D01*
X64389839Y-73820093D01*
X64446079Y-73745356D01*
X64496103Y-73661541D01*
X64537053Y-73573229D01*
X64566071Y-73485000D01*
X64568210Y-73476127D01*
X64578784Y-73409882D01*
X64583813Y-73333242D01*
X64583303Y-73253611D01*
X64577263Y-73178396D01*
X64565700Y-73115000D01*
X64565658Y-73114839D01*
X64525303Y-72997311D01*
X64468994Y-72889904D01*
X64398367Y-72793828D01*
X64315055Y-72710291D01*
X64220691Y-72640502D01*
X64116911Y-72585670D01*
X64005348Y-72547002D01*
X63887636Y-72525709D01*
X63765408Y-72522998D01*
X63743989Y-72524458D01*
X63691589Y-72529741D01*
X63642474Y-72536755D01*
X63605000Y-72544387D01*
X63565001Y-72556897D01*
X63495280Y-72585597D01*
X63422868Y-72622234D01*
X63354832Y-72663120D01*
X63298240Y-72704564D01*
X63218047Y-72782392D01*
X63146213Y-72877405D01*
X63090131Y-72981746D01*
X63050408Y-73093150D01*
X63027652Y-73209354D01*
X63022473Y-73328094D01*
X63035478Y-73447104D01*
X63067276Y-73564122D01*
X63078772Y-73593624D01*
X63115151Y-73668536D01*
X63160133Y-73742272D01*
X63210455Y-73810252D01*
X63262855Y-73867895D01*
X63314069Y-73910620D01*
X63323342Y-73917224D01*
X63342339Y-73933142D01*
X63349931Y-73943477D01*
X63347921Y-73948095D01*
X63337057Y-73966372D01*
X63319211Y-73994304D01*
X63297159Y-74027704D01*
X63273680Y-74062387D01*
X63251552Y-74094166D01*
X63233553Y-74118854D01*
X63233466Y-74118965D01*
X63222224Y-74118101D01*
X63200688Y-74104246D01*
X63171243Y-74079801D01*
X63136275Y-74047171D01*
X63098168Y-74008756D01*
X63059307Y-73966961D01*
X63022076Y-73924188D01*
X62988862Y-73882840D01*
X62962048Y-73845319D01*
X62956772Y-73837173D01*
X62893397Y-73720146D01*
X62846246Y-73594002D01*
X62815835Y-73461827D01*
X62802683Y-73326710D01*
X62807310Y-73191738D01*
X62830232Y-73060000D01*
X62846786Y-73004418D01*
X62881039Y-72917318D01*
X62924392Y-72828467D01*
X62973406Y-72744710D01*
X63024644Y-72672891D01*
X63034582Y-72660794D01*
X63116937Y-72574917D01*
X63211785Y-72497484D01*
X63315446Y-72430627D01*
X63424238Y-72376479D01*
X63534483Y-72337173D01*
X63642500Y-72314841D01*
X63700000Y-72307695D01*
X63700000Y-71804521D01*
X63699993Y-71749708D01*
X63699915Y-71644926D01*
X63699703Y-71557757D01*
X63699302Y-71486569D01*
X63698654Y-71429730D01*
X63697703Y-71385607D01*
X63696394Y-71352569D01*
X63694670Y-71328983D01*
X63692475Y-71313217D01*
X63689752Y-71303638D01*
X63686446Y-71298615D01*
X63682500Y-71296514D01*
X63674349Y-71294626D01*
X63647810Y-71289812D01*
X63615000Y-71284869D01*
X63577613Y-71278628D01*
X63471353Y-71249634D01*
X63363861Y-71205165D01*
X63259550Y-71147547D01*
X63162832Y-71079102D01*
X63078121Y-71002154D01*
X62995837Y-70905692D01*
X62920643Y-70789603D01*
X62863735Y-70665458D01*
X62825157Y-70533377D01*
X62804954Y-70393481D01*
X62803989Y-70313703D01*
X63021535Y-70313703D01*
X63033464Y-70437533D01*
X63065326Y-70560958D01*
X63089235Y-70623634D01*
X63130022Y-70703408D01*
X63181993Y-70776796D01*
X63249094Y-70850000D01*
X63257874Y-70858619D01*
X63323627Y-70917870D01*
X63386815Y-70963771D01*
X63453426Y-71000186D01*
X63529445Y-71030981D01*
X63530619Y-71031395D01*
X63649909Y-71063659D01*
X63769233Y-71077433D01*
X63886836Y-71073601D01*
X64000963Y-71053045D01*
X64109861Y-71016646D01*
X64211776Y-70965289D01*
X64304952Y-70899854D01*
X64387635Y-70821226D01*
X64458072Y-70730285D01*
X64514507Y-70627916D01*
X64555186Y-70515000D01*
X64558970Y-70499283D01*
X64567560Y-70445068D01*
X64573333Y-70379701D01*
X64576130Y-70309345D01*
X64575793Y-70240167D01*
X64572162Y-70178330D01*
X64565080Y-70130000D01*
X64534660Y-70025666D01*
X64483708Y-69913352D01*
X64417140Y-69812850D01*
X64335868Y-69725118D01*
X64240800Y-69651115D01*
X64132846Y-69591799D01*
X64012914Y-69548129D01*
X64001092Y-69544884D01*
X63960461Y-69535674D01*
X63918336Y-69529881D01*
X63868566Y-69526849D01*
X63805000Y-69525920D01*
X63797787Y-69525922D01*
X63715001Y-69528333D01*
X63644573Y-69536208D01*
X63579758Y-69551060D01*
X63513815Y-69574399D01*
X63440000Y-69607737D01*
X63396891Y-69629716D01*
X63361417Y-69651013D01*
X63328548Y-69675439D01*
X63292985Y-69706932D01*
X63249431Y-69749431D01*
X63207131Y-69792773D01*
X63175589Y-69828365D01*
X63151135Y-69861235D01*
X63129831Y-69896680D01*
X63107737Y-69940000D01*
X63104938Y-69945815D01*
X63057314Y-70067241D01*
X63029499Y-70190071D01*
X63021535Y-70313703D01*
X62803989Y-70313703D01*
X62803168Y-70245892D01*
X62805233Y-70213092D01*
X62825426Y-70071254D01*
X62863471Y-69938425D01*
X62919364Y-69814615D01*
X62993100Y-69699836D01*
X63084675Y-69594100D01*
X63114556Y-69564973D01*
X63207685Y-69486796D01*
X63306249Y-69423682D01*
X63414618Y-69373102D01*
X63537165Y-69332531D01*
X63541095Y-69331442D01*
X63579674Y-69321339D01*
X63613475Y-69314227D01*
X63647454Y-69309593D01*
X63686565Y-69306930D01*
X63735762Y-69305726D01*
X63800000Y-69305472D01*
X63805000Y-69305536D01*
G37*
%TD*%
M02*
