M48
; DRILL file {KiCad 9.0.7-9.0.7~ubuntu24.04.1} date 2026-01-28T20:04:08+0100
; FORMAT={-:-/ absolute / metric / decimal}
; #@! TF.CreationDate,2026-01-28T20:04:08+01:00
; #@! TF.GenerationSoftware,Kicad,Pcbnew,9.0.7-9.0.7~ubuntu24.04.1
; #@! TF.FileFunction,Plated,1,2,PTH
FMAT,2
METRIC
; #@! TA.AperFunction,Plated,PTH,ComponentDrill
T1C0.200
; #@! TA.AperFunction,Plated,PTH,ViaDrill
T2C0.300
; #@! TA.AperFunction,Plated,PTH,ViaDrill
T3C0.400
; #@! TA.AperFunction,Plated,PTH,ComponentDrill
T4C0.600
; #@! TA.AperFunction,Plated,PTH,ComponentDrill
T5C0.800
; #@! TA.AperFunction,Plated,PTH,ComponentDrill
T6C1.000
%
G90
G05
T1
X68.55Y-94.3
X68.55Y-95.7
X69.75Y-94.3
X69.75Y-95.7
X70.95Y-94.3
X70.95Y-95.7
X80.04Y-50.558
X80.04Y-52.058
X80.79Y-49.808
X80.79Y-51.308
X80.79Y-52.808
X81.54Y-50.558
X81.54Y-52.058
X82.29Y-49.808
X82.29Y-51.308
X82.29Y-52.808
X83.04Y-50.558
X83.04Y-52.058
X86.2Y-93.95
X86.2Y-95.0
X86.2Y-96.05
X87.25Y-93.95
X87.25Y-95.0
X87.25Y-96.05
X88.3Y-93.95
X88.3Y-95.0
X88.3Y-96.05
T2
X64.5Y-96.7
X64.5Y-97.8
X65.6Y-96.7
X65.6Y-97.8
X66.7Y-94.5
X66.7Y-95.6
X66.7Y-96.7
X66.7Y-97.8
X66.777Y-92.278
X67.666Y-46.787
X68.525Y-49.65
X69.85Y-52.65
X70.1Y-47.525
X71.069Y-52.476
X71.1Y-53.85
X71.56Y-60.91
X71.603Y-65.659
X72.254Y-57.687
X72.501Y-56.907
X72.65Y-52.6
X72.759Y-50.264
X72.9Y-56.214
X73.0Y-92.8
X73.0Y-93.9
X73.0Y-95.0
X73.0Y-96.1
X73.0Y-97.2
X73.453Y-64.364
X74.066Y-63.83
X74.1Y-92.8
X74.1Y-93.9
X74.1Y-95.0
X74.1Y-96.1
X74.1Y-97.2
X75.2Y-93.9
X75.2Y-95.0
X75.2Y-96.1
X75.768Y-78.054
X75.788Y-53.654
X75.997Y-48.209
X76.266Y-54.295
X76.298Y-53.038
X76.76Y-56.46
X79.654Y-66.904
X80.735Y-62.447
X82.005Y-62.447
X82.15Y-91.475
X83.4Y-90.3
X83.4Y-91.0
X83.4Y-91.7
X83.4Y-92.4
X83.917Y-94.983
X84.1Y-90.3
X84.1Y-91.0
X84.1Y-91.7
X84.266Y-83.451
X84.425Y-80.325
X84.8Y-90.3
X84.8Y-91.0
X84.9Y-98.0
X85.025Y-84.65
X85.1Y-93.0
X85.2Y-98.9
X85.209Y-92.109
X85.391Y-79.193
X85.496Y-75.87
X85.5Y-90.3
X85.5Y-91.0
X85.7Y-98.0
X86.2Y-91.0
X86.374Y-83.8
X87.35Y-82.6
X87.492Y-92.092
X87.6Y-84.2
X87.8Y-89.1
X88.316Y-77.851
X88.75Y-79.2
X88.9Y-98.1
X89.075Y-89.725
X89.1Y-72.8
X89.325Y-92.44
X89.4Y-97.2
X89.8Y-98.1
X89.8Y-99.0
X89.915Y-56.779
X90.0Y-77.25
X90.04Y-50.698
X90.05Y-94.05
X90.164Y-53.6
X90.17Y-52.3
X90.17Y-54.848
X90.3Y-90.7
X90.3Y-95.4
X90.3Y-96.3
X90.3Y-97.2
X90.4Y-79.125
X90.424Y-57.404
X90.7Y-98.1
X90.7Y-99.0
X90.75Y-82.05
X91.2Y-95.4
X91.2Y-96.3
X91.2Y-97.2
X91.25Y-89.375
X91.6Y-98.1
X91.6Y-99.0
X91.925Y-80.875
X92.1Y-91.7
X92.1Y-96.3
X92.1Y-97.2
X92.9Y-46.085
X93.116Y-55.575
X93.25Y-58.8
X94.305Y-46.07
T3
X62.0Y-69.5
X62.0Y-77.5
X62.0Y-92.5
X62.0Y-97.5
X62.1Y-101.9
X66.396Y-52.326
X68.123Y-52.375
X70.104Y-54.225
X70.866Y-45.466
X73.75Y-90.0
X76.0Y-103.0
X76.2Y-46.228
X76.25Y-81.75
X76.503Y-73.776
X77.455Y-73.614
X77.5Y-66.0
X78.625Y-95.1
X79.6Y-99.1
X81.0Y-103.0
X81.5Y-70.25
X82.372Y-74.854
X83.0Y-72.25
X83.312Y-46.228
X83.75Y-67.5
X84.074Y-85.903
X87.25Y-67.5
X88.5Y-75.75
X88.646Y-59.944
X89.154Y-46.228
X90.25Y-65.5
X93.0Y-65.5
X93.32Y-61.239
X94.336Y-50.698
X94.65Y-101.8
X95.0Y-64.0
X95.0Y-76.75
X95.0Y-88.25
X95.0Y-100.0
T5
X95.0Y-52.1
X95.0Y-54.1
X95.0Y-56.1
X95.0Y-58.1
X95.0Y-60.1
X95.0Y-62.1
T6
X65.94Y-102.0
X68.48Y-102.0
X71.02Y-102.0
X73.56Y-102.0
X75.96Y-84.46
X75.96Y-87.0
X77.23Y-78.227
X78.5Y-84.46
X78.5Y-87.0
X79.77Y-78.227
X81.04Y-84.46
X81.04Y-87.0
X83.44Y-102.0
X85.98Y-102.0
X88.52Y-102.0
X91.06Y-102.0
X93.7Y-78.3
X93.7Y-80.84
X93.7Y-83.38
X93.7Y-85.92
X93.7Y-90.68
X93.7Y-93.22
X93.7Y-95.76
X93.7Y-98.3
T4
G00X64.025Y-55.68
M15
G01X63.225Y-55.68
M16
G05
G00X64.025Y-64.32
M15
G01X63.225Y-64.32
M16
G05
G00X68.355Y-55.68
M15
G01X67.255Y-55.68
M16
G05
G00X68.355Y-64.32
M15
G01X67.255Y-64.32
M16
G05
T5
G00X66.7Y-72.2
M15
G01X66.7Y-74.4
M16
G05
G00X68.4Y-78.1
M15
G01X70.6Y-78.1
M16
G05
G00X72.5Y-72.0
M15
G01X72.5Y-74.6
M16
G05
M30
