M48
; DRILL file {KiCad 7.0.11+dfsg-1build4} date Tue 18 Mar 2025 09:04:08 AM CET
; FORMAT={-:-/ absolute / inch / decimal}
; #@! TF.CreationDate,2025-03-18T09:04:08+01:00
; #@! TF.GenerationSoftware,Kicad,Pcbnew,7.0.11+dfsg-1build4
; #@! TF.FileFunction,Plated,1,2,PTH
FMAT,2
INCH
; #@! TA.AperFunction,Plated,PTH,ComponentDrill
T1C0.0079
; #@! TA.AperFunction,Plated,PTH,ViaDrill
T2C0.0118
; #@! TA.AperFunction,Plated,PTH,ViaDrill
T3C0.0157
; #@! TA.AperFunction,Plated,PTH,ComponentDrill
T4C0.0315
; #@! TA.AperFunction,Plated,PTH,ComponentDrill
T5C0.0394
%
G90
G05
T1
X2.6988Y-3.7126
X2.6988Y-3.7677
X2.7461Y-3.7126
X2.7461Y-3.7677
X2.7933Y-3.7126
X2.7933Y-3.7677
X3.1512Y-1.9905
X3.1512Y-2.0495
X3.1807Y-1.9609
X3.1807Y-2.02
X3.1807Y-2.0791
X3.2102Y-1.9905
X3.2102Y-2.0495
X3.2398Y-1.9609
X3.2398Y-2.02
X3.2398Y-2.0791
X3.2693Y-1.9905
X3.2693Y-2.0495
X3.3937Y-3.6988
X3.3937Y-3.7402
X3.3937Y-3.7815
X3.435Y-3.6988
X3.435Y-3.7402
X3.435Y-3.7815
X3.4764Y-3.6988
X3.4764Y-3.7402
X3.4764Y-3.7815
T2
X2.5394Y-3.8071
X2.5394Y-3.8504
X2.5827Y-3.8071
X2.5827Y-3.8504
X2.626Y-3.7205
X2.626Y-3.7638
X2.626Y-3.8071
X2.626Y-3.8504
X2.629Y-3.633
X2.664Y-1.842
X2.6978Y-1.9547
X2.75Y-2.0728
X2.7598Y-1.8711
X2.795Y-2.349
X2.798Y-2.066
X2.7992Y-2.1201
X2.819Y-2.585
X2.8602Y-2.0709
X2.8604Y-2.2588
X2.8645Y-1.9789
X2.8663Y-2.2277
X2.874Y-3.6535
X2.874Y-3.6969
X2.874Y-3.7402
X2.874Y-3.7835
X2.874Y-3.8268
X2.8919Y-2.534
X2.916Y-2.513
X2.9173Y-3.6535
X2.9173Y-3.6969
X2.9173Y-3.7402
X2.9173Y-3.7835
X2.9173Y-3.8268
X2.9606Y-3.6969
X2.9606Y-3.7402
X2.9606Y-3.7835
X2.983Y-3.073
X2.9838Y-2.1124
X2.992Y-1.898
X3.0026Y-2.1376
X3.0039Y-2.0881
X3.022Y-2.2228
X3.136Y-2.634
X3.1785Y-2.4585
X3.2285Y-2.4585
X3.2343Y-3.6014
X3.2835Y-3.5551
X3.2835Y-3.5827
X3.2835Y-3.6102
X3.2835Y-3.6378
X3.3038Y-3.7395
X3.311Y-3.5551
X3.311Y-3.5827
X3.311Y-3.6102
X3.3175Y-3.2855
X3.3238Y-3.1624
X3.3386Y-3.5551
X3.3386Y-3.5827
X3.3425Y-3.8583
X3.3474Y-3.3327
X3.3504Y-3.6614
X3.3543Y-3.8937
X3.3547Y-3.6263
X3.3619Y-3.1178
X3.366Y-2.987
X3.3661Y-3.5551
X3.3661Y-3.5827
X3.374Y-3.8583
X3.3937Y-3.5827
X3.4006Y-3.2992
X3.439Y-3.252
X3.4446Y-3.6257
X3.4488Y-3.315
X3.4567Y-3.5079
X3.477Y-3.065
X3.4882Y-3.5394
X3.4941Y-3.1181
X3.5Y-3.8622
X3.5079Y-2.8661
X3.5197Y-3.8268
X3.5354Y-3.6024
X3.5354Y-3.8622
X3.5354Y-3.8976
X3.54Y-2.2354
X3.5404Y-3.6393
X3.5433Y-3.0413
X3.5449Y-1.996
X3.5453Y-3.7028
X3.5472Y-3.5701
X3.5498Y-2.1102
X3.55Y-2.0591
X3.55Y-2.1594
X3.5551Y-3.7559
X3.5551Y-3.7913
X3.5551Y-3.8268
X3.5591Y-3.1152
X3.56Y-2.26
X3.5709Y-3.8622
X3.5709Y-3.8976
X3.5728Y-3.2303
X3.5906Y-3.7559
X3.5906Y-3.7913
X3.5906Y-3.8268
X3.6063Y-3.8622
X3.6063Y-3.8976
X3.6191Y-3.1841
X3.626Y-3.6102
X3.626Y-3.7913
X3.626Y-3.8268
X3.6575Y-1.8144
X3.666Y-2.188
X3.6713Y-2.315
X3.7128Y-1.8138
T3
X2.4409Y-2.6575
X2.4409Y-2.8543
X2.4409Y-3.0512
X2.4409Y-3.6417
X2.4409Y-3.8386
X2.4449Y-4.0118
X2.51Y-2.16
X2.51Y-2.4
X2.614Y-2.0601
X2.682Y-2.062
X2.79Y-1.79
X2.9035Y-3.5433
X2.9921Y-4.0551
X3.0Y-1.82
X3.002Y-3.2185
X3.0119Y-2.9046
X3.0494Y-2.8982
X3.0512Y-2.5984
X3.0955Y-3.7441
X3.1339Y-3.9016
X3.189Y-4.0551
X3.2087Y-2.7657
X3.243Y-2.947
X3.2677Y-2.8445
X3.28Y-1.82
X3.2972Y-2.6575
X3.31Y-3.382
X3.435Y-2.6575
X3.4843Y-2.9823
X3.49Y-2.36
X3.51Y-1.82
X3.5531Y-2.5787
X3.6614Y-2.5787
X3.674Y-2.411
X3.714Y-1.996
X3.7264Y-4.0079
X3.7402Y-2.5197
X3.7402Y-3.0217
X3.7402Y-3.4744
X3.7402Y-3.937
T4
X3.7402Y-2.0512
X3.7402Y-2.1299
X3.7402Y-2.2087
X3.7402Y-2.2874
X3.7402Y-2.3661
X3.7402Y-2.4449
T5
X2.5961Y-4.0157
X2.6961Y-4.0157
X2.7961Y-4.0157
X2.8961Y-4.0157
X2.9906Y-3.3252
X2.9906Y-3.4252
X3.0406Y-3.0798
X3.0906Y-3.3252
X3.0906Y-3.4252
X3.1406Y-3.0798
X3.1906Y-3.3252
X3.1906Y-3.4252
X3.285Y-4.0157
X3.385Y-4.0157
X3.485Y-4.0157
X3.585Y-4.0157
X3.689Y-3.0827
X3.689Y-3.1827
X3.689Y-3.2827
X3.689Y-3.3827
X3.689Y-3.5701
X3.689Y-3.6701
X3.689Y-3.7701
X3.689Y-3.8701
T4
G00X2.626Y-2.8425
M15
G01X2.626Y-2.9291
M16
G05
G00X2.6929Y-3.0748
M15
G01X2.7795Y-3.0748
M16
G05
G00X2.8543Y-2.8346
M15
G01X2.8543Y-2.937
M16
G05
M30
