%TF.GenerationSoftware,KiCad,Pcbnew,7.0.11+dfsg-1build4*%
%TF.CreationDate,2025-02-25T10:27:18+01:00*%
%TF.ProjectId,MCM-81339,4d434d2d-3831-4333-9339-2e6b69636164,rev?*%
%TF.SameCoordinates,Original*%
%TF.FileFunction,Paste,Top*%
%TF.FilePolarity,Positive*%
%FSLAX46Y46*%
G04 Gerber Fmt 4.6, Leading zero omitted, Abs format (unit mm)*
G04 Created by KiCad (PCBNEW 7.0.11+dfsg-1build4) date 2025-02-25 10:27:18*
%MOMM*%
%LPD*%
G01*
G04 APERTURE LIST*
G04 Aperture macros list*
%AMRoundRect*
0 Rectangle with rounded corners*
0 $1 Rounding radius*
0 $2 $3 $4 $5 $6 $7 $8 $9 X,Y pos of 4 corners*
0 Add a 4 corners polygon primitive as box body*
4,1,4,$2,$3,$4,$5,$6,$7,$8,$9,$2,$3,0*
0 Add four circle primitives for the rounded corners*
1,1,$1+$1,$2,$3*
1,1,$1+$1,$4,$5*
1,1,$1+$1,$6,$7*
1,1,$1+$1,$8,$9*
0 Add four rect primitives between the rounded corners*
20,1,$1+$1,$2,$3,$4,$5,0*
20,1,$1+$1,$4,$5,$6,$7,0*
20,1,$1+$1,$6,$7,$8,$9,0*
20,1,$1+$1,$8,$9,$2,$3,0*%
%AMFreePoly0*
4,1,9,3.862500,-0.866500,0.737500,-0.866500,0.737500,-0.450000,-0.737500,-0.450000,-0.737500,0.450000,0.737500,0.450000,0.737500,0.866500,3.862500,0.866500,3.862500,-0.866500,3.862500,-0.866500,$1*%
G04 Aperture macros list end*
%ADD10RoundRect,0.140000X-0.170000X0.140000X-0.170000X-0.140000X0.170000X-0.140000X0.170000X0.140000X0*%
%ADD11RoundRect,0.250000X0.440000X-0.255000X0.440000X0.255000X-0.440000X0.255000X-0.440000X-0.255000X0*%
%ADD12RoundRect,0.150000X0.150000X-0.825000X0.150000X0.825000X-0.150000X0.825000X-0.150000X-0.825000X0*%
%ADD13RoundRect,0.112500X-0.112500X0.187500X-0.112500X-0.187500X0.112500X-0.187500X0.112500X0.187500X0*%
%ADD14RoundRect,0.135000X-0.185000X0.135000X-0.185000X-0.135000X0.185000X-0.135000X0.185000X0.135000X0*%
%ADD15RoundRect,0.250000X0.325000X0.650000X-0.325000X0.650000X-0.325000X-0.650000X0.325000X-0.650000X0*%
%ADD16RoundRect,0.200000X-0.275000X0.200000X-0.275000X-0.200000X0.275000X-0.200000X0.275000X0.200000X0*%
%ADD17RoundRect,0.250000X-0.300000X-0.300000X0.300000X-0.300000X0.300000X0.300000X-0.300000X0.300000X0*%
%ADD18RoundRect,0.250000X-0.475000X0.250000X-0.475000X-0.250000X0.475000X-0.250000X0.475000X0.250000X0*%
%ADD19RoundRect,0.218750X-0.256250X0.218750X-0.256250X-0.218750X0.256250X-0.218750X0.256250X0.218750X0*%
%ADD20RoundRect,0.218750X0.218750X0.256250X-0.218750X0.256250X-0.218750X-0.256250X0.218750X-0.256250X0*%
%ADD21RoundRect,0.135000X0.135000X0.185000X-0.135000X0.185000X-0.135000X-0.185000X0.135000X-0.185000X0*%
%ADD22RoundRect,0.135000X-0.135000X-0.185000X0.135000X-0.185000X0.135000X0.185000X-0.135000X0.185000X0*%
%ADD23RoundRect,0.125000X0.125000X0.125000X-0.125000X0.125000X-0.125000X-0.125000X0.125000X-0.125000X0*%
%ADD24RoundRect,0.140000X-0.140000X-0.170000X0.140000X-0.170000X0.140000X0.170000X-0.140000X0.170000X0*%
%ADD25RoundRect,0.250000X-0.250000X-0.475000X0.250000X-0.475000X0.250000X0.475000X-0.250000X0.475000X0*%
%ADD26RoundRect,0.135000X0.185000X-0.135000X0.185000X0.135000X-0.185000X0.135000X-0.185000X-0.135000X0*%
%ADD27RoundRect,0.140000X0.170000X-0.140000X0.170000X0.140000X-0.170000X0.140000X-0.170000X-0.140000X0*%
%ADD28RoundRect,0.140000X0.140000X0.170000X-0.140000X0.170000X-0.140000X-0.170000X0.140000X-0.170000X0*%
%ADD29RoundRect,0.225000X0.225000X-0.425000X0.225000X0.425000X-0.225000X0.425000X-0.225000X-0.425000X0*%
%ADD30FreePoly0,90.000000*%
%ADD31RoundRect,0.250000X0.300000X-0.300000X0.300000X0.300000X-0.300000X0.300000X-0.300000X-0.300000X0*%
%ADD32RoundRect,0.200000X0.200000X0.275000X-0.200000X0.275000X-0.200000X-0.275000X0.200000X-0.275000X0*%
%ADD33R,1.000000X1.000000*%
%ADD34R,1.500000X0.900000*%
%ADD35R,0.900000X1.500000*%
%ADD36RoundRect,0.125000X-0.125000X0.125000X-0.125000X-0.125000X0.125000X-0.125000X0.125000X0.125000X0*%
%ADD37RoundRect,0.250000X0.315000X-0.315000X0.315000X0.315000X-0.315000X0.315000X-0.315000X-0.315000X0*%
%ADD38RoundRect,0.062500X0.062500X-0.350000X0.062500X0.350000X-0.062500X0.350000X-0.062500X-0.350000X0*%
%ADD39RoundRect,0.062500X0.350000X-0.062500X0.350000X0.062500X-0.350000X0.062500X-0.350000X-0.062500X0*%
%ADD40RoundRect,0.112500X0.112500X-0.187500X0.112500X0.187500X-0.112500X0.187500X-0.112500X-0.187500X0*%
%ADD41RoundRect,0.125000X0.125000X-0.125000X0.125000X0.125000X-0.125000X0.125000X-0.125000X-0.125000X0*%
%ADD42RoundRect,0.125000X-0.125000X-0.125000X0.125000X-0.125000X0.125000X0.125000X-0.125000X0.125000X0*%
%ADD43RoundRect,0.250000X0.250000X0.475000X-0.250000X0.475000X-0.250000X-0.475000X0.250000X-0.475000X0*%
%ADD44RoundRect,0.150000X-0.150000X0.725000X-0.150000X-0.725000X0.150000X-0.725000X0.150000X0.725000X0*%
%ADD45RoundRect,0.225000X-0.225000X-0.250000X0.225000X-0.250000X0.225000X0.250000X-0.225000X0.250000X0*%
%ADD46R,2.500000X0.500000*%
%ADD47R,2.500000X2.000000*%
%ADD48RoundRect,0.062500X0.117500X0.062500X-0.117500X0.062500X-0.117500X-0.062500X0.117500X-0.062500X0*%
%ADD49RoundRect,0.250000X0.650000X-0.325000X0.650000X0.325000X-0.650000X0.325000X-0.650000X-0.325000X0*%
%ADD50RoundRect,0.100000X-0.225000X-0.100000X0.225000X-0.100000X0.225000X0.100000X-0.225000X0.100000X0*%
%ADD51RoundRect,0.225000X0.250000X-0.225000X0.250000X0.225000X-0.250000X0.225000X-0.250000X-0.225000X0*%
%ADD52RoundRect,0.062500X0.062500X-0.117500X0.062500X0.117500X-0.062500X0.117500X-0.062500X-0.117500X0*%
%ADD53RoundRect,0.350000X-1.750000X-0.350000X1.750000X-0.350000X1.750000X0.350000X-1.750000X0.350000X0*%
%ADD54RoundRect,0.062500X-0.062500X0.117500X-0.062500X-0.117500X0.062500X-0.117500X0.062500X0.117500X0*%
%ADD55RoundRect,0.150000X0.512500X0.150000X-0.512500X0.150000X-0.512500X-0.150000X0.512500X-0.150000X0*%
%ADD56R,1.600000X0.300000*%
%ADD57RoundRect,0.250000X1.100000X-0.325000X1.100000X0.325000X-1.100000X0.325000X-1.100000X-0.325000X0*%
G04 APERTURE END LIST*
D10*
%TO.C,C8*%
X90850000Y-80195000D03*
X90850000Y-81155000D03*
%TD*%
D11*
%TO.C,U8*%
X68925000Y-95600000D03*
X70575000Y-95600000D03*
X68925000Y-94400000D03*
X70575000Y-94400000D03*
D12*
X67845000Y-97475000D03*
X69115000Y-97475000D03*
X70385000Y-97475000D03*
X71655000Y-97475000D03*
X71655000Y-92525000D03*
X70385000Y-92525000D03*
X69115000Y-92525000D03*
X67845000Y-92525000D03*
%TD*%
D13*
%TO.C,D4*%
X71729600Y-52696400D03*
X71729600Y-54796400D03*
%TD*%
D14*
%TO.C,R4*%
X94996000Y-67490000D03*
X94996000Y-68510000D03*
%TD*%
D15*
%TO.C,C21*%
X82150000Y-90200000D03*
X79200000Y-90200000D03*
%TD*%
D16*
%TO.C,R18*%
X83667600Y-82625000D03*
X83667600Y-84275000D03*
%TD*%
D17*
%TO.C,D17*%
X62650000Y-95250000D03*
X65450000Y-95250000D03*
%TD*%
D18*
%TO.C,C23*%
X83500000Y-97050000D03*
X83500000Y-98950000D03*
%TD*%
D19*
%TO.C,D10*%
X93573600Y-45312500D03*
X93573600Y-46887500D03*
%TD*%
D20*
%TO.C,D1*%
X67360900Y-45593000D03*
X65785900Y-45593000D03*
%TD*%
D14*
%TO.C,R3*%
X93167200Y-56538400D03*
X93167200Y-57558400D03*
%TD*%
D21*
%TO.C,R24*%
X72610000Y-67600000D03*
X71590000Y-67600000D03*
%TD*%
D17*
%TO.C,D15*%
X67250000Y-86450000D03*
X70050000Y-86450000D03*
%TD*%
D16*
%TO.C,R30*%
X91025000Y-83050000D03*
X91025000Y-84700000D03*
%TD*%
D14*
%TO.C,R27*%
X72364600Y-60119800D03*
X72364600Y-61139800D03*
%TD*%
D16*
%TO.C,R29*%
X87000000Y-86475000D03*
X87000000Y-88125000D03*
%TD*%
D22*
%TO.C,R20*%
X82808000Y-80340000D03*
X83828000Y-80340000D03*
%TD*%
D23*
%TO.C,D9*%
X84800000Y-68850000D03*
X82600000Y-68850000D03*
%TD*%
D24*
%TO.C,C4*%
X70995600Y-55880000D03*
X71955600Y-55880000D03*
%TD*%
D25*
%TO.C,C18*%
X79350000Y-81100000D03*
X81250000Y-81100000D03*
%TD*%
D26*
%TO.C,R16*%
X89700000Y-83835000D03*
X89700000Y-82815000D03*
%TD*%
D14*
%TO.C,R13*%
X93167200Y-62482000D03*
X93167200Y-63502000D03*
%TD*%
D27*
%TO.C,C17*%
X70104000Y-49502000D03*
X70104000Y-48542000D03*
%TD*%
D22*
%TO.C,R25*%
X71590000Y-66450000D03*
X72610000Y-66450000D03*
%TD*%
D28*
%TO.C,C13*%
X72108000Y-47490000D03*
X71148000Y-47490000D03*
%TD*%
D29*
%TO.C,U1*%
X62609600Y-51175200D03*
D30*
X64109600Y-51087700D03*
D29*
X65609600Y-51175200D03*
%TD*%
D26*
%TO.C,R22*%
X74701400Y-77853000D03*
X74701400Y-76833000D03*
%TD*%
D31*
%TO.C,D14*%
X85000000Y-89175000D03*
X85000000Y-86375000D03*
%TD*%
D32*
%TO.C,R1*%
X64375800Y-45600000D03*
X62725800Y-45600000D03*
%TD*%
D33*
%TO.C,U5*%
X80040000Y-49808000D03*
X80040000Y-51308000D03*
X80040000Y-52808000D03*
X81540000Y-49808000D03*
X81540000Y-51308000D03*
X81540000Y-52808000D03*
X83040000Y-49808000D03*
X83040000Y-51308000D03*
X83040000Y-52808000D03*
D34*
X74150000Y-45958000D03*
X74150000Y-47228000D03*
X74150000Y-48498000D03*
X74150000Y-49768000D03*
X74150000Y-51038000D03*
X74150000Y-52308000D03*
X74150000Y-53578000D03*
X74150000Y-54848000D03*
X74150000Y-56118000D03*
X74150000Y-57388000D03*
X74150000Y-58658000D03*
X74150000Y-59928000D03*
X74150000Y-61198000D03*
X74150000Y-62468000D03*
D35*
X75915000Y-63718000D03*
X77185000Y-63718000D03*
X78455000Y-63718000D03*
X79725000Y-63718000D03*
X80995000Y-63718000D03*
X82265000Y-63718000D03*
X83535000Y-63718000D03*
X84805000Y-63718000D03*
X86075000Y-63718000D03*
X87345000Y-63718000D03*
X88615000Y-63718000D03*
X89885000Y-63718000D03*
D34*
X91650000Y-62468000D03*
X91650000Y-61198000D03*
X91650000Y-59928000D03*
X91650000Y-58658000D03*
X91650000Y-57388000D03*
X91650000Y-56118000D03*
X91650000Y-54848000D03*
X91650000Y-53578000D03*
X91650000Y-52308000D03*
X91650000Y-51038000D03*
X91650000Y-49768000D03*
X91650000Y-48498000D03*
X91650000Y-47228000D03*
X91650000Y-45958000D03*
%TD*%
D14*
%TO.C,R11*%
X72136000Y-48512000D03*
X72136000Y-49532000D03*
%TD*%
D36*
%TO.C,D5*%
X75800000Y-66050000D03*
X75800000Y-68250000D03*
%TD*%
D37*
%TO.C,U7*%
X86600000Y-95650000D03*
X87900000Y-95650000D03*
X86600000Y-94350000D03*
X87900000Y-94350000D03*
D38*
X86000000Y-96937500D03*
X86500000Y-96937500D03*
X87000000Y-96937500D03*
X87500000Y-96937500D03*
X88000000Y-96937500D03*
X88500000Y-96937500D03*
D39*
X89187500Y-96250000D03*
X89187500Y-95750000D03*
X89187500Y-95250000D03*
X89187500Y-94750000D03*
X89187500Y-94250000D03*
X89187500Y-93750000D03*
D38*
X88500000Y-93062500D03*
X88000000Y-93062500D03*
X87500000Y-93062500D03*
X87000000Y-93062500D03*
X86500000Y-93062500D03*
X86000000Y-93062500D03*
D39*
X85312500Y-93750000D03*
X85312500Y-94250000D03*
X85312500Y-94750000D03*
X85312500Y-95250000D03*
X85312500Y-95750000D03*
X85312500Y-96250000D03*
%TD*%
D28*
%TO.C,C5*%
X83798000Y-81356000D03*
X82838000Y-81356000D03*
%TD*%
D40*
%TO.C,D19*%
X88150000Y-85050000D03*
X88150000Y-82950000D03*
%TD*%
D15*
%TO.C,C15*%
X71985400Y-45720000D03*
X69035400Y-45720000D03*
%TD*%
D16*
%TO.C,R17*%
X95100000Y-48260000D03*
X95100000Y-49910000D03*
%TD*%
D14*
%TO.C,R10*%
X75031600Y-72085200D03*
X75031600Y-73105200D03*
%TD*%
%TO.C,R33*%
X83800000Y-65340000D03*
X83800000Y-66360000D03*
%TD*%
D17*
%TO.C,D16*%
X78600000Y-97450000D03*
X81400000Y-97450000D03*
%TD*%
D14*
%TO.C,R21*%
X82600000Y-76890000D03*
X82600000Y-77910000D03*
%TD*%
D41*
%TO.C,D3*%
X82372200Y-75572800D03*
X82372200Y-73372800D03*
%TD*%
D14*
%TO.C,R32*%
X82700000Y-65340000D03*
X82700000Y-66360000D03*
%TD*%
D16*
%TO.C,R28*%
X86375000Y-83050000D03*
X86375000Y-84700000D03*
%TD*%
D14*
%TO.C,R8*%
X79044800Y-67331400D03*
X79044800Y-68351400D03*
%TD*%
D26*
%TO.C,R15*%
X85025000Y-83860000D03*
X85025000Y-82840000D03*
%TD*%
D42*
%TO.C,D2*%
X91610000Y-73001200D03*
X93810000Y-73001200D03*
%TD*%
D27*
%TO.C,C2*%
X69850000Y-51584800D03*
X69850000Y-50624800D03*
%TD*%
D24*
%TO.C,C11*%
X70995600Y-56896000D03*
X71955600Y-56896000D03*
%TD*%
D26*
%TO.C,R23*%
X75031600Y-75770200D03*
X75031600Y-74750200D03*
%TD*%
D14*
%TO.C,R5*%
X94996000Y-65390000D03*
X94996000Y-66410000D03*
%TD*%
D43*
%TO.C,C7*%
X93650000Y-70900000D03*
X91750000Y-70900000D03*
%TD*%
D44*
%TO.C,U4*%
X80289400Y-70094400D03*
X79019400Y-70094400D03*
X77749400Y-70094400D03*
X76479400Y-70094400D03*
X76479400Y-75244400D03*
X77749400Y-75244400D03*
X79019400Y-75244400D03*
X80289400Y-75244400D03*
%TD*%
D45*
%TO.C,C27*%
X70370400Y-90398600D03*
X71920400Y-90398600D03*
%TD*%
D19*
%TO.C,D7*%
X95100000Y-45312500D03*
X95100000Y-46887500D03*
%TD*%
D46*
%TO.C,J5*%
X68600000Y-59500000D03*
X68600000Y-60300000D03*
X68600000Y-61100000D03*
X68600000Y-61900000D03*
X68600000Y-62700000D03*
D47*
X68600000Y-56700000D03*
X63100000Y-56700000D03*
X68600000Y-65500000D03*
X63100000Y-65500000D03*
%TD*%
D14*
%TO.C,R7*%
X80294800Y-67331400D03*
X80294800Y-68351400D03*
%TD*%
%TO.C,R9*%
X75031600Y-69898298D03*
X75031600Y-70918298D03*
%TD*%
D15*
%TO.C,C9*%
X65381400Y-53340000D03*
X62431400Y-53340000D03*
%TD*%
D48*
%TO.C,D13*%
X70852400Y-58978800D03*
X71692400Y-58978800D03*
%TD*%
D49*
%TO.C,C3*%
X68122800Y-51106600D03*
X68122800Y-48156600D03*
%TD*%
D10*
%TO.C,C6*%
X66852800Y-53063200D03*
X66852800Y-54023200D03*
%TD*%
D50*
%TO.C,U6*%
X85501400Y-76551000D03*
X85501400Y-77201000D03*
X85501400Y-77851000D03*
X87401400Y-77851000D03*
X87401400Y-77201000D03*
X87401400Y-76551000D03*
%TD*%
D14*
%TO.C,R12*%
X77744800Y-67344298D03*
X77744800Y-68364298D03*
%TD*%
D21*
%TO.C,R6*%
X72239600Y-51562000D03*
X71219600Y-51562000D03*
%TD*%
D14*
%TO.C,R34*%
X84900000Y-65340000D03*
X84900000Y-66360000D03*
%TD*%
D51*
%TO.C,C22*%
X90900000Y-93875000D03*
X90900000Y-92325000D03*
%TD*%
D52*
%TO.C,D11*%
X70993000Y-62318000D03*
X70993000Y-63158000D03*
%TD*%
D16*
%TO.C,R19*%
X93573600Y-48260000D03*
X93573600Y-49910000D03*
%TD*%
D15*
%TO.C,C20*%
X65475000Y-87975000D03*
X62525000Y-87975000D03*
%TD*%
D53*
%TO.C,L1*%
X88417400Y-70900000D03*
X88417400Y-73900000D03*
%TD*%
D28*
%TO.C,C12*%
X72209600Y-50546000D03*
X71249600Y-50546000D03*
%TD*%
D54*
%TO.C,D12*%
X70993000Y-61278400D03*
X70993000Y-60438400D03*
%TD*%
D20*
%TO.C,D6*%
X94467500Y-75630000D03*
X92892500Y-75630000D03*
%TD*%
D27*
%TO.C,C25*%
X83800000Y-94280000D03*
X83800000Y-93320000D03*
%TD*%
D14*
%TO.C,R2*%
X89408000Y-66903200D03*
X89408000Y-67923200D03*
%TD*%
D55*
%TO.C,U2*%
X93212500Y-68871200D03*
X93212500Y-67921200D03*
X93212500Y-66971200D03*
X90937500Y-66971200D03*
X90937500Y-67921200D03*
X90937500Y-68871200D03*
%TD*%
D13*
%TO.C,D18*%
X90250000Y-86050000D03*
X90250000Y-88150000D03*
%TD*%
D49*
%TO.C,C10*%
X84709000Y-73865000D03*
X84709000Y-70915000D03*
%TD*%
D43*
%TO.C,C28*%
X65516800Y-92900000D03*
X63616800Y-92900000D03*
%TD*%
D32*
%TO.C,R31*%
X68775000Y-88450000D03*
X67125000Y-88450000D03*
%TD*%
D15*
%TO.C,C19*%
X82150000Y-92750000D03*
X79200000Y-92750000D03*
%TD*%
D56*
%TO.C,U3*%
X88927000Y-81625000D03*
X88927000Y-80975000D03*
X88927000Y-80325000D03*
X88927000Y-79675000D03*
X85527000Y-79675000D03*
X85527000Y-80325000D03*
X85527000Y-80975000D03*
X85527000Y-81625000D03*
%TD*%
D22*
%TO.C,R26*%
X70965600Y-57912000D03*
X71985600Y-57912000D03*
%TD*%
D10*
%TO.C,C16*%
X71120000Y-48542000D03*
X71120000Y-49502000D03*
%TD*%
%TO.C,C14*%
X84301400Y-76921000D03*
X84301400Y-77881000D03*
%TD*%
D42*
%TO.C,D8*%
X67937200Y-53543200D03*
X70137200Y-53543200D03*
%TD*%
D16*
%TO.C,R14*%
X90960000Y-76355000D03*
X90960000Y-78005000D03*
%TD*%
D57*
%TO.C,C1*%
X87200000Y-68875000D03*
X87200000Y-65925000D03*
%TD*%
D43*
%TO.C,C24*%
X82150000Y-95100000D03*
X80250000Y-95100000D03*
%TD*%
D15*
%TO.C,C26*%
X65475000Y-90500000D03*
X62525000Y-90500000D03*
%TD*%
M02*
