%TF.GenerationSoftware,KiCad,Pcbnew,7.0.11+dfsg-1build4*%
%TF.CreationDate,2025-03-19T09:17:04+01:00*%
%TF.ProjectId,MCM-81339,4d434d2d-3831-4333-9339-2e6b69636164,rev?*%
%TF.SameCoordinates,Original*%
%TF.FileFunction,Copper,L2,Bot*%
%TF.FilePolarity,Positive*%
%FSLAX46Y46*%
G04 Gerber Fmt 4.6, Leading zero omitted, Abs format (unit mm)*
G04 Created by KiCad (PCBNEW 7.0.11+dfsg-1build4) date 2025-03-19 09:17:04*
%MOMM*%
%LPD*%
G01*
G04 APERTURE LIST*
G04 Aperture macros list*
%AMRoundRect*
0 Rectangle with rounded corners*
0 $1 Rounding radius*
0 $2 $3 $4 $5 $6 $7 $8 $9 X,Y pos of 4 corners*
0 Add a 4 corners polygon primitive as box body*
4,1,4,$2,$3,$4,$5,$6,$7,$8,$9,$2,$3,0*
0 Add four circle primitives for the rounded corners*
1,1,$1+$1,$2,$3*
1,1,$1+$1,$4,$5*
1,1,$1+$1,$6,$7*
1,1,$1+$1,$8,$9*
0 Add four rect primitives between the rounded corners*
20,1,$1+$1,$2,$3,$4,$5,0*
20,1,$1+$1,$4,$5,$6,$7,0*
20,1,$1+$1,$6,$7,$8,$9,0*
20,1,$1+$1,$8,$9,$2,$3,0*%
G04 Aperture macros list end*
%ADD10C,0.150000*%
%TA.AperFunction,NonConductor*%
%ADD11C,0.150000*%
%TD*%
%TA.AperFunction,HeatsinkPad*%
%ADD12C,0.500000*%
%TD*%
%TA.AperFunction,HeatsinkPad*%
%ADD13R,2.900000X1.900000*%
%TD*%
%TA.AperFunction,ComponentPad*%
%ADD14RoundRect,0.425000X1.125000X0.425000X-1.125000X0.425000X-1.125000X-0.425000X1.125000X-0.425000X0*%
%TD*%
%TA.AperFunction,ComponentPad*%
%ADD15R,1.700000X1.700000*%
%TD*%
%TA.AperFunction,ComponentPad*%
%ADD16O,1.700000X1.700000*%
%TD*%
%TA.AperFunction,ComponentPad*%
%ADD17RoundRect,0.425000X-1.125000X-0.425000X1.125000X-0.425000X1.125000X0.425000X-1.125000X0.425000X0*%
%TD*%
%TA.AperFunction,ComponentPad*%
%ADD18R,1.350000X1.350000*%
%TD*%
%TA.AperFunction,ComponentPad*%
%ADD19O,1.350000X1.350000*%
%TD*%
%TA.AperFunction,HeatsinkPad*%
%ADD20R,2.600000X2.600000*%
%TD*%
%TA.AperFunction,ComponentPad*%
%ADD21RoundRect,0.425000X-0.425000X1.125000X-0.425000X-1.125000X0.425000X-1.125000X0.425000X1.125000X0*%
%TD*%
%TA.AperFunction,ComponentPad*%
%ADD22R,1.800000X4.400000*%
%TD*%
%TA.AperFunction,ComponentPad*%
%ADD23O,1.800000X4.000000*%
%TD*%
%TA.AperFunction,ComponentPad*%
%ADD24O,4.000000X1.800000*%
%TD*%
%TA.AperFunction,SMDPad,CuDef*%
%ADD25C,1.000000*%
%TD*%
%TA.AperFunction,SMDPad,CuDef*%
%ADD26C,1.500000*%
%TD*%
%TA.AperFunction,ViaPad*%
%ADD27C,0.600000*%
%TD*%
%TA.AperFunction,ViaPad*%
%ADD28C,0.800000*%
%TD*%
%TA.AperFunction,Conductor*%
%ADD29C,0.800000*%
%TD*%
%TA.AperFunction,Conductor*%
%ADD30C,0.500000*%
%TD*%
%TA.AperFunction,Conductor*%
%ADD31C,0.300000*%
%TD*%
%TA.AperFunction,Conductor*%
%ADD32C,0.400000*%
%TD*%
%TA.AperFunction,Conductor*%
%ADD33C,0.250000*%
%TD*%
%TA.AperFunction,Conductor*%
%ADD34C,1.000000*%
%TD*%
%TA.AperFunction,Conductor*%
%ADD35C,0.200000*%
%TD*%
%TA.AperFunction,Conductor*%
%ADD36C,0.600000*%
%TD*%
%TA.AperFunction,Conductor*%
%ADD37C,0.190000*%
%TD*%
G04 APERTURE END LIST*
D10*
D11*
X62354819Y-53080952D02*
X61354819Y-53080952D01*
X61354819Y-53080952D02*
X62069104Y-53414285D01*
X62069104Y-53414285D02*
X61354819Y-53747618D01*
X61354819Y-53747618D02*
X62354819Y-53747618D01*
X62259580Y-54795237D02*
X62307200Y-54747618D01*
X62307200Y-54747618D02*
X62354819Y-54604761D01*
X62354819Y-54604761D02*
X62354819Y-54509523D01*
X62354819Y-54509523D02*
X62307200Y-54366666D01*
X62307200Y-54366666D02*
X62211961Y-54271428D01*
X62211961Y-54271428D02*
X62116723Y-54223809D01*
X62116723Y-54223809D02*
X61926247Y-54176190D01*
X61926247Y-54176190D02*
X61783390Y-54176190D01*
X61783390Y-54176190D02*
X61592914Y-54223809D01*
X61592914Y-54223809D02*
X61497676Y-54271428D01*
X61497676Y-54271428D02*
X61402438Y-54366666D01*
X61402438Y-54366666D02*
X61354819Y-54509523D01*
X61354819Y-54509523D02*
X61354819Y-54604761D01*
X61354819Y-54604761D02*
X61402438Y-54747618D01*
X61402438Y-54747618D02*
X61450057Y-54795237D01*
X62354819Y-55223809D02*
X61354819Y-55223809D01*
X61354819Y-55223809D02*
X62069104Y-55557142D01*
X62069104Y-55557142D02*
X61354819Y-55890475D01*
X61354819Y-55890475D02*
X62354819Y-55890475D01*
X61783390Y-57271428D02*
X61735771Y-57176190D01*
X61735771Y-57176190D02*
X61688152Y-57128571D01*
X61688152Y-57128571D02*
X61592914Y-57080952D01*
X61592914Y-57080952D02*
X61545295Y-57080952D01*
X61545295Y-57080952D02*
X61450057Y-57128571D01*
X61450057Y-57128571D02*
X61402438Y-57176190D01*
X61402438Y-57176190D02*
X61354819Y-57271428D01*
X61354819Y-57271428D02*
X61354819Y-57461904D01*
X61354819Y-57461904D02*
X61402438Y-57557142D01*
X61402438Y-57557142D02*
X61450057Y-57604761D01*
X61450057Y-57604761D02*
X61545295Y-57652380D01*
X61545295Y-57652380D02*
X61592914Y-57652380D01*
X61592914Y-57652380D02*
X61688152Y-57604761D01*
X61688152Y-57604761D02*
X61735771Y-57557142D01*
X61735771Y-57557142D02*
X61783390Y-57461904D01*
X61783390Y-57461904D02*
X61783390Y-57271428D01*
X61783390Y-57271428D02*
X61831009Y-57176190D01*
X61831009Y-57176190D02*
X61878628Y-57128571D01*
X61878628Y-57128571D02*
X61973866Y-57080952D01*
X61973866Y-57080952D02*
X62164342Y-57080952D01*
X62164342Y-57080952D02*
X62259580Y-57128571D01*
X62259580Y-57128571D02*
X62307200Y-57176190D01*
X62307200Y-57176190D02*
X62354819Y-57271428D01*
X62354819Y-57271428D02*
X62354819Y-57461904D01*
X62354819Y-57461904D02*
X62307200Y-57557142D01*
X62307200Y-57557142D02*
X62259580Y-57604761D01*
X62259580Y-57604761D02*
X62164342Y-57652380D01*
X62164342Y-57652380D02*
X61973866Y-57652380D01*
X61973866Y-57652380D02*
X61878628Y-57604761D01*
X61878628Y-57604761D02*
X61831009Y-57557142D01*
X61831009Y-57557142D02*
X61783390Y-57461904D01*
X62354819Y-58604761D02*
X62354819Y-58033333D01*
X62354819Y-58319047D02*
X61354819Y-58319047D01*
X61354819Y-58319047D02*
X61497676Y-58223809D01*
X61497676Y-58223809D02*
X61592914Y-58128571D01*
X61592914Y-58128571D02*
X61640533Y-58033333D01*
X61354819Y-58938095D02*
X61354819Y-59557142D01*
X61354819Y-59557142D02*
X61735771Y-59223809D01*
X61735771Y-59223809D02*
X61735771Y-59366666D01*
X61735771Y-59366666D02*
X61783390Y-59461904D01*
X61783390Y-59461904D02*
X61831009Y-59509523D01*
X61831009Y-59509523D02*
X61926247Y-59557142D01*
X61926247Y-59557142D02*
X62164342Y-59557142D01*
X62164342Y-59557142D02*
X62259580Y-59509523D01*
X62259580Y-59509523D02*
X62307200Y-59461904D01*
X62307200Y-59461904D02*
X62354819Y-59366666D01*
X62354819Y-59366666D02*
X62354819Y-59080952D01*
X62354819Y-59080952D02*
X62307200Y-58985714D01*
X62307200Y-58985714D02*
X62259580Y-58938095D01*
X61354819Y-59890476D02*
X61354819Y-60509523D01*
X61354819Y-60509523D02*
X61735771Y-60176190D01*
X61735771Y-60176190D02*
X61735771Y-60319047D01*
X61735771Y-60319047D02*
X61783390Y-60414285D01*
X61783390Y-60414285D02*
X61831009Y-60461904D01*
X61831009Y-60461904D02*
X61926247Y-60509523D01*
X61926247Y-60509523D02*
X62164342Y-60509523D01*
X62164342Y-60509523D02*
X62259580Y-60461904D01*
X62259580Y-60461904D02*
X62307200Y-60414285D01*
X62307200Y-60414285D02*
X62354819Y-60319047D01*
X62354819Y-60319047D02*
X62354819Y-60033333D01*
X62354819Y-60033333D02*
X62307200Y-59938095D01*
X62307200Y-59938095D02*
X62259580Y-59890476D01*
X62354819Y-60985714D02*
X62354819Y-61176190D01*
X62354819Y-61176190D02*
X62307200Y-61271428D01*
X62307200Y-61271428D02*
X62259580Y-61319047D01*
X62259580Y-61319047D02*
X62116723Y-61414285D01*
X62116723Y-61414285D02*
X61926247Y-61461904D01*
X61926247Y-61461904D02*
X61545295Y-61461904D01*
X61545295Y-61461904D02*
X61450057Y-61414285D01*
X61450057Y-61414285D02*
X61402438Y-61366666D01*
X61402438Y-61366666D02*
X61354819Y-61271428D01*
X61354819Y-61271428D02*
X61354819Y-61080952D01*
X61354819Y-61080952D02*
X61402438Y-60985714D01*
X61402438Y-60985714D02*
X61450057Y-60938095D01*
X61450057Y-60938095D02*
X61545295Y-60890476D01*
X61545295Y-60890476D02*
X61783390Y-60890476D01*
X61783390Y-60890476D02*
X61878628Y-60938095D01*
X61878628Y-60938095D02*
X61926247Y-60985714D01*
X61926247Y-60985714D02*
X61973866Y-61080952D01*
X61973866Y-61080952D02*
X61973866Y-61271428D01*
X61973866Y-61271428D02*
X61926247Y-61366666D01*
X61926247Y-61366666D02*
X61878628Y-61414285D01*
X61878628Y-61414285D02*
X61783390Y-61461904D01*
X61688152Y-62557143D02*
X62354819Y-62795238D01*
X62354819Y-62795238D02*
X61688152Y-63033333D01*
X62354819Y-63938095D02*
X62354819Y-63366667D01*
X62354819Y-63652381D02*
X61354819Y-63652381D01*
X61354819Y-63652381D02*
X61497676Y-63557143D01*
X61497676Y-63557143D02*
X61592914Y-63461905D01*
X61592914Y-63461905D02*
X61640533Y-63366667D01*
X62259580Y-64366667D02*
X62307200Y-64414286D01*
X62307200Y-64414286D02*
X62354819Y-64366667D01*
X62354819Y-64366667D02*
X62307200Y-64319048D01*
X62307200Y-64319048D02*
X62259580Y-64366667D01*
X62259580Y-64366667D02*
X62354819Y-64366667D01*
X61450057Y-64795238D02*
X61402438Y-64842857D01*
X61402438Y-64842857D02*
X61354819Y-64938095D01*
X61354819Y-64938095D02*
X61354819Y-65176190D01*
X61354819Y-65176190D02*
X61402438Y-65271428D01*
X61402438Y-65271428D02*
X61450057Y-65319047D01*
X61450057Y-65319047D02*
X61545295Y-65366666D01*
X61545295Y-65366666D02*
X61640533Y-65366666D01*
X61640533Y-65366666D02*
X61783390Y-65319047D01*
X61783390Y-65319047D02*
X62354819Y-64747619D01*
X62354819Y-64747619D02*
X62354819Y-65366666D01*
%TA.AperFunction,EtchedComponent*%
%TO.C,LOG2*%
G36*
X95643172Y-69048752D02*
G01*
X93927930Y-69048752D01*
X93927930Y-68776237D01*
X95643172Y-68776237D01*
X95643172Y-69048752D01*
G37*
%TD.AperFunction*%
%TA.AperFunction,EtchedComponent*%
G36*
X93647400Y-71902145D02*
G01*
X93471067Y-71902145D01*
X93471067Y-71725811D01*
X93647400Y-71725811D01*
X93647400Y-71902145D01*
G37*
%TD.AperFunction*%
%TA.AperFunction,EtchedComponent*%
G36*
X95643172Y-72270841D02*
G01*
X94497006Y-72270841D01*
X94497006Y-71998326D01*
X95643172Y-71998326D01*
X95643172Y-72270841D01*
G37*
%TD.AperFunction*%
%TA.AperFunction,EtchedComponent*%
G36*
X94200445Y-72270841D02*
G01*
X93927930Y-72270841D01*
X93927930Y-71998326D01*
X94200445Y-71998326D01*
X94200445Y-72270841D01*
G37*
%TD.AperFunction*%
%TA.AperFunction,EtchedComponent*%
G36*
X93879839Y-73056326D02*
G01*
X93599309Y-73056326D01*
X93599309Y-72775796D01*
X93879839Y-72775796D01*
X93879839Y-73056326D01*
G37*
%TD.AperFunction*%
%TA.AperFunction,EtchedComponent*%
G36*
X93182522Y-73264720D02*
G01*
X92901992Y-73264720D01*
X92901992Y-72984189D01*
X93182522Y-72984189D01*
X93182522Y-73264720D01*
G37*
%TD.AperFunction*%
%TA.AperFunction,EtchedComponent*%
G36*
X94256551Y-73521204D02*
G01*
X94112279Y-73521204D01*
X94112279Y-73384947D01*
X94256551Y-73384947D01*
X94256551Y-73521204D01*
G37*
%TD.AperFunction*%
%TA.AperFunction,EtchedComponent*%
G36*
X93671446Y-73537235D02*
G01*
X93439006Y-73537235D01*
X93439006Y-73304795D01*
X93671446Y-73304795D01*
X93671446Y-73537235D01*
G37*
%TD.AperFunction*%
%TA.AperFunction,EtchedComponent*%
G36*
X94577157Y-73849825D02*
G01*
X94513036Y-73849825D01*
X94513036Y-73777689D01*
X94577157Y-73777689D01*
X94577157Y-73849825D01*
G37*
%TD.AperFunction*%
%TA.AperFunction,EtchedComponent*%
G36*
X94072203Y-74010128D02*
G01*
X93895870Y-74010128D01*
X93895870Y-73833795D01*
X94072203Y-73833795D01*
X94072203Y-74010128D01*
G37*
%TD.AperFunction*%
%TA.AperFunction,EtchedComponent*%
G36*
X93447021Y-74034174D02*
G01*
X93238628Y-74034174D01*
X93238628Y-73833795D01*
X93447021Y-73833795D01*
X93447021Y-74034174D01*
G37*
%TD.AperFunction*%
%TA.AperFunction,EtchedComponent*%
G36*
X93855794Y-74450961D02*
G01*
X93695491Y-74450961D01*
X93695491Y-74290658D01*
X93855794Y-74290658D01*
X93855794Y-74450961D01*
G37*
%TD.AperFunction*%
%TA.AperFunction,EtchedComponent*%
G36*
X93935945Y-75172324D02*
G01*
X93847779Y-75172324D01*
X93847779Y-75076143D01*
X93935945Y-75076143D01*
X93935945Y-75172324D01*
G37*
%TD.AperFunction*%
%TA.AperFunction,EtchedComponent*%
G36*
X94505021Y-74323299D02*
G01*
X94348725Y-74318711D01*
X94346431Y-74240564D01*
X94344137Y-74162416D01*
X94505021Y-74162416D01*
X94505021Y-74323299D01*
G37*
%TD.AperFunction*%
%TA.AperFunction,EtchedComponent*%
G36*
X93421162Y-72385057D02*
G01*
X93418968Y-72523318D01*
X93280707Y-72525512D01*
X93142446Y-72527705D01*
X93142446Y-72246796D01*
X93423355Y-72246796D01*
X93421162Y-72385057D01*
G37*
%TD.AperFunction*%
%TA.AperFunction,EtchedComponent*%
G36*
X94232368Y-74644846D02*
G01*
X94245688Y-74646668D01*
X94251649Y-74654014D01*
X94255383Y-74673625D01*
X94256551Y-74707194D01*
X94256551Y-74763552D01*
X94127607Y-74763552D01*
X94132317Y-74647332D01*
X94183571Y-74644916D01*
X94208564Y-74644274D01*
X94232368Y-74644846D01*
G37*
%TD.AperFunction*%
%TA.AperFunction,EtchedComponent*%
G36*
X93951991Y-71278548D02*
G01*
X93965511Y-71280442D01*
X93967742Y-71281690D01*
X93972772Y-71290962D01*
X93974848Y-71310443D01*
X93974371Y-71342972D01*
X93972014Y-71401198D01*
X93851786Y-71401198D01*
X93851786Y-71280971D01*
X93903041Y-71278554D01*
X93928032Y-71277928D01*
X93951991Y-71278548D01*
G37*
%TD.AperFunction*%
%TA.AperFunction,EtchedComponent*%
G36*
X95442067Y-72487276D02*
G01*
X95464312Y-72503943D01*
X95492754Y-72528201D01*
X95525477Y-72558568D01*
X95570885Y-72607278D01*
X95615382Y-72671694D01*
X95646977Y-72742184D01*
X95667415Y-72821990D01*
X95670119Y-72845341D01*
X95671486Y-72880659D01*
X95670576Y-72916061D01*
X95660549Y-72987978D01*
X95637209Y-73059228D01*
X95599990Y-73124194D01*
X95547868Y-73185128D01*
X95522132Y-73208880D01*
X95460806Y-73251867D01*
X95395892Y-73279497D01*
X95327902Y-73291591D01*
X95257344Y-73287967D01*
X95221521Y-73280531D01*
X95169982Y-73262447D01*
X95123187Y-73235492D01*
X95080047Y-73198490D01*
X95039471Y-73150264D01*
X95000367Y-73089637D01*
X94961646Y-73015435D01*
X94922217Y-72926479D01*
X94911501Y-72902013D01*
X94884693Y-72851135D01*
X94857127Y-72812274D01*
X94830098Y-72787385D01*
X94819750Y-72781501D01*
X94803585Y-72778542D01*
X94781709Y-72783756D01*
X94776893Y-72785477D01*
X94754507Y-72799085D01*
X94739861Y-72820919D01*
X94731868Y-72853368D01*
X94729445Y-72898818D01*
X94729887Y-72923698D01*
X94732972Y-72952125D01*
X94740473Y-72976912D01*
X94754094Y-73005417D01*
X94766647Y-73028135D01*
X94784178Y-73057138D01*
X94799070Y-73079002D01*
X94819395Y-73105685D01*
X94799989Y-73127093D01*
X94789092Y-73139181D01*
X94769146Y-73161405D01*
X94744146Y-73189324D01*
X94717096Y-73219585D01*
X94653610Y-73290669D01*
X94622672Y-73255807D01*
X94609518Y-73240181D01*
X94574421Y-73191570D01*
X94541032Y-73136438D01*
X94512694Y-73080598D01*
X94492748Y-73029863D01*
X94476539Y-72957743D01*
X94473104Y-72880089D01*
X94483679Y-72804505D01*
X94507738Y-72733156D01*
X94544756Y-72668209D01*
X94594206Y-72611828D01*
X94635500Y-72579759D01*
X94695874Y-72549125D01*
X94761043Y-72531596D01*
X94827901Y-72527930D01*
X94893341Y-72538883D01*
X94902555Y-72541681D01*
X94945747Y-72558776D01*
X94984260Y-72581960D01*
X95019450Y-72612827D01*
X95052675Y-72652970D01*
X95085293Y-72703984D01*
X95118662Y-72767462D01*
X95154139Y-72844997D01*
X95160067Y-72858516D01*
X95178729Y-72899672D01*
X95196512Y-72937004D01*
X95211642Y-72966860D01*
X95222349Y-72985585D01*
X95233937Y-73000838D01*
X95259000Y-73024889D01*
X95285573Y-73041842D01*
X95308937Y-73048281D01*
X95311014Y-73048241D01*
X95339674Y-73039772D01*
X95367908Y-73018249D01*
X95392387Y-72986149D01*
X95399424Y-72973568D01*
X95409009Y-72950676D01*
X95413488Y-72925819D01*
X95414502Y-72892015D01*
X95411496Y-72851168D01*
X95400740Y-72811621D01*
X95380366Y-72772423D01*
X95348507Y-72728965D01*
X95320274Y-72694157D01*
X95371113Y-72588700D01*
X95379036Y-72572280D01*
X95396225Y-72536785D01*
X95410322Y-72507845D01*
X95420045Y-72488091D01*
X95424107Y-72480153D01*
X95427935Y-72479682D01*
X95442067Y-72487276D01*
G37*
%TD.AperFunction*%
%TA.AperFunction,EtchedComponent*%
G36*
X95130088Y-67336273D02*
G01*
X95221890Y-67350550D01*
X95309215Y-67378057D01*
X95359195Y-67401417D01*
X95436754Y-67451147D01*
X95505644Y-67512719D01*
X95564509Y-67584374D01*
X95611992Y-67664354D01*
X95646734Y-67750898D01*
X95667379Y-67842248D01*
X95668119Y-67848122D01*
X95670540Y-67882108D01*
X95671330Y-67922821D01*
X95670306Y-67962700D01*
X95669395Y-67977442D01*
X95655926Y-68078975D01*
X95629990Y-68171211D01*
X95590948Y-68255572D01*
X95538161Y-68333482D01*
X95470990Y-68406362D01*
X95452293Y-68423773D01*
X95429026Y-68444361D01*
X95411646Y-68458434D01*
X95402940Y-68463647D01*
X95401721Y-68462972D01*
X95392414Y-68453368D01*
X95376322Y-68434484D01*
X95355547Y-68409012D01*
X95332196Y-68379644D01*
X95308371Y-68349072D01*
X95286178Y-68319987D01*
X95267721Y-68295081D01*
X95255103Y-68277044D01*
X95250429Y-68268570D01*
X95251766Y-68266444D01*
X95261668Y-68255009D01*
X95279113Y-68236294D01*
X95301587Y-68213029D01*
X95316420Y-68197254D01*
X95362410Y-68136087D01*
X95393895Y-68070242D01*
X95411986Y-67997550D01*
X95414294Y-67979686D01*
X95414855Y-67906232D01*
X95401618Y-67836066D01*
X95375721Y-67771044D01*
X95338299Y-67713025D01*
X95290493Y-67663866D01*
X95233439Y-67625427D01*
X95168274Y-67599564D01*
X95138217Y-67591288D01*
X95138217Y-68522023D01*
X95052055Y-68517450D01*
X94959038Y-68507228D01*
X94871014Y-68485122D01*
X94790739Y-68450454D01*
X94716096Y-68402299D01*
X94644965Y-68339733D01*
X94585027Y-68271954D01*
X94535213Y-68195667D01*
X94500280Y-68114872D01*
X94479703Y-68028339D01*
X94472960Y-67934837D01*
X94473092Y-67922624D01*
X94733490Y-67922624D01*
X94733495Y-67931545D01*
X94733985Y-67969081D01*
X94735866Y-67996248D01*
X94739971Y-68017783D01*
X94747135Y-68038418D01*
X94758192Y-68062889D01*
X94771860Y-68088014D01*
X94804026Y-68132685D01*
X94842004Y-68172313D01*
X94881105Y-68201604D01*
X94905778Y-68216083D01*
X94905778Y-67921353D01*
X94905642Y-67854723D01*
X94905266Y-67793474D01*
X94904680Y-67739382D01*
X94903915Y-67694221D01*
X94903000Y-67659765D01*
X94901965Y-67637791D01*
X94900841Y-67630071D01*
X94895249Y-67631919D01*
X94878887Y-67642169D01*
X94857164Y-67658666D01*
X94833902Y-67678277D01*
X94812925Y-67697870D01*
X94798055Y-67714311D01*
X94787673Y-67729409D01*
X94770552Y-67758310D01*
X94755035Y-67788487D01*
X94745923Y-67809336D01*
X94739388Y-67829767D01*
X94735631Y-67852384D01*
X94733912Y-67881800D01*
X94733490Y-67922624D01*
X94473092Y-67922624D01*
X94473187Y-67913865D01*
X94480004Y-67827079D01*
X94497069Y-67749125D01*
X94525404Y-67676374D01*
X94566035Y-67605201D01*
X94582329Y-67582344D01*
X94623242Y-67534279D01*
X94671355Y-67486714D01*
X94721838Y-67444242D01*
X94769860Y-67411454D01*
X94776101Y-67407866D01*
X94856815Y-67371022D01*
X94900841Y-67358826D01*
X94944651Y-67346689D01*
X95036708Y-67335046D01*
X95130088Y-67336273D01*
G37*
%TD.AperFunction*%
%TA.AperFunction,EtchedComponent*%
G36*
X95639461Y-70523953D02*
G01*
X95640640Y-70534900D01*
X95641659Y-70558947D01*
X95642459Y-70593710D01*
X95642982Y-70636805D01*
X95643168Y-70685846D01*
X95643165Y-70848153D01*
X95442707Y-71004202D01*
X95416021Y-71025038D01*
X95369338Y-71061807D01*
X95327894Y-71094860D01*
X95293180Y-71122981D01*
X95266688Y-71144958D01*
X95249909Y-71159577D01*
X95244336Y-71165624D01*
X95244851Y-71166263D01*
X95254377Y-71174541D01*
X95274630Y-71190981D01*
X95304003Y-71214313D01*
X95340889Y-71243268D01*
X95383680Y-71276574D01*
X95430770Y-71312962D01*
X95440612Y-71320545D01*
X95487839Y-71357039D01*
X95531087Y-71390628D01*
X95568607Y-71419941D01*
X95598651Y-71443609D01*
X95619470Y-71460263D01*
X95629316Y-71468532D01*
X95634010Y-71474267D01*
X95637584Y-71482903D01*
X95640016Y-71496489D01*
X95641456Y-71517240D01*
X95642055Y-71547372D01*
X95641966Y-71589099D01*
X95641339Y-71644636D01*
X95639164Y-71807135D01*
X95330581Y-71570161D01*
X95325058Y-71565920D01*
X95263937Y-71519055D01*
X95206831Y-71475388D01*
X95154981Y-71435858D01*
X95109627Y-71401408D01*
X95072010Y-71372976D01*
X95043371Y-71351505D01*
X95024951Y-71337933D01*
X95017990Y-71333203D01*
X95016925Y-71333788D01*
X95005840Y-71341691D01*
X94983926Y-71358013D01*
X94952550Y-71381714D01*
X94913079Y-71411754D01*
X94866880Y-71447094D01*
X94815321Y-71486694D01*
X94759770Y-71529515D01*
X94740174Y-71544637D01*
X94685826Y-71586465D01*
X94635928Y-71624710D01*
X94591848Y-71658334D01*
X94554957Y-71686295D01*
X94526625Y-71707556D01*
X94508222Y-71721074D01*
X94501119Y-71725811D01*
X94500732Y-71725154D01*
X94499599Y-71713348D01*
X94498811Y-71688551D01*
X94498402Y-71653122D01*
X94498403Y-71609416D01*
X94498847Y-71559792D01*
X94501013Y-71393772D01*
X94645286Y-71283017D01*
X94667249Y-71266105D01*
X94706619Y-71235508D01*
X94740524Y-71208794D01*
X94767143Y-71187418D01*
X94784650Y-71172836D01*
X94791223Y-71166503D01*
X94789219Y-71163709D01*
X94776729Y-71152134D01*
X94754317Y-71133119D01*
X94723723Y-71108100D01*
X94686686Y-71078512D01*
X94644946Y-71045791D01*
X94497006Y-70930839D01*
X94497006Y-70593773D01*
X94527063Y-70616470D01*
X94536133Y-70623410D01*
X94557949Y-70640260D01*
X94589404Y-70664646D01*
X94628794Y-70695245D01*
X94674416Y-70730734D01*
X94724564Y-70769787D01*
X94777536Y-70811081D01*
X94820734Y-70844771D01*
X94869565Y-70882847D01*
X94913343Y-70916976D01*
X94950551Y-70945975D01*
X94979670Y-70968662D01*
X94999185Y-70983854D01*
X95007578Y-70990368D01*
X95009708Y-70990475D01*
X95021889Y-70984676D01*
X95044517Y-70970272D01*
X95077930Y-70947018D01*
X95122466Y-70914672D01*
X95178463Y-70872990D01*
X95246259Y-70821727D01*
X95326192Y-70760641D01*
X95331979Y-70756201D01*
X95393135Y-70709345D01*
X95450270Y-70665688D01*
X95502144Y-70626169D01*
X95547516Y-70591728D01*
X95585145Y-70563305D01*
X95613792Y-70541839D01*
X95632216Y-70528271D01*
X95639176Y-70523539D01*
X95639461Y-70523953D01*
G37*
%TD.AperFunction*%
%TA.AperFunction,EtchedComponent*%
G36*
X95082078Y-69293720D02*
G01*
X95126612Y-69294123D01*
X95160206Y-69295378D01*
X95187015Y-69298037D01*
X95211191Y-69302648D01*
X95236886Y-69309761D01*
X95268255Y-69319926D01*
X95352438Y-69355455D01*
X95432517Y-69405251D01*
X95503159Y-69466513D01*
X95563161Y-69537802D01*
X95611321Y-69617678D01*
X95646435Y-69704703D01*
X95667300Y-69797436D01*
X95669476Y-69817136D01*
X95671380Y-69873587D01*
X95668701Y-69936499D01*
X95661823Y-69999671D01*
X95651135Y-70056900D01*
X95632049Y-70123165D01*
X95601685Y-70195034D01*
X95561414Y-70261315D01*
X95509327Y-70325062D01*
X95443520Y-70389327D01*
X95400893Y-70427439D01*
X95325661Y-70327407D01*
X95310336Y-70306963D01*
X95286592Y-70274985D01*
X95267597Y-70249018D01*
X95254995Y-70231317D01*
X95250429Y-70224137D01*
X95251768Y-70222037D01*
X95261672Y-70210652D01*
X95279116Y-70191973D01*
X95301587Y-70168725D01*
X95316796Y-70152415D01*
X95363390Y-70088800D01*
X95395686Y-70020107D01*
X95413403Y-69947997D01*
X95416260Y-69874130D01*
X95403976Y-69800165D01*
X95376270Y-69727761D01*
X95360212Y-69699600D01*
X95320537Y-69649220D01*
X95272468Y-69606870D01*
X95219284Y-69575195D01*
X95164267Y-69556839D01*
X95138217Y-69551703D01*
X95138217Y-70477719D01*
X95052055Y-70473162D01*
X95018628Y-70470967D01*
X94959101Y-70463807D01*
X94905970Y-70451682D01*
X94852903Y-70432946D01*
X94793566Y-70405952D01*
X94767320Y-70392634D01*
X94736206Y-70374626D01*
X94708531Y-70354772D01*
X94679661Y-70329638D01*
X94644965Y-70295791D01*
X94644883Y-70295709D01*
X94581175Y-70222820D01*
X94532792Y-70147055D01*
X94499084Y-70066869D01*
X94479403Y-69980717D01*
X94473099Y-69887057D01*
X94473463Y-69878320D01*
X94733453Y-69878320D01*
X94734554Y-69925767D01*
X94739204Y-69968321D01*
X94748715Y-70003811D01*
X94764384Y-70036890D01*
X94787508Y-70072210D01*
X94801088Y-70088570D01*
X94822175Y-70110111D01*
X94846134Y-70132145D01*
X94869491Y-70151638D01*
X94888774Y-70165559D01*
X94900507Y-70170873D01*
X94900535Y-70170869D01*
X94901734Y-70162815D01*
X94902836Y-70140546D01*
X94903810Y-70105838D01*
X94904623Y-70060465D01*
X94905244Y-70006203D01*
X94905639Y-69944827D01*
X94905778Y-69878114D01*
X94905778Y-69585356D01*
X94880870Y-69598236D01*
X94851540Y-69617978D01*
X94816485Y-69651680D01*
X94784308Y-69692639D01*
X94758896Y-69736446D01*
X94755840Y-69742937D01*
X94745497Y-69766618D01*
X94738943Y-69787220D01*
X94735322Y-69809521D01*
X94733777Y-69838295D01*
X94733453Y-69878320D01*
X94473463Y-69878320D01*
X94476078Y-69815552D01*
X94486363Y-69748206D01*
X94505296Y-69684265D01*
X94534218Y-69617828D01*
X94547535Y-69591728D01*
X94565641Y-69560584D01*
X94585560Y-69532932D01*
X94610747Y-69504132D01*
X94644656Y-69469548D01*
X94677835Y-69437836D01*
X94724735Y-69398306D01*
X94770843Y-69367266D01*
X94820898Y-69341667D01*
X94879639Y-69318463D01*
X94888427Y-69315350D01*
X94905778Y-69309538D01*
X94914831Y-69306505D01*
X94937519Y-69300438D01*
X94960439Y-69296638D01*
X94987542Y-69294588D01*
X95022775Y-69293777D01*
X95070089Y-69293691D01*
X95082078Y-69293720D01*
G37*
%TD.AperFunction*%
%TA.AperFunction,EtchedComponent*%
G36*
X95641368Y-65312375D02*
G01*
X95641548Y-65324481D01*
X95641698Y-65375939D01*
X95640688Y-65414718D01*
X95638568Y-65439710D01*
X95635385Y-65449810D01*
X95634019Y-65450339D01*
X95620087Y-65454464D01*
X95592401Y-65462139D01*
X95552279Y-65473014D01*
X95501039Y-65486737D01*
X95440000Y-65502959D01*
X95370481Y-65521328D01*
X95293798Y-65541494D01*
X95211272Y-65563105D01*
X95124220Y-65585812D01*
X95093910Y-65593709D01*
X95008384Y-65616061D01*
X94927907Y-65637194D01*
X94853789Y-65656758D01*
X94787338Y-65674403D01*
X94729862Y-65689780D01*
X94682671Y-65702539D01*
X94647072Y-65712331D01*
X94624376Y-65718806D01*
X94615889Y-65721614D01*
X94615932Y-65721811D01*
X94624471Y-65726512D01*
X94646516Y-65736816D01*
X94680945Y-65752237D01*
X94726639Y-65772292D01*
X94782476Y-65796498D01*
X94847338Y-65824371D01*
X94920102Y-65855426D01*
X94999650Y-65889181D01*
X95084860Y-65925151D01*
X95174613Y-65962853D01*
X95188853Y-65968822D01*
X95277960Y-66006281D01*
X95362343Y-66041928D01*
X95440883Y-66075282D01*
X95512460Y-66105857D01*
X95575954Y-66133171D01*
X95630247Y-66156742D01*
X95674218Y-66176085D01*
X95706749Y-66190717D01*
X95726719Y-66200155D01*
X95733009Y-66203915D01*
X95732987Y-66203932D01*
X95724565Y-66207846D01*
X95702549Y-66217462D01*
X95668099Y-66232286D01*
X95622379Y-66251825D01*
X95566548Y-66275586D01*
X95501770Y-66303074D01*
X95429205Y-66333796D01*
X95350016Y-66367258D01*
X95265364Y-66402968D01*
X95176411Y-66440430D01*
X95173693Y-66441573D01*
X95085012Y-66478956D01*
X95000794Y-66514574D01*
X94922187Y-66547937D01*
X94850338Y-66578552D01*
X94786393Y-66605927D01*
X94731498Y-66629569D01*
X94686802Y-66648986D01*
X94653451Y-66663686D01*
X94632591Y-66673177D01*
X94625369Y-66676966D01*
X94626320Y-66677505D01*
X94639020Y-66681606D01*
X94665497Y-66689234D01*
X94704460Y-66700044D01*
X94754621Y-66713687D01*
X94814687Y-66729817D01*
X94883368Y-66748087D01*
X94959374Y-66768148D01*
X95041414Y-66789655D01*
X95128199Y-66812259D01*
X95158249Y-66820069D01*
X95243832Y-66842389D01*
X95324390Y-66863513D01*
X95398609Y-66883091D01*
X95465180Y-66900771D01*
X95522788Y-66916202D01*
X95570122Y-66929033D01*
X95605871Y-66938914D01*
X95628721Y-66945494D01*
X95637360Y-66948421D01*
X95638771Y-66953528D01*
X95640366Y-66972557D01*
X95641385Y-67002874D01*
X95641746Y-67041685D01*
X95641368Y-67086200D01*
X95639164Y-67218406D01*
X94745475Y-66983873D01*
X94695228Y-66970685D01*
X94579740Y-66940362D01*
X94468620Y-66911170D01*
X94362880Y-66883375D01*
X94263534Y-66857246D01*
X94171593Y-66833047D01*
X94088071Y-66811047D01*
X94013980Y-66791511D01*
X93950332Y-66774708D01*
X93898140Y-66760902D01*
X93858417Y-66750362D01*
X93832175Y-66743354D01*
X93820426Y-66740145D01*
X93789066Y-66730951D01*
X94401524Y-66475389D01*
X94452284Y-66454207D01*
X94544647Y-66415652D01*
X94632442Y-66378989D01*
X94714534Y-66344695D01*
X94789785Y-66313244D01*
X94857060Y-66285112D01*
X94915222Y-66260774D01*
X94963134Y-66240705D01*
X94999660Y-66225380D01*
X95023664Y-66215275D01*
X95034009Y-66210866D01*
X95054035Y-66201903D01*
X95034009Y-66191618D01*
X95030705Y-66190088D01*
X95013513Y-66182592D01*
X94983236Y-66169621D01*
X94941014Y-66151659D01*
X94887989Y-66129186D01*
X94825300Y-66102685D01*
X94754089Y-66072638D01*
X94675496Y-66039527D01*
X94590662Y-66003834D01*
X94500729Y-65966040D01*
X94406835Y-65926629D01*
X94357116Y-65905755D01*
X94265959Y-65867398D01*
X94179760Y-65831017D01*
X94099610Y-65797078D01*
X94026604Y-65766049D01*
X93961833Y-65738398D01*
X93906391Y-65714590D01*
X93861369Y-65695093D01*
X93827861Y-65680374D01*
X93806960Y-65670900D01*
X93799757Y-65667138D01*
X93803022Y-65665880D01*
X93820237Y-65660768D01*
X93851386Y-65652028D01*
X93895516Y-65639915D01*
X93951673Y-65624683D01*
X94018904Y-65606588D01*
X94096256Y-65585886D01*
X94182774Y-65562830D01*
X94277506Y-65537675D01*
X94379497Y-65510678D01*
X94487795Y-65482092D01*
X94601445Y-65452173D01*
X94719495Y-65421176D01*
X95639164Y-65180000D01*
X95641368Y-65312375D01*
G37*
%TD.AperFunction*%
%TD*%
D12*
%TO.P,U8,9,EXP*%
%TO.N,GND*%
X68550000Y-95700000D03*
X69750000Y-95700000D03*
X70950000Y-95700000D03*
D13*
X69750000Y-95000000D03*
D12*
X68550000Y-94300000D03*
X69750000Y-94300000D03*
X70950000Y-94300000D03*
%TD*%
D14*
%TO.P,J1,1,Pin_1*%
%TO.N,GND*%
X94200000Y-98300000D03*
%TO.P,J1,2,Pin_2*%
%TO.N,Net-(J1-Pin_2)*%
X94200000Y-95760000D03*
%TO.P,J1,3,Pin_3*%
%TO.N,Net-(J1-Pin_3)*%
X94200000Y-93220000D03*
%TO.P,J1,4,Pin_4*%
%TO.N,VDDA*%
X94200000Y-90680000D03*
%TD*%
D15*
%TO.P,J6,1,Pin_1*%
%TO.N,TXD_SO8*%
X75960000Y-84460000D03*
D16*
%TO.P,J6,2,Pin_2*%
%TO.N,TXD_CPU*%
X78500000Y-84460000D03*
%TO.P,J6,3,Pin_3*%
%TO.N,TXD_QFN24*%
X81040000Y-84460000D03*
%TD*%
D17*
%TO.P,J4,1,Pin_1*%
%TO.N,VBUS*%
X94200000Y-78300000D03*
%TO.P,J4,2,Pin_2*%
%TO.N,TXD_CPU*%
X94200000Y-80840000D03*
%TO.P,J4,3,Pin_3*%
%TO.N,RXD_CPU*%
X94200000Y-83380000D03*
%TO.P,J4,4,Pin_4*%
%TO.N,GND*%
X94200000Y-85920000D03*
%TD*%
D18*
%TO.P,J3,1,Pin_1*%
%TO.N,EN*%
X95000000Y-52100000D03*
D19*
%TO.P,J3,2,Pin_2*%
%TO.N,+3.3V*%
X95000000Y-54100000D03*
%TO.P,J3,3,Pin_3*%
%TO.N,Net-(J3-Pin_3)*%
X95000000Y-56100000D03*
%TO.P,J3,4,Pin_4*%
%TO.N,GND*%
X95000000Y-58100000D03*
%TO.P,J3,5,Pin_5*%
%TO.N,Net-(J3-Pin_5)*%
X95000000Y-60100000D03*
%TO.P,J3,6,Pin_6*%
%TO.N,IO0*%
X95000000Y-62100000D03*
%TD*%
D12*
%TO.P,U5,41,EPAD*%
%TO.N,GND*%
X80040000Y-50558000D03*
X80040000Y-52058000D03*
X80790000Y-49808000D03*
X80790000Y-51308000D03*
X80790000Y-52808000D03*
X81540000Y-50558000D03*
X81540000Y-52058000D03*
X82290000Y-49808000D03*
X82290000Y-51308000D03*
X82290000Y-52808000D03*
X83040000Y-50558000D03*
X83040000Y-52058000D03*
%TD*%
%TO.P,U7,25,EXP*%
%TO.N,GND*%
X86200000Y-96050000D03*
X87250000Y-96050000D03*
X88300000Y-96050000D03*
X86200000Y-95000000D03*
X87250000Y-95000000D03*
D20*
X87250000Y-95000000D03*
D12*
X88300000Y-95000000D03*
X86200000Y-93950000D03*
X87250000Y-93950000D03*
X88300000Y-93950000D03*
%TD*%
D21*
%TO.P,J8,1,Pin_1*%
%TO.N,Net-(J8-Pin_1)*%
X91060000Y-102500000D03*
%TO.P,J8,2,Pin_2*%
%TO.N,Net-(J8-Pin_2)*%
X88520000Y-102500000D03*
%TO.P,J8,3,Pin_3*%
%TO.N,Net-(J8-Pin_3)*%
X85980000Y-102500000D03*
%TO.P,J8,4,Pin_4*%
%TO.N,Net-(J8-Pin_4)*%
X83440000Y-102500000D03*
%TD*%
D15*
%TO.P,J7,1,Pin_1*%
%TO.N,RXD_SO8*%
X75960000Y-87000000D03*
D16*
%TO.P,J7,2,Pin_2*%
%TO.N,RXD_CPU*%
X78500000Y-87000000D03*
%TO.P,J7,3,Pin_3*%
%TO.N,RXD_QFN24*%
X81040000Y-87000000D03*
%TD*%
D15*
%TO.P,J2,1,Pin_1*%
%TO.N,VS*%
X77230000Y-78227102D03*
D16*
%TO.P,J2,2,Pin_2*%
%TO.N,VBUS*%
X79770000Y-78227102D03*
%TD*%
D21*
%TO.P,J9,1,Pin_1*%
%TO.N,Net-(J9-Pin_1)*%
X73560000Y-102500000D03*
%TO.P,J9,2,Pin_2*%
%TO.N,Net-(J9-Pin_2)*%
X71020000Y-102500000D03*
%TO.P,J9,3,Pin_3*%
%TO.N,Net-(J9-Pin_3)*%
X68480000Y-102500000D03*
%TO.P,J9,4,Pin_4*%
%TO.N,Net-(J9-Pin_4)*%
X65940000Y-102500000D03*
%TD*%
D22*
%TO.P,J10,1*%
%TO.N,VS*%
X72500000Y-73300000D03*
D23*
%TO.P,J10,2*%
%TO.N,GND*%
X66700000Y-73300000D03*
D24*
%TO.P,J10,3*%
X69500000Y-78100000D03*
%TD*%
D25*
%TO.P,TP11,1,1*%
%TO.N,SLAVE_CUR*%
X73000000Y-49100000D03*
%TD*%
%TO.P,TP9,1,1*%
%TO.N,EN*%
X76000000Y-49100000D03*
%TD*%
D26*
%TO.P,TP14,1,1*%
%TO.N,Net-(D15-K)*%
X67000000Y-93000000D03*
%TD*%
D25*
%TO.P,TP6,1,1*%
%TO.N,/MCM/TCK*%
X88000000Y-58100000D03*
%TD*%
D26*
%TO.P,TP8,1,1*%
%TO.N,Net-(D3-A)*%
X88000000Y-72100000D03*
%TD*%
%TO.P,TP2,1,1*%
%TO.N,GND*%
X70000000Y-49100000D03*
%TD*%
%TO.P,TP10,1,1*%
%TO.N,VS*%
X76000000Y-72100000D03*
%TD*%
%TO.P,TP7,1,1*%
%TO.N,+5V*%
X70000000Y-56100000D03*
%TD*%
D25*
%TO.P,TP4,1,1*%
%TO.N,/MCM/TMS*%
X88000000Y-52100000D03*
%TD*%
D26*
%TO.P,TP1,1,1*%
%TO.N,+3.3V*%
X67000000Y-49100000D03*
%TD*%
%TO.P,TP13,1,1*%
%TO.N,Net-(D14-K)*%
X82000000Y-93000000D03*
%TD*%
D25*
%TO.P,TP3,1,1*%
%TO.N,/MCM/TDI*%
X88000000Y-54100000D03*
%TD*%
%TO.P,TP12,1,1*%
%TO.N,SLAVE_PWR*%
X76000000Y-56100000D03*
%TD*%
%TO.P,TP5,1,1*%
%TO.N,/MCM/TDO*%
X88000000Y-56100000D03*
%TD*%
D27*
%TO.N,GND*%
X90300000Y-97200000D03*
X83400000Y-91700000D03*
X90300000Y-95400000D03*
D28*
X79600000Y-99100000D03*
D27*
X74100000Y-95000000D03*
X87350000Y-82600000D03*
X92100000Y-96300000D03*
D28*
X62000000Y-77500000D03*
D27*
X73000000Y-93900000D03*
X84100000Y-91700000D03*
D28*
X78625000Y-95100000D03*
D27*
X90300000Y-96300000D03*
X88600000Y-89900000D03*
X90400000Y-79125000D03*
D28*
X83750000Y-67500000D03*
X76250000Y-81750000D03*
X62000000Y-92500000D03*
D27*
X89800000Y-99000000D03*
D28*
X62000000Y-67500000D03*
D27*
X90700000Y-99000000D03*
X85700000Y-98000000D03*
D28*
X76000000Y-103000000D03*
D27*
X75200000Y-96100000D03*
X64500000Y-97800000D03*
D28*
X62000000Y-97500000D03*
X77500000Y-66000000D03*
D27*
X64500000Y-96700000D03*
X83400000Y-90300000D03*
D28*
X90250000Y-65500000D03*
D27*
X89400000Y-97200000D03*
X84100000Y-90300000D03*
X90750000Y-82050000D03*
X91925000Y-80875000D03*
X83400000Y-92400000D03*
D28*
X95000000Y-88250000D03*
D27*
X67665600Y-46786800D03*
X92100000Y-91700000D03*
X91200000Y-97200000D03*
X91200000Y-95400000D03*
X72650000Y-52600000D03*
X74100000Y-92800000D03*
X87800000Y-89100000D03*
X89800000Y-98100000D03*
X83400000Y-91000000D03*
X75200000Y-95000000D03*
X65600000Y-97800000D03*
D28*
X62100000Y-101900000D03*
X87250000Y-67500000D03*
X83312000Y-46228000D03*
X95000000Y-76750000D03*
D27*
X88900000Y-98100000D03*
X85200000Y-98900000D03*
X87600000Y-84200000D03*
X73000000Y-95000000D03*
D28*
X81500000Y-70250000D03*
D27*
X75768200Y-78054200D03*
X70993000Y-59664600D03*
X74100000Y-96100000D03*
X66700000Y-95600000D03*
X73000000Y-96100000D03*
X93250000Y-58800000D03*
D28*
X88500000Y-75750000D03*
D27*
X91200000Y-96300000D03*
X84800000Y-90300000D03*
X85500000Y-91000000D03*
D28*
X94650000Y-101800000D03*
D27*
X70100000Y-47525000D03*
X91600000Y-98100000D03*
X91600000Y-99000000D03*
D28*
X93319600Y-61239400D03*
D27*
X75200000Y-93900000D03*
X84800000Y-91000000D03*
X65600000Y-96700000D03*
D28*
X73750000Y-90000000D03*
D27*
X84900000Y-98000000D03*
D28*
X63754000Y-60960000D03*
D27*
X74100000Y-97200000D03*
X93116400Y-55575200D03*
X74100000Y-93900000D03*
D28*
X89154000Y-46228000D03*
D27*
X66700000Y-97800000D03*
D28*
X95000000Y-100000000D03*
X88646000Y-59944000D03*
D27*
X86200000Y-91000000D03*
X85500000Y-90300000D03*
D28*
X95000000Y-64000000D03*
X93000000Y-65500000D03*
X83000000Y-72250000D03*
D27*
X73000000Y-97200000D03*
X92100000Y-97200000D03*
X85100000Y-93000000D03*
X68525000Y-49650000D03*
D28*
X63754000Y-54864000D03*
D27*
X66700000Y-94500000D03*
X84100000Y-91000000D03*
D28*
X76200000Y-46228000D03*
X81000000Y-103000000D03*
D27*
X90700000Y-98100000D03*
X66700000Y-96700000D03*
X73000000Y-92800000D03*
D28*
X62000000Y-72500000D03*
D27*
X71100000Y-53850000D03*
X90000000Y-77250000D03*
X69850000Y-52650000D03*
X89800000Y-91500000D03*
D28*
%TO.N,+5V*%
X82372200Y-74853800D03*
X68122800Y-52374800D03*
%TO.N,+3.3V*%
X66395600Y-52325800D03*
X70866000Y-45466000D03*
D27*
X88315800Y-77851000D03*
D28*
X94335600Y-50698400D03*
D27*
%TO.N,Net-(D3-A)*%
X89100000Y-72800000D03*
%TO.N,SLAVE_CUR*%
X72759487Y-50264408D03*
%TO.N,EN*%
X90040498Y-50698400D03*
X75996800Y-48209200D03*
D28*
%TO.N,VBUS*%
X84074000Y-85902800D03*
D27*
%TO.N,Net-(D14-K)*%
X82150000Y-91475000D03*
%TO.N,Net-(D15-K)*%
X66776600Y-92278200D03*
%TO.N,Net-(D4-K)*%
X71069200Y-52476400D03*
X74066400Y-63830200D03*
%TO.N,LED1*%
X82005000Y-62447000D03*
X94305414Y-46069510D03*
D28*
%TO.N,VS*%
X77455326Y-73613753D03*
X76502600Y-73775902D03*
D27*
%TO.N,LED2*%
X80735000Y-62447000D03*
X92899501Y-46084553D03*
%TO.N,RXD_QFN24*%
X90050000Y-94050000D03*
%TO.N,VDDA*%
X90100000Y-90680000D03*
X83916589Y-94983411D03*
X85025000Y-84650000D03*
X85208533Y-92108533D03*
%TO.N,Net-(J1-Pin_2)*%
X89925500Y-92438000D03*
%TO.N,SLAVE_PWR*%
X79654400Y-66904400D03*
X76760000Y-56460000D03*
%TO.N,TXD_CPU*%
X86374427Y-83800000D03*
X84265569Y-83450704D03*
%TO.N,UART_VSEL*%
X90424000Y-57404000D03*
X85496400Y-75869800D03*
%TO.N,UART_OE*%
X84425000Y-80325000D03*
X76266297Y-54295297D03*
%TO.N,MEAS_VBUS*%
X72804289Y-56583311D03*
X73453100Y-64363600D03*
%TO.N,MEAS_VS*%
X71602600Y-65659000D03*
X72654100Y-57373704D03*
%TO.N,TXD_QFN24*%
X87491589Y-92091589D03*
%TO.N,/MCM/TDI*%
X90164000Y-53600000D03*
%TO.N,/MCM/TMS*%
X90170000Y-52300000D03*
%TO.N,/MCM/TDO*%
X90170000Y-54848000D03*
%TO.N,/MCM/TCK*%
X89914811Y-56779500D03*
%TO.N,TXD_MCM*%
X88750000Y-79200000D03*
X75788290Y-53654427D03*
%TO.N,RXD_MCM*%
X76298004Y-53038476D03*
X85391071Y-79192529D03*
%TD*%
D29*
%TO.N,GND*%
X68300000Y-73300000D02*
X64900000Y-73300000D01*
X72000000Y-78100000D02*
X66900000Y-78100000D01*
X69500000Y-76100000D02*
X69500000Y-79400000D01*
X66700000Y-70700000D02*
X66700000Y-75900000D01*
D30*
%TO.N,+5V*%
X70000000Y-66170000D02*
X72300000Y-68470000D01*
X70000000Y-54252000D02*
X70000000Y-66170000D01*
X82363800Y-74853800D02*
X82372200Y-74853800D01*
X75980000Y-68470000D02*
X82363800Y-74853800D01*
X68122800Y-52374800D02*
X70000000Y-54252000D01*
X72300000Y-68470000D02*
X75980000Y-68470000D01*
D31*
%TO.N,+3.3V*%
X93916400Y-55183600D02*
X93916400Y-56883400D01*
D32*
X71007200Y-45324800D02*
X70866000Y-45466000D01*
X66395600Y-49704400D02*
X67000000Y-49100000D01*
D31*
X93916400Y-56883400D02*
X91871800Y-58928000D01*
D32*
X95504000Y-46278800D02*
X94550000Y-45324800D01*
X66395600Y-52325800D02*
X66395600Y-49704400D01*
D31*
X91871800Y-74295000D02*
X88315800Y-77851000D01*
D32*
X67000000Y-49100000D02*
X67100000Y-49100000D01*
D31*
X95000000Y-54100000D02*
X93916400Y-55183600D01*
D32*
X95504000Y-49530000D02*
X95504000Y-46278800D01*
D31*
X91871800Y-58928000D02*
X91871800Y-74295000D01*
D32*
X94550000Y-45324800D02*
X71007200Y-45324800D01*
X70734000Y-45466000D02*
X70866000Y-45466000D01*
X94335600Y-50698400D02*
X95504000Y-49530000D01*
X67100000Y-49100000D02*
X70734000Y-45466000D01*
D33*
%TO.N,Net-(D3-A)*%
X88400000Y-72100000D02*
X89100000Y-72800000D01*
X88000000Y-72100000D02*
X88400000Y-72100000D01*
%TO.N,SLAVE_CUR*%
X73000000Y-50023895D02*
X73000000Y-49100000D01*
X72759487Y-50264408D02*
X73000000Y-50023895D01*
%TO.N,EN*%
X76000000Y-48212400D02*
X75996800Y-48209200D01*
X92841600Y-52100000D02*
X95000000Y-52100000D01*
X90040498Y-50698400D02*
X91440000Y-50698400D01*
X91440000Y-50698400D02*
X92841600Y-52100000D01*
X76000000Y-49100000D02*
X76000000Y-48212400D01*
D34*
%TO.N,VBUS*%
X92970000Y-78300000D02*
X93700000Y-78300000D01*
D29*
X82975000Y-81639896D02*
X82850000Y-81764896D01*
D34*
X83077448Y-81537448D02*
X89732552Y-81537448D01*
X83077448Y-81537448D02*
X79770000Y-78230000D01*
X89732552Y-81537448D02*
X92970000Y-78300000D01*
X79770000Y-78230000D02*
X79770000Y-78227102D01*
D29*
X82850000Y-81764896D02*
X82850000Y-84678800D01*
D30*
X83077448Y-81537448D02*
X82975000Y-81639896D01*
D29*
X82850000Y-84678800D02*
X84074000Y-85902800D01*
D33*
%TO.N,Net-(D14-K)*%
X82150000Y-91475000D02*
X82150000Y-92850000D01*
X82150000Y-92850000D02*
X82000000Y-93000000D01*
%TO.N,Net-(D15-K)*%
X67000000Y-93000000D02*
X67000000Y-92501600D01*
X67000000Y-92501600D02*
X66776600Y-92278200D01*
D35*
%TO.N,Net-(D4-K)*%
X73653600Y-55063600D02*
X71069200Y-52479200D01*
X71069200Y-52479200D02*
X71069200Y-52476400D01*
X74066400Y-63830200D02*
X73653600Y-63417400D01*
X73653600Y-63417400D02*
X73653600Y-55063600D01*
D33*
%TO.N,LED1*%
X85293200Y-58853196D02*
X82005000Y-62141396D01*
X91694000Y-48209200D02*
X89282396Y-48209200D01*
X82005000Y-62141396D02*
X82005000Y-62447000D01*
X94305414Y-46069510D02*
X93833690Y-46069510D01*
X85293200Y-52198396D02*
X85293200Y-58853196D01*
X93833690Y-46069510D02*
X91694000Y-48209200D01*
X89282396Y-48209200D02*
X85293200Y-52198396D01*
D30*
%TO.N,VS*%
X77455326Y-73613753D02*
X77455326Y-73713753D01*
D34*
X77293177Y-73775902D02*
X72975902Y-73775902D01*
X77216000Y-73853079D02*
X77216000Y-78213102D01*
X77455326Y-73613753D02*
X77216000Y-73853079D01*
X72975902Y-73775902D02*
X72500000Y-73300000D01*
X77455326Y-73613753D02*
X77293177Y-73775902D01*
D36*
X77469079Y-73700000D02*
X77455326Y-73713753D01*
D34*
X77216000Y-78213102D02*
X77230000Y-78227102D01*
D33*
%TO.N,LED2*%
X84843200Y-52012000D02*
X84843200Y-58666800D01*
X92899501Y-46084553D02*
X92899501Y-46367303D01*
X81063000Y-62447000D02*
X80735000Y-62447000D01*
X89096000Y-47759200D02*
X84843200Y-52012000D01*
X91507604Y-47759200D02*
X89096000Y-47759200D01*
X92899501Y-46367303D02*
X91507604Y-47759200D01*
X84843200Y-58666800D02*
X81063000Y-62447000D01*
%TO.N,RXD_QFN24*%
X90050000Y-93486396D02*
X89300000Y-92736396D01*
X85122600Y-87840400D02*
X81880400Y-87840400D01*
X81880400Y-87840400D02*
X81040000Y-87000000D01*
X89300000Y-92017800D02*
X85122600Y-87840400D01*
X89300000Y-92736396D02*
X89300000Y-92017800D01*
X90050000Y-94050000D02*
X90050000Y-93486396D01*
%TO.N,VDDA*%
X85025000Y-84895000D02*
X90100000Y-89970000D01*
X83916589Y-93183411D02*
X83916589Y-94983411D01*
X84991467Y-92108533D02*
X83916589Y-93183411D01*
X90100000Y-89970000D02*
X90100000Y-90680000D01*
X85208533Y-92108533D02*
X84991467Y-92108533D01*
X85025000Y-84650000D02*
X85025000Y-84895000D01*
%TO.N,Net-(J1-Pin_2)*%
X93360000Y-95760000D02*
X93700000Y-95760000D01*
X89925500Y-92438000D02*
X89925500Y-92675500D01*
X92150000Y-94900000D02*
X92500000Y-94900000D01*
X89925500Y-92675500D02*
X92150000Y-94900000D01*
X92500000Y-94900000D02*
X93360000Y-95760000D01*
%TO.N,SLAVE_PWR*%
X76760000Y-56460000D02*
X76760000Y-56850000D01*
X76760000Y-56460000D02*
X76400000Y-56100000D01*
X79654400Y-66251457D02*
X79654400Y-66904400D01*
X76400000Y-56100000D02*
X76000000Y-56100000D01*
X77547200Y-64144257D02*
X79654400Y-66251457D01*
X76760000Y-56850000D02*
X77547200Y-57637200D01*
X77547200Y-57637200D02*
X77547200Y-64144257D01*
%TO.N,TXD_CPU*%
X93030000Y-80840000D02*
X93700000Y-80840000D01*
X86374427Y-83450573D02*
X86375000Y-83450000D01*
X84300000Y-83450000D02*
X86375000Y-83450000D01*
X90420000Y-83450000D02*
X93030000Y-80840000D01*
X86375000Y-83450000D02*
X90420000Y-83450000D01*
X86374427Y-83800000D02*
X86374427Y-83450573D01*
%TO.N,UART_VSEL*%
X90424000Y-57404000D02*
X89906695Y-57404000D01*
X85221400Y-62089295D02*
X85221400Y-75594800D01*
X85221400Y-75594800D02*
X85496400Y-75869800D01*
X89906695Y-57404000D02*
X85221400Y-62089295D01*
D37*
%TO.N,UART_OE*%
X84021400Y-71305584D02*
X81150000Y-68434184D01*
X81150000Y-67153087D02*
X77967200Y-63970287D01*
X77967200Y-55996200D02*
X76266297Y-54295297D01*
X81150000Y-68434184D02*
X81150000Y-67153087D01*
X77967200Y-63970287D02*
X77967200Y-55996200D01*
X84425000Y-80325000D02*
X84021400Y-79921400D01*
X84021400Y-79921400D02*
X84021400Y-71305584D01*
D35*
%TO.N,MEAS_VBUS*%
X72940911Y-56583311D02*
X72804289Y-56583311D01*
X73253600Y-56896000D02*
X72940911Y-56583311D01*
X73453100Y-64363600D02*
X73253600Y-64164100D01*
X73253600Y-64164100D02*
X73253600Y-56896000D01*
%TO.N,MEAS_VS*%
X72694800Y-57414404D02*
X72853600Y-57573204D01*
D33*
X72694800Y-57414404D02*
X72654100Y-57373704D01*
D35*
X72853600Y-57573204D02*
X72853600Y-64408000D01*
X72853600Y-64408000D02*
X71602600Y-65659000D01*
D33*
%TO.N,TXD_QFN24*%
X84928295Y-88290400D02*
X80594200Y-88290400D01*
X79781400Y-85718600D02*
X81040000Y-84460000D01*
X79781400Y-87477600D02*
X79781400Y-85718600D01*
X87491589Y-90853694D02*
X84928295Y-88290400D01*
X80594200Y-88290400D02*
X79781400Y-87477600D01*
X87491589Y-92091589D02*
X87491589Y-90853694D01*
%TO.N,/MCM/TDI*%
X88500000Y-53600000D02*
X88000000Y-54100000D01*
X90164000Y-53600000D02*
X88500000Y-53600000D01*
%TO.N,/MCM/TMS*%
X90146000Y-52324000D02*
X88224000Y-52324000D01*
X88224000Y-52324000D02*
X88000000Y-52100000D01*
X90170000Y-52300000D02*
X90146000Y-52324000D01*
%TO.N,/MCM/TDO*%
X89474800Y-54848000D02*
X88222800Y-56100000D01*
X88222800Y-56100000D02*
X88000000Y-56100000D01*
X90170000Y-54848000D02*
X89474800Y-54848000D01*
%TO.N,/MCM/TCK*%
X89894799Y-56779500D02*
X88574299Y-58100000D01*
X88574299Y-58100000D02*
X88000000Y-58100000D01*
X89914811Y-56779500D02*
X89894799Y-56779500D01*
D37*
%TO.N,TXD_MCM*%
X76051546Y-52443476D02*
X75703004Y-52792018D01*
X84801400Y-77761400D02*
X84801400Y-70982496D01*
X75703004Y-53569141D02*
X75788290Y-53654427D01*
X76911200Y-52810214D02*
X76544462Y-52443476D01*
X78747200Y-61787257D02*
X78747200Y-55673112D01*
X77251297Y-54177209D02*
X77251297Y-53887295D01*
X77251297Y-53887295D02*
X76911200Y-53547198D01*
X88750000Y-79200000D02*
X86240000Y-79200000D01*
X76544462Y-52443476D02*
X76051546Y-52443476D01*
X75703004Y-52792018D02*
X75703004Y-53569141D01*
X78747200Y-55673112D02*
X77251297Y-54177209D01*
X84801400Y-70982496D02*
X81930000Y-68111096D01*
X81930000Y-68111096D02*
X81930000Y-66830001D01*
X78749000Y-63649000D02*
X78749000Y-61789057D01*
X81930000Y-66830001D02*
X78749000Y-63649000D01*
X78749000Y-61789057D02*
X78747200Y-61787257D01*
X86240000Y-79200000D02*
X84801400Y-77761400D01*
X76911200Y-53547198D02*
X76911200Y-52810214D01*
%TO.N,RXD_MCM*%
X76861297Y-54048839D02*
X76383290Y-53570832D01*
X76861297Y-54338753D02*
X76861297Y-54048839D01*
X78357200Y-63808744D02*
X78357200Y-55834656D01*
X81540000Y-68272640D02*
X81540000Y-66991544D01*
X78357200Y-55834656D02*
X76861297Y-54338753D01*
X85391071Y-78931071D02*
X84411400Y-77951400D01*
X84411400Y-71144040D02*
X81540000Y-68272640D01*
X85391071Y-79192529D02*
X85391071Y-78931071D01*
X76383290Y-53570832D02*
X76383290Y-53123762D01*
X81540000Y-66991544D02*
X78357200Y-63808744D01*
X76383290Y-53123762D02*
X76298004Y-53038476D01*
X84411400Y-77951400D02*
X84411400Y-71144040D01*
%TD*%
%TA.AperFunction,Conductor*%
%TO.N,GND*%
G36*
X83947000Y-53975000D02*
G01*
X78613000Y-53975000D01*
X78613000Y-48641000D01*
X83947000Y-48641000D01*
X83947000Y-53975000D01*
G37*
%TD.AperFunction*%
%TD*%
%TA.AperFunction,Conductor*%
%TO.N,GND*%
G36*
X95709191Y-44568907D02*
G01*
X95745155Y-44618407D01*
X95750000Y-44649000D01*
X95750000Y-45648689D01*
X95731093Y-45706880D01*
X95681593Y-45742844D01*
X95620407Y-45742844D01*
X95580996Y-45718693D01*
X94890366Y-45028063D01*
X94882978Y-45019795D01*
X94859879Y-44990830D01*
X94812258Y-44958362D01*
X94809241Y-44956221D01*
X94762881Y-44922006D01*
X94756322Y-44918540D01*
X94756526Y-44918152D01*
X94754544Y-44917152D01*
X94754355Y-44917546D01*
X94747670Y-44914326D01*
X94692596Y-44897338D01*
X94689082Y-44896182D01*
X94634702Y-44877155D01*
X94634701Y-44877154D01*
X94634699Y-44877154D01*
X94634696Y-44877153D01*
X94627414Y-44875776D01*
X94627495Y-44875344D01*
X94625302Y-44874971D01*
X94625237Y-44875405D01*
X94617903Y-44874300D01*
X94617902Y-44874300D01*
X94560284Y-44874300D01*
X94556583Y-44874231D01*
X94521198Y-44872907D01*
X94498990Y-44872076D01*
X94498989Y-44872076D01*
X94491615Y-44872907D01*
X94491565Y-44872468D01*
X94477656Y-44874300D01*
X71162770Y-44874300D01*
X71116763Y-44862960D01*
X71098365Y-44853304D01*
X71098364Y-44853303D01*
X71098363Y-44853303D01*
X70944987Y-44815500D01*
X70944985Y-44815500D01*
X70787015Y-44815500D01*
X70787012Y-44815500D01*
X70633635Y-44853303D01*
X70493758Y-44926718D01*
X70375515Y-45031471D01*
X70285780Y-45161476D01*
X70229762Y-45309184D01*
X70228532Y-45314175D01*
X70202414Y-45360480D01*
X67432043Y-48130852D01*
X67377526Y-48158629D01*
X67333301Y-48155585D01*
X67196132Y-48113975D01*
X67196126Y-48113974D01*
X67000003Y-48094659D01*
X66999997Y-48094659D01*
X66803873Y-48113974D01*
X66803870Y-48113975D01*
X66615269Y-48171187D01*
X66615267Y-48171188D01*
X66441467Y-48264087D01*
X66441457Y-48264093D01*
X66289121Y-48389112D01*
X66289112Y-48389121D01*
X66164093Y-48541457D01*
X66164087Y-48541467D01*
X66071188Y-48715267D01*
X66071187Y-48715269D01*
X66013975Y-48903870D01*
X66013974Y-48903873D01*
X65994659Y-49099996D01*
X65994659Y-49100003D01*
X66013974Y-49296126D01*
X66013975Y-49296132D01*
X66035390Y-49366727D01*
X66034189Y-49427901D01*
X66020309Y-49454252D01*
X65992807Y-49491516D01*
X65989342Y-49498074D01*
X65988953Y-49497868D01*
X65987950Y-49499855D01*
X65988346Y-49500046D01*
X65985126Y-49506732D01*
X65968136Y-49561810D01*
X65966980Y-49565323D01*
X65947955Y-49619695D01*
X65946576Y-49626987D01*
X65946144Y-49626905D01*
X65945771Y-49629100D01*
X65946205Y-49629166D01*
X65945100Y-49636499D01*
X65945100Y-49694115D01*
X65945031Y-49697816D01*
X65942876Y-49755410D01*
X65943707Y-49762785D01*
X65943268Y-49762834D01*
X65945100Y-49776744D01*
X65945100Y-51811292D01*
X65926193Y-51869483D01*
X65911751Y-51885392D01*
X65909256Y-51887603D01*
X65905115Y-51891271D01*
X65815380Y-52021276D01*
X65759363Y-52168982D01*
X65759362Y-52168983D01*
X65740322Y-52325798D01*
X65740322Y-52325801D01*
X65759362Y-52482616D01*
X65759363Y-52482618D01*
X65801545Y-52593843D01*
X65815380Y-52630323D01*
X65905115Y-52760328D01*
X65905116Y-52760329D01*
X65905117Y-52760330D01*
X66023360Y-52865083D01*
X66163235Y-52938496D01*
X66316615Y-52976300D01*
X66316618Y-52976300D01*
X66474582Y-52976300D01*
X66474585Y-52976300D01*
X66627965Y-52938496D01*
X66767840Y-52865083D01*
X66886083Y-52760330D01*
X66975820Y-52630323D01*
X67031837Y-52482618D01*
X67044928Y-52374801D01*
X67467522Y-52374801D01*
X67486562Y-52531616D01*
X67486563Y-52531618D01*
X67523094Y-52627943D01*
X67542580Y-52679323D01*
X67632315Y-52809328D01*
X67632316Y-52809329D01*
X67632317Y-52809330D01*
X67750560Y-52914083D01*
X67890435Y-52987496D01*
X68043815Y-53025300D01*
X68043816Y-53025300D01*
X68045776Y-53025783D01*
X68092088Y-53051902D01*
X69470504Y-54430318D01*
X69498281Y-54484835D01*
X69499500Y-54500322D01*
X69499500Y-55173730D01*
X69480593Y-55231921D01*
X69447168Y-55261040D01*
X69441467Y-55264087D01*
X69441457Y-55264093D01*
X69289121Y-55389112D01*
X69289112Y-55389121D01*
X69164093Y-55541457D01*
X69164087Y-55541467D01*
X69071188Y-55715267D01*
X69071187Y-55715269D01*
X69013975Y-55903870D01*
X69013974Y-55903873D01*
X68994659Y-56099996D01*
X68994659Y-56100003D01*
X69013974Y-56296126D01*
X69013975Y-56296129D01*
X69013976Y-56296132D01*
X69069299Y-56478508D01*
X69071187Y-56484730D01*
X69071188Y-56484732D01*
X69080353Y-56501878D01*
X69164090Y-56658538D01*
X69164092Y-56658540D01*
X69164093Y-56658542D01*
X69289112Y-56810878D01*
X69289121Y-56810887D01*
X69441458Y-56935907D01*
X69441462Y-56935910D01*
X69447165Y-56938958D01*
X69489574Y-56983062D01*
X69499500Y-57026270D01*
X69499500Y-66105542D01*
X69497238Y-66126585D01*
X69495641Y-66133927D01*
X69498066Y-66167824D01*
X69499248Y-66184355D01*
X69499500Y-66191418D01*
X69499500Y-66205799D01*
X69501547Y-66220040D01*
X69502302Y-66227062D01*
X69505908Y-66277483D01*
X69508533Y-66284520D01*
X69513764Y-66305014D01*
X69514834Y-66312454D01*
X69514835Y-66312457D01*
X69535835Y-66358441D01*
X69538539Y-66364970D01*
X69556202Y-66412327D01*
X69556203Y-66412328D01*
X69556204Y-66412331D01*
X69559918Y-66417293D01*
X69560708Y-66418348D01*
X69571501Y-66436538D01*
X69574623Y-66443373D01*
X69607736Y-66481588D01*
X69612140Y-66487052D01*
X69620779Y-66498593D01*
X69620781Y-66498595D01*
X69630962Y-66508777D01*
X69635764Y-66513934D01*
X69668872Y-66552143D01*
X69668873Y-66552144D01*
X69675183Y-66556199D01*
X69691666Y-66569480D01*
X71900518Y-68778332D01*
X71913796Y-68794810D01*
X71917856Y-68801127D01*
X71917857Y-68801128D01*
X71956058Y-68834229D01*
X71961217Y-68839031D01*
X71971407Y-68849221D01*
X71971410Y-68849223D01*
X71982930Y-68857847D01*
X71988432Y-68862281D01*
X72026624Y-68895375D01*
X72026625Y-68895375D01*
X72026627Y-68895377D01*
X72033454Y-68898495D01*
X72051651Y-68909291D01*
X72056131Y-68912644D01*
X72057670Y-68913797D01*
X72105029Y-68931460D01*
X72111560Y-68934165D01*
X72157543Y-68955165D01*
X72164978Y-68956233D01*
X72185484Y-68961468D01*
X72187032Y-68962045D01*
X72192517Y-68964091D01*
X72192515Y-68964091D01*
X72199962Y-68964623D01*
X72242957Y-68967698D01*
X72249953Y-68968451D01*
X72264201Y-68970500D01*
X72278581Y-68970500D01*
X72285644Y-68970752D01*
X72336073Y-68974359D01*
X72342470Y-68972967D01*
X72343410Y-68972763D01*
X72364456Y-68970500D01*
X75731678Y-68970500D01*
X75789869Y-68989407D01*
X75801682Y-68999496D01*
X81701187Y-74899001D01*
X81728964Y-74953518D01*
X81729461Y-74957071D01*
X81735963Y-75010618D01*
X81766544Y-75091254D01*
X81791980Y-75158323D01*
X81881715Y-75288328D01*
X81881716Y-75288329D01*
X81881717Y-75288330D01*
X81999960Y-75393083D01*
X82139835Y-75466496D01*
X82293215Y-75504300D01*
X82293218Y-75504300D01*
X82451182Y-75504300D01*
X82451185Y-75504300D01*
X82604565Y-75466496D01*
X82744440Y-75393083D01*
X82862683Y-75288330D01*
X82952420Y-75158323D01*
X83008437Y-75010618D01*
X83027478Y-74853800D01*
X83025237Y-74835347D01*
X83012915Y-74733864D01*
X83008437Y-74696982D01*
X82952420Y-74549277D01*
X82887678Y-74455482D01*
X82862684Y-74419271D01*
X82838426Y-74397780D01*
X82744440Y-74314517D01*
X82659884Y-74270138D01*
X82604564Y-74241103D01*
X82451188Y-74203300D01*
X82450869Y-74203262D01*
X82450686Y-74203177D01*
X82445371Y-74201867D01*
X82445627Y-74200826D01*
X82395382Y-74177476D01*
X82392802Y-74174988D01*
X76379480Y-68161666D01*
X76366199Y-68145183D01*
X76362144Y-68138873D01*
X76362143Y-68138872D01*
X76323934Y-68105764D01*
X76318777Y-68100962D01*
X76308595Y-68090781D01*
X76308593Y-68090779D01*
X76297052Y-68082140D01*
X76291588Y-68077736D01*
X76253373Y-68044623D01*
X76246538Y-68041501D01*
X76228348Y-68030708D01*
X76227293Y-68029918D01*
X76222331Y-68026204D01*
X76222328Y-68026203D01*
X76222327Y-68026202D01*
X76174970Y-68008539D01*
X76168441Y-68005835D01*
X76122457Y-67984835D01*
X76122454Y-67984834D01*
X76115014Y-67983764D01*
X76094520Y-67978533D01*
X76087482Y-67975908D01*
X76087483Y-67975908D01*
X76037062Y-67972302D01*
X76030040Y-67971547D01*
X76015799Y-67969500D01*
X76001419Y-67969500D01*
X75994356Y-67969248D01*
X75990455Y-67968969D01*
X75943927Y-67965641D01*
X75943926Y-67965641D01*
X75943925Y-67965641D01*
X75936590Y-67967237D01*
X75915544Y-67969500D01*
X72548322Y-67969500D01*
X72490131Y-67950593D01*
X72478318Y-67940504D01*
X70529496Y-65991682D01*
X70501719Y-65937165D01*
X70500500Y-65921678D01*
X70500500Y-57026270D01*
X70519407Y-56968079D01*
X70552835Y-56938958D01*
X70558538Y-56935910D01*
X70710883Y-56810883D01*
X70835910Y-56658538D01*
X70928814Y-56484727D01*
X70986024Y-56296132D01*
X70988789Y-56268065D01*
X71005341Y-56100003D01*
X71005341Y-56099996D01*
X70986025Y-55903873D01*
X70986024Y-55903870D01*
X70986024Y-55903868D01*
X70928814Y-55715273D01*
X70835910Y-55541462D01*
X70834508Y-55539754D01*
X70710887Y-55389121D01*
X70710878Y-55389112D01*
X70558542Y-55264093D01*
X70558540Y-55264092D01*
X70558538Y-55264090D01*
X70552832Y-55261040D01*
X70510425Y-55216934D01*
X70500500Y-55173730D01*
X70500500Y-54316456D01*
X70502763Y-54295408D01*
X70502914Y-54294714D01*
X70504359Y-54288073D01*
X70500752Y-54237643D01*
X70500500Y-54230580D01*
X70500500Y-54216201D01*
X70500326Y-54214990D01*
X70498451Y-54201953D01*
X70497698Y-54194957D01*
X70494091Y-54144517D01*
X70491468Y-54137484D01*
X70486233Y-54116975D01*
X70485165Y-54109543D01*
X70464165Y-54063560D01*
X70461460Y-54057029D01*
X70443797Y-54009670D01*
X70442644Y-54008131D01*
X70439291Y-54003651D01*
X70428495Y-53985454D01*
X70425377Y-53978627D01*
X70425375Y-53978625D01*
X70425375Y-53978624D01*
X70392281Y-53940432D01*
X70387847Y-53934930D01*
X70379223Y-53923410D01*
X70379221Y-53923407D01*
X70369031Y-53913217D01*
X70364229Y-53908058D01*
X70331128Y-53869857D01*
X70331127Y-53869856D01*
X70324810Y-53865796D01*
X70308332Y-53852518D01*
X68932214Y-52476400D01*
X70513950Y-52476400D01*
X70532869Y-52620108D01*
X70532870Y-52620109D01*
X70588060Y-52753353D01*
X70588339Y-52754025D01*
X70676579Y-52869021D01*
X70791575Y-52957261D01*
X70925491Y-53012730D01*
X71069200Y-53031650D01*
X71070952Y-53031419D01*
X71072198Y-53031650D01*
X71075690Y-53031650D01*
X71075690Y-53032296D01*
X71131113Y-53042565D01*
X71153885Y-53059567D01*
X73274104Y-55179786D01*
X73301881Y-55234303D01*
X73303100Y-55249790D01*
X73303100Y-56071419D01*
X73284193Y-56129610D01*
X73234693Y-56165574D01*
X73173507Y-56165574D01*
X73143833Y-56149961D01*
X73081919Y-56102453D01*
X73081910Y-56102448D01*
X72947998Y-56046981D01*
X72947997Y-56046980D01*
X72804289Y-56028061D01*
X72660580Y-56046980D01*
X72660579Y-56046981D01*
X72526667Y-56102448D01*
X72526663Y-56102450D01*
X72411670Y-56190688D01*
X72411666Y-56190692D01*
X72323428Y-56305685D01*
X72323426Y-56305689D01*
X72267959Y-56439601D01*
X72267958Y-56439602D01*
X72249039Y-56583310D01*
X72249039Y-56583311D01*
X72267958Y-56727019D01*
X72267959Y-56727020D01*
X72317180Y-56845852D01*
X72321980Y-56906849D01*
X72290011Y-56959018D01*
X72285986Y-56962277D01*
X72261482Y-56981080D01*
X72261477Y-56981085D01*
X72173239Y-57096078D01*
X72173237Y-57096082D01*
X72117770Y-57229994D01*
X72117769Y-57229995D01*
X72098850Y-57373703D01*
X72098850Y-57373704D01*
X72117769Y-57517412D01*
X72117770Y-57517413D01*
X72164035Y-57629110D01*
X72173239Y-57651329D01*
X72261479Y-57766325D01*
X72376475Y-57854565D01*
X72441986Y-57881700D01*
X72488511Y-57921434D01*
X72503100Y-57973163D01*
X72503100Y-64221809D01*
X72484193Y-64280000D01*
X72474104Y-64291813D01*
X71689758Y-65076158D01*
X71635241Y-65103935D01*
X71606833Y-65104307D01*
X71602602Y-65103750D01*
X71602600Y-65103750D01*
X71458891Y-65122669D01*
X71458890Y-65122670D01*
X71324978Y-65178137D01*
X71324974Y-65178139D01*
X71209981Y-65266377D01*
X71209977Y-65266381D01*
X71121739Y-65381374D01*
X71121737Y-65381378D01*
X71066270Y-65515290D01*
X71066269Y-65515291D01*
X71047350Y-65658999D01*
X71047350Y-65659000D01*
X71066269Y-65802708D01*
X71066270Y-65802709D01*
X71116857Y-65924840D01*
X71121739Y-65936625D01*
X71209979Y-66051621D01*
X71324975Y-66139861D01*
X71458891Y-66195330D01*
X71602600Y-66214250D01*
X71746309Y-66195330D01*
X71880225Y-66139861D01*
X71995221Y-66051621D01*
X72083461Y-65936625D01*
X72138930Y-65802709D01*
X72157850Y-65659000D01*
X72157293Y-65654770D01*
X72168439Y-65594610D01*
X72185438Y-65571842D01*
X72965468Y-64791812D01*
X73019983Y-64764037D01*
X73080415Y-64773608D01*
X73095735Y-64783274D01*
X73175475Y-64844461D01*
X73309391Y-64899930D01*
X73453100Y-64918850D01*
X73596809Y-64899930D01*
X73730725Y-64844461D01*
X73845721Y-64756221D01*
X73933961Y-64641225D01*
X73989430Y-64507309D01*
X73994482Y-64468928D01*
X74020822Y-64413704D01*
X74074592Y-64384508D01*
X74079702Y-64383698D01*
X74210109Y-64366530D01*
X74344025Y-64311061D01*
X74459021Y-64222821D01*
X74547261Y-64107825D01*
X74602730Y-63973909D01*
X74621650Y-63830200D01*
X74621384Y-63828183D01*
X74602730Y-63686491D01*
X74547261Y-63552575D01*
X74459021Y-63437579D01*
X74344025Y-63349339D01*
X74344021Y-63349337D01*
X74210109Y-63293870D01*
X74090177Y-63278080D01*
X74034952Y-63251739D01*
X74005758Y-63197968D01*
X74004100Y-63179927D01*
X74004100Y-55110219D01*
X74006207Y-55089903D01*
X74006225Y-55089815D01*
X74008643Y-55078286D01*
X74004860Y-55047937D01*
X74004100Y-55035693D01*
X74004100Y-55034556D01*
X74000850Y-55015090D01*
X74000262Y-55011058D01*
X73994173Y-54962208D01*
X73994171Y-54962205D01*
X73992076Y-54955166D01*
X73989692Y-54948222D01*
X73989692Y-54948219D01*
X73966805Y-54905927D01*
X73966283Y-54904963D01*
X73964410Y-54901323D01*
X73942800Y-54857118D01*
X73938551Y-54851167D01*
X73934019Y-54845343D01*
X73924210Y-54836313D01*
X73897821Y-54812020D01*
X73894894Y-54809212D01*
X71651715Y-52566033D01*
X71623938Y-52511516D01*
X71623567Y-52483106D01*
X71624450Y-52476400D01*
X71605530Y-52332691D01*
X71550061Y-52198775D01*
X71461821Y-52083779D01*
X71346825Y-51995539D01*
X71346821Y-51995537D01*
X71212909Y-51940070D01*
X71212908Y-51940069D01*
X71069200Y-51921150D01*
X70925491Y-51940069D01*
X70925490Y-51940070D01*
X70791578Y-51995537D01*
X70791574Y-51995539D01*
X70676581Y-52083777D01*
X70676577Y-52083781D01*
X70588339Y-52198774D01*
X70588337Y-52198778D01*
X70532870Y-52332690D01*
X70532869Y-52332691D01*
X70513950Y-52476399D01*
X70513950Y-52476400D01*
X68932214Y-52476400D01*
X68794973Y-52339159D01*
X68767196Y-52284642D01*
X68766699Y-52281088D01*
X68763515Y-52254866D01*
X68759037Y-52217982D01*
X68703020Y-52070277D01*
X68618964Y-51948500D01*
X68613284Y-51940271D01*
X68576159Y-51907381D01*
X68495040Y-51835517D01*
X68403543Y-51787495D01*
X68355164Y-51762103D01*
X68201787Y-51724300D01*
X68201785Y-51724300D01*
X68043815Y-51724300D01*
X68043812Y-51724300D01*
X67890435Y-51762103D01*
X67750558Y-51835518D01*
X67632315Y-51940271D01*
X67542580Y-52070276D01*
X67486563Y-52217982D01*
X67486562Y-52217983D01*
X67467522Y-52374798D01*
X67467522Y-52374801D01*
X67044928Y-52374801D01*
X67049399Y-52337981D01*
X67050878Y-52325801D01*
X67050878Y-52325798D01*
X67031837Y-52168983D01*
X67031837Y-52168982D01*
X66975820Y-52021277D01*
X66900242Y-51911783D01*
X66886084Y-51891271D01*
X66886083Y-51891270D01*
X66879450Y-51885394D01*
X66848432Y-51832655D01*
X66846100Y-51811292D01*
X66846100Y-50264408D01*
X72204237Y-50264408D01*
X72223156Y-50408116D01*
X72223157Y-50408117D01*
X72278439Y-50541583D01*
X72278626Y-50542033D01*
X72366866Y-50657029D01*
X72481862Y-50745269D01*
X72615778Y-50800738D01*
X72759487Y-50819658D01*
X72903196Y-50800738D01*
X73037112Y-50745269D01*
X73152108Y-50657029D01*
X73240348Y-50542033D01*
X73295817Y-50408117D01*
X73314737Y-50264408D01*
X73314736Y-50264407D01*
X73315584Y-50257974D01*
X73316917Y-50258149D01*
X73331677Y-50212719D01*
X73330904Y-50212301D01*
X73333180Y-50208093D01*
X73333644Y-50206668D01*
X73334741Y-50205209D01*
X73338542Y-50198184D01*
X73342006Y-50191098D01*
X73342010Y-50191094D01*
X73357093Y-50140426D01*
X73358325Y-50136582D01*
X73375500Y-50086555D01*
X73375500Y-50086550D01*
X73376790Y-50078821D01*
X73377765Y-50070990D01*
X73377768Y-50070983D01*
X73375585Y-50018194D01*
X73375500Y-50014103D01*
X73375500Y-49805129D01*
X73394407Y-49746938D01*
X73421830Y-49721303D01*
X73443002Y-49708000D01*
X73470890Y-49690477D01*
X73590477Y-49570890D01*
X73680456Y-49427690D01*
X73736313Y-49268059D01*
X73755249Y-49100004D01*
X75244751Y-49100004D01*
X75263685Y-49268053D01*
X75263688Y-49268065D01*
X75319544Y-49427690D01*
X75319544Y-49427691D01*
X75406025Y-49565323D01*
X75409523Y-49570890D01*
X75529110Y-49690477D01*
X75529112Y-49690478D01*
X75529113Y-49690479D01*
X75632449Y-49755410D01*
X75672310Y-49780456D01*
X75681144Y-49783547D01*
X75831934Y-49836311D01*
X75831938Y-49836312D01*
X75831941Y-49836313D01*
X75831942Y-49836313D01*
X75831946Y-49836314D01*
X75999996Y-49855249D01*
X76000000Y-49855249D01*
X76000004Y-49855249D01*
X76168053Y-49836314D01*
X76168055Y-49836313D01*
X76168059Y-49836313D01*
X76327690Y-49780456D01*
X76470890Y-49690477D01*
X76590477Y-49570890D01*
X76680456Y-49427690D01*
X76736313Y-49268059D01*
X76755249Y-49100000D01*
X76755249Y-49099996D01*
X76755249Y-49099995D01*
X76736314Y-48931946D01*
X76736311Y-48931934D01*
X76698089Y-48822702D01*
X76680456Y-48772310D01*
X76644613Y-48715267D01*
X76597948Y-48641000D01*
X78613000Y-48641000D01*
X78613000Y-53975000D01*
X83947000Y-53975000D01*
X83947000Y-48641000D01*
X78613000Y-48641000D01*
X76597948Y-48641000D01*
X76590479Y-48629113D01*
X76590478Y-48629112D01*
X76590477Y-48629110D01*
X76515801Y-48554434D01*
X76488026Y-48499920D01*
X76494342Y-48446551D01*
X76533130Y-48352909D01*
X76552050Y-48209200D01*
X76547365Y-48173618D01*
X76533130Y-48065491D01*
X76477661Y-47931575D01*
X76389421Y-47816579D01*
X76274425Y-47728339D01*
X76274421Y-47728337D01*
X76140509Y-47672870D01*
X76140508Y-47672869D01*
X75996800Y-47653950D01*
X75853091Y-47672869D01*
X75853090Y-47672870D01*
X75719178Y-47728337D01*
X75719174Y-47728339D01*
X75604181Y-47816577D01*
X75604177Y-47816581D01*
X75515939Y-47931574D01*
X75515937Y-47931578D01*
X75460470Y-48065490D01*
X75460469Y-48065491D01*
X75441550Y-48209199D01*
X75441550Y-48209200D01*
X75460469Y-48352908D01*
X75460470Y-48352909D01*
X75501130Y-48451073D01*
X75505930Y-48512070D01*
X75479671Y-48558961D01*
X75409520Y-48629112D01*
X75409520Y-48629113D01*
X75319544Y-48772308D01*
X75319544Y-48772309D01*
X75263688Y-48931934D01*
X75263685Y-48931946D01*
X75244751Y-49099995D01*
X75244751Y-49100004D01*
X73755249Y-49100004D01*
X73755249Y-49100000D01*
X73755249Y-49099996D01*
X73755249Y-49099995D01*
X73736314Y-48931946D01*
X73736311Y-48931934D01*
X73698089Y-48822702D01*
X73680456Y-48772310D01*
X73644613Y-48715267D01*
X73590479Y-48629113D01*
X73590478Y-48629112D01*
X73590477Y-48629110D01*
X73470890Y-48509523D01*
X73470887Y-48509521D01*
X73470886Y-48509520D01*
X73327691Y-48419544D01*
X73168065Y-48363688D01*
X73168053Y-48363685D01*
X73000004Y-48344751D01*
X72999996Y-48344751D01*
X72831946Y-48363685D01*
X72831934Y-48363688D01*
X72672309Y-48419544D01*
X72672308Y-48419544D01*
X72529113Y-48509520D01*
X72409520Y-48629113D01*
X72319544Y-48772308D01*
X72319544Y-48772309D01*
X72263688Y-48931934D01*
X72263685Y-48931946D01*
X72244751Y-49099995D01*
X72244751Y-49100004D01*
X72263685Y-49268053D01*
X72263688Y-49268065D01*
X72319544Y-49427690D01*
X72319544Y-49427691D01*
X72406025Y-49565323D01*
X72409523Y-49570890D01*
X72481435Y-49642802D01*
X72509211Y-49697317D01*
X72499640Y-49757749D01*
X72471698Y-49791346D01*
X72366868Y-49871785D01*
X72366864Y-49871789D01*
X72278626Y-49986782D01*
X72278624Y-49986786D01*
X72223157Y-50120698D01*
X72223156Y-50120699D01*
X72204237Y-50264407D01*
X72204237Y-50264408D01*
X66846100Y-50264408D01*
X66846100Y-50199412D01*
X66865007Y-50141221D01*
X66914507Y-50105257D01*
X66954801Y-50100889D01*
X66993890Y-50104739D01*
X66999999Y-50105341D01*
X67000000Y-50105341D01*
X67000003Y-50105341D01*
X67196126Y-50086025D01*
X67196127Y-50086024D01*
X67196132Y-50086024D01*
X67384727Y-50028814D01*
X67547754Y-49941674D01*
X69370457Y-49941674D01*
X69413828Y-49977268D01*
X69413834Y-49977272D01*
X69596232Y-50074765D01*
X69596237Y-50074767D01*
X69794163Y-50134808D01*
X69794169Y-50134809D01*
X69999996Y-50155081D01*
X70000004Y-50155081D01*
X70205830Y-50134809D01*
X70205836Y-50134808D01*
X70403762Y-50074767D01*
X70403767Y-50074765D01*
X70586166Y-49977270D01*
X70586177Y-49977263D01*
X70629541Y-49941674D01*
X69999999Y-49312132D01*
X69370457Y-49941674D01*
X67547754Y-49941674D01*
X67558538Y-49935910D01*
X67710883Y-49810883D01*
X67835910Y-49658538D01*
X67928814Y-49484727D01*
X67986024Y-49296132D01*
X67988386Y-49272157D01*
X68005341Y-49100004D01*
X68944919Y-49100004D01*
X68965190Y-49305830D01*
X68965191Y-49305836D01*
X69025232Y-49503762D01*
X69025234Y-49503767D01*
X69122724Y-49686160D01*
X69122731Y-49686170D01*
X69158324Y-49729541D01*
X69787866Y-49099999D01*
X70212132Y-49099999D01*
X70841674Y-49729541D01*
X70877263Y-49686177D01*
X70877270Y-49686166D01*
X70974765Y-49503767D01*
X70974767Y-49503762D01*
X71034808Y-49305836D01*
X71034809Y-49305830D01*
X71055081Y-49100004D01*
X71055081Y-49099995D01*
X71034809Y-48894169D01*
X71034808Y-48894163D01*
X70974767Y-48696237D01*
X70974765Y-48696232D01*
X70877272Y-48513834D01*
X70877268Y-48513828D01*
X70841674Y-48470457D01*
X70212132Y-49099999D01*
X69787866Y-49099999D01*
X69158324Y-48470457D01*
X69122734Y-48513824D01*
X69122728Y-48513834D01*
X69025234Y-48696232D01*
X69025232Y-48696237D01*
X68965191Y-48894163D01*
X68965190Y-48894169D01*
X68944919Y-49099995D01*
X68944919Y-49100004D01*
X68005341Y-49100004D01*
X68005341Y-49100003D01*
X68005341Y-49099996D01*
X67985881Y-48902409D01*
X67998993Y-48842646D01*
X68014396Y-48822706D01*
X68578778Y-48258324D01*
X69370457Y-48258324D01*
X69999999Y-48887866D01*
X70629541Y-48258324D01*
X70586170Y-48222731D01*
X70586160Y-48222724D01*
X70403767Y-48125234D01*
X70403762Y-48125232D01*
X70205836Y-48065191D01*
X70205830Y-48065190D01*
X70000004Y-48044919D01*
X69999996Y-48044919D01*
X69794169Y-48065190D01*
X69794163Y-48065191D01*
X69596237Y-48125232D01*
X69596232Y-48125234D01*
X69413834Y-48222728D01*
X69413824Y-48222734D01*
X69370457Y-48258324D01*
X68578778Y-48258324D01*
X70694254Y-46142847D01*
X70748769Y-46115072D01*
X70780992Y-46116436D01*
X70781072Y-46115778D01*
X70787013Y-46116499D01*
X70787015Y-46116500D01*
X70787017Y-46116500D01*
X70944982Y-46116500D01*
X70944985Y-46116500D01*
X71098365Y-46078696D01*
X71238240Y-46005283D01*
X71356483Y-45900530D01*
X71413407Y-45818061D01*
X71462023Y-45780912D01*
X71494882Y-45775300D01*
X92283578Y-45775300D01*
X92341769Y-45794207D01*
X92377733Y-45843707D01*
X92377733Y-45904893D01*
X92375042Y-45912185D01*
X92363171Y-45940844D01*
X92363170Y-45940844D01*
X92344251Y-46084552D01*
X92344251Y-46084553D01*
X92363170Y-46228261D01*
X92363171Y-46228262D01*
X92380130Y-46269205D01*
X92384930Y-46330202D01*
X92358670Y-46377093D01*
X91381062Y-47354703D01*
X91326545Y-47382481D01*
X91311058Y-47383700D01*
X89145209Y-47383700D01*
X89124894Y-47381593D01*
X89111731Y-47378833D01*
X89078784Y-47382940D01*
X89066539Y-47383700D01*
X89064880Y-47383700D01*
X89043873Y-47387205D01*
X89039831Y-47387794D01*
X88987376Y-47394334D01*
X88979821Y-47396583D01*
X88972393Y-47399133D01*
X88925905Y-47424290D01*
X88922271Y-47426160D01*
X88874789Y-47449373D01*
X88868400Y-47453934D01*
X88862170Y-47458783D01*
X88826405Y-47497634D01*
X88823574Y-47500586D01*
X84612471Y-51711689D01*
X84596620Y-51724561D01*
X84585366Y-51731914D01*
X84585358Y-51731921D01*
X84564965Y-51758121D01*
X84556864Y-51767297D01*
X84555685Y-51768475D01*
X84555677Y-51768486D01*
X84543288Y-51785836D01*
X84540846Y-51789110D01*
X84508393Y-51830807D01*
X84504643Y-51837735D01*
X84501189Y-51844802D01*
X84486114Y-51895439D01*
X84484866Y-51899336D01*
X84467699Y-51949340D01*
X84466410Y-51957067D01*
X84465432Y-51964915D01*
X84467615Y-52017699D01*
X84467700Y-52021790D01*
X84467700Y-58470253D01*
X84448793Y-58528444D01*
X84438704Y-58540257D01*
X81059538Y-61919422D01*
X81005021Y-61947199D01*
X80951649Y-61940882D01*
X80878709Y-61910670D01*
X80878708Y-61910669D01*
X80735000Y-61891750D01*
X80591291Y-61910669D01*
X80591290Y-61910670D01*
X80457378Y-61966137D01*
X80457374Y-61966139D01*
X80342381Y-62054377D01*
X80342377Y-62054381D01*
X80254139Y-62169374D01*
X80254137Y-62169378D01*
X80198670Y-62303290D01*
X80198669Y-62303291D01*
X80179750Y-62446999D01*
X80179750Y-62447000D01*
X80198669Y-62590708D01*
X80198670Y-62590709D01*
X80247072Y-62707565D01*
X80254139Y-62724625D01*
X80342379Y-62839621D01*
X80457375Y-62927861D01*
X80591291Y-62983330D01*
X80735000Y-63002250D01*
X80878709Y-62983330D01*
X81012625Y-62927861D01*
X81127621Y-62839621D01*
X81127627Y-62839612D01*
X81130754Y-62836487D01*
X81164622Y-62816305D01*
X81164222Y-62815487D01*
X81165777Y-62814726D01*
X81169013Y-62813688D01*
X81172519Y-62811600D01*
X81179130Y-62809632D01*
X81186606Y-62807065D01*
X81186610Y-62807065D01*
X81210065Y-62794372D01*
X81233070Y-62781922D01*
X81236694Y-62780055D01*
X81284211Y-62756826D01*
X81284215Y-62756821D01*
X81290634Y-62752239D01*
X81296822Y-62747422D01*
X81296823Y-62747420D01*
X81296826Y-62747419D01*
X81332629Y-62708525D01*
X81335415Y-62705620D01*
X81358531Y-62682504D01*
X81413046Y-62654729D01*
X81473478Y-62664300D01*
X81516743Y-62707565D01*
X81519991Y-62714611D01*
X81524139Y-62724625D01*
X81612379Y-62839621D01*
X81727375Y-62927861D01*
X81861291Y-62983330D01*
X82005000Y-63002250D01*
X82148709Y-62983330D01*
X82282625Y-62927861D01*
X82397621Y-62839621D01*
X82485861Y-62724625D01*
X82541330Y-62590709D01*
X82560250Y-62447000D01*
X82541330Y-62303291D01*
X82517676Y-62246184D01*
X82512876Y-62185187D01*
X82539134Y-62138297D01*
X85523927Y-59153504D01*
X85539777Y-59140634D01*
X85551036Y-59133280D01*
X85571433Y-59107072D01*
X85579559Y-59097873D01*
X85580719Y-59096714D01*
X85593110Y-59079357D01*
X85595505Y-59076144D01*
X85628009Y-59034385D01*
X85628010Y-59034381D01*
X85631742Y-59027485D01*
X85635206Y-59020399D01*
X85635210Y-59020395D01*
X85650293Y-58969727D01*
X85651525Y-58965883D01*
X85668700Y-58915856D01*
X85668700Y-58915851D01*
X85669990Y-58908122D01*
X85670965Y-58900291D01*
X85670968Y-58900284D01*
X85668785Y-58847495D01*
X85668700Y-58843404D01*
X85668700Y-56100004D01*
X87244751Y-56100004D01*
X87263685Y-56268053D01*
X87263688Y-56268065D01*
X87319544Y-56427690D01*
X87319544Y-56427691D01*
X87409520Y-56570886D01*
X87409523Y-56570890D01*
X87529110Y-56690477D01*
X87529112Y-56690478D01*
X87529113Y-56690479D01*
X87670788Y-56779500D01*
X87672310Y-56780456D01*
X87712080Y-56794372D01*
X87831934Y-56836311D01*
X87831938Y-56836312D01*
X87831941Y-56836313D01*
X87831942Y-56836313D01*
X87831946Y-56836314D01*
X87999996Y-56855249D01*
X88000000Y-56855249D01*
X88000004Y-56855249D01*
X88168053Y-56836314D01*
X88168055Y-56836313D01*
X88168059Y-56836313D01*
X88327690Y-56780456D01*
X88470890Y-56690477D01*
X88590477Y-56570890D01*
X88680456Y-56427690D01*
X88736313Y-56268059D01*
X88751550Y-56132828D01*
X88776853Y-56077124D01*
X88779924Y-56073912D01*
X89601342Y-55252496D01*
X89655858Y-55224719D01*
X89671345Y-55223500D01*
X89721461Y-55223500D01*
X89779652Y-55242407D01*
X89781685Y-55243925D01*
X89892375Y-55328861D01*
X90026291Y-55384330D01*
X90170000Y-55403250D01*
X90313709Y-55384330D01*
X90447625Y-55328861D01*
X90562621Y-55240621D01*
X90650861Y-55125625D01*
X90706330Y-54991709D01*
X90725250Y-54848000D01*
X90723711Y-54836314D01*
X90706330Y-54704291D01*
X90650861Y-54570375D01*
X90562621Y-54455379D01*
X90447625Y-54367139D01*
X90447623Y-54367138D01*
X90447621Y-54367137D01*
X90319868Y-54314221D01*
X90273342Y-54274485D01*
X90259058Y-54214990D01*
X90282472Y-54158462D01*
X90319865Y-54131294D01*
X90441625Y-54080861D01*
X90556621Y-53992621D01*
X90644861Y-53877625D01*
X90700330Y-53743709D01*
X90719250Y-53600000D01*
X90707495Y-53510717D01*
X90700330Y-53456291D01*
X90644861Y-53322375D01*
X90556621Y-53207379D01*
X90441625Y-53119139D01*
X90441621Y-53119137D01*
X90380709Y-53093907D01*
X90307709Y-53063670D01*
X90292304Y-53061641D01*
X90192847Y-53048547D01*
X90170916Y-53038086D01*
X90141152Y-53047758D01*
X90020290Y-53063670D01*
X89886378Y-53119137D01*
X89886374Y-53119139D01*
X89879388Y-53124500D01*
X89775726Y-53204042D01*
X89718053Y-53224466D01*
X89715461Y-53224500D01*
X88549210Y-53224500D01*
X88528895Y-53222393D01*
X88515732Y-53219633D01*
X88482783Y-53223740D01*
X88470539Y-53224500D01*
X88468886Y-53224500D01*
X88464511Y-53225229D01*
X88447881Y-53228004D01*
X88443841Y-53228592D01*
X88391379Y-53235133D01*
X88391376Y-53235133D01*
X88391374Y-53235134D01*
X88391371Y-53235135D01*
X88383849Y-53237374D01*
X88376387Y-53239936D01*
X88329927Y-53265078D01*
X88326293Y-53266948D01*
X88278791Y-53290172D01*
X88272385Y-53294745D01*
X88266175Y-53299579D01*
X88237498Y-53330730D01*
X88184175Y-53360735D01*
X88153579Y-53362055D01*
X88064236Y-53351988D01*
X88000000Y-53344751D01*
X87999998Y-53344751D01*
X87999997Y-53344751D01*
X87999996Y-53344751D01*
X87831946Y-53363685D01*
X87831934Y-53363688D01*
X87672309Y-53419544D01*
X87672308Y-53419544D01*
X87529113Y-53509520D01*
X87409520Y-53629113D01*
X87319544Y-53772308D01*
X87319544Y-53772309D01*
X87263688Y-53931934D01*
X87263685Y-53931946D01*
X87244751Y-54099995D01*
X87244751Y-54100004D01*
X87263685Y-54268053D01*
X87263688Y-54268065D01*
X87319544Y-54427690D01*
X87319544Y-54427691D01*
X87409199Y-54570375D01*
X87409523Y-54570890D01*
X87529110Y-54690477D01*
X87529112Y-54690478D01*
X87529113Y-54690479D01*
X87665469Y-54776158D01*
X87672310Y-54780456D01*
X87712080Y-54794372D01*
X87831934Y-54836311D01*
X87831938Y-54836312D01*
X87831941Y-54836313D01*
X87831942Y-54836313D01*
X87831946Y-54836314D01*
X87999996Y-54855249D01*
X88000000Y-54855249D01*
X88000004Y-54855249D01*
X88168053Y-54836314D01*
X88168055Y-54836313D01*
X88168059Y-54836313D01*
X88327690Y-54780456D01*
X88470890Y-54690477D01*
X88590477Y-54570890D01*
X88680456Y-54427690D01*
X88731257Y-54282507D01*
X88736311Y-54268065D01*
X88736314Y-54268053D01*
X88755249Y-54100002D01*
X88755249Y-54099997D01*
X88753625Y-54085585D01*
X88765897Y-54025643D01*
X88811059Y-53984363D01*
X88852002Y-53975500D01*
X89715461Y-53975500D01*
X89773652Y-53994407D01*
X89775685Y-53995925D01*
X89886375Y-54080861D01*
X90014132Y-54133778D01*
X90060657Y-54173514D01*
X90074941Y-54233009D01*
X90051527Y-54289537D01*
X90014132Y-54316706D01*
X89892375Y-54367138D01*
X89892374Y-54367139D01*
X89841146Y-54406448D01*
X89781726Y-54452042D01*
X89724053Y-54472466D01*
X89721461Y-54472500D01*
X89524009Y-54472500D01*
X89503694Y-54470393D01*
X89490531Y-54467633D01*
X89457584Y-54471740D01*
X89445339Y-54472500D01*
X89443680Y-54472500D01*
X89422673Y-54476005D01*
X89418631Y-54476594D01*
X89366176Y-54483134D01*
X89358621Y-54485383D01*
X89351193Y-54487933D01*
X89304705Y-54513090D01*
X89301071Y-54514960D01*
X89253589Y-54538173D01*
X89247200Y-54542734D01*
X89240970Y-54547583D01*
X89205205Y-54586434D01*
X89202374Y-54589386D01*
X88404660Y-55387100D01*
X88350143Y-55414877D01*
X88301958Y-55410540D01*
X88168065Y-55363688D01*
X88168053Y-55363685D01*
X88000004Y-55344751D01*
X87999996Y-55344751D01*
X87831946Y-55363685D01*
X87831934Y-55363688D01*
X87672309Y-55419544D01*
X87672308Y-55419544D01*
X87529113Y-55509520D01*
X87409520Y-55629113D01*
X87319544Y-55772308D01*
X87319544Y-55772309D01*
X87263688Y-55931934D01*
X87263685Y-55931946D01*
X87244751Y-56099995D01*
X87244751Y-56100004D01*
X85668700Y-56100004D01*
X85668700Y-52394941D01*
X85687607Y-52336750D01*
X85697696Y-52324937D01*
X85922629Y-52100004D01*
X87244751Y-52100004D01*
X87263685Y-52268053D01*
X87263688Y-52268065D01*
X87319544Y-52427690D01*
X87319544Y-52427691D01*
X87406770Y-52566509D01*
X87409523Y-52570890D01*
X87529110Y-52690477D01*
X87529112Y-52690478D01*
X87529113Y-52690479D01*
X87672306Y-52780454D01*
X87672310Y-52780456D01*
X87727232Y-52799674D01*
X87831934Y-52836311D01*
X87831938Y-52836312D01*
X87831941Y-52836313D01*
X87831942Y-52836313D01*
X87831946Y-52836314D01*
X87999996Y-52855249D01*
X88000000Y-52855249D01*
X88000004Y-52855249D01*
X88168053Y-52836314D01*
X88168055Y-52836313D01*
X88168059Y-52836313D01*
X88327690Y-52780456D01*
X88327692Y-52780454D01*
X88327694Y-52780454D01*
X88432380Y-52714675D01*
X88485052Y-52699500D01*
X89752737Y-52699500D01*
X89810928Y-52718407D01*
X89813004Y-52719958D01*
X89867069Y-52761443D01*
X89892375Y-52780861D01*
X90026291Y-52836330D01*
X90141151Y-52851452D01*
X90163082Y-52861912D01*
X90192843Y-52852242D01*
X90313709Y-52836330D01*
X90447625Y-52780861D01*
X90562621Y-52692621D01*
X90650861Y-52577625D01*
X90706330Y-52443709D01*
X90725250Y-52300000D01*
X90706330Y-52156291D01*
X90650861Y-52022375D01*
X90562621Y-51907379D01*
X90447625Y-51819139D01*
X90447621Y-51819137D01*
X90313709Y-51763670D01*
X90313708Y-51763669D01*
X90170000Y-51744750D01*
X90026291Y-51763669D01*
X90026290Y-51763670D01*
X89892378Y-51819137D01*
X89892370Y-51819142D01*
X89777381Y-51907376D01*
X89777379Y-51907377D01*
X89775544Y-51909770D01*
X89773766Y-51910991D01*
X89772794Y-51911964D01*
X89772613Y-51911783D01*
X89725118Y-51944424D01*
X89697004Y-51948500D01*
X88812352Y-51948500D01*
X88754161Y-51929593D01*
X88718908Y-51882198D01*
X88694096Y-51811292D01*
X88680456Y-51772310D01*
X88678046Y-51768475D01*
X88590479Y-51629113D01*
X88590478Y-51629112D01*
X88590477Y-51629110D01*
X88470890Y-51509523D01*
X88470887Y-51509521D01*
X88470886Y-51509520D01*
X88327691Y-51419544D01*
X88168065Y-51363688D01*
X88168053Y-51363685D01*
X88000004Y-51344751D01*
X87999996Y-51344751D01*
X87831946Y-51363685D01*
X87831934Y-51363688D01*
X87672309Y-51419544D01*
X87672308Y-51419544D01*
X87529113Y-51509520D01*
X87409520Y-51629113D01*
X87319544Y-51772308D01*
X87319544Y-51772309D01*
X87263688Y-51931934D01*
X87263685Y-51931946D01*
X87244751Y-52099995D01*
X87244751Y-52100004D01*
X85922629Y-52100004D01*
X89408937Y-48613696D01*
X89463454Y-48585919D01*
X89478941Y-48584700D01*
X91644789Y-48584700D01*
X91665104Y-48586807D01*
X91669530Y-48587734D01*
X91678268Y-48589567D01*
X91711217Y-48585460D01*
X91723461Y-48584700D01*
X91725114Y-48584700D01*
X91746147Y-48581189D01*
X91750149Y-48580606D01*
X91802626Y-48574066D01*
X91802628Y-48574064D01*
X91810138Y-48571829D01*
X91817606Y-48569265D01*
X91817610Y-48569265D01*
X91864070Y-48544122D01*
X91867694Y-48542255D01*
X91915211Y-48519026D01*
X91915215Y-48519021D01*
X91921634Y-48514439D01*
X91927822Y-48509622D01*
X91927823Y-48509620D01*
X91927826Y-48509619D01*
X91963629Y-48470725D01*
X91966415Y-48467820D01*
X93884963Y-46549272D01*
X93939478Y-46521497D01*
X93999910Y-46531068D01*
X94015231Y-46540735D01*
X94027789Y-46550371D01*
X94161705Y-46605840D01*
X94305414Y-46624760D01*
X94449123Y-46605840D01*
X94583039Y-46550371D01*
X94698035Y-46462131D01*
X94782228Y-46352408D01*
X94832649Y-46317755D01*
X94893813Y-46319356D01*
X94930770Y-46342674D01*
X95024503Y-46436406D01*
X95052281Y-46490922D01*
X95053500Y-46506410D01*
X95053500Y-49302389D01*
X95034593Y-49360580D01*
X95024504Y-49372393D01*
X94377993Y-50018904D01*
X94323476Y-50046681D01*
X94307989Y-50047900D01*
X94256612Y-50047900D01*
X94103235Y-50085703D01*
X93963358Y-50159118D01*
X93845115Y-50263871D01*
X93755380Y-50393876D01*
X93699363Y-50541582D01*
X93699362Y-50541583D01*
X93680322Y-50698398D01*
X93680322Y-50698401D01*
X93699362Y-50855216D01*
X93699363Y-50855218D01*
X93745179Y-50976025D01*
X93755380Y-51002923D01*
X93845115Y-51132928D01*
X93845116Y-51132929D01*
X93845117Y-51132930D01*
X93963360Y-51237683D01*
X94027759Y-51271482D01*
X94070497Y-51315266D01*
X94079338Y-51375809D01*
X94078849Y-51378452D01*
X94074501Y-51400313D01*
X94074500Y-51400327D01*
X94074500Y-51625500D01*
X94055593Y-51683691D01*
X94006093Y-51719655D01*
X93975500Y-51724500D01*
X93038145Y-51724500D01*
X92979954Y-51705593D01*
X92968141Y-51695504D01*
X92363659Y-51091022D01*
X91740311Y-50467673D01*
X91727435Y-50451816D01*
X91720084Y-50440564D01*
X91693888Y-50420175D01*
X91684699Y-50412061D01*
X91683518Y-50410880D01*
X91683514Y-50410877D01*
X91683512Y-50410875D01*
X91666172Y-50398496D01*
X91662886Y-50396046D01*
X91660099Y-50393877D01*
X91649657Y-50385749D01*
X91621190Y-50363591D01*
X91614281Y-50359852D01*
X91607197Y-50356389D01*
X91556551Y-50341311D01*
X91552656Y-50340063D01*
X91502659Y-50322899D01*
X91494923Y-50321608D01*
X91487089Y-50320632D01*
X91487088Y-50320632D01*
X91487086Y-50320632D01*
X91434299Y-50322815D01*
X91430208Y-50322900D01*
X90489037Y-50322900D01*
X90430846Y-50303993D01*
X90428812Y-50302474D01*
X90318123Y-50217539D01*
X90318119Y-50217537D01*
X90184207Y-50162070D01*
X90184206Y-50162069D01*
X90040498Y-50143150D01*
X89896789Y-50162069D01*
X89896788Y-50162070D01*
X89762876Y-50217537D01*
X89762872Y-50217539D01*
X89647879Y-50305777D01*
X89647875Y-50305781D01*
X89559637Y-50420774D01*
X89559635Y-50420778D01*
X89504168Y-50554690D01*
X89504167Y-50554691D01*
X89485248Y-50698399D01*
X89485248Y-50698400D01*
X89504167Y-50842108D01*
X89504168Y-50842109D01*
X89559637Y-50976025D01*
X89647877Y-51091021D01*
X89762873Y-51179261D01*
X89896789Y-51234730D01*
X90040498Y-51253650D01*
X90184207Y-51234730D01*
X90318123Y-51179261D01*
X90428771Y-51094357D01*
X90486445Y-51073934D01*
X90489037Y-51073900D01*
X91243455Y-51073900D01*
X91301646Y-51092807D01*
X91313459Y-51102896D01*
X92541287Y-52330724D01*
X92554162Y-52346580D01*
X92561516Y-52357836D01*
X92587720Y-52378231D01*
X92596902Y-52386339D01*
X92598083Y-52387520D01*
X92598086Y-52387522D01*
X92598088Y-52387524D01*
X92615423Y-52399901D01*
X92618671Y-52402321D01*
X92651266Y-52427691D01*
X92660414Y-52434811D01*
X92667317Y-52438546D01*
X92674398Y-52442008D01*
X92674401Y-52442010D01*
X92725071Y-52457095D01*
X92728906Y-52458323D01*
X92778940Y-52475500D01*
X92778942Y-52475500D01*
X92786676Y-52476791D01*
X92794505Y-52477766D01*
X92794512Y-52477768D01*
X92847301Y-52475585D01*
X92851392Y-52475500D01*
X93975500Y-52475500D01*
X94033691Y-52494407D01*
X94069655Y-52543907D01*
X94074500Y-52574500D01*
X94074500Y-52799672D01*
X94074501Y-52799684D01*
X94089033Y-52872736D01*
X94089035Y-52872742D01*
X94144397Y-52955599D01*
X94144400Y-52955602D01*
X94192134Y-52987496D01*
X94227260Y-53010966D01*
X94273340Y-53020132D01*
X94300315Y-53025498D01*
X94300320Y-53025498D01*
X94300326Y-53025500D01*
X94300327Y-53025500D01*
X94672181Y-53025500D01*
X94730372Y-53044407D01*
X94766336Y-53093907D01*
X94766336Y-53155093D01*
X94730372Y-53204593D01*
X94712447Y-53214941D01*
X94534711Y-53294072D01*
X94534704Y-53294076D01*
X94377303Y-53408434D01*
X94377303Y-53408435D01*
X94247132Y-53553005D01*
X94247128Y-53553011D01*
X94149860Y-53721482D01*
X94149858Y-53721487D01*
X94149856Y-53721490D01*
X94149856Y-53721492D01*
X94134971Y-53767304D01*
X94089738Y-53906516D01*
X94070917Y-54085585D01*
X94069402Y-54100000D01*
X94089738Y-54293482D01*
X94097203Y-54316456D01*
X94107871Y-54349290D01*
X94107870Y-54410475D01*
X94083720Y-54449885D01*
X93610921Y-54922684D01*
X93610915Y-54922692D01*
X93588350Y-54945258D01*
X93588348Y-54945260D01*
X93577397Y-54966751D01*
X93569287Y-54979985D01*
X93555106Y-54999506D01*
X93555101Y-54999515D01*
X93547649Y-55022452D01*
X93541705Y-55036802D01*
X93530755Y-55058291D01*
X93530752Y-55058301D01*
X93526977Y-55082129D01*
X93523353Y-55097224D01*
X93515901Y-55120162D01*
X93515900Y-55120169D01*
X93515900Y-56676499D01*
X93496993Y-56734690D01*
X93486904Y-56746503D01*
X91566315Y-58667092D01*
X91543750Y-58689658D01*
X91543748Y-58689660D01*
X91532797Y-58711151D01*
X91524687Y-58724385D01*
X91510506Y-58743906D01*
X91510501Y-58743915D01*
X91503049Y-58766852D01*
X91497105Y-58781202D01*
X91486155Y-58802691D01*
X91486152Y-58802701D01*
X91482377Y-58826529D01*
X91478753Y-58841624D01*
X91471301Y-58864562D01*
X91471300Y-58864569D01*
X91471300Y-74088098D01*
X91452393Y-74146289D01*
X91442304Y-74158102D01*
X88326729Y-77273676D01*
X88272212Y-77301453D01*
X88269648Y-77301825D01*
X88172090Y-77314670D01*
X88038178Y-77370137D01*
X88038174Y-77370139D01*
X87923181Y-77458377D01*
X87923177Y-77458381D01*
X87834939Y-77573374D01*
X87834937Y-77573378D01*
X87779470Y-77707290D01*
X87779469Y-77707291D01*
X87760550Y-77850999D01*
X87760550Y-77851000D01*
X87779469Y-77994708D01*
X87779470Y-77994709D01*
X87834939Y-78128625D01*
X87923179Y-78243621D01*
X88038175Y-78331861D01*
X88172091Y-78387330D01*
X88315800Y-78406250D01*
X88459509Y-78387330D01*
X88593425Y-78331861D01*
X88708421Y-78243621D01*
X88796661Y-78128625D01*
X88852130Y-77994709D01*
X88864973Y-77897150D01*
X88891314Y-77841926D01*
X88893085Y-77840106D01*
X92177283Y-74555909D01*
X92199850Y-74533342D01*
X92210802Y-74511843D01*
X92218915Y-74498605D01*
X92233096Y-74479090D01*
X92240551Y-74456144D01*
X92246495Y-74441795D01*
X92257446Y-74420304D01*
X92261219Y-74396473D01*
X92264848Y-74381364D01*
X92272298Y-74358435D01*
X92272299Y-74358434D01*
X92272299Y-74330621D01*
X92272300Y-74330596D01*
X92272300Y-59134900D01*
X92291207Y-59076709D01*
X92301290Y-59064902D01*
X94221884Y-57144309D01*
X94221885Y-57144307D01*
X94227527Y-57138665D01*
X94227529Y-57138661D01*
X94244450Y-57121742D01*
X94255400Y-57100249D01*
X94263511Y-57087012D01*
X94277696Y-57067490D01*
X94285148Y-57044551D01*
X94291090Y-57030202D01*
X94302046Y-57008704D01*
X94305821Y-56984865D01*
X94309443Y-56969782D01*
X94316900Y-56946833D01*
X94316900Y-56941978D01*
X94335807Y-56883787D01*
X94385307Y-56847823D01*
X94446493Y-56847823D01*
X94474085Y-56861882D01*
X94534701Y-56905922D01*
X94534706Y-56905924D01*
X94534711Y-56905927D01*
X94714605Y-56986020D01*
X94760075Y-57026961D01*
X94772797Y-57086809D01*
X94747911Y-57142705D01*
X94703078Y-57171198D01*
X94625074Y-57194860D01*
X94625072Y-57194861D01*
X94455705Y-57285389D01*
X94455699Y-57285393D01*
X94307239Y-57407230D01*
X94307230Y-57407239D01*
X94185393Y-57555699D01*
X94185389Y-57555705D01*
X94094861Y-57725072D01*
X94094860Y-57725074D01*
X94039105Y-57908870D01*
X94035055Y-57949998D01*
X94035057Y-57950000D01*
X94627498Y-57950000D01*
X94614835Y-57974852D01*
X94595014Y-58100000D01*
X94614835Y-58225148D01*
X94627498Y-58250000D01*
X94035057Y-58250000D01*
X94035055Y-58250001D01*
X94039105Y-58291129D01*
X94094860Y-58474925D01*
X94094861Y-58474927D01*
X94185389Y-58644294D01*
X94185393Y-58644300D01*
X94307230Y-58792760D01*
X94307239Y-58792769D01*
X94455699Y-58914606D01*
X94455705Y-58914610D01*
X94625072Y-59005138D01*
X94625076Y-59005140D01*
X94703077Y-59028801D01*
X94753273Y-59063786D01*
X94773320Y-59121594D01*
X94755559Y-59180145D01*
X94714606Y-59213979D01*
X94534707Y-59294074D01*
X94534704Y-59294076D01*
X94534701Y-59294077D01*
X94534701Y-59294078D01*
X94525376Y-59300853D01*
X94377303Y-59408434D01*
X94377303Y-59408435D01*
X94247132Y-59553005D01*
X94247128Y-59553011D01*
X94149860Y-59721482D01*
X94149858Y-59721487D01*
X94089738Y-59906516D01*
X94089738Y-59906518D01*
X94069402Y-60100000D01*
X94089738Y-60293482D01*
X94149856Y-60478508D01*
X94149857Y-60478510D01*
X94149858Y-60478512D01*
X94149860Y-60478517D01*
X94227138Y-60612366D01*
X94247130Y-60646992D01*
X94247132Y-60646994D01*
X94377303Y-60791564D01*
X94377303Y-60791565D01*
X94377307Y-60791567D01*
X94377308Y-60791569D01*
X94534701Y-60905922D01*
X94534706Y-60905924D01*
X94534711Y-60905927D01*
X94712422Y-60985048D01*
X94712429Y-60985051D01*
X94797642Y-61003163D01*
X94850629Y-61033756D01*
X94875516Y-61089652D01*
X94862795Y-61149500D01*
X94817325Y-61190441D01*
X94797644Y-61196835D01*
X94751632Y-61206615D01*
X94712432Y-61214948D01*
X94712422Y-61214951D01*
X94534711Y-61294072D01*
X94534704Y-61294076D01*
X94377303Y-61408434D01*
X94377303Y-61408435D01*
X94247132Y-61553005D01*
X94247128Y-61553011D01*
X94149860Y-61721482D01*
X94149858Y-61721487D01*
X94089738Y-61906516D01*
X94082572Y-61974698D01*
X94069402Y-62100000D01*
X94089738Y-62293482D01*
X94149856Y-62478508D01*
X94149857Y-62478510D01*
X94149858Y-62478512D01*
X94149860Y-62478517D01*
X94227138Y-62612366D01*
X94247130Y-62646992D01*
X94279107Y-62682506D01*
X94377303Y-62791564D01*
X94377303Y-62791565D01*
X94377307Y-62791567D01*
X94377308Y-62791569D01*
X94534701Y-62905922D01*
X94534706Y-62905924D01*
X94534711Y-62905927D01*
X94712422Y-62985048D01*
X94712429Y-62985051D01*
X94902726Y-63025500D01*
X94902729Y-63025500D01*
X95097271Y-63025500D01*
X95097274Y-63025500D01*
X95287571Y-62985051D01*
X95465299Y-62905922D01*
X95592812Y-62813277D01*
X95651000Y-62794372D01*
X95709191Y-62813279D01*
X95745155Y-62862779D01*
X95750000Y-62893372D01*
X95750000Y-64826929D01*
X95731093Y-64885120D01*
X95681593Y-64921084D01*
X95644644Y-64923572D01*
X95644659Y-64924465D01*
X95634913Y-64924626D01*
X95612360Y-64929504D01*
X95604279Y-64930615D01*
X95604288Y-64930668D01*
X95599483Y-64931435D01*
X95582976Y-64935764D01*
X95578821Y-64936758D01*
X95537509Y-64945694D01*
X95537508Y-64945694D01*
X95537506Y-64945695D01*
X95532840Y-64947719D01*
X95518557Y-64952657D01*
X94683958Y-65171523D01*
X94683783Y-65171561D01*
X94657323Y-65178508D01*
X94657301Y-65178514D01*
X94628043Y-65186187D01*
X94627846Y-65186248D01*
X94566312Y-65202406D01*
X94565948Y-65202482D01*
X94538321Y-65209754D01*
X94538124Y-65209807D01*
X94529418Y-65212092D01*
X94509625Y-65217290D01*
X94509263Y-65217404D01*
X94452306Y-65232398D01*
X94451918Y-65232481D01*
X94423943Y-65239865D01*
X94423917Y-65239871D01*
X94423887Y-65239880D01*
X94414806Y-65242270D01*
X94395852Y-65247261D01*
X94395484Y-65247377D01*
X94343987Y-65260971D01*
X94343564Y-65261061D01*
X94319368Y-65267466D01*
X94314991Y-65268625D01*
X94303821Y-65271573D01*
X94287547Y-65275869D01*
X94287149Y-65275994D01*
X94241748Y-65288012D01*
X94241294Y-65288109D01*
X94213270Y-65295550D01*
X94213208Y-65295566D01*
X94185269Y-65302963D01*
X94184824Y-65303104D01*
X94178147Y-65304877D01*
X94146835Y-65313191D01*
X94146306Y-65313306D01*
X94118187Y-65320799D01*
X94118105Y-65320821D01*
X94090476Y-65328157D01*
X94089967Y-65328319D01*
X94060168Y-65336260D01*
X94059550Y-65336393D01*
X94041532Y-65341215D01*
X94032038Y-65343757D01*
X94015932Y-65348048D01*
X94003754Y-65351294D01*
X94003149Y-65351487D01*
X93982508Y-65357011D01*
X93981666Y-65357195D01*
X93953658Y-65364733D01*
X93953528Y-65364768D01*
X93926232Y-65372074D01*
X93925447Y-65372326D01*
X93914904Y-65375163D01*
X93913772Y-65375411D01*
X93886076Y-65382922D01*
X93885902Y-65382969D01*
X93858077Y-65390460D01*
X93857973Y-65390076D01*
X93857541Y-65390193D01*
X93857639Y-65390547D01*
X93853005Y-65391818D01*
X93853004Y-65391819D01*
X93829751Y-65398201D01*
X93829663Y-65398225D01*
X93812434Y-65402897D01*
X93810408Y-65403351D01*
X93784663Y-65410575D01*
X93784120Y-65410726D01*
X93779758Y-65411923D01*
X93772747Y-65413558D01*
X93757310Y-65418142D01*
X93739781Y-65421662D01*
X93723282Y-65423446D01*
X93699922Y-65436221D01*
X93688041Y-65441731D01*
X93686675Y-65442257D01*
X93686670Y-65442260D01*
X93675237Y-65449492D01*
X93669819Y-65452684D01*
X93658606Y-65458816D01*
X93657265Y-65459536D01*
X93637264Y-65470077D01*
X93629609Y-65476484D01*
X93623714Y-65482092D01*
X93601419Y-65513721D01*
X93597629Y-65518750D01*
X93573365Y-65548900D01*
X93569601Y-65556105D01*
X93566298Y-65563550D01*
X93557808Y-65601293D01*
X93556231Y-65607392D01*
X93545351Y-65644536D01*
X93544631Y-65652637D01*
X93544429Y-65660772D01*
X93551028Y-65698891D01*
X93551905Y-65705135D01*
X93556065Y-65743611D01*
X93558497Y-65751361D01*
X93561427Y-65758965D01*
X93582112Y-65791658D01*
X93585311Y-65797089D01*
X93603883Y-65831049D01*
X93609083Y-65837263D01*
X93614712Y-65843181D01*
X93646330Y-65865467D01*
X93651363Y-65869260D01*
X93661918Y-65877754D01*
X93661919Y-65877755D01*
X93663207Y-65878428D01*
X93674414Y-65885264D01*
X93675719Y-65886184D01*
X93681922Y-65890934D01*
X93682524Y-65891434D01*
X93687892Y-65894765D01*
X93696163Y-65900594D01*
X93696164Y-65900595D01*
X93707652Y-65903179D01*
X93726797Y-65909596D01*
X93746916Y-65918716D01*
X93746917Y-65918716D01*
X93748011Y-65919212D01*
X93752826Y-65921068D01*
X93754235Y-65921678D01*
X93761166Y-65924679D01*
X93761518Y-65924833D01*
X93783214Y-65934364D01*
X93783216Y-65934364D01*
X93786286Y-65935713D01*
X93787787Y-65936278D01*
X93807199Y-65944614D01*
X93829486Y-65954266D01*
X93829487Y-65954266D01*
X93832874Y-65955733D01*
X93834540Y-65956356D01*
X93835908Y-65956943D01*
X93837037Y-65957493D01*
X93840785Y-65959093D01*
X93840788Y-65959095D01*
X93848427Y-65962356D01*
X93863174Y-65968652D01*
X93863170Y-65968659D01*
X93863357Y-65968730D01*
X93885663Y-65978309D01*
X93889377Y-65979904D01*
X93890549Y-65980338D01*
X93899445Y-65984135D01*
X93901116Y-65984849D01*
X93901977Y-65985267D01*
X93905910Y-65986938D01*
X93905911Y-65986939D01*
X93928386Y-65996491D01*
X93928515Y-65996603D01*
X93928536Y-65996555D01*
X93954882Y-66007803D01*
X93955776Y-66008132D01*
X93974407Y-66016050D01*
X93975116Y-66016394D01*
X93979212Y-66018128D01*
X93979213Y-66018129D01*
X94001562Y-66027592D01*
X94001665Y-66027682D01*
X94001682Y-66027644D01*
X94028358Y-66038981D01*
X94029097Y-66039252D01*
X94054941Y-66050196D01*
X94055579Y-66050503D01*
X94082323Y-66061790D01*
X94082379Y-66061813D01*
X94104805Y-66071310D01*
X94104806Y-66071310D01*
X94108990Y-66073082D01*
X94109640Y-66073319D01*
X94141353Y-66086704D01*
X94141946Y-66086989D01*
X94146060Y-66088720D01*
X94146062Y-66088721D01*
X94168761Y-66098272D01*
X94168849Y-66098348D01*
X94168863Y-66098315D01*
X94191286Y-66107779D01*
X94191287Y-66107779D01*
X94193054Y-66108525D01*
X94239313Y-66148573D01*
X94253198Y-66208162D01*
X94229405Y-66264532D01*
X94192681Y-66291099D01*
X93707362Y-66493609D01*
X93698861Y-66496708D01*
X93666574Y-66506832D01*
X93666564Y-66506838D01*
X93642418Y-66527033D01*
X93634126Y-66533260D01*
X93607998Y-66550819D01*
X93606429Y-66552396D01*
X93591507Y-66569058D01*
X93590129Y-66570770D01*
X93575547Y-66598674D01*
X93570266Y-66607604D01*
X93552846Y-66633823D01*
X93552011Y-66635855D01*
X93544590Y-66656990D01*
X93543972Y-66659097D01*
X93541179Y-66690456D01*
X93539718Y-66700728D01*
X93533659Y-66731612D01*
X93533665Y-66733842D01*
X93534896Y-66756170D01*
X93535132Y-66758357D01*
X93544552Y-66788398D01*
X93547134Y-66798451D01*
X93553354Y-66829302D01*
X93554219Y-66831374D01*
X93563887Y-66851502D01*
X93564950Y-66853448D01*
X93585151Y-66877599D01*
X93591372Y-66885882D01*
X93608937Y-66912022D01*
X93608938Y-66912022D01*
X93608939Y-66912024D01*
X93610531Y-66913608D01*
X93627141Y-66928482D01*
X93628887Y-66929888D01*
X93628888Y-66929889D01*
X93656784Y-66944466D01*
X93665721Y-66949751D01*
X93691665Y-66966989D01*
X93691941Y-66967172D01*
X93720189Y-66972713D01*
X93727185Y-66974353D01*
X93730616Y-66975290D01*
X93730622Y-66975293D01*
X93737938Y-66977291D01*
X93741020Y-66978289D01*
X93743704Y-66979005D01*
X93743705Y-66979006D01*
X93754435Y-66981871D01*
X93756726Y-66982513D01*
X93773628Y-66987469D01*
X93774860Y-66987702D01*
X93782557Y-66989478D01*
X93792639Y-66992232D01*
X93795846Y-66992930D01*
X93817624Y-66998747D01*
X93817630Y-66998747D01*
X93821886Y-66999884D01*
X93822615Y-67000039D01*
X93833663Y-67002962D01*
X93833731Y-67003005D01*
X93833738Y-67002982D01*
X93862260Y-67010550D01*
X93862461Y-67010592D01*
X93862530Y-67010610D01*
X93862534Y-67010612D01*
X93881732Y-67015680D01*
X93887238Y-67017134D01*
X93887234Y-67017146D01*
X93887280Y-67017145D01*
X93910126Y-67023188D01*
X93910127Y-67023188D01*
X93914943Y-67024462D01*
X93915203Y-67024516D01*
X93917254Y-67025057D01*
X93921572Y-67026198D01*
X93921746Y-67026252D01*
X93926251Y-67027439D01*
X93926254Y-67027441D01*
X93949185Y-67033487D01*
X93949216Y-67033507D01*
X93949219Y-67033496D01*
X93970203Y-67039036D01*
X93978706Y-67041281D01*
X93978872Y-67041315D01*
X93990996Y-67044511D01*
X93995113Y-67045597D01*
X93995264Y-67045646D01*
X94025027Y-67053486D01*
X94025025Y-67053492D01*
X94025053Y-67053492D01*
X94048061Y-67059559D01*
X94048062Y-67059559D01*
X94053379Y-67060961D01*
X94053532Y-67060992D01*
X94079004Y-67067702D01*
X94079113Y-67067737D01*
X94083969Y-67069015D01*
X94083971Y-67069016D01*
X94108499Y-67075471D01*
X94108515Y-67075482D01*
X94108517Y-67075477D01*
X94136663Y-67082890D01*
X94136764Y-67082911D01*
X94170970Y-67091914D01*
X94171074Y-67091947D01*
X94175951Y-67093229D01*
X94175954Y-67093231D01*
X94199870Y-67099521D01*
X94199869Y-67099526D01*
X94199889Y-67099526D01*
X94223635Y-67105776D01*
X94223637Y-67105776D01*
X94228648Y-67107095D01*
X94228744Y-67107115D01*
X94242859Y-67110827D01*
X94270934Y-67118212D01*
X94270995Y-67118231D01*
X94275329Y-67119370D01*
X94275333Y-67119372D01*
X94300539Y-67125997D01*
X94300550Y-67126004D01*
X94300551Y-67126001D01*
X94329148Y-67133522D01*
X94329210Y-67133533D01*
X94375570Y-67145720D01*
X94375649Y-67145746D01*
X94381105Y-67147179D01*
X94381107Y-67147180D01*
X94404469Y-67153316D01*
X94404486Y-67153327D01*
X94404488Y-67153322D01*
X94422781Y-67158130D01*
X94428800Y-67159713D01*
X94432369Y-67160651D01*
X94483841Y-67193731D01*
X94506039Y-67250747D01*
X94490483Y-67309922D01*
X94476803Y-67326799D01*
X94460859Y-67342561D01*
X94452690Y-67349792D01*
X94448488Y-67353116D01*
X94448477Y-67353126D01*
X94442225Y-67360471D01*
X94436451Y-67366692D01*
X94429583Y-67373482D01*
X94429575Y-67373491D01*
X94426572Y-67377931D01*
X94419964Y-67386624D01*
X94404101Y-67405259D01*
X94396579Y-67413166D01*
X94392678Y-67416838D01*
X94392672Y-67416844D01*
X94387055Y-67424723D01*
X94381847Y-67431402D01*
X94375586Y-67438758D01*
X94375580Y-67438768D01*
X94374789Y-67440186D01*
X94363101Y-67456839D01*
X94360721Y-67459579D01*
X94357210Y-67465730D01*
X94351858Y-67474098D01*
X94347736Y-67479881D01*
X94347735Y-67479882D01*
X94344480Y-67487114D01*
X94340182Y-67495556D01*
X94312113Y-67544724D01*
X94309609Y-67548873D01*
X94300936Y-67562472D01*
X94299447Y-67565407D01*
X94296975Y-67570589D01*
X94295623Y-67573612D01*
X94290521Y-67588885D01*
X94288873Y-67593444D01*
X94266219Y-67651609D01*
X94264692Y-67655307D01*
X94257640Y-67671451D01*
X94256140Y-67676075D01*
X94256042Y-67676043D01*
X94255907Y-67676492D01*
X94256006Y-67676520D01*
X94254692Y-67681208D01*
X94251626Y-67698540D01*
X94250851Y-67702461D01*
X94237511Y-67763397D01*
X94236090Y-67769075D01*
X94232206Y-67782856D01*
X94232204Y-67782867D01*
X94232151Y-67783551D01*
X94230169Y-67796942D01*
X94230021Y-67797615D01*
X94229747Y-67811936D01*
X94229461Y-67817790D01*
X94225219Y-67871790D01*
X94223409Y-67884385D01*
X94222970Y-67886474D01*
X94222969Y-67886485D01*
X94222829Y-67899344D01*
X94222531Y-67906015D01*
X94221453Y-67919741D01*
X94221264Y-67923374D01*
X94221461Y-67923380D01*
X94221333Y-67928247D01*
X94222067Y-67938430D01*
X94222317Y-67946605D01*
X94222207Y-67956790D01*
X94222208Y-67956805D01*
X94223095Y-67961530D01*
X94224536Y-67972663D01*
X94229410Y-68040237D01*
X94229599Y-68043682D01*
X94230290Y-68062292D01*
X94230876Y-68066601D01*
X94231628Y-68070973D01*
X94236552Y-68088881D01*
X94237409Y-68092225D01*
X94255685Y-68169083D01*
X94256159Y-68171174D01*
X94260561Y-68191648D01*
X94261321Y-68194022D01*
X94261384Y-68194247D01*
X94261480Y-68194495D01*
X94262281Y-68196822D01*
X94262284Y-68196828D01*
X94271000Y-68215844D01*
X94271841Y-68217733D01*
X94303488Y-68290928D01*
X94304477Y-68293300D01*
X94311975Y-68311958D01*
X94313501Y-68314887D01*
X94315077Y-68317730D01*
X94326529Y-68334310D01*
X94327963Y-68336445D01*
X94351578Y-68372610D01*
X94367562Y-68431670D01*
X94345778Y-68488847D01*
X94294548Y-68522299D01*
X94268685Y-68525737D01*
X93962356Y-68525737D01*
X93943043Y-68523835D01*
X93927930Y-68520829D01*
X93903256Y-68525736D01*
X93903256Y-68525737D01*
X93830190Y-68540271D01*
X93830188Y-68540271D01*
X93830188Y-68540272D01*
X93830187Y-68540272D01*
X93747330Y-68595634D01*
X93747327Y-68595637D01*
X93691965Y-68678494D01*
X93691965Y-68678495D01*
X93691964Y-68678497D01*
X93689238Y-68692203D01*
X93672522Y-68776237D01*
X93675528Y-68791348D01*
X93677430Y-68810662D01*
X93677430Y-69014326D01*
X93675528Y-69033639D01*
X93672522Y-69048751D01*
X93672522Y-69048752D01*
X93677429Y-69073423D01*
X93684052Y-69106715D01*
X93684052Y-69106719D01*
X93684053Y-69106719D01*
X93691963Y-69146490D01*
X93691964Y-69146493D01*
X93747325Y-69229349D01*
X93747329Y-69229353D01*
X93830190Y-69284718D01*
X93873840Y-69293400D01*
X93888389Y-69296295D01*
X93888390Y-69296295D01*
X93927930Y-69304160D01*
X93940685Y-69301622D01*
X93943043Y-69301154D01*
X93962356Y-69299252D01*
X94254996Y-69299252D01*
X94313187Y-69318159D01*
X94349151Y-69367659D01*
X94349151Y-69428845D01*
X94337207Y-69451144D01*
X94338240Y-69451807D01*
X94335611Y-69455908D01*
X94328743Y-69469365D01*
X94326156Y-69474110D01*
X94318357Y-69487526D01*
X94315243Y-69493679D01*
X94314387Y-69495213D01*
X94308800Y-69508045D01*
X94306220Y-69513509D01*
X94299869Y-69525958D01*
X94299867Y-69525963D01*
X94299587Y-69526954D01*
X94295096Y-69539527D01*
X94280755Y-69572472D01*
X94277601Y-69579045D01*
X94272110Y-69589483D01*
X94272106Y-69589492D01*
X94271198Y-69592561D01*
X94267051Y-69603951D01*
X94265766Y-69606902D01*
X94265765Y-69606906D01*
X94263254Y-69618444D01*
X94261446Y-69625495D01*
X94249152Y-69667017D01*
X94247296Y-69672658D01*
X94242458Y-69686000D01*
X94242457Y-69686001D01*
X94242333Y-69686818D01*
X94239403Y-69699941D01*
X94239166Y-69700738D01*
X94239165Y-69700746D01*
X94237869Y-69714866D01*
X94237149Y-69720760D01*
X94230731Y-69762786D01*
X94229077Y-69771172D01*
X94226822Y-69780467D01*
X94226822Y-69780470D01*
X94226594Y-69785931D01*
X94225547Y-69796728D01*
X94224723Y-69802122D01*
X94224723Y-69802125D01*
X94225151Y-69811687D01*
X94225164Y-69820226D01*
X94223452Y-69861341D01*
X94222714Y-69869965D01*
X94221508Y-69879249D01*
X94221508Y-69879268D01*
X94221886Y-69884888D01*
X94222023Y-69895647D01*
X94221788Y-69901271D01*
X94221789Y-69901280D01*
X94223233Y-69910541D01*
X94224191Y-69919142D01*
X94229010Y-69990744D01*
X94229193Y-69994591D01*
X94229698Y-70012447D01*
X94230312Y-70017278D01*
X94230183Y-70017294D01*
X94230197Y-70017391D01*
X94230326Y-70017370D01*
X94231126Y-70022165D01*
X94235777Y-70039404D01*
X94236708Y-70043143D01*
X94253975Y-70118724D01*
X94254456Y-70120947D01*
X94258595Y-70141199D01*
X94259434Y-70143912D01*
X94259435Y-70143915D01*
X94260369Y-70146707D01*
X94260370Y-70146711D01*
X94268816Y-70165577D01*
X94269706Y-70167628D01*
X94300092Y-70239911D01*
X94301057Y-70242293D01*
X94308384Y-70261074D01*
X94309885Y-70264028D01*
X94311426Y-70266874D01*
X94322695Y-70283549D01*
X94324103Y-70285692D01*
X94327969Y-70291745D01*
X94343357Y-70350964D01*
X94320998Y-70407918D01*
X94316888Y-70412448D01*
X94313517Y-70417493D01*
X94297060Y-70436406D01*
X94293182Y-70439860D01*
X94282049Y-70462880D01*
X94275244Y-70474773D01*
X94261039Y-70496034D01*
X94261038Y-70496035D01*
X94260026Y-70501125D01*
X94252060Y-70524895D01*
X94249799Y-70529570D01*
X94249798Y-70529575D01*
X94248322Y-70555102D01*
X94246588Y-70568682D01*
X94246506Y-70569094D01*
X94246506Y-70583677D01*
X94246341Y-70589390D01*
X94244047Y-70629065D01*
X94245395Y-70638722D01*
X94244141Y-70638896D01*
X94246506Y-70652865D01*
X94246506Y-70918326D01*
X94246253Y-70925401D01*
X94243584Y-70962641D01*
X94243597Y-70962740D01*
X94243566Y-70962901D01*
X94242888Y-70972365D01*
X94241767Y-70972284D01*
X94232080Y-71022832D01*
X94187441Y-71064677D01*
X94126732Y-71072293D01*
X94095158Y-71060387D01*
X94095045Y-71060320D01*
X94095042Y-71060318D01*
X94095038Y-71060316D01*
X94095037Y-71060316D01*
X94075608Y-71053540D01*
X94068597Y-71050792D01*
X94061934Y-71047883D01*
X94055417Y-71044749D01*
X94040371Y-71036825D01*
X94040364Y-71036823D01*
X94031739Y-71036028D01*
X94010289Y-71031617D01*
X93995406Y-71026789D01*
X93983895Y-71027701D01*
X93967166Y-71027197D01*
X93967164Y-71027247D01*
X93962687Y-71027063D01*
X93962351Y-71027053D01*
X93962343Y-71027051D01*
X93962312Y-71027047D01*
X93962294Y-71027046D01*
X93961032Y-71027119D01*
X93948170Y-71027016D01*
X93946426Y-71026888D01*
X93930649Y-71027283D01*
X93925617Y-71027281D01*
X93909849Y-71026873D01*
X93907502Y-71027043D01*
X93899108Y-71027960D01*
X93895134Y-71028148D01*
X93892936Y-71028228D01*
X93887159Y-71028372D01*
X93879289Y-71028569D01*
X93857497Y-71026699D01*
X93851786Y-71025563D01*
X93828531Y-71030188D01*
X93819846Y-71031251D01*
X93815331Y-71031912D01*
X93799358Y-71035879D01*
X93794816Y-71036894D01*
X93754043Y-71045005D01*
X93748529Y-71047288D01*
X93743036Y-71049873D01*
X93709600Y-71074568D01*
X93705789Y-71077247D01*
X93671185Y-71100369D01*
X93666909Y-71104645D01*
X93662878Y-71109076D01*
X93641422Y-71144714D01*
X93638925Y-71148649D01*
X93615820Y-71183229D01*
X93613506Y-71188815D01*
X93611478Y-71194451D01*
X93605291Y-71235595D01*
X93604490Y-71240184D01*
X93601287Y-71256288D01*
X93600834Y-71260890D01*
X93600186Y-71269561D01*
X93596662Y-71293001D01*
X93598366Y-71299860D01*
X93601286Y-71323728D01*
X93601286Y-71366772D01*
X93599382Y-71386096D01*
X93597678Y-71394658D01*
X93567776Y-71448039D01*
X93512208Y-71473649D01*
X93481269Y-71472432D01*
X93471068Y-71470403D01*
X93471067Y-71470403D01*
X93446392Y-71475310D01*
X93446393Y-71475311D01*
X93408226Y-71482903D01*
X93408225Y-71482902D01*
X93373329Y-71489844D01*
X93373324Y-71489846D01*
X93290467Y-71545208D01*
X93290462Y-71545213D01*
X93235100Y-71628071D01*
X93221762Y-71695131D01*
X93221761Y-71695133D01*
X93215659Y-71725807D01*
X93215659Y-71725809D01*
X93215659Y-71725811D01*
X93218665Y-71740922D01*
X93220567Y-71760236D01*
X93220567Y-71867719D01*
X93218665Y-71887032D01*
X93213757Y-71911707D01*
X93210620Y-71911083D01*
X93196752Y-71953768D01*
X93147252Y-71989732D01*
X93135974Y-71992674D01*
X93044709Y-72010829D01*
X93044703Y-72010831D01*
X92961846Y-72066193D01*
X92961841Y-72066198D01*
X92906479Y-72149056D01*
X92892736Y-72218152D01*
X92892735Y-72218154D01*
X92887038Y-72246792D01*
X92887038Y-72246794D01*
X92887038Y-72246796D01*
X92890044Y-72261907D01*
X92891946Y-72281221D01*
X92891946Y-72496075D01*
X92890338Y-72513846D01*
X92887070Y-72531753D01*
X92887070Y-72531759D01*
X92896973Y-72577720D01*
X92897292Y-72579258D01*
X92906767Y-72626891D01*
X92899575Y-72687652D01*
X92858043Y-72732582D01*
X92828987Y-72743302D01*
X92804253Y-72748222D01*
X92804249Y-72748224D01*
X92721392Y-72803586D01*
X92721387Y-72803591D01*
X92666025Y-72886449D01*
X92651845Y-72957742D01*
X92651844Y-72957744D01*
X92646584Y-72984185D01*
X92646584Y-72984187D01*
X92646584Y-72984189D01*
X92648429Y-72993463D01*
X92649590Y-72999300D01*
X92651492Y-73018614D01*
X92651492Y-73230294D01*
X92649590Y-73249607D01*
X92646584Y-73264719D01*
X92646584Y-73264722D01*
X92650542Y-73284623D01*
X92666025Y-73362456D01*
X92666027Y-73362462D01*
X92721389Y-73445319D01*
X92721392Y-73445322D01*
X92795292Y-73494699D01*
X92804252Y-73500686D01*
X92901992Y-73520128D01*
X92914272Y-73517685D01*
X92917105Y-73517122D01*
X92936418Y-73515220D01*
X92965002Y-73515220D01*
X93023193Y-73534127D01*
X93059157Y-73583627D01*
X93059157Y-73644813D01*
X93047318Y-73669221D01*
X93002663Y-73736052D01*
X93002663Y-73736053D01*
X93002662Y-73736055D01*
X92991375Y-73792800D01*
X92983220Y-73833795D01*
X92986226Y-73848906D01*
X92988128Y-73868220D01*
X92988128Y-73999748D01*
X92986226Y-74019061D01*
X92983220Y-74034173D01*
X92983220Y-74034176D01*
X92987178Y-74054077D01*
X93002661Y-74131910D01*
X93002663Y-74131916D01*
X93058025Y-74214773D01*
X93058027Y-74214775D01*
X93140888Y-74270140D01*
X93238628Y-74289582D01*
X93250908Y-74287139D01*
X93253741Y-74286576D01*
X93273054Y-74284674D01*
X93345991Y-74284674D01*
X93404182Y-74303581D01*
X93440146Y-74353081D01*
X93444991Y-74383674D01*
X93444991Y-74416535D01*
X93443089Y-74435848D01*
X93440083Y-74450960D01*
X93440083Y-74450963D01*
X93444041Y-74470864D01*
X93459524Y-74548697D01*
X93459526Y-74548703D01*
X93514888Y-74631560D01*
X93514891Y-74631563D01*
X93583853Y-74677641D01*
X93597751Y-74686927D01*
X93657429Y-74698798D01*
X93710812Y-74728694D01*
X93736428Y-74784259D01*
X93724491Y-74844269D01*
X93693115Y-74878211D01*
X93667179Y-74895540D01*
X93667176Y-74895543D01*
X93611814Y-74978400D01*
X93611814Y-74978401D01*
X93611813Y-74978403D01*
X93600671Y-75034417D01*
X93592371Y-75076143D01*
X93595377Y-75091254D01*
X93597279Y-75110568D01*
X93597279Y-75137898D01*
X93595377Y-75157211D01*
X93592371Y-75172323D01*
X93592371Y-75172326D01*
X93596328Y-75192224D01*
X93596329Y-75192227D01*
X93611812Y-75270060D01*
X93611814Y-75270066D01*
X93667176Y-75352923D01*
X93667178Y-75352925D01*
X93750039Y-75408290D01*
X93847779Y-75427732D01*
X93860059Y-75425289D01*
X93862892Y-75424726D01*
X93882205Y-75422824D01*
X93901519Y-75422824D01*
X93920832Y-75424726D01*
X93924380Y-75425431D01*
X93935945Y-75427732D01*
X94033685Y-75408290D01*
X94116546Y-75352925D01*
X94171911Y-75270064D01*
X94186445Y-75196998D01*
X94186445Y-75196997D01*
X94187392Y-75192239D01*
X94187394Y-75192224D01*
X94191353Y-75172324D01*
X94188347Y-75157211D01*
X94186445Y-75137898D01*
X94186445Y-75114152D01*
X94205352Y-75055961D01*
X94254852Y-75019997D01*
X94266128Y-75017054D01*
X94283037Y-75013691D01*
X94298490Y-75010618D01*
X94312439Y-75007843D01*
X94354291Y-74999518D01*
X94437152Y-74944153D01*
X94492517Y-74861292D01*
X94511959Y-74763552D01*
X94509350Y-74750440D01*
X94507648Y-74724854D01*
X94507755Y-74723153D01*
X94507757Y-74723142D01*
X94507111Y-74704569D01*
X94507051Y-74701128D01*
X94507051Y-74682524D01*
X94506574Y-74677684D01*
X94507010Y-74677641D01*
X94505950Y-74666410D01*
X94506002Y-74660065D01*
X94525386Y-74602031D01*
X94575179Y-74566474D01*
X94588547Y-74563253D01*
X94595909Y-74562012D01*
X94596611Y-74561810D01*
X94597950Y-74561256D01*
X94600687Y-74560169D01*
X94602010Y-74559665D01*
X94602671Y-74559324D01*
X94602758Y-74559265D01*
X94602761Y-74559265D01*
X94639966Y-74534404D01*
X94642326Y-74532877D01*
X94680245Y-74509121D01*
X94680246Y-74509118D01*
X94680342Y-74509059D01*
X94680924Y-74508596D01*
X94681946Y-74507575D01*
X94684048Y-74505534D01*
X94685075Y-74504565D01*
X94685558Y-74503993D01*
X94685618Y-74503902D01*
X94685622Y-74503900D01*
X94710513Y-74466645D01*
X94712063Y-74464397D01*
X94738017Y-74427921D01*
X94738017Y-74427918D01*
X94738085Y-74427824D01*
X94738444Y-74427176D01*
X94738994Y-74425848D01*
X94740159Y-74423148D01*
X94740739Y-74421856D01*
X94740965Y-74421147D01*
X94740986Y-74421040D01*
X94740987Y-74421039D01*
X94749713Y-74377168D01*
X94750308Y-74374387D01*
X94760319Y-74330793D01*
X94757814Y-74315936D01*
X94756898Y-74310498D01*
X94755521Y-74294042D01*
X94755521Y-74196841D01*
X94757423Y-74177527D01*
X94757928Y-74174988D01*
X94760429Y-74162416D01*
X94747584Y-74097841D01*
X94754776Y-74037082D01*
X94762363Y-74023533D01*
X94813123Y-73947565D01*
X94827657Y-73874499D01*
X94827657Y-73874498D01*
X94828604Y-73869740D01*
X94828606Y-73869725D01*
X94832565Y-73849825D01*
X94829559Y-73834712D01*
X94827657Y-73815399D01*
X94827657Y-73812114D01*
X94829559Y-73792800D01*
X94832565Y-73777689D01*
X94817470Y-73701805D01*
X94813123Y-73679949D01*
X94779088Y-73629012D01*
X94762481Y-73570124D01*
X94783659Y-73512721D01*
X94811406Y-73488566D01*
X94812228Y-73488085D01*
X94823139Y-73481700D01*
X94839343Y-73460321D01*
X94889561Y-73425370D01*
X94950734Y-73426611D01*
X94975031Y-73439036D01*
X94977504Y-73440768D01*
X94978288Y-73441323D01*
X94978739Y-73441646D01*
X94998894Y-73452988D01*
X94999757Y-73453479D01*
X95043257Y-73478537D01*
X95044180Y-73479075D01*
X95048639Y-73481711D01*
X95063891Y-73490725D01*
X95064591Y-73491041D01*
X95065614Y-73491510D01*
X95066203Y-73491784D01*
X95066327Y-73491826D01*
X95066329Y-73491827D01*
X95087943Y-73499139D01*
X95088955Y-73499488D01*
X95128090Y-73513221D01*
X95133945Y-73515486D01*
X95146449Y-73520788D01*
X95147852Y-73521079D01*
X95160513Y-73524597D01*
X95161866Y-73525072D01*
X95175320Y-73526983D01*
X95181445Y-73528052D01*
X95199094Y-73531715D01*
X95203210Y-73532663D01*
X95204555Y-73533003D01*
X95219853Y-73536872D01*
X95219856Y-73536872D01*
X95224670Y-73537598D01*
X95224660Y-73537659D01*
X95225740Y-73537798D01*
X95225747Y-73537736D01*
X95230584Y-73538252D01*
X95230591Y-73538254D01*
X95247767Y-73538396D01*
X95252002Y-73538523D01*
X95253544Y-73538602D01*
X95256351Y-73538746D01*
X95272561Y-73540931D01*
X95272993Y-73541025D01*
X95272997Y-73541027D01*
X95317441Y-73541929D01*
X95320415Y-73542036D01*
X95339694Y-73543027D01*
X95339701Y-73543025D01*
X95339705Y-73543026D01*
X95343592Y-73542844D01*
X95347477Y-73542541D01*
X95347477Y-73542540D01*
X95347479Y-73542541D01*
X95366439Y-73539167D01*
X95369420Y-73538684D01*
X95382007Y-73536846D01*
X95388526Y-73535894D01*
X95396555Y-73535272D01*
X95398370Y-73534892D01*
X95398373Y-73534893D01*
X95402372Y-73534056D01*
X95408282Y-73533008D01*
X95413410Y-73532260D01*
X95413412Y-73532258D01*
X95414983Y-73532029D01*
X95423449Y-73529650D01*
X95442159Y-73525739D01*
X95444834Y-73525222D01*
X95464054Y-73521804D01*
X95464059Y-73521801D01*
X95464064Y-73521801D01*
X95467698Y-73520779D01*
X95471288Y-73519651D01*
X95471295Y-73519650D01*
X95489222Y-73512019D01*
X95491844Y-73510948D01*
X95533446Y-73494699D01*
X95533448Y-73494697D01*
X95534078Y-73494451D01*
X95545957Y-73488086D01*
X95559919Y-73481933D01*
X95560896Y-73481510D01*
X95581615Y-73472693D01*
X95581617Y-73472691D01*
X95581771Y-73472626D01*
X95582516Y-73472207D01*
X95583589Y-73471611D01*
X95584254Y-73471246D01*
X95584380Y-73471157D01*
X95584386Y-73471155D01*
X95594174Y-73464293D01*
X95652675Y-73446374D01*
X95710538Y-73466263D01*
X95745659Y-73516365D01*
X95750000Y-73545360D01*
X95750000Y-77167053D01*
X95731093Y-77225244D01*
X95681593Y-77261208D01*
X95620407Y-77261208D01*
X95609957Y-77256434D01*
X95609728Y-77256945D01*
X95604263Y-77254485D01*
X95447662Y-77205686D01*
X95447656Y-77205684D01*
X95379599Y-77199500D01*
X95379594Y-77199500D01*
X93020406Y-77199500D01*
X93020400Y-77199500D01*
X92952343Y-77205684D01*
X92952337Y-77205686D01*
X92795736Y-77254485D01*
X92795724Y-77254490D01*
X92655350Y-77339349D01*
X92539349Y-77455350D01*
X92454490Y-77595724D01*
X92454485Y-77595736D01*
X92405684Y-77752343D01*
X92405683Y-77752346D01*
X92403869Y-77772309D01*
X92379772Y-77828549D01*
X92375280Y-77833351D01*
X89450680Y-80757952D01*
X89396163Y-80785729D01*
X89380676Y-80786948D01*
X84965177Y-80786948D01*
X84906986Y-80768041D01*
X84871022Y-80718541D01*
X84871022Y-80657355D01*
X84886636Y-80627680D01*
X84905857Y-80602630D01*
X84905856Y-80602630D01*
X84905861Y-80602625D01*
X84961330Y-80468709D01*
X84980250Y-80325000D01*
X84961330Y-80181291D01*
X84905861Y-80047375D01*
X84817621Y-79932379D01*
X84702625Y-79844139D01*
X84702621Y-79844137D01*
X84568709Y-79788670D01*
X84452977Y-79773433D01*
X84397752Y-79747092D01*
X84368558Y-79693321D01*
X84366900Y-79675280D01*
X84366900Y-78634519D01*
X84385807Y-78576328D01*
X84435307Y-78540364D01*
X84496493Y-78540364D01*
X84535904Y-78564515D01*
X84856429Y-78885040D01*
X84884206Y-78939557D01*
X84877890Y-78992927D01*
X84854741Y-79048815D01*
X84854741Y-79048818D01*
X84835821Y-79192528D01*
X84835821Y-79192529D01*
X84854740Y-79336237D01*
X84854741Y-79336238D01*
X84899991Y-79445484D01*
X84910210Y-79470154D01*
X84998450Y-79585150D01*
X85113446Y-79673390D01*
X85247362Y-79728859D01*
X85391071Y-79747779D01*
X85534780Y-79728859D01*
X85668696Y-79673390D01*
X85783692Y-79585150D01*
X85865498Y-79478537D01*
X85915921Y-79443883D01*
X85977086Y-79445484D01*
X86005914Y-79465497D01*
X86007856Y-79463184D01*
X86014489Y-79468750D01*
X86014491Y-79468751D01*
X86050442Y-79489507D01*
X86057718Y-79494142D01*
X86091733Y-79517960D01*
X86094050Y-79518581D01*
X86117924Y-79528469D01*
X86120007Y-79529671D01*
X86120009Y-79529672D01*
X86160900Y-79536882D01*
X86169295Y-79538742D01*
X86209424Y-79549495D01*
X86250779Y-79545876D01*
X86259407Y-79545500D01*
X88272401Y-79545500D01*
X88330592Y-79564407D01*
X88350944Y-79584235D01*
X88357373Y-79592614D01*
X88357375Y-79592616D01*
X88357379Y-79592621D01*
X88472375Y-79680861D01*
X88606291Y-79736330D01*
X88750000Y-79755250D01*
X88893709Y-79736330D01*
X89027625Y-79680861D01*
X89142621Y-79592621D01*
X89230861Y-79477625D01*
X89286330Y-79343709D01*
X89305250Y-79200000D01*
X89304266Y-79192529D01*
X89286330Y-79056291D01*
X89230861Y-78922375D01*
X89142621Y-78807379D01*
X89027625Y-78719139D01*
X89027621Y-78719137D01*
X88893709Y-78663670D01*
X88893708Y-78663669D01*
X88750000Y-78644750D01*
X88606291Y-78663669D01*
X88606290Y-78663670D01*
X88472378Y-78719137D01*
X88472374Y-78719139D01*
X88357381Y-78807377D01*
X88357373Y-78807385D01*
X88350944Y-78815765D01*
X88300521Y-78850422D01*
X88272401Y-78854500D01*
X86424118Y-78854500D01*
X86365927Y-78835593D01*
X86354114Y-78825504D01*
X85175896Y-77647285D01*
X85148119Y-77592768D01*
X85146900Y-77577281D01*
X85146900Y-76469052D01*
X85165807Y-76410861D01*
X85215307Y-76374897D01*
X85276493Y-76374897D01*
X85283763Y-76377579D01*
X85352691Y-76406130D01*
X85496400Y-76425050D01*
X85640109Y-76406130D01*
X85774025Y-76350661D01*
X85889021Y-76262421D01*
X85977261Y-76147425D01*
X86032730Y-76013509D01*
X86051650Y-75869800D01*
X86032730Y-75726091D01*
X85977261Y-75592175D01*
X85889021Y-75477179D01*
X85774025Y-75388939D01*
X85774024Y-75388938D01*
X85658014Y-75340886D01*
X85611489Y-75301149D01*
X85596900Y-75249422D01*
X85596900Y-72100003D01*
X86994659Y-72100003D01*
X87013974Y-72296126D01*
X87013975Y-72296129D01*
X87071187Y-72484730D01*
X87071188Y-72484732D01*
X87121714Y-72579258D01*
X87164090Y-72658538D01*
X87164092Y-72658540D01*
X87164093Y-72658542D01*
X87289112Y-72810878D01*
X87289121Y-72810887D01*
X87441457Y-72935906D01*
X87441462Y-72935910D01*
X87540036Y-72988599D01*
X87599282Y-73020267D01*
X87615273Y-73028814D01*
X87803868Y-73086024D01*
X87803870Y-73086024D01*
X87803873Y-73086025D01*
X87999997Y-73105341D01*
X88000000Y-73105341D01*
X88000003Y-73105341D01*
X88196126Y-73086025D01*
X88196127Y-73086024D01*
X88196132Y-73086024D01*
X88384727Y-73028814D01*
X88463764Y-72986567D01*
X88523993Y-72975811D01*
X88579045Y-73002513D01*
X88601894Y-73035992D01*
X88606457Y-73047007D01*
X88619139Y-73077625D01*
X88707379Y-73192621D01*
X88822375Y-73280861D01*
X88956291Y-73336330D01*
X89100000Y-73355250D01*
X89243709Y-73336330D01*
X89377625Y-73280861D01*
X89492621Y-73192621D01*
X89580861Y-73077625D01*
X89636330Y-72943709D01*
X89655250Y-72800000D01*
X89652063Y-72775796D01*
X89636330Y-72656291D01*
X89580861Y-72522375D01*
X89492621Y-72407379D01*
X89377625Y-72319139D01*
X89377621Y-72319137D01*
X89243709Y-72263670D01*
X89105435Y-72245465D01*
X89050210Y-72219124D01*
X89048354Y-72217316D01*
X89031787Y-72200749D01*
X89004010Y-72146232D01*
X89003268Y-72121045D01*
X89005341Y-72100000D01*
X89005341Y-72099996D01*
X88986025Y-71903873D01*
X88986024Y-71903870D01*
X88986024Y-71903868D01*
X88928814Y-71715273D01*
X88918048Y-71695132D01*
X88892135Y-71646652D01*
X88835910Y-71541462D01*
X88804591Y-71503300D01*
X88710887Y-71389121D01*
X88710878Y-71389112D01*
X88558542Y-71264093D01*
X88558540Y-71264092D01*
X88558538Y-71264090D01*
X88481423Y-71222871D01*
X88384732Y-71171188D01*
X88384730Y-71171187D01*
X88196129Y-71113975D01*
X88196126Y-71113974D01*
X88000003Y-71094659D01*
X87999997Y-71094659D01*
X87803873Y-71113974D01*
X87803870Y-71113975D01*
X87615269Y-71171187D01*
X87615267Y-71171188D01*
X87441467Y-71264087D01*
X87441457Y-71264093D01*
X87289121Y-71389112D01*
X87289112Y-71389121D01*
X87164093Y-71541457D01*
X87164087Y-71541467D01*
X87071188Y-71715267D01*
X87071187Y-71715269D01*
X87013975Y-71903870D01*
X87013974Y-71903873D01*
X86994659Y-72099996D01*
X86994659Y-72100003D01*
X85596900Y-72100003D01*
X85596900Y-62285839D01*
X85615807Y-62227648D01*
X85625890Y-62215841D01*
X89977758Y-57863972D01*
X90032273Y-57836197D01*
X90092705Y-57845768D01*
X90108022Y-57855432D01*
X90146375Y-57884861D01*
X90280291Y-57940330D01*
X90424000Y-57959250D01*
X90567709Y-57940330D01*
X90701625Y-57884861D01*
X90816621Y-57796621D01*
X90904861Y-57681625D01*
X90960330Y-57547709D01*
X90979250Y-57404000D01*
X90960330Y-57260291D01*
X90904861Y-57126375D01*
X90816621Y-57011379D01*
X90701625Y-56923139D01*
X90701621Y-56923137D01*
X90567709Y-56867670D01*
X90555464Y-56866057D01*
X90500240Y-56839717D01*
X90471046Y-56785946D01*
X90470235Y-56780827D01*
X90470060Y-56779502D01*
X90470061Y-56779500D01*
X90451141Y-56635791D01*
X90395672Y-56501875D01*
X90307432Y-56386879D01*
X90192436Y-56298639D01*
X90192432Y-56298637D01*
X90058520Y-56243170D01*
X90058519Y-56243169D01*
X89914811Y-56224250D01*
X89771102Y-56243169D01*
X89771101Y-56243170D01*
X89637189Y-56298637D01*
X89637185Y-56298639D01*
X89522192Y-56386877D01*
X89522188Y-56386881D01*
X89433950Y-56501874D01*
X89433948Y-56501878D01*
X89378481Y-56635790D01*
X89378480Y-56635791D01*
X89363311Y-56751016D01*
X89336970Y-56806241D01*
X89335162Y-56808098D01*
X88622317Y-57520943D01*
X88567800Y-57548720D01*
X88507368Y-57539149D01*
X88482312Y-57520945D01*
X88470890Y-57509523D01*
X88470887Y-57509521D01*
X88470886Y-57509520D01*
X88327691Y-57419544D01*
X88168065Y-57363688D01*
X88168053Y-57363685D01*
X88000004Y-57344751D01*
X87999996Y-57344751D01*
X87831946Y-57363685D01*
X87831934Y-57363688D01*
X87672309Y-57419544D01*
X87672308Y-57419544D01*
X87529113Y-57509520D01*
X87409520Y-57629113D01*
X87319544Y-57772308D01*
X87319544Y-57772309D01*
X87263688Y-57931934D01*
X87263685Y-57931946D01*
X87244751Y-58099995D01*
X87244751Y-58100004D01*
X87263685Y-58268053D01*
X87263688Y-58268065D01*
X87319544Y-58427690D01*
X87319544Y-58427691D01*
X87409520Y-58570886D01*
X87409523Y-58570890D01*
X87529110Y-58690477D01*
X87529112Y-58690478D01*
X87529113Y-58690479D01*
X87662450Y-58774261D01*
X87672310Y-58780456D01*
X87707473Y-58792760D01*
X87765750Y-58813152D01*
X87814430Y-58850217D01*
X87832027Y-58908817D01*
X87811819Y-58966569D01*
X87803056Y-58976600D01*
X84990671Y-61788984D01*
X84974820Y-61801856D01*
X84963566Y-61809209D01*
X84963558Y-61809216D01*
X84943165Y-61835416D01*
X84935064Y-61844592D01*
X84933885Y-61845770D01*
X84933877Y-61845781D01*
X84921488Y-61863131D01*
X84919046Y-61866405D01*
X84886593Y-61908102D01*
X84882847Y-61915023D01*
X84879389Y-61922096D01*
X84864311Y-61972742D01*
X84863063Y-61976637D01*
X84845900Y-62026633D01*
X84844609Y-62034367D01*
X84843632Y-62042210D01*
X84845815Y-62094994D01*
X84845900Y-62099085D01*
X84845900Y-70299377D01*
X84826993Y-70357568D01*
X84777493Y-70393532D01*
X84716307Y-70393532D01*
X84676896Y-70369381D01*
X82304496Y-67996981D01*
X82276719Y-67942464D01*
X82275500Y-67926977D01*
X82275500Y-66849406D01*
X82275877Y-66840777D01*
X82276881Y-66829307D01*
X82279495Y-66799424D01*
X82279234Y-66798451D01*
X82268749Y-66759322D01*
X82266879Y-66750887D01*
X82259672Y-66710010D01*
X82258469Y-66707926D01*
X82248581Y-66684052D01*
X82247960Y-66681734D01*
X82224139Y-66647714D01*
X82219508Y-66640445D01*
X82216858Y-66635855D01*
X82198751Y-66604492D01*
X82191817Y-66598674D01*
X82166958Y-66577814D01*
X82160590Y-66571980D01*
X79123496Y-63534885D01*
X79095719Y-63480368D01*
X79094500Y-63464881D01*
X79094500Y-61808463D01*
X79094877Y-61799834D01*
X79098495Y-61758481D01*
X79096071Y-61749435D01*
X79092700Y-61723820D01*
X79092700Y-55692509D01*
X79093077Y-55683881D01*
X79096694Y-55642535D01*
X79085948Y-55602429D01*
X79084081Y-55594006D01*
X79076872Y-55553121D01*
X79075671Y-55551041D01*
X79065780Y-55527161D01*
X79065160Y-55524845D01*
X79065157Y-55524841D01*
X79065157Y-55524840D01*
X79041350Y-55490841D01*
X79036708Y-55483556D01*
X79015951Y-55447603D01*
X79002988Y-55436726D01*
X78984158Y-55420925D01*
X78977790Y-55415091D01*
X77625793Y-54063094D01*
X77598016Y-54008577D01*
X77596797Y-53993090D01*
X77596797Y-53906700D01*
X77597174Y-53898071D01*
X77599643Y-53869857D01*
X77600792Y-53856718D01*
X77590045Y-53816615D01*
X77588176Y-53808181D01*
X77586405Y-53798135D01*
X77580969Y-53767304D01*
X77579766Y-53765220D01*
X77569878Y-53741346D01*
X77569257Y-53739028D01*
X77545436Y-53705008D01*
X77540805Y-53697739D01*
X77520048Y-53661786D01*
X77488255Y-53635108D01*
X77481887Y-53629274D01*
X77285696Y-53433083D01*
X77257919Y-53378566D01*
X77256700Y-53363079D01*
X77256700Y-52829619D01*
X77257077Y-52820990D01*
X77260695Y-52779637D01*
X77249949Y-52739535D01*
X77248079Y-52731100D01*
X77240872Y-52690223D01*
X77239669Y-52688139D01*
X77229781Y-52664265D01*
X77229160Y-52661947D01*
X77205339Y-52627927D01*
X77200708Y-52620658D01*
X77200391Y-52620109D01*
X77179951Y-52584705D01*
X77171513Y-52577625D01*
X77148158Y-52558027D01*
X77141790Y-52552193D01*
X76802481Y-52212884D01*
X76796657Y-52206529D01*
X76769971Y-52174725D01*
X76734014Y-52153965D01*
X76726739Y-52149330D01*
X76692732Y-52125517D01*
X76692725Y-52125514D01*
X76690403Y-52124892D01*
X76666532Y-52115004D01*
X76665650Y-52114495D01*
X76664452Y-52113803D01*
X76623575Y-52106596D01*
X76615144Y-52104727D01*
X76608073Y-52102832D01*
X76575039Y-52093981D01*
X76575037Y-52093981D01*
X76545303Y-52096582D01*
X76533683Y-52097599D01*
X76525056Y-52097976D01*
X76070952Y-52097976D01*
X76062324Y-52097599D01*
X76050704Y-52096582D01*
X76020971Y-52093981D01*
X76020970Y-52093981D01*
X76020969Y-52093981D01*
X75998524Y-52099995D01*
X75980862Y-52104727D01*
X75972435Y-52106595D01*
X75931552Y-52113804D01*
X75929466Y-52115009D01*
X75905606Y-52124892D01*
X75903280Y-52125515D01*
X75869266Y-52149331D01*
X75861987Y-52153968D01*
X75842131Y-52165432D01*
X75826037Y-52174725D01*
X75826036Y-52174726D01*
X75826035Y-52174726D01*
X75799354Y-52206522D01*
X75793522Y-52212887D01*
X75472415Y-52533994D01*
X75466050Y-52539826D01*
X75434254Y-52566507D01*
X75434254Y-52566508D01*
X75413496Y-52602459D01*
X75408859Y-52609738D01*
X75385043Y-52643752D01*
X75384420Y-52646078D01*
X75374537Y-52669938D01*
X75373332Y-52672024D01*
X75366123Y-52712907D01*
X75364255Y-52721334D01*
X75359610Y-52738668D01*
X75353509Y-52761441D01*
X75353509Y-52761442D01*
X75353509Y-52761443D01*
X75357127Y-52802794D01*
X75357504Y-52811423D01*
X75357504Y-53277937D01*
X75338597Y-53336128D01*
X75337046Y-53338204D01*
X75307430Y-53376800D01*
X75307427Y-53376805D01*
X75251960Y-53510717D01*
X75251959Y-53510718D01*
X75233040Y-53654426D01*
X75233040Y-53654427D01*
X75251959Y-53798135D01*
X75251960Y-53798136D01*
X75299633Y-53913232D01*
X75307429Y-53932052D01*
X75395669Y-54047048D01*
X75510665Y-54135288D01*
X75644581Y-54190757D01*
X75650477Y-54193199D01*
X75697003Y-54232935D01*
X75710417Y-54288808D01*
X75711047Y-54288808D01*
X75711047Y-54291430D01*
X75711287Y-54292430D01*
X75711047Y-54294714D01*
X75711047Y-54295297D01*
X75729966Y-54439005D01*
X75729967Y-54439006D01*
X75784592Y-54570886D01*
X75785436Y-54572922D01*
X75873676Y-54687918D01*
X75988672Y-54776158D01*
X76122588Y-54831627D01*
X76266297Y-54850547D01*
X76276774Y-54849167D01*
X76336932Y-54860313D01*
X76359704Y-54877315D01*
X77592704Y-56110315D01*
X77620481Y-56164832D01*
X77621700Y-56180319D01*
X77621700Y-56941654D01*
X77602793Y-56999845D01*
X77553293Y-57035809D01*
X77492107Y-57035809D01*
X77452696Y-57011658D01*
X77269418Y-56828380D01*
X77241641Y-56773863D01*
X77247958Y-56720491D01*
X77260390Y-56690477D01*
X77296330Y-56603709D01*
X77315250Y-56460000D01*
X77296330Y-56316291D01*
X77240861Y-56182375D01*
X77152621Y-56067379D01*
X77037625Y-55979139D01*
X77037621Y-55979137D01*
X76923660Y-55931934D01*
X76903709Y-55923670D01*
X76881751Y-55920779D01*
X76785594Y-55908119D01*
X76730369Y-55881777D01*
X76705073Y-55842666D01*
X76680456Y-55772310D01*
X76590477Y-55629110D01*
X76470890Y-55509523D01*
X76470887Y-55509521D01*
X76470886Y-55509520D01*
X76327691Y-55419544D01*
X76168065Y-55363688D01*
X76168053Y-55363685D01*
X76000004Y-55344751D01*
X75999996Y-55344751D01*
X75831946Y-55363685D01*
X75831934Y-55363688D01*
X75672309Y-55419544D01*
X75672308Y-55419544D01*
X75529113Y-55509520D01*
X75409520Y-55629113D01*
X75319544Y-55772308D01*
X75319544Y-55772309D01*
X75263688Y-55931934D01*
X75263685Y-55931946D01*
X75244751Y-56099995D01*
X75244751Y-56100004D01*
X75263685Y-56268053D01*
X75263688Y-56268065D01*
X75319544Y-56427690D01*
X75319544Y-56427691D01*
X75409520Y-56570886D01*
X75409523Y-56570890D01*
X75529110Y-56690477D01*
X75529112Y-56690478D01*
X75529113Y-56690479D01*
X75670788Y-56779500D01*
X75672310Y-56780456D01*
X75712080Y-56794372D01*
X75831934Y-56836311D01*
X75831938Y-56836312D01*
X75831941Y-56836313D01*
X75831942Y-56836313D01*
X75831946Y-56836314D01*
X75999996Y-56855249D01*
X76000000Y-56855249D01*
X76000004Y-56855249D01*
X76168053Y-56836314D01*
X76168055Y-56836313D01*
X76168059Y-56836313D01*
X76247700Y-56808444D01*
X76308868Y-56807071D01*
X76358941Y-56841625D01*
X76368142Y-56853617D01*
X76387249Y-56897592D01*
X76388004Y-56902118D01*
X76388592Y-56906159D01*
X76395133Y-56958624D01*
X76397371Y-56966144D01*
X76399935Y-56973611D01*
X76425088Y-57020091D01*
X76426959Y-57023726D01*
X76450175Y-57071213D01*
X76454736Y-57077601D01*
X76459579Y-57083823D01*
X76459581Y-57083826D01*
X76498473Y-57119628D01*
X76501399Y-57122436D01*
X77142704Y-57763741D01*
X77170481Y-57818258D01*
X77171700Y-57833745D01*
X77171700Y-64095046D01*
X77169593Y-64115360D01*
X77166833Y-64128523D01*
X77170940Y-64161474D01*
X77171700Y-64173718D01*
X77171700Y-64175376D01*
X77175203Y-64196373D01*
X77175792Y-64200416D01*
X77182333Y-64252881D01*
X77184571Y-64260401D01*
X77187135Y-64267868D01*
X77212288Y-64314348D01*
X77214159Y-64317983D01*
X77237375Y-64365470D01*
X77241936Y-64371858D01*
X77246779Y-64378080D01*
X77246781Y-64378083D01*
X77285673Y-64413885D01*
X77288599Y-64416693D01*
X79249904Y-66377998D01*
X79277681Y-66432515D01*
X79278900Y-66448002D01*
X79278900Y-66455860D01*
X79259993Y-66514051D01*
X79258442Y-66516128D01*
X79173539Y-66626774D01*
X79173537Y-66626778D01*
X79118070Y-66760690D01*
X79118069Y-66760691D01*
X79099150Y-66904399D01*
X79099150Y-66904400D01*
X79118069Y-67048108D01*
X79118070Y-67048109D01*
X79172044Y-67178417D01*
X79173539Y-67182025D01*
X79261779Y-67297021D01*
X79376775Y-67385261D01*
X79510691Y-67440730D01*
X79654400Y-67459650D01*
X79798109Y-67440730D01*
X79932025Y-67385261D01*
X80047021Y-67297021D01*
X80135261Y-67182025D01*
X80190730Y-67048109D01*
X80207069Y-66924002D01*
X80233409Y-66868780D01*
X80287179Y-66839585D01*
X80347841Y-66847571D01*
X80375225Y-66866923D01*
X80775504Y-67267202D01*
X80803281Y-67321719D01*
X80804500Y-67337206D01*
X80804500Y-68414777D01*
X80804123Y-68423405D01*
X80800504Y-68464759D01*
X80800505Y-68464760D01*
X80811251Y-68504866D01*
X80813120Y-68513297D01*
X80820327Y-68554174D01*
X80821528Y-68556253D01*
X80831416Y-68580125D01*
X80832038Y-68582447D01*
X80832041Y-68582454D01*
X80855854Y-68616461D01*
X80860489Y-68623736D01*
X80881249Y-68659693D01*
X80913053Y-68686379D01*
X80919408Y-68692203D01*
X83646904Y-71419699D01*
X83674681Y-71474216D01*
X83675900Y-71489703D01*
X83675900Y-79901993D01*
X83675523Y-79910621D01*
X83671904Y-79951975D01*
X83671905Y-79951976D01*
X83682651Y-79992082D01*
X83684520Y-80000513D01*
X83691727Y-80041390D01*
X83692928Y-80043469D01*
X83702816Y-80067341D01*
X83703438Y-80069663D01*
X83703441Y-80069670D01*
X83727254Y-80103677D01*
X83731889Y-80110952D01*
X83752649Y-80146909D01*
X83784453Y-80173595D01*
X83790808Y-80179419D01*
X83842980Y-80231591D01*
X83870757Y-80286108D01*
X83871130Y-80314510D01*
X83869750Y-80324997D01*
X83869750Y-80325000D01*
X83888669Y-80468708D01*
X83888670Y-80468709D01*
X83944137Y-80602621D01*
X83944142Y-80602630D01*
X83963364Y-80627680D01*
X83983789Y-80685356D01*
X83966412Y-80744021D01*
X83917871Y-80781269D01*
X83884823Y-80786948D01*
X83429323Y-80786948D01*
X83371132Y-80768041D01*
X83359319Y-80757952D01*
X80904112Y-78302745D01*
X80876335Y-78248228D01*
X80875805Y-78231680D01*
X80875215Y-78231680D01*
X80875215Y-78227106D01*
X80875034Y-78225148D01*
X80856397Y-78024019D01*
X80800582Y-77827852D01*
X80709673Y-77645281D01*
X80586764Y-77482523D01*
X80436041Y-77345121D01*
X80262637Y-77237754D01*
X80072456Y-77164078D01*
X80072455Y-77164077D01*
X80072453Y-77164077D01*
X79871976Y-77126602D01*
X79668024Y-77126602D01*
X79467546Y-77164077D01*
X79397632Y-77191161D01*
X79277363Y-77237754D01*
X79117314Y-77336852D01*
X79103959Y-77345121D01*
X78953237Y-77482522D01*
X78830328Y-77645279D01*
X78830323Y-77645288D01*
X78767050Y-77772359D01*
X78739418Y-77827852D01*
X78683603Y-78024019D01*
X78664785Y-78227102D01*
X78683603Y-78430185D01*
X78739418Y-78626352D01*
X78830327Y-78808923D01*
X78953236Y-78971681D01*
X79103959Y-79109083D01*
X79277363Y-79216450D01*
X79467544Y-79290126D01*
X79668024Y-79327602D01*
X79765226Y-79327602D01*
X79823417Y-79346509D01*
X79835230Y-79356598D01*
X82166498Y-81687866D01*
X82194275Y-81742383D01*
X82195055Y-81748553D01*
X82199061Y-81790929D01*
X82199500Y-81800246D01*
X82199500Y-83898729D01*
X82180593Y-83956920D01*
X82131093Y-83992884D01*
X82069907Y-83992884D01*
X82020407Y-83956920D01*
X82011879Y-83942857D01*
X81996304Y-83911578D01*
X81979673Y-83878179D01*
X81856764Y-83715421D01*
X81706041Y-83578019D01*
X81532637Y-83470652D01*
X81342456Y-83396976D01*
X81342455Y-83396975D01*
X81342453Y-83396975D01*
X81141976Y-83359500D01*
X80938024Y-83359500D01*
X80737546Y-83396975D01*
X80667632Y-83424059D01*
X80547363Y-83470652D01*
X80373959Y-83578019D01*
X80223236Y-83715421D01*
X80208963Y-83734322D01*
X80100328Y-83878177D01*
X80100323Y-83878186D01*
X80009419Y-84060747D01*
X80009418Y-84060750D01*
X79953603Y-84256917D01*
X79934785Y-84460000D01*
X79953603Y-84663083D01*
X80004469Y-84841858D01*
X80009419Y-84859252D01*
X80011006Y-84862439D01*
X80020019Y-84922957D01*
X79992389Y-84976571D01*
X79550671Y-85418289D01*
X79534820Y-85431161D01*
X79523566Y-85438514D01*
X79523558Y-85438521D01*
X79503165Y-85464721D01*
X79495064Y-85473897D01*
X79493885Y-85475075D01*
X79493877Y-85475086D01*
X79481488Y-85492436D01*
X79479046Y-85495710D01*
X79446593Y-85537407D01*
X79442847Y-85544328D01*
X79439389Y-85551401D01*
X79424311Y-85602047D01*
X79423063Y-85605942D01*
X79405900Y-85655938D01*
X79404609Y-85663672D01*
X79403632Y-85671515D01*
X79405815Y-85724299D01*
X79405900Y-85728390D01*
X79405900Y-86112466D01*
X79386993Y-86170657D01*
X79337493Y-86206621D01*
X79276307Y-86206621D01*
X79240205Y-86185629D01*
X79166041Y-86118019D01*
X78992637Y-86010652D01*
X78802456Y-85936976D01*
X78802455Y-85936975D01*
X78802453Y-85936975D01*
X78601976Y-85899500D01*
X78398024Y-85899500D01*
X78197546Y-85936975D01*
X78127632Y-85964059D01*
X78007363Y-86010652D01*
X77867990Y-86096948D01*
X77833959Y-86118019D01*
X77683237Y-86255420D01*
X77560328Y-86418177D01*
X77560323Y-86418186D01*
X77490632Y-86558146D01*
X77469418Y-86600750D01*
X77413603Y-86796917D01*
X77394785Y-87000000D01*
X77413603Y-87203083D01*
X77452220Y-87338807D01*
X77469419Y-87399252D01*
X77550544Y-87562175D01*
X77560327Y-87581821D01*
X77683236Y-87744579D01*
X77833959Y-87881981D01*
X78007363Y-87989348D01*
X78197544Y-88063024D01*
X78398024Y-88100500D01*
X78601976Y-88100500D01*
X78802456Y-88063024D01*
X78992637Y-87989348D01*
X79166041Y-87881981D01*
X79316764Y-87744579D01*
X79333110Y-87722932D01*
X79383266Y-87687889D01*
X79444441Y-87689018D01*
X79479165Y-87709755D01*
X79514015Y-87741837D01*
X79516994Y-87744579D01*
X79519845Y-87747203D01*
X79522798Y-87750035D01*
X80293891Y-88521129D01*
X80306762Y-88536980D01*
X80314115Y-88548236D01*
X80340308Y-88568622D01*
X80349505Y-88576743D01*
X80350681Y-88577919D01*
X80368032Y-88590307D01*
X80371315Y-88592755D01*
X80413011Y-88625209D01*
X80413013Y-88625209D01*
X80419919Y-88628947D01*
X80426998Y-88632408D01*
X80427001Y-88632410D01*
X80477671Y-88647495D01*
X80481506Y-88648723D01*
X80531540Y-88665900D01*
X80531542Y-88665900D01*
X80539276Y-88667191D01*
X80547105Y-88668166D01*
X80547112Y-88668168D01*
X80599901Y-88665985D01*
X80603992Y-88665900D01*
X84731750Y-88665900D01*
X84789941Y-88684807D01*
X84801754Y-88694896D01*
X87087093Y-90980235D01*
X87114870Y-91034752D01*
X87116089Y-91050239D01*
X87116089Y-91643049D01*
X87097182Y-91701240D01*
X87095631Y-91703317D01*
X87010728Y-91813963D01*
X87010726Y-91813967D01*
X86955259Y-91947879D01*
X86955258Y-91947880D01*
X86936339Y-92091588D01*
X86936339Y-92091589D01*
X86955258Y-92235297D01*
X86955259Y-92235298D01*
X87010728Y-92369214D01*
X87098968Y-92484210D01*
X87213964Y-92572450D01*
X87347880Y-92627919D01*
X87491589Y-92646839D01*
X87635298Y-92627919D01*
X87769214Y-92572450D01*
X87884210Y-92484210D01*
X87972450Y-92369214D01*
X88027919Y-92235298D01*
X88046839Y-92091589D01*
X88040755Y-92045381D01*
X88027919Y-91947880D01*
X87972450Y-91813964D01*
X87887546Y-91703316D01*
X87867123Y-91645641D01*
X87867089Y-91643049D01*
X87867089Y-91354934D01*
X87885996Y-91296743D01*
X87935496Y-91260779D01*
X87996682Y-91260779D01*
X88036093Y-91284930D01*
X88895504Y-92144341D01*
X88923281Y-92198858D01*
X88924500Y-92214345D01*
X88924500Y-92687185D01*
X88922393Y-92707499D01*
X88919633Y-92720662D01*
X88923740Y-92753613D01*
X88924500Y-92765857D01*
X88924500Y-92767515D01*
X88928003Y-92788512D01*
X88928592Y-92792555D01*
X88935133Y-92845020D01*
X88937371Y-92852540D01*
X88939935Y-92860007D01*
X88965088Y-92906487D01*
X88966959Y-92910122D01*
X88990175Y-92957609D01*
X88994736Y-92963997D01*
X88999579Y-92970219D01*
X88999581Y-92970222D01*
X89038473Y-93006025D01*
X89041400Y-93008833D01*
X89047367Y-93014800D01*
X85166200Y-93014800D01*
X85166200Y-96850200D01*
X89230200Y-96850200D01*
X89230200Y-93197633D01*
X89610127Y-93577560D01*
X89637904Y-93632077D01*
X89628333Y-93692509D01*
X89618665Y-93707830D01*
X89616328Y-93710878D01*
X89569139Y-93772374D01*
X89569137Y-93772378D01*
X89513670Y-93906290D01*
X89513669Y-93906291D01*
X89494750Y-94049999D01*
X89494750Y-94050000D01*
X89513669Y-94193708D01*
X89513670Y-94193709D01*
X89566187Y-94320500D01*
X89569139Y-94327625D01*
X89657379Y-94442621D01*
X89772375Y-94530861D01*
X89906291Y-94586330D01*
X90050000Y-94605250D01*
X90193709Y-94586330D01*
X90327625Y-94530861D01*
X90442621Y-94442621D01*
X90530861Y-94327625D01*
X90586330Y-94193709D01*
X90598092Y-94104367D01*
X90624433Y-94049143D01*
X90678204Y-94019948D01*
X90738866Y-94027934D01*
X90766249Y-94047286D01*
X91849687Y-95130724D01*
X91862562Y-95146580D01*
X91869916Y-95157836D01*
X91896120Y-95178231D01*
X91905302Y-95186339D01*
X91906482Y-95187519D01*
X91906485Y-95187521D01*
X91923802Y-95199885D01*
X91927082Y-95202330D01*
X91968814Y-95234811D01*
X91975712Y-95238544D01*
X91982798Y-95242008D01*
X91982801Y-95242010D01*
X92033471Y-95257095D01*
X92037306Y-95258323D01*
X92087340Y-95275500D01*
X92087342Y-95275500D01*
X92095076Y-95276791D01*
X92102905Y-95277766D01*
X92102912Y-95277768D01*
X92155701Y-95275585D01*
X92159792Y-95275500D01*
X92300500Y-95275500D01*
X92358691Y-95294407D01*
X92394655Y-95343907D01*
X92399500Y-95374500D01*
X92399500Y-96239599D01*
X92405684Y-96307656D01*
X92405686Y-96307662D01*
X92454485Y-96464263D01*
X92454490Y-96464275D01*
X92539349Y-96604649D01*
X92539350Y-96604650D01*
X92539352Y-96604653D01*
X92655347Y-96720648D01*
X92655349Y-96720649D01*
X92655350Y-96720650D01*
X92795724Y-96805509D01*
X92795727Y-96805510D01*
X92795730Y-96805512D01*
X92795734Y-96805513D01*
X92795736Y-96805514D01*
X92835908Y-96818032D01*
X92952343Y-96854315D01*
X93020406Y-96860500D01*
X93020412Y-96860500D01*
X95379588Y-96860500D01*
X95379594Y-96860500D01*
X95447657Y-96854315D01*
X95604270Y-96805512D01*
X95604277Y-96805507D01*
X95609728Y-96803055D01*
X95610889Y-96805635D01*
X95659328Y-96794297D01*
X95715722Y-96818032D01*
X95747394Y-96870382D01*
X95750000Y-96892946D01*
X95750000Y-97114963D01*
X95731093Y-97173154D01*
X95681593Y-97209118D01*
X95620407Y-97209118D01*
X95619861Y-97208938D01*
X95472606Y-97160144D01*
X95472603Y-97160143D01*
X95373323Y-97150000D01*
X94350001Y-97150000D01*
X94350000Y-97150001D01*
X94350000Y-99449998D01*
X94350001Y-99449999D01*
X95373322Y-99449999D01*
X95472597Y-99439857D01*
X95472609Y-99439854D01*
X95619860Y-99391061D01*
X95681044Y-99390705D01*
X95730753Y-99426380D01*
X95749998Y-99484460D01*
X95750000Y-99485036D01*
X95750000Y-103951000D01*
X95731093Y-104009191D01*
X95681593Y-104045155D01*
X95651000Y-104050000D01*
X92192946Y-104050000D01*
X92134755Y-104031093D01*
X92098791Y-103981593D01*
X92098791Y-103920407D01*
X92103571Y-103909960D01*
X92103055Y-103909728D01*
X92105507Y-103904277D01*
X92105512Y-103904270D01*
X92154315Y-103747657D01*
X92160500Y-103679594D01*
X92160500Y-101320406D01*
X92154315Y-101252343D01*
X92105512Y-101095730D01*
X92105510Y-101095727D01*
X92105509Y-101095724D01*
X92020650Y-100955350D01*
X92020649Y-100955349D01*
X92020648Y-100955347D01*
X91904653Y-100839352D01*
X91904650Y-100839350D01*
X91904649Y-100839349D01*
X91764275Y-100754490D01*
X91764263Y-100754485D01*
X91607662Y-100705686D01*
X91607656Y-100705684D01*
X91539599Y-100699500D01*
X91539594Y-100699500D01*
X90580406Y-100699500D01*
X90580400Y-100699500D01*
X90512343Y-100705684D01*
X90512337Y-100705686D01*
X90355736Y-100754485D01*
X90355724Y-100754490D01*
X90215350Y-100839349D01*
X90099349Y-100955350D01*
X90014490Y-101095724D01*
X90014485Y-101095736D01*
X89965686Y-101252337D01*
X89965684Y-101252343D01*
X89959500Y-101320400D01*
X89959500Y-103679599D01*
X89965684Y-103747656D01*
X89965686Y-103747662D01*
X90014485Y-103904263D01*
X90016945Y-103909728D01*
X90014364Y-103910889D01*
X90025703Y-103959328D01*
X90001968Y-104015722D01*
X89949618Y-104047394D01*
X89927054Y-104050000D01*
X89652946Y-104050000D01*
X89594755Y-104031093D01*
X89558791Y-103981593D01*
X89558791Y-103920407D01*
X89563571Y-103909960D01*
X89563055Y-103909728D01*
X89565507Y-103904277D01*
X89565512Y-103904270D01*
X89614315Y-103747657D01*
X89620500Y-103679594D01*
X89620500Y-101320406D01*
X89614315Y-101252343D01*
X89565512Y-101095730D01*
X89565510Y-101095727D01*
X89565509Y-101095724D01*
X89480650Y-100955350D01*
X89480649Y-100955349D01*
X89480648Y-100955347D01*
X89364653Y-100839352D01*
X89364650Y-100839350D01*
X89364649Y-100839349D01*
X89224275Y-100754490D01*
X89224263Y-100754485D01*
X89067662Y-100705686D01*
X89067656Y-100705684D01*
X88999599Y-100699500D01*
X88999594Y-100699500D01*
X88040406Y-100699500D01*
X88040400Y-100699500D01*
X87972343Y-100705684D01*
X87972337Y-100705686D01*
X87815736Y-100754485D01*
X87815724Y-100754490D01*
X87675350Y-100839349D01*
X87559349Y-100955350D01*
X87474490Y-101095724D01*
X87474485Y-101095736D01*
X87425686Y-101252337D01*
X87425684Y-101252343D01*
X87419500Y-101320400D01*
X87419500Y-103679599D01*
X87425684Y-103747656D01*
X87425686Y-103747662D01*
X87474485Y-103904263D01*
X87476945Y-103909728D01*
X87474364Y-103910889D01*
X87485703Y-103959328D01*
X87461968Y-104015722D01*
X87409618Y-104047394D01*
X87387054Y-104050000D01*
X87112946Y-104050000D01*
X87054755Y-104031093D01*
X87018791Y-103981593D01*
X87018791Y-103920407D01*
X87023571Y-103909960D01*
X87023055Y-103909728D01*
X87025507Y-103904277D01*
X87025512Y-103904270D01*
X87074315Y-103747657D01*
X87080500Y-103679594D01*
X87080500Y-101320406D01*
X87074315Y-101252343D01*
X87025512Y-101095730D01*
X87025510Y-101095727D01*
X87025509Y-101095724D01*
X86940650Y-100955350D01*
X86940649Y-100955349D01*
X86940648Y-100955347D01*
X86824653Y-100839352D01*
X86824650Y-100839350D01*
X86824649Y-100839349D01*
X86684275Y-100754490D01*
X86684263Y-100754485D01*
X86527662Y-100705686D01*
X86527656Y-100705684D01*
X86459599Y-100699500D01*
X86459594Y-100699500D01*
X85500406Y-100699500D01*
X85500400Y-100699500D01*
X85432343Y-100705684D01*
X85432337Y-100705686D01*
X85275736Y-100754485D01*
X85275724Y-100754490D01*
X85135350Y-100839349D01*
X85019349Y-100955350D01*
X84934490Y-101095724D01*
X84934485Y-101095736D01*
X84885686Y-101252337D01*
X84885684Y-101252343D01*
X84879500Y-101320400D01*
X84879500Y-103679599D01*
X84885684Y-103747656D01*
X84885686Y-103747662D01*
X84934485Y-103904263D01*
X84936945Y-103909728D01*
X84934364Y-103910889D01*
X84945703Y-103959328D01*
X84921968Y-104015722D01*
X84869618Y-104047394D01*
X84847054Y-104050000D01*
X84572946Y-104050000D01*
X84514755Y-104031093D01*
X84478791Y-103981593D01*
X84478791Y-103920407D01*
X84483571Y-103909960D01*
X84483055Y-103909728D01*
X84485507Y-103904277D01*
X84485512Y-103904270D01*
X84534315Y-103747657D01*
X84540500Y-103679594D01*
X84540500Y-101320406D01*
X84534315Y-101252343D01*
X84485512Y-101095730D01*
X84485510Y-101095727D01*
X84485509Y-101095724D01*
X84400650Y-100955350D01*
X84400649Y-100955349D01*
X84400648Y-100955347D01*
X84284653Y-100839352D01*
X84284650Y-100839350D01*
X84284649Y-100839349D01*
X84144275Y-100754490D01*
X84144263Y-100754485D01*
X83987662Y-100705686D01*
X83987656Y-100705684D01*
X83919599Y-100699500D01*
X83919594Y-100699500D01*
X82960406Y-100699500D01*
X82960400Y-100699500D01*
X82892343Y-100705684D01*
X82892337Y-100705686D01*
X82735736Y-100754485D01*
X82735724Y-100754490D01*
X82595350Y-100839349D01*
X82479349Y-100955350D01*
X82394490Y-101095724D01*
X82394485Y-101095736D01*
X82345686Y-101252337D01*
X82345684Y-101252343D01*
X82339500Y-101320400D01*
X82339500Y-103679599D01*
X82345684Y-103747656D01*
X82345686Y-103747662D01*
X82394485Y-103904263D01*
X82396945Y-103909728D01*
X82394364Y-103910889D01*
X82405703Y-103959328D01*
X82381968Y-104015722D01*
X82329618Y-104047394D01*
X82307054Y-104050000D01*
X74692946Y-104050000D01*
X74634755Y-104031093D01*
X74598791Y-103981593D01*
X74598791Y-103920407D01*
X74603571Y-103909960D01*
X74603055Y-103909728D01*
X74605507Y-103904277D01*
X74605512Y-103904270D01*
X74654315Y-103747657D01*
X74660500Y-103679594D01*
X74660500Y-101320406D01*
X74654315Y-101252343D01*
X74605512Y-101095730D01*
X74605510Y-101095727D01*
X74605509Y-101095724D01*
X74520650Y-100955350D01*
X74520649Y-100955349D01*
X74520648Y-100955347D01*
X74404653Y-100839352D01*
X74404650Y-100839350D01*
X74404649Y-100839349D01*
X74264275Y-100754490D01*
X74264263Y-100754485D01*
X74107662Y-100705686D01*
X74107656Y-100705684D01*
X74039599Y-100699500D01*
X74039594Y-100699500D01*
X73080406Y-100699500D01*
X73080400Y-100699500D01*
X73012343Y-100705684D01*
X73012337Y-100705686D01*
X72855736Y-100754485D01*
X72855724Y-100754490D01*
X72715350Y-100839349D01*
X72599349Y-100955350D01*
X72514490Y-101095724D01*
X72514485Y-101095736D01*
X72465686Y-101252337D01*
X72465684Y-101252343D01*
X72459500Y-101320400D01*
X72459500Y-103679599D01*
X72465684Y-103747656D01*
X72465686Y-103747662D01*
X72514485Y-103904263D01*
X72516945Y-103909728D01*
X72514364Y-103910889D01*
X72525703Y-103959328D01*
X72501968Y-104015722D01*
X72449618Y-104047394D01*
X72427054Y-104050000D01*
X72152946Y-104050000D01*
X72094755Y-104031093D01*
X72058791Y-103981593D01*
X72058791Y-103920407D01*
X72063571Y-103909960D01*
X72063055Y-103909728D01*
X72065507Y-103904277D01*
X72065512Y-103904270D01*
X72114315Y-103747657D01*
X72120500Y-103679594D01*
X72120500Y-101320406D01*
X72114315Y-101252343D01*
X72065512Y-101095730D01*
X72065510Y-101095727D01*
X72065509Y-101095724D01*
X71980650Y-100955350D01*
X71980649Y-100955349D01*
X71980648Y-100955347D01*
X71864653Y-100839352D01*
X71864650Y-100839350D01*
X71864649Y-100839349D01*
X71724275Y-100754490D01*
X71724263Y-100754485D01*
X71567662Y-100705686D01*
X71567656Y-100705684D01*
X71499599Y-100699500D01*
X71499594Y-100699500D01*
X70540406Y-100699500D01*
X70540400Y-100699500D01*
X70472343Y-100705684D01*
X70472337Y-100705686D01*
X70315736Y-100754485D01*
X70315724Y-100754490D01*
X70175350Y-100839349D01*
X70059349Y-100955350D01*
X69974490Y-101095724D01*
X69974485Y-101095736D01*
X69925686Y-101252337D01*
X69925684Y-101252343D01*
X69919500Y-101320400D01*
X69919500Y-103679599D01*
X69925684Y-103747656D01*
X69925686Y-103747662D01*
X69974485Y-103904263D01*
X69976945Y-103909728D01*
X69974364Y-103910889D01*
X69985703Y-103959328D01*
X69961968Y-104015722D01*
X69909618Y-104047394D01*
X69887054Y-104050000D01*
X69612946Y-104050000D01*
X69554755Y-104031093D01*
X69518791Y-103981593D01*
X69518791Y-103920407D01*
X69523571Y-103909960D01*
X69523055Y-103909728D01*
X69525507Y-103904277D01*
X69525512Y-103904270D01*
X69574315Y-103747657D01*
X69580500Y-103679594D01*
X69580500Y-101320406D01*
X69574315Y-101252343D01*
X69525512Y-101095730D01*
X69525510Y-101095727D01*
X69525509Y-101095724D01*
X69440650Y-100955350D01*
X69440649Y-100955349D01*
X69440648Y-100955347D01*
X69324653Y-100839352D01*
X69324650Y-100839350D01*
X69324649Y-100839349D01*
X69184275Y-100754490D01*
X69184263Y-100754485D01*
X69027662Y-100705686D01*
X69027656Y-100705684D01*
X68959599Y-100699500D01*
X68959594Y-100699500D01*
X68000406Y-100699500D01*
X68000400Y-100699500D01*
X67932343Y-100705684D01*
X67932337Y-100705686D01*
X67775736Y-100754485D01*
X67775724Y-100754490D01*
X67635350Y-100839349D01*
X67519349Y-100955350D01*
X67434490Y-101095724D01*
X67434485Y-101095736D01*
X67385686Y-101252337D01*
X67385684Y-101252343D01*
X67379500Y-101320400D01*
X67379500Y-103679599D01*
X67385684Y-103747656D01*
X67385686Y-103747662D01*
X67434485Y-103904263D01*
X67436945Y-103909728D01*
X67434364Y-103910889D01*
X67445703Y-103959328D01*
X67421968Y-104015722D01*
X67369618Y-104047394D01*
X67347054Y-104050000D01*
X67072946Y-104050000D01*
X67014755Y-104031093D01*
X66978791Y-103981593D01*
X66978791Y-103920407D01*
X66983571Y-103909960D01*
X66983055Y-103909728D01*
X66985507Y-103904277D01*
X66985512Y-103904270D01*
X67034315Y-103747657D01*
X67040500Y-103679594D01*
X67040500Y-101320406D01*
X67034315Y-101252343D01*
X66985512Y-101095730D01*
X66985510Y-101095727D01*
X66985509Y-101095724D01*
X66900650Y-100955350D01*
X66900649Y-100955349D01*
X66900648Y-100955347D01*
X66784653Y-100839352D01*
X66784650Y-100839350D01*
X66784649Y-100839349D01*
X66644275Y-100754490D01*
X66644263Y-100754485D01*
X66487662Y-100705686D01*
X66487656Y-100705684D01*
X66419599Y-100699500D01*
X66419594Y-100699500D01*
X65460406Y-100699500D01*
X65460400Y-100699500D01*
X65392343Y-100705684D01*
X65392337Y-100705686D01*
X65235736Y-100754485D01*
X65235724Y-100754490D01*
X65095350Y-100839349D01*
X64979349Y-100955350D01*
X64894490Y-101095724D01*
X64894485Y-101095736D01*
X64845686Y-101252337D01*
X64845684Y-101252343D01*
X64839500Y-101320400D01*
X64839500Y-103679599D01*
X64845684Y-103747656D01*
X64845686Y-103747662D01*
X64894485Y-103904263D01*
X64896945Y-103909728D01*
X64894364Y-103910889D01*
X64905703Y-103959328D01*
X64881968Y-104015722D01*
X64829618Y-104047394D01*
X64807054Y-104050000D01*
X61349000Y-104050000D01*
X61290809Y-104031093D01*
X61254845Y-103981593D01*
X61250000Y-103951000D01*
X61250000Y-98149999D01*
X92350000Y-98149999D01*
X92350001Y-98150000D01*
X93222935Y-98150000D01*
X93200000Y-98228111D01*
X93200000Y-98371889D01*
X93222935Y-98450000D01*
X92350002Y-98450000D01*
X92350001Y-98450001D01*
X92350001Y-98773322D01*
X92360142Y-98872597D01*
X92360145Y-98872609D01*
X92413454Y-99033487D01*
X92502425Y-99177729D01*
X92622270Y-99297574D01*
X92766512Y-99386545D01*
X92927396Y-99439856D01*
X93026676Y-99449999D01*
X94049998Y-99449999D01*
X94050000Y-99449998D01*
X94050000Y-98658318D01*
X94081761Y-98630798D01*
X94159493Y-98509844D01*
X94200000Y-98371889D01*
X94200000Y-98228111D01*
X94159493Y-98090156D01*
X94081761Y-97969202D01*
X94050000Y-97941681D01*
X94050000Y-97150001D01*
X94049999Y-97150000D01*
X93026677Y-97150000D01*
X92927402Y-97160142D01*
X92927390Y-97160145D01*
X92766512Y-97213454D01*
X92622270Y-97302425D01*
X92502425Y-97422270D01*
X92413454Y-97566512D01*
X92360143Y-97727396D01*
X92350000Y-97826676D01*
X92350000Y-98149999D01*
X61250000Y-98149999D01*
X61250000Y-93000003D01*
X65994659Y-93000003D01*
X66013974Y-93196126D01*
X66013975Y-93196129D01*
X66013976Y-93196132D01*
X66069738Y-93379955D01*
X66071187Y-93384730D01*
X66071188Y-93384732D01*
X66115116Y-93466915D01*
X66164090Y-93558538D01*
X66164092Y-93558540D01*
X66164093Y-93558542D01*
X66289112Y-93710878D01*
X66289121Y-93710887D01*
X66418318Y-93816916D01*
X66441462Y-93835910D01*
X66573134Y-93906290D01*
X66606771Y-93924270D01*
X66615273Y-93928814D01*
X66803868Y-93986024D01*
X66803870Y-93986024D01*
X66803873Y-93986025D01*
X66999997Y-94005341D01*
X67000000Y-94005341D01*
X67000003Y-94005341D01*
X67196126Y-93986025D01*
X67196127Y-93986024D01*
X67196132Y-93986024D01*
X67384727Y-93928814D01*
X67558538Y-93835910D01*
X67564000Y-93831427D01*
X67564000Y-96596200D01*
X72059800Y-96596200D01*
X72059800Y-94983411D01*
X83361339Y-94983411D01*
X83380258Y-95127119D01*
X83380259Y-95127120D01*
X83434607Y-95258331D01*
X83435728Y-95261036D01*
X83523968Y-95376032D01*
X83638964Y-95464272D01*
X83772880Y-95519741D01*
X83916589Y-95538661D01*
X84060298Y-95519741D01*
X84194214Y-95464272D01*
X84309210Y-95376032D01*
X84397450Y-95261036D01*
X84452919Y-95127120D01*
X84471839Y-94983411D01*
X84452919Y-94839702D01*
X84397450Y-94705786D01*
X84312546Y-94595138D01*
X84292123Y-94537463D01*
X84292089Y-94534871D01*
X84292089Y-93379955D01*
X84310996Y-93321764D01*
X84321079Y-93309957D01*
X84962437Y-92668598D01*
X85016952Y-92640823D01*
X85057884Y-92645701D01*
X85058559Y-92643184D01*
X85064824Y-92644863D01*
X85208533Y-92663783D01*
X85352242Y-92644863D01*
X85486158Y-92589394D01*
X85601154Y-92501154D01*
X85689394Y-92386158D01*
X85744863Y-92252242D01*
X85763783Y-92108533D01*
X85755468Y-92045379D01*
X85744863Y-91964824D01*
X85689394Y-91830908D01*
X85601154Y-91715912D01*
X85486158Y-91627672D01*
X85486154Y-91627670D01*
X85352242Y-91572203D01*
X85352241Y-91572202D01*
X85208533Y-91553283D01*
X85064824Y-91572202D01*
X85064823Y-91572203D01*
X84930911Y-91627670D01*
X84930907Y-91627672D01*
X84815914Y-91715910D01*
X84815910Y-91715914D01*
X84727668Y-91830913D01*
X84724429Y-91836524D01*
X84723976Y-91836262D01*
X84706407Y-91862554D01*
X83685860Y-92883100D01*
X83670009Y-92895972D01*
X83658755Y-92903325D01*
X83658747Y-92903332D01*
X83638354Y-92929532D01*
X83630253Y-92938708D01*
X83629074Y-92939886D01*
X83629066Y-92939897D01*
X83616677Y-92957247D01*
X83614235Y-92960521D01*
X83581782Y-93002218D01*
X83578036Y-93009139D01*
X83574578Y-93016212D01*
X83559500Y-93066858D01*
X83558252Y-93070753D01*
X83541089Y-93120749D01*
X83539798Y-93128483D01*
X83538821Y-93136326D01*
X83541004Y-93189110D01*
X83541089Y-93193201D01*
X83541089Y-94534871D01*
X83522182Y-94593062D01*
X83520631Y-94595139D01*
X83435728Y-94705785D01*
X83435726Y-94705789D01*
X83380259Y-94839701D01*
X83380258Y-94839702D01*
X83361339Y-94983410D01*
X83361339Y-94983411D01*
X72059800Y-94983411D01*
X72059800Y-93395800D01*
X67922895Y-93395800D01*
X67928814Y-93384727D01*
X67986024Y-93196132D01*
X67986514Y-93191166D01*
X68005341Y-93000003D01*
X80994659Y-93000003D01*
X81013974Y-93196126D01*
X81013975Y-93196129D01*
X81013976Y-93196132D01*
X81069738Y-93379955D01*
X81071187Y-93384730D01*
X81071188Y-93384732D01*
X81115116Y-93466915D01*
X81164090Y-93558538D01*
X81164092Y-93558540D01*
X81164093Y-93558542D01*
X81289112Y-93710878D01*
X81289121Y-93710887D01*
X81418318Y-93816916D01*
X81441462Y-93835910D01*
X81573134Y-93906290D01*
X81606771Y-93924270D01*
X81615273Y-93928814D01*
X81803868Y-93986024D01*
X81803870Y-93986024D01*
X81803873Y-93986025D01*
X81999997Y-94005341D01*
X82000000Y-94005341D01*
X82000003Y-94005341D01*
X82196126Y-93986025D01*
X82196127Y-93986024D01*
X82196132Y-93986024D01*
X82384727Y-93928814D01*
X82558538Y-93835910D01*
X82710883Y-93710883D01*
X82835910Y-93558538D01*
X82928814Y-93384727D01*
X82986024Y-93196132D01*
X82986514Y-93191166D01*
X83005341Y-93000003D01*
X83005341Y-92999996D01*
X82986025Y-92803873D01*
X82986024Y-92803870D01*
X82986024Y-92803868D01*
X82928814Y-92615273D01*
X82835910Y-92441462D01*
X82781651Y-92375347D01*
X82710887Y-92289121D01*
X82710878Y-92289112D01*
X82561695Y-92166680D01*
X82528708Y-92115148D01*
X82525500Y-92090152D01*
X82525500Y-91923539D01*
X82544407Y-91865348D01*
X82545925Y-91863314D01*
X82630861Y-91752625D01*
X82686330Y-91618709D01*
X82705250Y-91475000D01*
X82686330Y-91331291D01*
X82630861Y-91197375D01*
X82542621Y-91082379D01*
X82427625Y-90994139D01*
X82427621Y-90994137D01*
X82293709Y-90938670D01*
X82293708Y-90938669D01*
X82150000Y-90919750D01*
X82006291Y-90938669D01*
X82006290Y-90938670D01*
X81872378Y-90994137D01*
X81872374Y-90994139D01*
X81757381Y-91082377D01*
X81757377Y-91082381D01*
X81669139Y-91197374D01*
X81669137Y-91197378D01*
X81613670Y-91331290D01*
X81613669Y-91331291D01*
X81594750Y-91474999D01*
X81594750Y-91475000D01*
X81613669Y-91618708D01*
X81613670Y-91618709D01*
X81667303Y-91748194D01*
X81669139Y-91752625D01*
X81754042Y-91863273D01*
X81774466Y-91920947D01*
X81774500Y-91923539D01*
X81774500Y-91949460D01*
X81755593Y-92007651D01*
X81706093Y-92043615D01*
X81704240Y-92044197D01*
X81645585Y-92061990D01*
X81615273Y-92071186D01*
X81615270Y-92071187D01*
X81615264Y-92071190D01*
X81441467Y-92164087D01*
X81441457Y-92164093D01*
X81289121Y-92289112D01*
X81289112Y-92289121D01*
X81164093Y-92441457D01*
X81164087Y-92441467D01*
X81071188Y-92615267D01*
X81071187Y-92615269D01*
X81013975Y-92803870D01*
X81013974Y-92803873D01*
X80994659Y-92999996D01*
X80994659Y-93000003D01*
X68005341Y-93000003D01*
X68005341Y-92999996D01*
X67986025Y-92803873D01*
X67986024Y-92803870D01*
X67986024Y-92803868D01*
X67928814Y-92615273D01*
X67835910Y-92441462D01*
X67781651Y-92375347D01*
X67710887Y-92289121D01*
X67710878Y-92289112D01*
X67558542Y-92164093D01*
X67558540Y-92164092D01*
X67558538Y-92164090D01*
X67454598Y-92108533D01*
X67384735Y-92071190D01*
X67384732Y-92071189D01*
X67384727Y-92071186D01*
X67317300Y-92050732D01*
X67267103Y-92015747D01*
X67260303Y-92005497D01*
X67257462Y-92000576D01*
X67169225Y-91885584D01*
X67169224Y-91885583D01*
X67169221Y-91885579D01*
X67054225Y-91797339D01*
X67054221Y-91797337D01*
X66920309Y-91741870D01*
X66920308Y-91741869D01*
X66776600Y-91722950D01*
X66632891Y-91741869D01*
X66632890Y-91741870D01*
X66498978Y-91797337D01*
X66498974Y-91797339D01*
X66383981Y-91885577D01*
X66383977Y-91885581D01*
X66295739Y-92000574D01*
X66295737Y-92000578D01*
X66240270Y-92134490D01*
X66240269Y-92134491D01*
X66221350Y-92278199D01*
X66221350Y-92278202D01*
X66226354Y-92316217D01*
X66215203Y-92376377D01*
X66204730Y-92391941D01*
X66164092Y-92441459D01*
X66164086Y-92441468D01*
X66071188Y-92615267D01*
X66071187Y-92615269D01*
X66013975Y-92803870D01*
X66013974Y-92803873D01*
X65994659Y-92999996D01*
X65994659Y-93000003D01*
X61250000Y-93000003D01*
X61250000Y-87874672D01*
X74859500Y-87874672D01*
X74859501Y-87874684D01*
X74874033Y-87947736D01*
X74874035Y-87947742D01*
X74929397Y-88030599D01*
X74929399Y-88030601D01*
X75012260Y-88085966D01*
X75067808Y-88097015D01*
X75085315Y-88100498D01*
X75085320Y-88100498D01*
X75085326Y-88100500D01*
X75085327Y-88100500D01*
X76834673Y-88100500D01*
X76834674Y-88100500D01*
X76907740Y-88085966D01*
X76990601Y-88030601D01*
X77045966Y-87947740D01*
X77060500Y-87874674D01*
X77060500Y-86125326D01*
X77060415Y-86124901D01*
X77049495Y-86070001D01*
X77045966Y-86052260D01*
X76990601Y-85969399D01*
X76990599Y-85969397D01*
X76907742Y-85914035D01*
X76907740Y-85914034D01*
X76907737Y-85914033D01*
X76907736Y-85914033D01*
X76834684Y-85899501D01*
X76834674Y-85899500D01*
X75085326Y-85899500D01*
X75085325Y-85899500D01*
X75085315Y-85899501D01*
X75012263Y-85914033D01*
X75012257Y-85914035D01*
X74929400Y-85969397D01*
X74929397Y-85969400D01*
X74874035Y-86052257D01*
X74874033Y-86052263D01*
X74859501Y-86125315D01*
X74859500Y-86125327D01*
X74859500Y-87874672D01*
X61250000Y-87874672D01*
X61250000Y-85334672D01*
X74859500Y-85334672D01*
X74859501Y-85334684D01*
X74874033Y-85407736D01*
X74874035Y-85407742D01*
X74929397Y-85490599D01*
X74929400Y-85490602D01*
X75010711Y-85544931D01*
X75012260Y-85545966D01*
X75057078Y-85554881D01*
X75085315Y-85560498D01*
X75085320Y-85560498D01*
X75085326Y-85560500D01*
X75085327Y-85560500D01*
X76834673Y-85560500D01*
X76834674Y-85560500D01*
X76907740Y-85545966D01*
X76990601Y-85490601D01*
X77045966Y-85407740D01*
X77060500Y-85334674D01*
X77060500Y-84460000D01*
X77394785Y-84460000D01*
X77413603Y-84663083D01*
X77469418Y-84859250D01*
X77560327Y-85041821D01*
X77683236Y-85204579D01*
X77833959Y-85341981D01*
X78007363Y-85449348D01*
X78197544Y-85523024D01*
X78398024Y-85560500D01*
X78601976Y-85560500D01*
X78802456Y-85523024D01*
X78992637Y-85449348D01*
X79166041Y-85341981D01*
X79316764Y-85204579D01*
X79439673Y-85041821D01*
X79530582Y-84859250D01*
X79586397Y-84663083D01*
X79605215Y-84460000D01*
X79586397Y-84256917D01*
X79530582Y-84060750D01*
X79439673Y-83878179D01*
X79316764Y-83715421D01*
X79166041Y-83578019D01*
X78992637Y-83470652D01*
X78802456Y-83396976D01*
X78802455Y-83396975D01*
X78802453Y-83396975D01*
X78601976Y-83359500D01*
X78398024Y-83359500D01*
X78197546Y-83396975D01*
X78127632Y-83424059D01*
X78007363Y-83470652D01*
X77833959Y-83578019D01*
X77683236Y-83715421D01*
X77668963Y-83734322D01*
X77560328Y-83878177D01*
X77560323Y-83878186D01*
X77469419Y-84060747D01*
X77469418Y-84060750D01*
X77413603Y-84256917D01*
X77394785Y-84460000D01*
X77060500Y-84460000D01*
X77060500Y-83585326D01*
X77045966Y-83512260D01*
X77012295Y-83461867D01*
X76990602Y-83429400D01*
X76990599Y-83429397D01*
X76907742Y-83374035D01*
X76907740Y-83374034D01*
X76907737Y-83374033D01*
X76907736Y-83374033D01*
X76834684Y-83359501D01*
X76834674Y-83359500D01*
X75085326Y-83359500D01*
X75085325Y-83359500D01*
X75085315Y-83359501D01*
X75012263Y-83374033D01*
X75012257Y-83374035D01*
X74929400Y-83429397D01*
X74929397Y-83429400D01*
X74874035Y-83512257D01*
X74874033Y-83512263D01*
X74859501Y-83585315D01*
X74859500Y-83585327D01*
X74859500Y-85334672D01*
X61250000Y-85334672D01*
X61250000Y-82300000D01*
X62044529Y-82300000D01*
X62051734Y-82386948D01*
X62052138Y-82391825D01*
X62052476Y-82400000D01*
X62052476Y-82419945D01*
X62052477Y-82419950D01*
X62055758Y-82439617D01*
X62056769Y-82447730D01*
X62064379Y-82539562D01*
X62087000Y-82628892D01*
X62088678Y-82636894D01*
X62091961Y-82656564D01*
X62098432Y-82675413D01*
X62100766Y-82683254D01*
X62122853Y-82770473D01*
X62123390Y-82772591D01*
X62123392Y-82772595D01*
X62160407Y-82856982D01*
X62163381Y-82864603D01*
X62169854Y-82883458D01*
X62179344Y-82900996D01*
X62182935Y-82908343D01*
X62219945Y-82992717D01*
X62219953Y-82992732D01*
X62270352Y-83069872D01*
X62274540Y-83076900D01*
X62284029Y-83094434D01*
X62284033Y-83094439D01*
X62296273Y-83110165D01*
X62301017Y-83116809D01*
X62351429Y-83193969D01*
X62351431Y-83193971D01*
X62413839Y-83261766D01*
X62419125Y-83268007D01*
X62431371Y-83283740D01*
X62446042Y-83297246D01*
X62451826Y-83303031D01*
X62514227Y-83370816D01*
X62514238Y-83370827D01*
X62518360Y-83374035D01*
X62586974Y-83427439D01*
X62593188Y-83432702D01*
X62607866Y-83446214D01*
X62621730Y-83455272D01*
X62624548Y-83457113D01*
X62631205Y-83461865D01*
X62703933Y-83518472D01*
X62775013Y-83556938D01*
X62784979Y-83562332D01*
X62792008Y-83566521D01*
X62808689Y-83577420D01*
X62808694Y-83577422D01*
X62826946Y-83585428D01*
X62834286Y-83589015D01*
X62915342Y-83632881D01*
X62915348Y-83632884D01*
X62915351Y-83632885D01*
X62963088Y-83649272D01*
X63002507Y-83662805D01*
X63010111Y-83665772D01*
X63028379Y-83673785D01*
X63047726Y-83678684D01*
X63055534Y-83681009D01*
X63142703Y-83710934D01*
X63233598Y-83726101D01*
X63241591Y-83727778D01*
X63260929Y-83732675D01*
X63280807Y-83734322D01*
X63288904Y-83735330D01*
X63379808Y-83750500D01*
X63379809Y-83750500D01*
X63471949Y-83750500D01*
X63480123Y-83750837D01*
X63500000Y-83752485D01*
X63519876Y-83750837D01*
X63528051Y-83750500D01*
X63620191Y-83750500D01*
X63620192Y-83750500D01*
X63711101Y-83735329D01*
X63719189Y-83734322D01*
X63739071Y-83732675D01*
X63758415Y-83727776D01*
X63766398Y-83726102D01*
X63857297Y-83710934D01*
X63944494Y-83680999D01*
X63952255Y-83678689D01*
X63971621Y-83673785D01*
X63989896Y-83665768D01*
X63997466Y-83662814D01*
X64084656Y-83632882D01*
X64165712Y-83589016D01*
X64173054Y-83585428D01*
X64173312Y-83585315D01*
X64191306Y-83577422D01*
X64208013Y-83566506D01*
X64215007Y-83562339D01*
X64296067Y-83518472D01*
X64368834Y-83461834D01*
X64375412Y-83457138D01*
X64392134Y-83446214D01*
X64406826Y-83432688D01*
X64413012Y-83427449D01*
X64485764Y-83370825D01*
X64548191Y-83303010D01*
X64553937Y-83297264D01*
X64568628Y-83283741D01*
X64580899Y-83267974D01*
X64586140Y-83261787D01*
X64648571Y-83193969D01*
X64698994Y-83116790D01*
X64703696Y-83110204D01*
X64715971Y-83094434D01*
X64725469Y-83076882D01*
X64729631Y-83069897D01*
X64780049Y-82992728D01*
X64817077Y-82908311D01*
X64820649Y-82901006D01*
X64830147Y-82883456D01*
X64836633Y-82864561D01*
X64839582Y-82857005D01*
X64876610Y-82772591D01*
X64899236Y-82683239D01*
X64901554Y-82675453D01*
X64908039Y-82656564D01*
X64911321Y-82636891D01*
X64913000Y-82628887D01*
X64935618Y-82539570D01*
X64935620Y-82539561D01*
X64935969Y-82535347D01*
X64943230Y-82447724D01*
X64944241Y-82439618D01*
X64947523Y-82419950D01*
X64947524Y-82419945D01*
X64948122Y-82390961D01*
X64948434Y-82384917D01*
X64955471Y-82300000D01*
X64948434Y-82215085D01*
X64948122Y-82209035D01*
X64947524Y-82180055D01*
X64944240Y-82160378D01*
X64943230Y-82152275D01*
X64935620Y-82060437D01*
X64912999Y-81971107D01*
X64911321Y-81963103D01*
X64909198Y-81950382D01*
X64908039Y-81943436D01*
X64901561Y-81924568D01*
X64899236Y-81916758D01*
X64876610Y-81827409D01*
X64839584Y-81742999D01*
X64836616Y-81735389D01*
X64830150Y-81716551D01*
X64830147Y-81716545D01*
X64830147Y-81716544D01*
X64820653Y-81699002D01*
X64817068Y-81691667D01*
X64780051Y-81607276D01*
X64780049Y-81607273D01*
X64780049Y-81607272D01*
X64729638Y-81530113D01*
X64725460Y-81523100D01*
X64715974Y-81505571D01*
X64715973Y-81505569D01*
X64715970Y-81505565D01*
X64703718Y-81489824D01*
X64698976Y-81483180D01*
X64648572Y-81406032D01*
X64586160Y-81338233D01*
X64580873Y-81331991D01*
X64568626Y-81316256D01*
X64553964Y-81302760D01*
X64548176Y-81296973D01*
X64548172Y-81296969D01*
X64485764Y-81229175D01*
X64413042Y-81172573D01*
X64406800Y-81167286D01*
X64392132Y-81153783D01*
X64375454Y-81142888D01*
X64368793Y-81138133D01*
X64296070Y-81081530D01*
X64296062Y-81081525D01*
X64215021Y-81037666D01*
X64207997Y-81033481D01*
X64191309Y-81022579D01*
X64191304Y-81022576D01*
X64173053Y-81014571D01*
X64165702Y-81010978D01*
X64165696Y-81010975D01*
X64084656Y-80967118D01*
X64023609Y-80946160D01*
X63997499Y-80937197D01*
X63989880Y-80934224D01*
X63971621Y-80926215D01*
X63952292Y-80921320D01*
X63944455Y-80918986D01*
X63874157Y-80894854D01*
X63857297Y-80889066D01*
X63843170Y-80886708D01*
X63766400Y-80873897D01*
X63758396Y-80872218D01*
X63739071Y-80867325D01*
X63739070Y-80867324D01*
X63719197Y-80865678D01*
X63711078Y-80864666D01*
X63620192Y-80849500D01*
X63528040Y-80849500D01*
X63519866Y-80849162D01*
X63500000Y-80847516D01*
X63480134Y-80849162D01*
X63471960Y-80849500D01*
X63379808Y-80849500D01*
X63288921Y-80864666D01*
X63280803Y-80865678D01*
X63260931Y-80867324D01*
X63241590Y-80872221D01*
X63233592Y-80873897D01*
X63142708Y-80889064D01*
X63142707Y-80889064D01*
X63055545Y-80918986D01*
X63047708Y-80921320D01*
X63038831Y-80923568D01*
X63028379Y-80926215D01*
X63028377Y-80926215D01*
X63028376Y-80926216D01*
X63028369Y-80926218D01*
X63010124Y-80934221D01*
X63002507Y-80937193D01*
X62915347Y-80967116D01*
X62834302Y-81010975D01*
X62826959Y-81014565D01*
X62808691Y-81022579D01*
X62791998Y-81033484D01*
X62784977Y-81037667D01*
X62703935Y-81081525D01*
X62631212Y-81138128D01*
X62624557Y-81142880D01*
X62607865Y-81153786D01*
X62607863Y-81153788D01*
X62593194Y-81167290D01*
X62586957Y-81172572D01*
X62514240Y-81229170D01*
X62514232Y-81229177D01*
X62451826Y-81296969D01*
X62446042Y-81302753D01*
X62431376Y-81316254D01*
X62431368Y-81316262D01*
X62419113Y-81332005D01*
X62413833Y-81338239D01*
X62351429Y-81406029D01*
X62301029Y-81483172D01*
X62296280Y-81489824D01*
X62284030Y-81505565D01*
X62284023Y-81505574D01*
X62274540Y-81523098D01*
X62270354Y-81530123D01*
X62219955Y-81607264D01*
X62219952Y-81607269D01*
X62219951Y-81607272D01*
X62210194Y-81629515D01*
X62182933Y-81691661D01*
X62179343Y-81699004D01*
X62169856Y-81716536D01*
X62169850Y-81716548D01*
X62163378Y-81735401D01*
X62160406Y-81743018D01*
X62123391Y-81827405D01*
X62100768Y-81916737D01*
X62098435Y-81924576D01*
X62091960Y-81943435D01*
X62091959Y-81943440D01*
X62088676Y-81963109D01*
X62086999Y-81971107D01*
X62064380Y-82060435D01*
X62056769Y-82152271D01*
X62055758Y-82160384D01*
X62052476Y-82180057D01*
X62052476Y-82199999D01*
X62052137Y-82208174D01*
X62044529Y-82300000D01*
X61250000Y-82300000D01*
X61250000Y-77949999D01*
X67207253Y-77949999D01*
X67207254Y-77950000D01*
X68027498Y-77950000D01*
X68014835Y-77974852D01*
X67995014Y-78100000D01*
X68014835Y-78225148D01*
X68027498Y-78250000D01*
X67207254Y-78250000D01*
X67240863Y-78429799D01*
X67321202Y-78637178D01*
X67321205Y-78637183D01*
X67438274Y-78826255D01*
X67588101Y-78990608D01*
X67588106Y-78990612D01*
X67765573Y-79124630D01*
X67765582Y-79124635D01*
X67964652Y-79223760D01*
X68178554Y-79284620D01*
X68344517Y-79299999D01*
X68344525Y-79300000D01*
X69349999Y-79300000D01*
X69350000Y-79299999D01*
X69350000Y-78500000D01*
X69650000Y-78500000D01*
X69650000Y-79299999D01*
X69650001Y-79300000D01*
X70655475Y-79300000D01*
X70655482Y-79299999D01*
X70821445Y-79284620D01*
X71035347Y-79223760D01*
X71234417Y-79124635D01*
X71234426Y-79124630D01*
X71411893Y-78990612D01*
X71411898Y-78990608D01*
X71561725Y-78826255D01*
X71678794Y-78637183D01*
X71678797Y-78637178D01*
X71759136Y-78429799D01*
X71792746Y-78250000D01*
X70972502Y-78250000D01*
X70985165Y-78225148D01*
X71004986Y-78100000D01*
X70985165Y-77974852D01*
X70972502Y-77950000D01*
X71792746Y-77950000D01*
X71792746Y-77949999D01*
X71759136Y-77770200D01*
X71678797Y-77562821D01*
X71678794Y-77562816D01*
X71561725Y-77373744D01*
X71411898Y-77209391D01*
X71411893Y-77209387D01*
X71234426Y-77075369D01*
X71234417Y-77075364D01*
X71035347Y-76976239D01*
X70821445Y-76915379D01*
X70655482Y-76900000D01*
X69650001Y-76900000D01*
X69650000Y-76900001D01*
X69650000Y-77700000D01*
X69350000Y-77700000D01*
X69350000Y-76900001D01*
X69349999Y-76900000D01*
X68344517Y-76900000D01*
X68178554Y-76915379D01*
X67964652Y-76976239D01*
X67765582Y-77075364D01*
X67765573Y-77075369D01*
X67588106Y-77209387D01*
X67588101Y-77209391D01*
X67438274Y-77373744D01*
X67321205Y-77562816D01*
X67321202Y-77562821D01*
X67240863Y-77770200D01*
X67207253Y-77949999D01*
X61250000Y-77949999D01*
X61250000Y-74455482D01*
X65500000Y-74455482D01*
X65515379Y-74621445D01*
X65576239Y-74835347D01*
X65675364Y-75034417D01*
X65675369Y-75034426D01*
X65809387Y-75211893D01*
X65809391Y-75211898D01*
X65973744Y-75361725D01*
X66162816Y-75478794D01*
X66162821Y-75478797D01*
X66370200Y-75559136D01*
X66549999Y-75592746D01*
X66550000Y-75592746D01*
X66550000Y-74772502D01*
X66574852Y-74785165D01*
X66700000Y-74804986D01*
X66825148Y-74785165D01*
X66850000Y-74772502D01*
X66850000Y-75592746D01*
X67029799Y-75559136D01*
X67118761Y-75524672D01*
X71349500Y-75524672D01*
X71349501Y-75524684D01*
X71364033Y-75597736D01*
X71364035Y-75597742D01*
X71419397Y-75680599D01*
X71419399Y-75680601D01*
X71502260Y-75735966D01*
X71557808Y-75747015D01*
X71575315Y-75750498D01*
X71575320Y-75750498D01*
X71575326Y-75750500D01*
X71669641Y-75750500D01*
X71685126Y-75751718D01*
X71700228Y-75754110D01*
X71708999Y-75755500D01*
X71709000Y-75755500D01*
X75153159Y-75755500D01*
X75211350Y-75774407D01*
X75223163Y-75784496D01*
X76095504Y-76656836D01*
X76123281Y-76711353D01*
X76124500Y-76726840D01*
X76124500Y-78971000D01*
X76127645Y-79010960D01*
X76127646Y-79010975D01*
X76128281Y-79014979D01*
X76129500Y-79030466D01*
X76129500Y-79101774D01*
X76129501Y-79101786D01*
X76144033Y-79174838D01*
X76144035Y-79174844D01*
X76199397Y-79257701D01*
X76199400Y-79257704D01*
X76262702Y-79300000D01*
X76282260Y-79313068D01*
X76337808Y-79324117D01*
X76355315Y-79327600D01*
X76355320Y-79327600D01*
X76355326Y-79327602D01*
X76355327Y-79327602D01*
X78104673Y-79327602D01*
X78104674Y-79327602D01*
X78177740Y-79313068D01*
X78260601Y-79257703D01*
X78315966Y-79174842D01*
X78330500Y-79101776D01*
X78330500Y-77352428D01*
X78327899Y-77339352D01*
X78327402Y-77336852D01*
X78325500Y-77317538D01*
X78325500Y-72761212D01*
X78325500Y-72761203D01*
X78324713Y-72741163D01*
X78323495Y-72725682D01*
X78296441Y-72629742D01*
X78268667Y-72575224D01*
X78221685Y-72510549D01*
X76659674Y-70948346D01*
X76644944Y-70934728D01*
X76633127Y-70924634D01*
X76633113Y-70924622D01*
X76546132Y-70875912D01*
X76508734Y-70863761D01*
X76487936Y-70857003D01*
X76408992Y-70844500D01*
X76408989Y-70844500D01*
X71709000Y-70844500D01*
X71669035Y-70847645D01*
X71665008Y-70848282D01*
X71649533Y-70849500D01*
X71575326Y-70849500D01*
X71575325Y-70849500D01*
X71575315Y-70849501D01*
X71502263Y-70864033D01*
X71502257Y-70864035D01*
X71419400Y-70919397D01*
X71419397Y-70919400D01*
X71364035Y-71002257D01*
X71364033Y-71002263D01*
X71349501Y-71075315D01*
X71349500Y-71075327D01*
X71349500Y-75524672D01*
X67118761Y-75524672D01*
X67237178Y-75478797D01*
X67237183Y-75478794D01*
X67426255Y-75361725D01*
X67590608Y-75211898D01*
X67590612Y-75211893D01*
X67724630Y-75034426D01*
X67724635Y-75034417D01*
X67823760Y-74835347D01*
X67884620Y-74621445D01*
X67899999Y-74455482D01*
X67900000Y-74455475D01*
X67900000Y-73450001D01*
X67899999Y-73450000D01*
X67100000Y-73450000D01*
X67100000Y-73150000D01*
X67899999Y-73150000D01*
X67900000Y-73149999D01*
X67900000Y-72144524D01*
X67899999Y-72144517D01*
X67884620Y-71978554D01*
X67823760Y-71764652D01*
X67724635Y-71565582D01*
X67724630Y-71565573D01*
X67590612Y-71388106D01*
X67590608Y-71388101D01*
X67426255Y-71238274D01*
X67237183Y-71121205D01*
X67237178Y-71121202D01*
X67029799Y-71040863D01*
X66850000Y-71007252D01*
X66850000Y-71827497D01*
X66825148Y-71814835D01*
X66700000Y-71795014D01*
X66574852Y-71814835D01*
X66550000Y-71827497D01*
X66550000Y-71007253D01*
X66549999Y-71007252D01*
X66370200Y-71040863D01*
X66162821Y-71121202D01*
X66162816Y-71121205D01*
X65973744Y-71238274D01*
X65809391Y-71388101D01*
X65809387Y-71388106D01*
X65675369Y-71565573D01*
X65675364Y-71565582D01*
X65576239Y-71764652D01*
X65515379Y-71978554D01*
X65500000Y-72144517D01*
X65500000Y-73149999D01*
X65500001Y-73150000D01*
X66300000Y-73150000D01*
X66300000Y-73450000D01*
X65500001Y-73450000D01*
X65500000Y-73450001D01*
X65500000Y-74455482D01*
X61250000Y-74455482D01*
X61250000Y-65795950D01*
X61268907Y-65737759D01*
X61318407Y-65701795D01*
X61349000Y-65696950D01*
X62685101Y-65696950D01*
X62685102Y-65696950D01*
X62685102Y-63385058D01*
X65299500Y-63385058D01*
X65340209Y-63550223D01*
X65340209Y-63550224D01*
X65340210Y-63550225D01*
X65419266Y-63700852D01*
X65532071Y-63828183D01*
X65672070Y-63924818D01*
X65831128Y-63985140D01*
X65935301Y-63997789D01*
X65957618Y-64000499D01*
X65957622Y-64000499D01*
X65957628Y-64000500D01*
X65957632Y-64000500D01*
X66042368Y-64000500D01*
X66042372Y-64000500D01*
X66042378Y-64000499D01*
X66042381Y-64000499D01*
X66052048Y-63999325D01*
X66168872Y-63985140D01*
X66327930Y-63924818D01*
X66467929Y-63828183D01*
X66580734Y-63700852D01*
X66659790Y-63550225D01*
X66700500Y-63385056D01*
X66700500Y-63214944D01*
X66659790Y-63049775D01*
X66580734Y-62899148D01*
X66467929Y-62771817D01*
X66327930Y-62675182D01*
X66168872Y-62614860D01*
X66156222Y-62613324D01*
X66042381Y-62599500D01*
X66042372Y-62599500D01*
X65957628Y-62599500D01*
X65957618Y-62599500D01*
X65831128Y-62614860D01*
X65672070Y-62675182D01*
X65532072Y-62771816D01*
X65532069Y-62771818D01*
X65419267Y-62899146D01*
X65340209Y-63049776D01*
X65299500Y-63214941D01*
X65299500Y-63385058D01*
X62685102Y-63385058D01*
X62685102Y-58985058D01*
X65299500Y-58985058D01*
X65340209Y-59150223D01*
X65340209Y-59150224D01*
X65340210Y-59150225D01*
X65419266Y-59300852D01*
X65532071Y-59428183D01*
X65672070Y-59524818D01*
X65831128Y-59585140D01*
X65935301Y-59597789D01*
X65957618Y-59600499D01*
X65957622Y-59600499D01*
X65957628Y-59600500D01*
X65957632Y-59600500D01*
X66042368Y-59600500D01*
X66042372Y-59600500D01*
X66042378Y-59600499D01*
X66042381Y-59600499D01*
X66052048Y-59599325D01*
X66168872Y-59585140D01*
X66327930Y-59524818D01*
X66467929Y-59428183D01*
X66580734Y-59300852D01*
X66659790Y-59150225D01*
X66700500Y-58985056D01*
X66700500Y-58814944D01*
X66659790Y-58649775D01*
X66580734Y-58499148D01*
X66467929Y-58371817D01*
X66327930Y-58275182D01*
X66168872Y-58214860D01*
X66156222Y-58213324D01*
X66042381Y-58199500D01*
X66042372Y-58199500D01*
X65957628Y-58199500D01*
X65957618Y-58199500D01*
X65831128Y-58214860D01*
X65672070Y-58275182D01*
X65532072Y-58371816D01*
X65532069Y-58371818D01*
X65419267Y-58499146D01*
X65340209Y-58649776D01*
X65299500Y-58814941D01*
X65299500Y-58985058D01*
X62685102Y-58985058D01*
X62685102Y-52753353D01*
X61349000Y-52753353D01*
X61290809Y-52734446D01*
X61254845Y-52684946D01*
X61250000Y-52654353D01*
X61250000Y-44649000D01*
X61268907Y-44590809D01*
X61318407Y-44554845D01*
X61349000Y-44550000D01*
X95651000Y-44550000D01*
X95709191Y-44568907D01*
G37*
%TD.AperFunction*%
%TA.AperFunction,Conductor*%
G36*
X92402594Y-80025515D02*
G01*
X92445859Y-80068780D01*
X92455430Y-80129212D01*
X92452166Y-80143178D01*
X92405686Y-80292337D01*
X92405684Y-80292343D01*
X92399500Y-80360400D01*
X92399500Y-80898454D01*
X92380593Y-80956645D01*
X92370504Y-80968458D01*
X90293458Y-83045504D01*
X90238941Y-83073281D01*
X90223454Y-83074500D01*
X86424209Y-83074500D01*
X86403894Y-83072393D01*
X86400441Y-83071669D01*
X86390731Y-83069633D01*
X86390730Y-83069633D01*
X86374392Y-83071669D01*
X86353978Y-83072091D01*
X86342994Y-83071181D01*
X86342989Y-83071181D01*
X86342628Y-83071272D01*
X86341838Y-83071472D01*
X86317544Y-83074500D01*
X84713192Y-83074500D01*
X84655001Y-83055593D01*
X84652925Y-83054042D01*
X84543198Y-82969846D01*
X84543197Y-82969845D01*
X84543194Y-82969843D01*
X84543191Y-82969842D01*
X84543190Y-82969841D01*
X84409278Y-82914374D01*
X84409277Y-82914373D01*
X84265569Y-82895454D01*
X84121860Y-82914373D01*
X84121859Y-82914374D01*
X83987947Y-82969841D01*
X83987943Y-82969843D01*
X83872950Y-83058081D01*
X83872946Y-83058085D01*
X83784708Y-83173078D01*
X83784706Y-83173082D01*
X83729239Y-83306994D01*
X83729238Y-83306995D01*
X83710319Y-83450703D01*
X83710319Y-83450704D01*
X83729238Y-83594412D01*
X83729239Y-83594413D01*
X83784479Y-83727778D01*
X83784708Y-83728329D01*
X83872948Y-83843325D01*
X83987944Y-83931565D01*
X84121860Y-83987034D01*
X84265569Y-84005954D01*
X84409278Y-83987034D01*
X84543194Y-83931565D01*
X84654759Y-83845957D01*
X84712434Y-83825534D01*
X84715026Y-83825500D01*
X85735714Y-83825500D01*
X85793905Y-83844407D01*
X85829869Y-83893907D01*
X85833867Y-83911578D01*
X85838097Y-83943709D01*
X85856042Y-83987034D01*
X85893566Y-84077625D01*
X85981806Y-84192621D01*
X86096802Y-84280861D01*
X86230718Y-84336330D01*
X86374427Y-84355250D01*
X86518136Y-84336330D01*
X86652052Y-84280861D01*
X86767048Y-84192621D01*
X86855288Y-84077625D01*
X86910757Y-83943709D01*
X86914987Y-83911577D01*
X86941328Y-83856353D01*
X86995098Y-83827158D01*
X87013140Y-83825500D01*
X90370789Y-83825500D01*
X90391104Y-83827607D01*
X90395530Y-83828534D01*
X90404268Y-83830367D01*
X90437217Y-83826260D01*
X90449461Y-83825500D01*
X90451114Y-83825500D01*
X90472147Y-83821989D01*
X90476149Y-83821406D01*
X90528626Y-83814866D01*
X90528628Y-83814864D01*
X90536138Y-83812629D01*
X90543606Y-83810065D01*
X90543610Y-83810065D01*
X90590070Y-83784922D01*
X90593694Y-83783055D01*
X90641211Y-83759826D01*
X90641215Y-83759821D01*
X90647634Y-83755239D01*
X90653822Y-83750422D01*
X90653823Y-83750420D01*
X90653826Y-83750419D01*
X90689629Y-83711525D01*
X90692415Y-83708620D01*
X92566252Y-81834783D01*
X92620768Y-81807008D01*
X92681200Y-81816579D01*
X92687448Y-81820054D01*
X92795730Y-81885512D01*
X92795734Y-81885513D01*
X92795736Y-81885514D01*
X92835908Y-81898032D01*
X92952343Y-81934315D01*
X93020406Y-81940500D01*
X93020412Y-81940500D01*
X95379588Y-81940500D01*
X95379594Y-81940500D01*
X95447657Y-81934315D01*
X95604270Y-81885512D01*
X95604277Y-81885507D01*
X95609728Y-81883055D01*
X95610889Y-81885635D01*
X95659328Y-81874297D01*
X95715722Y-81898032D01*
X95747394Y-81950382D01*
X95750000Y-81972946D01*
X95750000Y-82247053D01*
X95731093Y-82305244D01*
X95681593Y-82341208D01*
X95620407Y-82341208D01*
X95609957Y-82336434D01*
X95609728Y-82336945D01*
X95604263Y-82334485D01*
X95447662Y-82285686D01*
X95447656Y-82285684D01*
X95379599Y-82279500D01*
X95379594Y-82279500D01*
X93020406Y-82279500D01*
X93020400Y-82279500D01*
X92952343Y-82285684D01*
X92952337Y-82285686D01*
X92795736Y-82334485D01*
X92795724Y-82334490D01*
X92655350Y-82419349D01*
X92539349Y-82535350D01*
X92454490Y-82675724D01*
X92454485Y-82675736D01*
X92405686Y-82832337D01*
X92405684Y-82832343D01*
X92399500Y-82900400D01*
X92399500Y-83859599D01*
X92405684Y-83927656D01*
X92405686Y-83927662D01*
X92454485Y-84084263D01*
X92454490Y-84084275D01*
X92539349Y-84224649D01*
X92539350Y-84224650D01*
X92539352Y-84224653D01*
X92655347Y-84340648D01*
X92655349Y-84340649D01*
X92655350Y-84340650D01*
X92795724Y-84425509D01*
X92795727Y-84425510D01*
X92795730Y-84425512D01*
X92795734Y-84425513D01*
X92795736Y-84425514D01*
X92835908Y-84438032D01*
X92952343Y-84474315D01*
X93020406Y-84480500D01*
X93020412Y-84480500D01*
X95379588Y-84480500D01*
X95379594Y-84480500D01*
X95447657Y-84474315D01*
X95604270Y-84425512D01*
X95604277Y-84425507D01*
X95609728Y-84423055D01*
X95610889Y-84425635D01*
X95659328Y-84414297D01*
X95715722Y-84438032D01*
X95747394Y-84490382D01*
X95750000Y-84512946D01*
X95750000Y-84734963D01*
X95731093Y-84793154D01*
X95681593Y-84829118D01*
X95620407Y-84829118D01*
X95619861Y-84828938D01*
X95472606Y-84780144D01*
X95472603Y-84780143D01*
X95373323Y-84770000D01*
X94350001Y-84770000D01*
X94350000Y-84770001D01*
X94350000Y-87069998D01*
X94350001Y-87069999D01*
X95373322Y-87069999D01*
X95472597Y-87059857D01*
X95472609Y-87059854D01*
X95619860Y-87011061D01*
X95681044Y-87010705D01*
X95730753Y-87046380D01*
X95749998Y-87104460D01*
X95750000Y-87105036D01*
X95750000Y-89547053D01*
X95731093Y-89605244D01*
X95681593Y-89641208D01*
X95620407Y-89641208D01*
X95609957Y-89636434D01*
X95609728Y-89636945D01*
X95604263Y-89634485D01*
X95447662Y-89585686D01*
X95447656Y-89585684D01*
X95379599Y-89579500D01*
X95379594Y-89579500D01*
X93020406Y-89579500D01*
X93020400Y-89579500D01*
X92952343Y-89585684D01*
X92952337Y-89585686D01*
X92795736Y-89634485D01*
X92795724Y-89634490D01*
X92655350Y-89719349D01*
X92539349Y-89835350D01*
X92454490Y-89975724D01*
X92454485Y-89975736D01*
X92405686Y-90132337D01*
X92405684Y-90132343D01*
X92399500Y-90200400D01*
X92399500Y-91159599D01*
X92405684Y-91227656D01*
X92405686Y-91227662D01*
X92454485Y-91384263D01*
X92454490Y-91384275D01*
X92539349Y-91524649D01*
X92539350Y-91524650D01*
X92539352Y-91524653D01*
X92655347Y-91640648D01*
X92655349Y-91640649D01*
X92655350Y-91640650D01*
X92795724Y-91725509D01*
X92795727Y-91725510D01*
X92795730Y-91725512D01*
X92795734Y-91725513D01*
X92795736Y-91725514D01*
X92835908Y-91738032D01*
X92952343Y-91774315D01*
X93020406Y-91780500D01*
X93020412Y-91780500D01*
X95379588Y-91780500D01*
X95379594Y-91780500D01*
X95447657Y-91774315D01*
X95604270Y-91725512D01*
X95604277Y-91725507D01*
X95609728Y-91723055D01*
X95610889Y-91725635D01*
X95659328Y-91714297D01*
X95715722Y-91738032D01*
X95747394Y-91790382D01*
X95750000Y-91812946D01*
X95750000Y-92087053D01*
X95731093Y-92145244D01*
X95681593Y-92181208D01*
X95620407Y-92181208D01*
X95609957Y-92176434D01*
X95609728Y-92176945D01*
X95604263Y-92174485D01*
X95447662Y-92125686D01*
X95447656Y-92125684D01*
X95379599Y-92119500D01*
X95379594Y-92119500D01*
X93020406Y-92119500D01*
X93020400Y-92119500D01*
X92952343Y-92125684D01*
X92952337Y-92125686D01*
X92795736Y-92174485D01*
X92795724Y-92174490D01*
X92655350Y-92259349D01*
X92539349Y-92375350D01*
X92454490Y-92515724D01*
X92454485Y-92515736D01*
X92405686Y-92672337D01*
X92405684Y-92672343D01*
X92399500Y-92740400D01*
X92399500Y-93699599D01*
X92405684Y-93767656D01*
X92405686Y-93767662D01*
X92454485Y-93924263D01*
X92454490Y-93924275D01*
X92539349Y-94064649D01*
X92539350Y-94064650D01*
X92539352Y-94064653D01*
X92655347Y-94180648D01*
X92655349Y-94180649D01*
X92655350Y-94180650D01*
X92795724Y-94265509D01*
X92795727Y-94265510D01*
X92795730Y-94265512D01*
X92795734Y-94265513D01*
X92795736Y-94265514D01*
X92802135Y-94267508D01*
X92952343Y-94314315D01*
X93020406Y-94320500D01*
X93020412Y-94320500D01*
X95379588Y-94320500D01*
X95379594Y-94320500D01*
X95447657Y-94314315D01*
X95604270Y-94265512D01*
X95604277Y-94265507D01*
X95609728Y-94263055D01*
X95610889Y-94265635D01*
X95659328Y-94254297D01*
X95715722Y-94278032D01*
X95747394Y-94330382D01*
X95750000Y-94352946D01*
X95750000Y-94627053D01*
X95731093Y-94685244D01*
X95681593Y-94721208D01*
X95620407Y-94721208D01*
X95609957Y-94716434D01*
X95609728Y-94716945D01*
X95604263Y-94714485D01*
X95447662Y-94665686D01*
X95447656Y-94665684D01*
X95379599Y-94659500D01*
X95379594Y-94659500D01*
X93020406Y-94659500D01*
X93020400Y-94659500D01*
X92952343Y-94665684D01*
X92893406Y-94684050D01*
X92832225Y-94683310D01*
X92783164Y-94646750D01*
X92781075Y-94643681D01*
X92780084Y-94642164D01*
X92753885Y-94621772D01*
X92744699Y-94613661D01*
X92743518Y-94612480D01*
X92743514Y-94612477D01*
X92743512Y-94612475D01*
X92726172Y-94600096D01*
X92722886Y-94597646D01*
X92719665Y-94595139D01*
X92697199Y-94577652D01*
X92681190Y-94565191D01*
X92674281Y-94561452D01*
X92667197Y-94557989D01*
X92616551Y-94542911D01*
X92612656Y-94541663D01*
X92562659Y-94524499D01*
X92554923Y-94523208D01*
X92547089Y-94522232D01*
X92547088Y-94522232D01*
X92547086Y-94522232D01*
X92494299Y-94524415D01*
X92490208Y-94524500D01*
X92346545Y-94524500D01*
X92288354Y-94505593D01*
X92276541Y-94495504D01*
X90479583Y-92698545D01*
X90451806Y-92644028D01*
X90458125Y-92590651D01*
X90461830Y-92581709D01*
X90480750Y-92438000D01*
X90471693Y-92369210D01*
X90461830Y-92294291D01*
X90406361Y-92160375D01*
X90318121Y-92045379D01*
X90203125Y-91957139D01*
X90203121Y-91957137D01*
X90069209Y-91901670D01*
X90069208Y-91901669D01*
X89925500Y-91882750D01*
X89781791Y-91901669D01*
X89781791Y-91901670D01*
X89768125Y-91907330D01*
X89707128Y-91912127D01*
X89654960Y-91880155D01*
X89643178Y-91862986D01*
X89634907Y-91847702D01*
X89633044Y-91844081D01*
X89626603Y-91830907D01*
X89609826Y-91796589D01*
X89609825Y-91796588D01*
X89605271Y-91790209D01*
X89600418Y-91783973D01*
X89596644Y-91780499D01*
X89561526Y-91748170D01*
X89558598Y-91745361D01*
X85422911Y-87609673D01*
X85410035Y-87593816D01*
X85402684Y-87582564D01*
X85376488Y-87562175D01*
X85367299Y-87554061D01*
X85366118Y-87552880D01*
X85366114Y-87552877D01*
X85366112Y-87552875D01*
X85348772Y-87540496D01*
X85345486Y-87538046D01*
X85303790Y-87505591D01*
X85296881Y-87501852D01*
X85289797Y-87498389D01*
X85239151Y-87483311D01*
X85235256Y-87482063D01*
X85185259Y-87464899D01*
X85177523Y-87463608D01*
X85169689Y-87462632D01*
X85169688Y-87462632D01*
X85169686Y-87462632D01*
X85116899Y-87464815D01*
X85112808Y-87464900D01*
X82183000Y-87464900D01*
X82124809Y-87445993D01*
X82088845Y-87396493D01*
X82087779Y-87338809D01*
X82126397Y-87203083D01*
X82145215Y-87000000D01*
X82126397Y-86796917D01*
X82070582Y-86600750D01*
X81979673Y-86418179D01*
X81856764Y-86255421D01*
X81706041Y-86118019D01*
X81532637Y-86010652D01*
X81342456Y-85936976D01*
X81342455Y-85936975D01*
X81342453Y-85936975D01*
X81141976Y-85899500D01*
X80938024Y-85899500D01*
X80737546Y-85936975D01*
X80667632Y-85964059D01*
X80547363Y-86010652D01*
X80373959Y-86118019D01*
X80373956Y-86118021D01*
X80322595Y-86164843D01*
X80266854Y-86190073D01*
X80206929Y-86177721D01*
X80165709Y-86132504D01*
X80156900Y-86091681D01*
X80156900Y-85915143D01*
X80175807Y-85856952D01*
X80185890Y-85845146D01*
X80526491Y-85504544D01*
X80581006Y-85476768D01*
X80632252Y-85482233D01*
X80737544Y-85523024D01*
X80938024Y-85560500D01*
X81141976Y-85560500D01*
X81342456Y-85523024D01*
X81532637Y-85449348D01*
X81706041Y-85341981D01*
X81856764Y-85204579D01*
X81979673Y-85041821D01*
X82055142Y-84890256D01*
X82098004Y-84846594D01*
X82158345Y-84836464D01*
X82213116Y-84863736D01*
X82238831Y-84906761D01*
X82248255Y-84939195D01*
X82248256Y-84939199D01*
X82260061Y-84959160D01*
X82266894Y-84973108D01*
X82275430Y-84994666D01*
X82275432Y-84994671D01*
X82275433Y-84994672D01*
X82302961Y-85032564D01*
X82308078Y-85040354D01*
X82331920Y-85080666D01*
X82348318Y-85097064D01*
X82358407Y-85108877D01*
X82372036Y-85127637D01*
X82408116Y-85157484D01*
X82415015Y-85163761D01*
X83565866Y-86314612D01*
X83577334Y-86328372D01*
X83583517Y-86337330D01*
X83583520Y-86337332D01*
X83583522Y-86337335D01*
X83625686Y-86374688D01*
X83630025Y-86378771D01*
X83642965Y-86391711D01*
X83655998Y-86401821D01*
X83660934Y-86405915D01*
X83676833Y-86420000D01*
X83701755Y-86442079D01*
X83701756Y-86442080D01*
X83701760Y-86442083D01*
X83701762Y-86442084D01*
X83701764Y-86442085D01*
X83713007Y-86447986D01*
X83727677Y-86457420D01*
X83740236Y-86467162D01*
X83786096Y-86487007D01*
X83789865Y-86488638D01*
X83796555Y-86491836D01*
X83807014Y-86497325D01*
X83841635Y-86515496D01*
X83857526Y-86519412D01*
X83873137Y-86524673D01*
X83891073Y-86532435D01*
X83891075Y-86532435D01*
X83891078Y-86532436D01*
X83940898Y-86540326D01*
X83949101Y-86541983D01*
X83995015Y-86553300D01*
X84015019Y-86553300D01*
X84030505Y-86554519D01*
X84053405Y-86558146D01*
X84095616Y-86554155D01*
X84100027Y-86553739D01*
X84109343Y-86553300D01*
X84152983Y-86553300D01*
X84152985Y-86553300D01*
X84175945Y-86547640D01*
X84190319Y-86545203D01*
X84217029Y-86542679D01*
X84257676Y-86528044D01*
X84267487Y-86525077D01*
X84306365Y-86515496D01*
X84330531Y-86502811D01*
X84343004Y-86497325D01*
X84363040Y-86490112D01*
X84371668Y-86487006D01*
X84404403Y-86464758D01*
X84414015Y-86458995D01*
X84446240Y-86442083D01*
X84469393Y-86421570D01*
X84479383Y-86413801D01*
X84507602Y-86394625D01*
X84531361Y-86367673D01*
X84539970Y-86359045D01*
X84564483Y-86337330D01*
X84584127Y-86308869D01*
X84591325Y-86299659D01*
X84616291Y-86271341D01*
X84630948Y-86242572D01*
X84637681Y-86231282D01*
X84654220Y-86207323D01*
X84667768Y-86171596D01*
X84672119Y-86161771D01*
X84690907Y-86124900D01*
X84697158Y-86096928D01*
X84701200Y-86083443D01*
X84710237Y-86059618D01*
X84715280Y-86018072D01*
X84716938Y-86008436D01*
X84726760Y-85964503D01*
X84725974Y-85939505D01*
X84726647Y-85924463D01*
X84729278Y-85902800D01*
X84723795Y-85857644D01*
X84723125Y-85848859D01*
X84721597Y-85800230D01*
X84715637Y-85779716D01*
X84712428Y-85764030D01*
X84710237Y-85745982D01*
X84692820Y-85700059D01*
X84690328Y-85692602D01*
X84675744Y-85642401D01*
X84666723Y-85627147D01*
X84659371Y-85611860D01*
X84656391Y-85604003D01*
X84654220Y-85598277D01*
X84624264Y-85554878D01*
X84620535Y-85549048D01*
X84592081Y-85500935D01*
X84592080Y-85500934D01*
X84582133Y-85490986D01*
X84570663Y-85477223D01*
X84564484Y-85468271D01*
X84522313Y-85430911D01*
X84517958Y-85426812D01*
X83741146Y-84650000D01*
X84469750Y-84650000D01*
X84488669Y-84793708D01*
X84488670Y-84793709D01*
X84515817Y-84859250D01*
X84544139Y-84927625D01*
X84632379Y-85042621D01*
X84632383Y-85042624D01*
X84632384Y-85042625D01*
X84688848Y-85085951D01*
X84708973Y-85110560D01*
X84710408Y-85109536D01*
X84719736Y-85122601D01*
X84724579Y-85128823D01*
X84724581Y-85128826D01*
X84763473Y-85164629D01*
X84766400Y-85167437D01*
X89695504Y-90096541D01*
X89723281Y-90151058D01*
X89724500Y-90166545D01*
X89724500Y-90231460D01*
X89705593Y-90289651D01*
X89704042Y-90291728D01*
X89619139Y-90402374D01*
X89619137Y-90402378D01*
X89563670Y-90536290D01*
X89563669Y-90536291D01*
X89544750Y-90679999D01*
X89544750Y-90680000D01*
X89563669Y-90823708D01*
X89563670Y-90823709D01*
X89611287Y-90938670D01*
X89619139Y-90957625D01*
X89707379Y-91072621D01*
X89822375Y-91160861D01*
X89956291Y-91216330D01*
X90100000Y-91235250D01*
X90243709Y-91216330D01*
X90377625Y-91160861D01*
X90492621Y-91072621D01*
X90580861Y-90957625D01*
X90636330Y-90823709D01*
X90655250Y-90680000D01*
X90636330Y-90536291D01*
X90580861Y-90402375D01*
X90495957Y-90291727D01*
X90475534Y-90234052D01*
X90475500Y-90231460D01*
X90475500Y-90019210D01*
X90477607Y-89998895D01*
X90480367Y-89985732D01*
X90476260Y-89952782D01*
X90475500Y-89940538D01*
X90475500Y-89938885D01*
X90474888Y-89935224D01*
X90471990Y-89917857D01*
X90471405Y-89913839D01*
X90464866Y-89861374D01*
X90464864Y-89861370D01*
X90462626Y-89853850D01*
X90460066Y-89846392D01*
X90460065Y-89846390D01*
X90434896Y-89799881D01*
X90433044Y-89796281D01*
X90431709Y-89793550D01*
X90409826Y-89748789D01*
X90409825Y-89748788D01*
X90405271Y-89742409D01*
X90400418Y-89736173D01*
X90397454Y-89733444D01*
X90361526Y-89700370D01*
X90358598Y-89697561D01*
X86431037Y-85769999D01*
X92350000Y-85769999D01*
X92350001Y-85770000D01*
X93222935Y-85770000D01*
X93200000Y-85848111D01*
X93200000Y-85991889D01*
X93222935Y-86070000D01*
X92350002Y-86070000D01*
X92350001Y-86070001D01*
X92350001Y-86393322D01*
X92360142Y-86492597D01*
X92360145Y-86492609D01*
X92413454Y-86653487D01*
X92502425Y-86797729D01*
X92622270Y-86917574D01*
X92766512Y-87006545D01*
X92927396Y-87059856D01*
X93026676Y-87069999D01*
X94049998Y-87069999D01*
X94050000Y-87069998D01*
X94050000Y-86278318D01*
X94081761Y-86250798D01*
X94159493Y-86129844D01*
X94200000Y-85991889D01*
X94200000Y-85848111D01*
X94159493Y-85710156D01*
X94081761Y-85589202D01*
X94050000Y-85561681D01*
X94050000Y-84770001D01*
X94049999Y-84770000D01*
X93026677Y-84770000D01*
X92927402Y-84780142D01*
X92927390Y-84780145D01*
X92766512Y-84833454D01*
X92622270Y-84922425D01*
X92502425Y-85042270D01*
X92413454Y-85186512D01*
X92360143Y-85347396D01*
X92350000Y-85446676D01*
X92350000Y-85769999D01*
X86431037Y-85769999D01*
X85576887Y-84915849D01*
X85549110Y-84861332D01*
X85555426Y-84807960D01*
X85561330Y-84793709D01*
X85580250Y-84650000D01*
X85561330Y-84506291D01*
X85505861Y-84372375D01*
X85417621Y-84257379D01*
X85302625Y-84169139D01*
X85302621Y-84169137D01*
X85168709Y-84113670D01*
X85168708Y-84113669D01*
X85025000Y-84094750D01*
X84881291Y-84113669D01*
X84881290Y-84113670D01*
X84747378Y-84169137D01*
X84747374Y-84169139D01*
X84632381Y-84257377D01*
X84632377Y-84257381D01*
X84544139Y-84372374D01*
X84544137Y-84372378D01*
X84488670Y-84506290D01*
X84488669Y-84506291D01*
X84469750Y-84649999D01*
X84469750Y-84650000D01*
X83741146Y-84650000D01*
X83529496Y-84438350D01*
X83501719Y-84383833D01*
X83500500Y-84368346D01*
X83500500Y-82386948D01*
X83519407Y-82328757D01*
X83568907Y-82292793D01*
X83599500Y-82287948D01*
X89670668Y-82287948D01*
X89685015Y-82288993D01*
X89710575Y-82292737D01*
X89761007Y-82288324D01*
X89769635Y-82287948D01*
X89776253Y-82287948D01*
X89776261Y-82287948D01*
X89807435Y-82284303D01*
X89810243Y-82284017D01*
X89847409Y-82280765D01*
X89885341Y-82277448D01*
X89885341Y-82277447D01*
X89885349Y-82277447D01*
X89886239Y-82277151D01*
X89905884Y-82272796D01*
X89906807Y-82272689D01*
X89906810Y-82272688D01*
X89906811Y-82272688D01*
X89977635Y-82246910D01*
X89980311Y-82245979D01*
X90051886Y-82222262D01*
X90052669Y-82221778D01*
X90070797Y-82213002D01*
X90071669Y-82212685D01*
X90134660Y-82171254D01*
X90137034Y-82169741D01*
X90201208Y-82130160D01*
X90201860Y-82129506D01*
X90217481Y-82116781D01*
X90218248Y-82116278D01*
X90269970Y-82061454D01*
X90271909Y-82059457D01*
X92287647Y-80043719D01*
X92342162Y-80015944D01*
X92402594Y-80025515D01*
G37*
%TD.AperFunction*%
%TD*%
%TA.AperFunction,Conductor*%
%TO.N,GND*%
G36*
X89230200Y-93197633D02*
G01*
X89230200Y-96850200D01*
X85166200Y-96850200D01*
X85166200Y-93014800D01*
X89047367Y-93014800D01*
X89230200Y-93197633D01*
G37*
%TD.AperFunction*%
%TD*%
%TA.AperFunction,Conductor*%
%TO.N,GND*%
G36*
X72059800Y-96596200D02*
G01*
X67564000Y-96596200D01*
X67564000Y-93831427D01*
X67710883Y-93710883D01*
X67835910Y-93558538D01*
X67922895Y-93395800D01*
X72059800Y-93395800D01*
X72059800Y-96596200D01*
G37*
%TD.AperFunction*%
%TD*%
%TA.AperFunction,Conductor*%
%TO.N,VS*%
G36*
X76467180Y-71118907D02*
G01*
X76478997Y-71129001D01*
X78041008Y-72691204D01*
X78068782Y-72745722D01*
X78070000Y-72761203D01*
X78070000Y-78971000D01*
X78051093Y-79029191D01*
X78001593Y-79065155D01*
X77971000Y-79070000D01*
X76479000Y-79070000D01*
X76420809Y-79051093D01*
X76384845Y-79001593D01*
X76380000Y-78971000D01*
X76380000Y-76580001D01*
X76380000Y-76580000D01*
X75300000Y-75500000D01*
X75299999Y-75500000D01*
X71709000Y-75500000D01*
X71650809Y-75481093D01*
X71614845Y-75431593D01*
X71610000Y-75401000D01*
X71610000Y-71199000D01*
X71628907Y-71140809D01*
X71678407Y-71104845D01*
X71709000Y-71100000D01*
X76408989Y-71100000D01*
X76467180Y-71118907D01*
G37*
%TD.AperFunction*%
%TD*%
M02*
